%TF.GenerationSoftware,Novarm,DipTrace,3.0.0.2*%
%TF.CreationDate,2017-10-23T18:09:59+01:00*%
%FSLAX35Y35*%
%MOMM*%
%TF.FileFunction,Plated,1,2,PTH,Drill*%
%TF.Part,Single*%
%AMOVALDIP*
21,1,$1,$2,0.0,0.0,$7*
1,1,$8,$3,$4*
1,1,$8,$5,$6*%
%TA.AperFunction,ViaDrill*%
%ADD16C,0.3*%
%TA.AperFunction,ComponentDrill*%
%ADD128OVALDIP,0.3 X0.55 X0.15 X0.0 X-0.15 X0.0 X0.0 X0.55*%
%ADD129OVALDIP,0.5 X0.65 X0.0 X0.325 X0.0 X-0.325 X0.0 X0.5*%
G75*
G01*
D128*
X8830300Y7869806D3*
X8330300D3*
D129*
X8230300Y8139806D3*
X8930300D3*
D16*
X5766697Y6151836D3*
X6048947Y5935212D3*
X5748297Y5634419D3*
X6022793Y5654142D3*
X6072470Y5723629D3*
X6139003Y5786456D3*
X6237397Y5884879D3*
X6328763Y5899086D3*
X6358130Y5671409D3*
X6358890Y5757272D3*
X6485490Y5674842D3*
X6564480Y5639509D3*
X6389573Y5837266D3*
X6420217Y5917502D3*
X6589257Y5804466D3*
X6518113Y5853846D3*
X6574687Y5927342D3*
X6494707Y5959329D3*
X7032283Y5980812D3*
X7028897Y6075576D3*
X6544300Y6208309D3*
X6481807Y6111606D3*
X6258340Y6104606D3*
X6173000Y6088609D3*
X6085713Y6224309D3*
X5732313Y6033366D3*
X6048087Y5805182D3*
X5891097Y7375012D3*
X5784187Y9224649D3*
X8990373Y2823679D3*
X6778500Y5045386D3*
X6241403Y5046472D3*
X10652000Y3236429D3*
X6873750Y4252429D3*
X6516090D3*
X3127250Y2410772D3*
X1326000Y3268179D3*
X4212240Y3484939D3*
X8175500Y3998429D3*
X7132050Y5026799D3*
X7053403Y6231776D3*
X9890000Y5300179D3*
X7004500Y5147716D3*
X5486387Y5141429D3*
X2873250Y5204929D3*
X8450300Y7744929D3*
X8334250Y7776679D3*
X8524697Y7542009D3*
X5626223Y6314946D3*
X7469247Y6248382D3*
X7196040Y6110482D3*
X6583773Y6629072D3*
X7196040Y6427219D3*
X5889500Y6889182D3*
X6143930D3*
X7364330Y8339686D3*
X5484417Y6053022D3*
X5858600Y6275976D3*
X6651500Y6874996D3*
X6875830D3*
Y6530806D3*
X5762500Y6531782D3*
X6871443Y5293549D3*
X7424147D3*
X7740943Y6891979D3*
X6047047Y7614949D3*
X7132913Y7687902D3*
X5895123Y5015132D3*
X5320543Y5107396D3*
X5797517Y7245602D3*
X6500267Y7353896D3*
X6791263Y8199479D3*
X7616487Y8328389D3*
X7005540Y6158819D3*
X7247713Y6243329D3*
X7681057Y8205512D3*
X5314540Y4394246D3*
X5479387Y5661886D3*
X6593820Y4934066D3*
X6101467Y6138729D3*
X8074637Y6308689D3*
X6818170Y3162636D3*
X7403140Y4455632D3*
X5879587Y4202976D3*
X4536790Y5292386D3*
X6747593Y6594846D3*
X7467957D3*
X4356347Y2079742D3*
X4556000Y3331679D3*
X4905250Y3585679D3*
X5222750D3*
X6254917Y6527059D3*
Y6929102D3*
X6257787Y8105682D3*
X6842000Y4149772D3*
X6342687Y6528189D3*
Y7001892D3*
Y8171676D3*
X7840517Y2371846D3*
X8561087Y7745952D3*
X8664240Y7745956D3*
X4814887Y6609186D3*
X8145497Y6884632D3*
X4212443Y7251539D3*
X5764520Y8803616D3*
X6478943Y7044009D3*
X8710300Y7461976D3*
M02*
