%TF.GenerationSoftware,Novarm,DipTrace,3.0.0.2*%
%TF.CreationDate,2017-10-23T18:09:51+01:00*%
%FSLAX35Y35*%
%MOMM*%
%TF.FileFunction,Drawing,Top*%
%TF.Part,Single*%
%ADD10C,0.25*%
%ADD20C,0.03333*%
%ADD23O,0.4006X0.3995*%
%ADD24C,0.1*%
%ADD25O,0.4002X0.39973*%
%ADD27O,0.39973X0.4002*%
G75*
G01*
%LPD*%
D23*
X5007967Y5531272D3*
X5262951Y5191286D2*
D10*
G02X5262951Y5191286I165043J0D01*
G01*
X5307986Y5261250D2*
D24*
X5548002D1*
X5307986Y5121254D2*
X5548002D1*
X5427994Y5261250D2*
Y5246209D1*
Y5121254D2*
Y5136295D1*
X5418043Y5236238D2*
X5418068Y5236934D1*
X5418140Y5237626D1*
X5418261Y5238311D1*
X5418429Y5238987D1*
X5418644Y5239648D1*
X5418904Y5240294D1*
X5419208Y5240919D1*
X5419555Y5241522D1*
X5419944Y5242099D1*
X5420371Y5242647D1*
X5420836Y5243164D1*
X5421336Y5243648D1*
X5421868Y5244095D1*
X5422430Y5244504D1*
X5423019Y5244873D1*
X5423632Y5245199D1*
X5424266Y5245483D1*
X5424919Y5245721D1*
X5425587Y5245912D1*
X5426266Y5246057D1*
X5426954Y5246154D1*
X5427647Y5246202D1*
X5428341D1*
X5429034Y5246154D1*
X5429722Y5246057D1*
X5430401Y5245912D1*
X5431069Y5245721D1*
X5431722Y5245483D1*
X5432356Y5245199D1*
X5432969Y5244873D1*
X5433558Y5244504D1*
X5434120Y5244095D1*
X5434652Y5243648D1*
X5435152Y5243164D1*
X5435617Y5242647D1*
X5436044Y5242099D1*
X5436433Y5241522D1*
X5436780Y5240919D1*
X5437084Y5240294D1*
X5437345Y5239648D1*
X5437559Y5238987D1*
X5437727Y5238311D1*
X5437848Y5237626D1*
X5437920Y5236934D1*
X5437945Y5236238D1*
X5437920Y5235543D1*
X5437848Y5234851D1*
X5437727Y5234165D1*
X5437559Y5233490D1*
X5437345Y5232828D1*
X5437084Y5232183D1*
X5436780Y5231558D1*
X5436433Y5230955D1*
X5436044Y5230378D1*
X5435617Y5229830D1*
X5435152Y5229313D1*
X5434652Y5228829D1*
X5434120Y5228382D1*
X5433558Y5227973D1*
X5432969Y5227604D1*
X5432356Y5227277D1*
X5431722Y5226994D1*
X5431069Y5226756D1*
X5430401Y5226564D1*
X5429722Y5226420D1*
X5429034Y5226323D1*
X5428341Y5226274D1*
X5427647D1*
X5426954Y5226323D1*
X5426266Y5226420D1*
X5425587Y5226564D1*
X5424919Y5226756D1*
X5424266Y5226994D1*
X5423632Y5227277D1*
X5423019Y5227604D1*
X5422430Y5227973D1*
X5421868Y5228382D1*
X5421336Y5228829D1*
X5420836Y5229313D1*
X5420371Y5229830D1*
X5419944Y5230378D1*
X5419555Y5230955D1*
X5419208Y5231558D1*
X5418904Y5232183D1*
X5418644Y5232828D1*
X5418429Y5233490D1*
X5418261Y5234165D1*
X5418140Y5234851D1*
X5418068Y5235543D1*
X5418043Y5236238D1*
Y5151302D2*
X5418068Y5151998D1*
X5418140Y5152690D1*
X5418261Y5153375D1*
X5418429Y5154050D1*
X5418644Y5154712D1*
X5418904Y5155357D1*
X5419208Y5155983D1*
X5419555Y5156586D1*
X5419944Y5157163D1*
X5420371Y5157711D1*
X5420836Y5158228D1*
X5421336Y5158712D1*
X5421868Y5159159D1*
X5422430Y5159568D1*
X5423019Y5159937D1*
X5423632Y5160263D1*
X5424266Y5160546D1*
X5424919Y5160784D1*
X5425587Y5160976D1*
X5426266Y5161121D1*
X5426954Y5161218D1*
X5427647Y5161266D1*
X5428341D1*
X5429034Y5161218D1*
X5429722Y5161121D1*
X5430401Y5160976D1*
X5431069Y5160784D1*
X5431722Y5160546D1*
X5432356Y5160263D1*
X5432969Y5159937D1*
X5433558Y5159568D1*
X5434120Y5159159D1*
X5434652Y5158712D1*
X5435152Y5158228D1*
X5435617Y5157711D1*
X5436044Y5157163D1*
X5436433Y5156586D1*
X5436780Y5155983D1*
X5437084Y5155357D1*
X5437345Y5154712D1*
X5437559Y5154050D1*
X5437727Y5153375D1*
X5437848Y5152690D1*
X5437920Y5151998D1*
X5437945Y5151302D1*
X5437920Y5150607D1*
X5437848Y5149915D1*
X5437727Y5149229D1*
X5437559Y5148554D1*
X5437345Y5147892D1*
X5437084Y5147247D1*
X5436780Y5146622D1*
X5436433Y5146019D1*
X5436044Y5145442D1*
X5435617Y5144894D1*
X5435152Y5144376D1*
X5434652Y5143893D1*
X5434120Y5143446D1*
X5433558Y5143037D1*
X5432969Y5142668D1*
X5432356Y5142341D1*
X5431722Y5142058D1*
X5431069Y5141820D1*
X5430401Y5141628D1*
X5429722Y5141484D1*
X5429034Y5141387D1*
X5428341Y5141338D1*
X5427647D1*
X5426954Y5141387D1*
X5426266Y5141484D1*
X5425587Y5141628D1*
X5424919Y5141820D1*
X5424266Y5142058D1*
X5423632Y5142341D1*
X5423019Y5142668D1*
X5422430Y5143037D1*
X5421868Y5143446D1*
X5421336Y5143893D1*
X5420836Y5144376D1*
X5420371Y5144894D1*
X5419944Y5145442D1*
X5419555Y5146019D1*
X5419208Y5146622D1*
X5418904Y5147247D1*
X5418644Y5147892D1*
X5418429Y5148554D1*
X5418261Y5149229D1*
X5418140Y5149915D1*
X5418068Y5150607D1*
X5418043Y5151302D1*
X5427994Y5226268D2*
X5392995Y5146231D1*
X5127932Y5521233D2*
D10*
X5727970D1*
Y4861271D1*
X5127932D1*
Y5521233D1*
D25*
X2311010Y4341222D3*
X2485994Y4761280D2*
D10*
X2486396Y4772793D1*
X2487600Y4784249D1*
X2489600Y4795593D1*
X2492386Y4806771D1*
X2495946Y4817726D1*
X2500260Y4828407D1*
X2505309Y4838761D1*
X2511068Y4848737D1*
X2517509Y4858287D1*
X2524600Y4867365D1*
X2532307Y4875925D1*
X2540592Y4883927D1*
X2549415Y4891332D1*
X2558733Y4898103D1*
X2568501Y4904207D1*
X2578670Y4909615D1*
X2589192Y4914301D1*
X2600016Y4918241D1*
X2611087Y4921416D1*
X2622353Y4923811D1*
X2633759Y4925414D1*
X2645249Y4926218D1*
X2656766D1*
X2668256Y4925414D1*
X2679662Y4923811D1*
X2690928Y4921416D1*
X2701999Y4918241D1*
X2712823Y4914301D1*
X2723345Y4909615D1*
X2733514Y4904207D1*
X2743282Y4898103D1*
X2752600Y4891332D1*
X2761423Y4883927D1*
X2769708Y4875925D1*
X2777415Y4867365D1*
X2784506Y4858287D1*
X2790947Y4848737D1*
X2796706Y4838761D1*
X2801755Y4828407D1*
X2806069Y4817726D1*
X2809629Y4806771D1*
X2812415Y4795593D1*
X2814415Y4784249D1*
X2815619Y4772793D1*
X2816021Y4761280D1*
X2815619Y4749768D1*
X2814415Y4738311D1*
X2812415Y4726967D1*
X2809629Y4715789D1*
X2806069Y4704834D1*
X2801755Y4694153D1*
X2796706Y4683799D1*
X2790947Y4673823D1*
X2784506Y4664273D1*
X2777415Y4655196D1*
X2769708Y4646635D1*
X2761423Y4638633D1*
X2752600Y4631228D1*
X2743282Y4624457D1*
X2733514Y4618353D1*
X2723345Y4612945D1*
X2712823Y4608259D1*
X2701999Y4604319D1*
X2690928Y4601144D1*
X2679662Y4598749D1*
X2668256Y4597146D1*
X2656766Y4596342D1*
X2645249D1*
X2633759Y4597146D1*
X2622353Y4598749D1*
X2611087Y4601144D1*
X2600016Y4604319D1*
X2589192Y4608259D1*
X2578670Y4612945D1*
X2568501Y4618353D1*
X2558733Y4624457D1*
X2549415Y4631228D1*
X2540592Y4638633D1*
X2532307Y4646635D1*
X2524600Y4655196D1*
X2517509Y4664273D1*
X2511068Y4673823D1*
X2505309Y4683799D1*
X2500260Y4694153D1*
X2495946Y4704834D1*
X2492386Y4715789D1*
X2489600Y4726967D1*
X2487600Y4738311D1*
X2486396Y4749768D1*
X2485994Y4761280D1*
X2581007Y4641276D2*
D24*
Y4881284D1*
X2721008Y4641276D2*
Y4881284D1*
X2581007Y4761280D2*
X2596049D1*
X2721008D2*
X2705966D1*
X2596049D2*
X2596073Y4761974D1*
X2596146Y4762665D1*
X2596267Y4763349D1*
X2596435Y4764023D1*
X2596650Y4764683D1*
X2596911Y4765327D1*
X2597216Y4765952D1*
X2597564Y4766553D1*
X2597953Y4767129D1*
X2598382Y4767676D1*
X2598847Y4768192D1*
X2599348Y4768675D1*
X2599881Y4769121D1*
X2600444Y4769529D1*
X2601034Y4769897D1*
X2601649Y4770223D1*
X2602284Y4770506D1*
X2602938Y4770743D1*
X2603607Y4770935D1*
X2604288Y4771079D1*
X2604977Y4771176D1*
X2605672Y4771224D1*
X2606367D1*
X2607062Y4771176D1*
X2607751Y4771079D1*
X2608432Y4770935D1*
X2609101Y4770743D1*
X2609755Y4770506D1*
X2610390Y4770223D1*
X2611005Y4769897D1*
X2611595Y4769529D1*
X2612158Y4769121D1*
X2612691Y4768675D1*
X2613192Y4768192D1*
X2613657Y4767676D1*
X2614086Y4767129D1*
X2614475Y4766553D1*
X2614823Y4765952D1*
X2615128Y4765327D1*
X2615389Y4764683D1*
X2615604Y4764023D1*
X2615772Y4763349D1*
X2615893Y4762665D1*
X2615966Y4761974D1*
X2615990Y4761280D1*
X2615966Y4760586D1*
X2615893Y4759895D1*
X2615772Y4759211D1*
X2615604Y4758537D1*
X2615389Y4757877D1*
X2615128Y4757233D1*
X2614823Y4756609D1*
X2614475Y4756007D1*
X2614086Y4755431D1*
X2613657Y4754884D1*
X2613192Y4754368D1*
X2612691Y4753886D1*
X2612158Y4753439D1*
X2611595Y4753031D1*
X2611005Y4752663D1*
X2610390Y4752337D1*
X2609755Y4752054D1*
X2609101Y4751817D1*
X2608432Y4751625D1*
X2607751Y4751481D1*
X2607062Y4751384D1*
X2606367Y4751336D1*
X2605672D1*
X2604977Y4751384D1*
X2604288Y4751481D1*
X2603607Y4751625D1*
X2602938Y4751817D1*
X2602284Y4752054D1*
X2601649Y4752337D1*
X2601034Y4752663D1*
X2600444Y4753031D1*
X2599881Y4753439D1*
X2599348Y4753886D1*
X2598847Y4754368D1*
X2598382Y4754884D1*
X2597953Y4755431D1*
X2597564Y4756007D1*
X2597216Y4756609D1*
X2596911Y4757233D1*
X2596650Y4757877D1*
X2596435Y4758537D1*
X2596267Y4759211D1*
X2596146Y4759895D1*
X2596073Y4760586D1*
X2596049Y4761280D1*
X2680988D2*
X2681012Y4761974D1*
X2681085Y4762665D1*
X2681206Y4763349D1*
X2681374Y4764023D1*
X2681589Y4764683D1*
X2681850Y4765327D1*
X2682155Y4765952D1*
X2682503Y4766553D1*
X2682892Y4767129D1*
X2683321Y4767676D1*
X2683786Y4768192D1*
X2684287Y4768675D1*
X2684820Y4769121D1*
X2685383Y4769529D1*
X2685973Y4769897D1*
X2686588Y4770223D1*
X2687223Y4770506D1*
X2687877Y4770743D1*
X2688546Y4770935D1*
X2689227Y4771079D1*
X2689916Y4771176D1*
X2690611Y4771224D1*
X2691306D1*
X2692001Y4771176D1*
X2692690Y4771079D1*
X2693371Y4770935D1*
X2694040Y4770743D1*
X2694694Y4770506D1*
X2695329Y4770223D1*
X2695944Y4769897D1*
X2696534Y4769529D1*
X2697097Y4769121D1*
X2697630Y4768675D1*
X2698131Y4768192D1*
X2698596Y4767676D1*
X2699025Y4767129D1*
X2699414Y4766553D1*
X2699762Y4765952D1*
X2700067Y4765327D1*
X2700328Y4764683D1*
X2700543Y4764023D1*
X2700711Y4763349D1*
X2700832Y4762665D1*
X2700905Y4761974D1*
X2700929Y4761280D1*
X2700905Y4760586D1*
X2700832Y4759895D1*
X2700711Y4759211D1*
X2700543Y4758537D1*
X2700328Y4757877D1*
X2700067Y4757233D1*
X2699762Y4756609D1*
X2699414Y4756007D1*
X2699025Y4755431D1*
X2698596Y4754884D1*
X2698131Y4754368D1*
X2697630Y4753886D1*
X2697097Y4753439D1*
X2696534Y4753031D1*
X2695944Y4752663D1*
X2695329Y4752337D1*
X2694694Y4752054D1*
X2694040Y4751817D1*
X2693371Y4751625D1*
X2692690Y4751481D1*
X2692001Y4751384D1*
X2691306Y4751336D1*
X2690611D1*
X2689916Y4751384D1*
X2689227Y4751481D1*
X2688546Y4751625D1*
X2687877Y4751817D1*
X2687223Y4752054D1*
X2686588Y4752337D1*
X2685973Y4752663D1*
X2685383Y4753031D1*
X2684820Y4753439D1*
X2684287Y4753886D1*
X2683786Y4754368D1*
X2683321Y4754884D1*
X2682892Y4755431D1*
X2682503Y4756007D1*
X2682155Y4756609D1*
X2681850Y4757233D1*
X2681589Y4757877D1*
X2681374Y4758537D1*
X2681206Y4759211D1*
X2681085Y4759895D1*
X2681012Y4760586D1*
X2680988Y4761280D1*
X2615990D2*
X2696030Y4726282D1*
X2321015Y4461226D2*
D10*
X2981000D1*
Y5061248D1*
X2321015D1*
Y4461226D1*
D25*
X9398510Y4417222D3*
X9573494Y4837280D2*
D10*
X9573896Y4848793D1*
X9575100Y4860249D1*
X9577100Y4871593D1*
X9579886Y4882771D1*
X9583446Y4893726D1*
X9587760Y4904407D1*
X9592809Y4914761D1*
X9598568Y4924737D1*
X9605009Y4934287D1*
X9612100Y4943365D1*
X9619807Y4951925D1*
X9628092Y4959927D1*
X9636915Y4967332D1*
X9646233Y4974103D1*
X9656001Y4980207D1*
X9666170Y4985615D1*
X9676692Y4990301D1*
X9687516Y4994241D1*
X9698587Y4997416D1*
X9709853Y4999811D1*
X9721259Y5001414D1*
X9732749Y5002218D1*
X9744266D1*
X9755756Y5001414D1*
X9767162Y4999811D1*
X9778428Y4997416D1*
X9789499Y4994241D1*
X9800323Y4990301D1*
X9810845Y4985615D1*
X9821014Y4980207D1*
X9830782Y4974103D1*
X9840100Y4967332D1*
X9848923Y4959927D1*
X9857208Y4951925D1*
X9864915Y4943365D1*
X9872006Y4934287D1*
X9878447Y4924737D1*
X9884206Y4914761D1*
X9889255Y4904407D1*
X9893569Y4893726D1*
X9897129Y4882771D1*
X9899915Y4871593D1*
X9901915Y4860249D1*
X9903119Y4848793D1*
X9903521Y4837280D1*
X9903119Y4825768D1*
X9901915Y4814311D1*
X9899915Y4802967D1*
X9897129Y4791789D1*
X9893569Y4780834D1*
X9889255Y4770153D1*
X9884206Y4759799D1*
X9878447Y4749823D1*
X9872006Y4740273D1*
X9864915Y4731196D1*
X9857208Y4722635D1*
X9848923Y4714633D1*
X9840100Y4707228D1*
X9830782Y4700457D1*
X9821014Y4694353D1*
X9810845Y4688945D1*
X9800323Y4684259D1*
X9789499Y4680319D1*
X9778428Y4677144D1*
X9767162Y4674749D1*
X9755756Y4673146D1*
X9744266Y4672342D1*
X9732749D1*
X9721259Y4673146D1*
X9709853Y4674749D1*
X9698587Y4677144D1*
X9687516Y4680319D1*
X9676692Y4684259D1*
X9666170Y4688945D1*
X9656001Y4694353D1*
X9646233Y4700457D1*
X9636915Y4707228D1*
X9628092Y4714633D1*
X9619807Y4722635D1*
X9612100Y4731196D1*
X9605009Y4740273D1*
X9598568Y4749823D1*
X9592809Y4759799D1*
X9587760Y4770153D1*
X9583446Y4780834D1*
X9579886Y4791789D1*
X9577100Y4802967D1*
X9575100Y4814311D1*
X9573896Y4825768D1*
X9573494Y4837280D1*
X9668507Y4717276D2*
D24*
Y4957284D1*
X9808508Y4717276D2*
Y4957284D1*
X9668507Y4837280D2*
X9683549D1*
X9808508D2*
X9793466D1*
X9683549D2*
X9683573Y4837974D1*
X9683646Y4838665D1*
X9683767Y4839349D1*
X9683935Y4840023D1*
X9684150Y4840683D1*
X9684411Y4841327D1*
X9684716Y4841952D1*
X9685064Y4842553D1*
X9685453Y4843129D1*
X9685882Y4843676D1*
X9686347Y4844192D1*
X9686848Y4844675D1*
X9687381Y4845121D1*
X9687944Y4845529D1*
X9688534Y4845897D1*
X9689149Y4846223D1*
X9689784Y4846506D1*
X9690438Y4846743D1*
X9691107Y4846935D1*
X9691788Y4847079D1*
X9692477Y4847176D1*
X9693172Y4847224D1*
X9693867D1*
X9694562Y4847176D1*
X9695251Y4847079D1*
X9695932Y4846935D1*
X9696601Y4846743D1*
X9697255Y4846506D1*
X9697890Y4846223D1*
X9698505Y4845897D1*
X9699095Y4845529D1*
X9699658Y4845121D1*
X9700191Y4844675D1*
X9700692Y4844192D1*
X9701157Y4843676D1*
X9701586Y4843129D1*
X9701975Y4842553D1*
X9702323Y4841952D1*
X9702628Y4841327D1*
X9702889Y4840683D1*
X9703104Y4840023D1*
X9703272Y4839349D1*
X9703393Y4838665D1*
X9703466Y4837974D1*
X9703490Y4837280D1*
X9703466Y4836586D1*
X9703393Y4835895D1*
X9703272Y4835211D1*
X9703104Y4834537D1*
X9702889Y4833877D1*
X9702628Y4833233D1*
X9702323Y4832609D1*
X9701975Y4832007D1*
X9701586Y4831431D1*
X9701157Y4830884D1*
X9700692Y4830368D1*
X9700191Y4829886D1*
X9699658Y4829439D1*
X9699095Y4829031D1*
X9698505Y4828663D1*
X9697890Y4828337D1*
X9697255Y4828054D1*
X9696601Y4827817D1*
X9695932Y4827625D1*
X9695251Y4827481D1*
X9694562Y4827384D1*
X9693867Y4827336D1*
X9693172D1*
X9692477Y4827384D1*
X9691788Y4827481D1*
X9691107Y4827625D1*
X9690438Y4827817D1*
X9689784Y4828054D1*
X9689149Y4828337D1*
X9688534Y4828663D1*
X9687944Y4829031D1*
X9687381Y4829439D1*
X9686848Y4829886D1*
X9686347Y4830368D1*
X9685882Y4830884D1*
X9685453Y4831431D1*
X9685064Y4832007D1*
X9684716Y4832609D1*
X9684411Y4833233D1*
X9684150Y4833877D1*
X9683935Y4834537D1*
X9683767Y4835211D1*
X9683646Y4835895D1*
X9683573Y4836586D1*
X9683549Y4837280D1*
X9768488D2*
X9768512Y4837974D1*
X9768585Y4838665D1*
X9768706Y4839349D1*
X9768874Y4840023D1*
X9769089Y4840683D1*
X9769350Y4841327D1*
X9769655Y4841952D1*
X9770003Y4842553D1*
X9770392Y4843129D1*
X9770821Y4843676D1*
X9771286Y4844192D1*
X9771787Y4844675D1*
X9772320Y4845121D1*
X9772883Y4845529D1*
X9773473Y4845897D1*
X9774088Y4846223D1*
X9774723Y4846506D1*
X9775377Y4846743D1*
X9776046Y4846935D1*
X9776727Y4847079D1*
X9777416Y4847176D1*
X9778111Y4847224D1*
X9778806D1*
X9779501Y4847176D1*
X9780190Y4847079D1*
X9780871Y4846935D1*
X9781540Y4846743D1*
X9782194Y4846506D1*
X9782829Y4846223D1*
X9783444Y4845897D1*
X9784034Y4845529D1*
X9784597Y4845121D1*
X9785130Y4844675D1*
X9785631Y4844192D1*
X9786096Y4843676D1*
X9786525Y4843129D1*
X9786914Y4842553D1*
X9787262Y4841952D1*
X9787567Y4841327D1*
X9787828Y4840683D1*
X9788043Y4840023D1*
X9788211Y4839349D1*
X9788332Y4838665D1*
X9788405Y4837974D1*
X9788429Y4837280D1*
X9788405Y4836586D1*
X9788332Y4835895D1*
X9788211Y4835211D1*
X9788043Y4834537D1*
X9787828Y4833877D1*
X9787567Y4833233D1*
X9787262Y4832609D1*
X9786914Y4832007D1*
X9786525Y4831431D1*
X9786096Y4830884D1*
X9785631Y4830368D1*
X9785130Y4829886D1*
X9784597Y4829439D1*
X9784034Y4829031D1*
X9783444Y4828663D1*
X9782829Y4828337D1*
X9782194Y4828054D1*
X9781540Y4827817D1*
X9780871Y4827625D1*
X9780190Y4827481D1*
X9779501Y4827384D1*
X9778806Y4827336D1*
X9778111D1*
X9777416Y4827384D1*
X9776727Y4827481D1*
X9776046Y4827625D1*
X9775377Y4827817D1*
X9774723Y4828054D1*
X9774088Y4828337D1*
X9773473Y4828663D1*
X9772883Y4829031D1*
X9772320Y4829439D1*
X9771787Y4829886D1*
X9771286Y4830368D1*
X9770821Y4830884D1*
X9770392Y4831431D1*
X9770003Y4832007D1*
X9769655Y4832609D1*
X9769350Y4833233D1*
X9769089Y4833877D1*
X9768874Y4834537D1*
X9768706Y4835211D1*
X9768585Y4835895D1*
X9768512Y4836586D1*
X9768488Y4837280D1*
X9703490D2*
X9783530Y4802282D1*
X9408515Y4537226D2*
D10*
X10068500D1*
Y5137248D1*
X9408515D1*
Y4537226D1*
D27*
X10130550Y2295782D3*
X9545454Y2635780D2*
D10*
X9545856Y2647290D1*
X9547060Y2658745D1*
X9549060Y2670088D1*
X9551847Y2681264D1*
X9555407Y2692218D1*
X9559722Y2702897D1*
X9564772Y2713249D1*
X9570532Y2723224D1*
X9576973Y2732772D1*
X9584066Y2741848D1*
X9591774Y2750408D1*
X9600060Y2758409D1*
X9608884Y2765812D1*
X9618204Y2772582D1*
X9627973Y2778686D1*
X9638144Y2784093D1*
X9648668Y2788778D1*
X9659493Y2792717D1*
X9670566Y2795892D1*
X9681834Y2798286D1*
X9693241Y2799889D1*
X9704732Y2800693D1*
X9716252D1*
X9727743Y2799889D1*
X9739151Y2798286D1*
X9750418Y2795892D1*
X9761492Y2792717D1*
X9772316Y2788778D1*
X9782840Y2784093D1*
X9793011Y2778686D1*
X9802780Y2772582D1*
X9812100Y2765812D1*
X9820924Y2758409D1*
X9829211Y2750408D1*
X9836919Y2741848D1*
X9844011Y2732772D1*
X9850452Y2723224D1*
X9856212Y2713249D1*
X9861262Y2702897D1*
X9865577Y2692218D1*
X9869137Y2681264D1*
X9871924Y2670088D1*
X9873924Y2658745D1*
X9875128Y2647290D1*
X9875530Y2635780D1*
X9875128Y2624269D1*
X9873924Y2612814D1*
X9871924Y2601471D1*
X9869137Y2590296D1*
X9865577Y2579342D1*
X9861262Y2568663D1*
X9856212Y2558311D1*
X9850452Y2548336D1*
X9844011Y2538787D1*
X9836919Y2529711D1*
X9829211Y2521152D1*
X9820924Y2513151D1*
X9812100Y2505747D1*
X9802780Y2498977D1*
X9793011Y2492874D1*
X9782840Y2487467D1*
X9772316Y2482782D1*
X9761492Y2478843D1*
X9750418Y2475668D1*
X9739151Y2473273D1*
X9727743Y2471670D1*
X9716252Y2470867D1*
X9704732D1*
X9693241Y2471670D1*
X9681834Y2473273D1*
X9670566Y2475668D1*
X9659493Y2478843D1*
X9648668Y2482782D1*
X9638144Y2487467D1*
X9627973Y2492874D1*
X9618204Y2498977D1*
X9608884Y2505747D1*
X9600060Y2513151D1*
X9591774Y2521152D1*
X9584066Y2529711D1*
X9576973Y2538787D1*
X9570532Y2548336D1*
X9564772Y2558311D1*
X9559722Y2568663D1*
X9555407Y2579342D1*
X9551847Y2590296D1*
X9549060Y2601471D1*
X9547060Y2612814D1*
X9545856Y2624269D1*
X9545454Y2635780D1*
X9830496Y2565779D2*
D24*
X9590488D1*
X9830496Y2705780D2*
X9590488D1*
X9710492Y2565779D2*
Y2580821D1*
Y2705780D2*
Y2690738D1*
X9700542Y2590792D2*
X9700566Y2591487D1*
X9700639Y2592179D1*
X9700759Y2592865D1*
X9700927Y2593540D1*
X9701142Y2594202D1*
X9701402Y2594847D1*
X9701706Y2595473D1*
X9702054Y2596075D1*
X9702442Y2596652D1*
X9702870Y2597201D1*
X9703334Y2597718D1*
X9703834Y2598201D1*
X9704366Y2598649D1*
X9704928Y2599058D1*
X9705517Y2599426D1*
X9706130Y2599753D1*
X9706765Y2600036D1*
X9707417Y2600274D1*
X9708085Y2600466D1*
X9708764Y2600611D1*
X9709452Y2600708D1*
X9710145Y2600756D1*
X9710839D1*
X9711532Y2600708D1*
X9712220Y2600611D1*
X9712899Y2600466D1*
X9713567Y2600274D1*
X9714220Y2600036D1*
X9714854Y2599753D1*
X9715467Y2599426D1*
X9716056Y2599058D1*
X9716618Y2598649D1*
X9717150Y2598201D1*
X9717650Y2597718D1*
X9718114Y2597201D1*
X9718542Y2596652D1*
X9718930Y2596075D1*
X9719278Y2595473D1*
X9719582Y2594847D1*
X9719842Y2594202D1*
X9720057Y2593540D1*
X9720225Y2592865D1*
X9720346Y2592179D1*
X9720418Y2591487D1*
X9720442Y2590792D1*
X9720418Y2590096D1*
X9720346Y2589404D1*
X9720225Y2588719D1*
X9720057Y2588043D1*
X9719842Y2587382D1*
X9719582Y2586736D1*
X9719278Y2586111D1*
X9718930Y2585508D1*
X9718542Y2584931D1*
X9718114Y2584383D1*
X9717650Y2583866D1*
X9717150Y2583382D1*
X9716618Y2582935D1*
X9716056Y2582526D1*
X9715467Y2582157D1*
X9714854Y2581830D1*
X9714220Y2581547D1*
X9713567Y2581309D1*
X9712899Y2581117D1*
X9712220Y2580973D1*
X9711532Y2580876D1*
X9710839Y2580827D1*
X9710145D1*
X9709452Y2580876D1*
X9708764Y2580973D1*
X9708085Y2581117D1*
X9707417Y2581309D1*
X9706765Y2581547D1*
X9706130Y2581830D1*
X9705517Y2582157D1*
X9704928Y2582526D1*
X9704366Y2582935D1*
X9703834Y2583382D1*
X9703334Y2583866D1*
X9702870Y2584383D1*
X9702442Y2584931D1*
X9702054Y2585508D1*
X9701706Y2586111D1*
X9701402Y2586736D1*
X9701142Y2587382D1*
X9700927Y2588043D1*
X9700759Y2588719D1*
X9700639Y2589404D1*
X9700566Y2590096D1*
X9700542Y2590792D1*
Y2675731D2*
X9700566Y2676426D1*
X9700639Y2677118D1*
X9700759Y2677804D1*
X9700927Y2678479D1*
X9701142Y2679141D1*
X9701402Y2679786D1*
X9701706Y2680412D1*
X9702054Y2681014D1*
X9702442Y2681591D1*
X9702870Y2682140D1*
X9703334Y2682657D1*
X9703834Y2683140D1*
X9704366Y2683588D1*
X9704928Y2683997D1*
X9705517Y2684365D1*
X9706130Y2684692D1*
X9706765Y2684975D1*
X9707417Y2685213D1*
X9708085Y2685405D1*
X9708764Y2685550D1*
X9709452Y2685647D1*
X9710145Y2685695D1*
X9710839D1*
X9711532Y2685647D1*
X9712220Y2685550D1*
X9712899Y2685405D1*
X9713567Y2685213D1*
X9714220Y2684975D1*
X9714854Y2684692D1*
X9715467Y2684365D1*
X9716056Y2683997D1*
X9716618Y2683588D1*
X9717150Y2683140D1*
X9717650Y2682657D1*
X9718114Y2682140D1*
X9718542Y2681591D1*
X9718930Y2681014D1*
X9719278Y2680412D1*
X9719582Y2679786D1*
X9719842Y2679141D1*
X9720057Y2678479D1*
X9720225Y2677804D1*
X9720346Y2677118D1*
X9720418Y2676426D1*
X9720442Y2675731D1*
X9720418Y2675035D1*
X9720346Y2674343D1*
X9720225Y2673658D1*
X9720057Y2672982D1*
X9719842Y2672321D1*
X9719582Y2671675D1*
X9719278Y2671050D1*
X9718930Y2670447D1*
X9718542Y2669870D1*
X9718114Y2669322D1*
X9717650Y2668805D1*
X9717150Y2668321D1*
X9716618Y2667874D1*
X9716056Y2667465D1*
X9715467Y2667096D1*
X9714854Y2666769D1*
X9714220Y2666486D1*
X9713567Y2666248D1*
X9712899Y2666056D1*
X9712220Y2665912D1*
X9711532Y2665815D1*
X9710839Y2665766D1*
X9710145D1*
X9709452Y2665815D1*
X9708764Y2665912D1*
X9708085Y2666056D1*
X9707417Y2666248D1*
X9706765Y2666486D1*
X9706130Y2666769D1*
X9705517Y2667096D1*
X9704928Y2667465D1*
X9704366Y2667874D1*
X9703834Y2668321D1*
X9703334Y2668805D1*
X9702870Y2669322D1*
X9702442Y2669870D1*
X9702054Y2670447D1*
X9701706Y2671050D1*
X9701402Y2671675D1*
X9701142Y2672321D1*
X9700927Y2672982D1*
X9700759Y2673658D1*
X9700639Y2674343D1*
X9700566Y2675035D1*
X9700542Y2675731D1*
X9710492Y2600762D2*
X9745490Y2680802D1*
X10010546Y2305787D2*
D10*
X9410524D1*
Y2965772D1*
X10010546D1*
Y2305787D1*
D25*
X1890990Y4168322D3*
X1385979Y3748264D2*
D10*
X1386381Y3759777D1*
X1387585Y3771233D1*
X1389585Y3782578D1*
X1392371Y3793755D1*
X1395931Y3804711D1*
X1400245Y3815391D1*
X1405294Y3825745D1*
X1411053Y3835721D1*
X1417494Y3845271D1*
X1424585Y3854349D1*
X1432292Y3862909D1*
X1440577Y3870912D1*
X1449400Y3878316D1*
X1458718Y3885087D1*
X1468486Y3891192D1*
X1478655Y3896600D1*
X1489177Y3901285D1*
X1500001Y3905225D1*
X1511072Y3908400D1*
X1522338Y3910795D1*
X1533744Y3912398D1*
X1545234Y3913202D1*
X1556751D1*
X1568241Y3912398D1*
X1579647Y3910795D1*
X1590913Y3908400D1*
X1601984Y3905225D1*
X1612808Y3901285D1*
X1623330Y3896600D1*
X1633499Y3891192D1*
X1643267Y3885087D1*
X1652585Y3878316D1*
X1661408Y3870912D1*
X1669693Y3862909D1*
X1677400Y3854349D1*
X1684491Y3845271D1*
X1690932Y3835721D1*
X1696691Y3825745D1*
X1701740Y3815391D1*
X1706054Y3804711D1*
X1709614Y3793755D1*
X1712400Y3782578D1*
X1714400Y3771233D1*
X1715604Y3759777D1*
X1716006Y3748264D1*
X1715604Y3736752D1*
X1714400Y3725295D1*
X1712400Y3713951D1*
X1709614Y3702774D1*
X1706054Y3691818D1*
X1701740Y3681137D1*
X1696691Y3670784D1*
X1690932Y3660807D1*
X1684491Y3651257D1*
X1677400Y3642180D1*
X1669693Y3633619D1*
X1661408Y3625617D1*
X1652585Y3618212D1*
X1643267Y3611441D1*
X1633499Y3605337D1*
X1623330Y3599929D1*
X1612808Y3595244D1*
X1601984Y3591304D1*
X1590913Y3588129D1*
X1579647Y3585733D1*
X1568241Y3584130D1*
X1556751Y3583327D1*
X1545234D1*
X1533744Y3584130D1*
X1522338Y3585733D1*
X1511072Y3588129D1*
X1500001Y3591304D1*
X1489177Y3595244D1*
X1478655Y3599929D1*
X1468486Y3605337D1*
X1458718Y3611441D1*
X1449400Y3618212D1*
X1440577Y3625617D1*
X1432292Y3633619D1*
X1424585Y3642180D1*
X1417494Y3651257D1*
X1411053Y3660807D1*
X1405294Y3670784D1*
X1400245Y3681137D1*
X1395931Y3691818D1*
X1392371Y3702774D1*
X1389585Y3713951D1*
X1387585Y3725295D1*
X1386381Y3736752D1*
X1385979Y3748264D1*
X1620993Y3868269D2*
D24*
Y3628260D1*
X1480992Y3868269D2*
Y3628260D1*
X1620993Y3748264D2*
X1605951D1*
X1480992D2*
X1496034D1*
X1586010D2*
X1586034Y3748958D1*
X1586107Y3749649D1*
X1586228Y3750333D1*
X1586396Y3751007D1*
X1586611Y3751668D1*
X1586872Y3752311D1*
X1587177Y3752936D1*
X1587525Y3753537D1*
X1587914Y3754113D1*
X1588343Y3754660D1*
X1588808Y3755176D1*
X1589309Y3755659D1*
X1589842Y3756105D1*
X1590405Y3756514D1*
X1590995Y3756882D1*
X1591610Y3757208D1*
X1592245Y3757490D1*
X1592899Y3757728D1*
X1593568Y3757919D1*
X1594249Y3758063D1*
X1594938Y3758160D1*
X1595633Y3758209D1*
X1596328D1*
X1597023Y3758160D1*
X1597712Y3758063D1*
X1598393Y3757919D1*
X1599062Y3757728D1*
X1599716Y3757490D1*
X1600351Y3757208D1*
X1600966Y3756882D1*
X1601556Y3756514D1*
X1602119Y3756105D1*
X1602652Y3755659D1*
X1603153Y3755176D1*
X1603618Y3754660D1*
X1604047Y3754113D1*
X1604436Y3753537D1*
X1604784Y3752936D1*
X1605089Y3752311D1*
X1605350Y3751668D1*
X1605565Y3751007D1*
X1605733Y3750333D1*
X1605854Y3749649D1*
X1605927Y3748958D1*
X1605951Y3748264D1*
X1605927Y3747570D1*
X1605854Y3746880D1*
X1605733Y3746196D1*
X1605565Y3745522D1*
X1605350Y3744861D1*
X1605089Y3744217D1*
X1604784Y3743593D1*
X1604436Y3742991D1*
X1604047Y3742416D1*
X1603618Y3741868D1*
X1603153Y3741352D1*
X1602652Y3740870D1*
X1602119Y3740423D1*
X1601556Y3740015D1*
X1600966Y3739647D1*
X1600351Y3739321D1*
X1599716Y3739039D1*
X1599062Y3738801D1*
X1598393Y3738610D1*
X1597712Y3738465D1*
X1597023Y3738369D1*
X1596328Y3738320D1*
X1595633D1*
X1594938Y3738369D1*
X1594249Y3738465D1*
X1593568Y3738610D1*
X1592899Y3738801D1*
X1592245Y3739039D1*
X1591610Y3739321D1*
X1590995Y3739647D1*
X1590405Y3740015D1*
X1589842Y3740423D1*
X1589309Y3740870D1*
X1588808Y3741352D1*
X1588343Y3741868D1*
X1587914Y3742416D1*
X1587525Y3742991D1*
X1587177Y3743593D1*
X1586872Y3744217D1*
X1586611Y3744861D1*
X1586396Y3745522D1*
X1586228Y3746196D1*
X1586107Y3746880D1*
X1586034Y3747570D1*
X1586010Y3748264D1*
X1501071D2*
X1501095Y3748958D1*
X1501168Y3749649D1*
X1501289Y3750333D1*
X1501457Y3751007D1*
X1501672Y3751668D1*
X1501933Y3752311D1*
X1502238Y3752936D1*
X1502586Y3753537D1*
X1502975Y3754113D1*
X1503404Y3754660D1*
X1503869Y3755176D1*
X1504370Y3755659D1*
X1504903Y3756105D1*
X1505466Y3756514D1*
X1506056Y3756882D1*
X1506671Y3757208D1*
X1507306Y3757490D1*
X1507960Y3757728D1*
X1508629Y3757919D1*
X1509310Y3758063D1*
X1509999Y3758160D1*
X1510694Y3758209D1*
X1511389D1*
X1512084Y3758160D1*
X1512773Y3758063D1*
X1513454Y3757919D1*
X1514123Y3757728D1*
X1514777Y3757490D1*
X1515412Y3757208D1*
X1516027Y3756882D1*
X1516617Y3756514D1*
X1517180Y3756105D1*
X1517713Y3755659D1*
X1518214Y3755176D1*
X1518679Y3754660D1*
X1519108Y3754113D1*
X1519497Y3753537D1*
X1519845Y3752936D1*
X1520150Y3752311D1*
X1520411Y3751668D1*
X1520626Y3751007D1*
X1520794Y3750333D1*
X1520915Y3749649D1*
X1520988Y3748958D1*
X1521012Y3748264D1*
X1520988Y3747570D1*
X1520915Y3746880D1*
X1520794Y3746196D1*
X1520626Y3745522D1*
X1520411Y3744861D1*
X1520150Y3744217D1*
X1519845Y3743593D1*
X1519497Y3742991D1*
X1519108Y3742416D1*
X1518679Y3741868D1*
X1518214Y3741352D1*
X1517713Y3740870D1*
X1517180Y3740423D1*
X1516617Y3740015D1*
X1516027Y3739647D1*
X1515412Y3739321D1*
X1514777Y3739039D1*
X1514123Y3738801D1*
X1513454Y3738610D1*
X1512773Y3738465D1*
X1512084Y3738369D1*
X1511389Y3738320D1*
X1510694D1*
X1509999Y3738369D1*
X1509310Y3738465D1*
X1508629Y3738610D1*
X1507960Y3738801D1*
X1507306Y3739039D1*
X1506671Y3739321D1*
X1506056Y3739647D1*
X1505466Y3740015D1*
X1504903Y3740423D1*
X1504370Y3740870D1*
X1503869Y3741352D1*
X1503404Y3741868D1*
X1502975Y3742416D1*
X1502586Y3742991D1*
X1502238Y3743593D1*
X1501933Y3744217D1*
X1501672Y3744861D1*
X1501457Y3745522D1*
X1501289Y3746196D1*
X1501168Y3746880D1*
X1501095Y3747570D1*
X1501071Y3748264D1*
X1586010D2*
X1505970Y3783262D1*
X1880985Y4048318D2*
D10*
X1221000D1*
Y3448296D1*
X1880985D1*
Y4048318D1*
D27*
X3319450Y4063262D3*
X3574470Y3723265D2*
D10*
X3574872Y3734775D1*
X3576076Y3746230D1*
X3578076Y3757573D1*
X3580863Y3768749D1*
X3584423Y3779703D1*
X3588738Y3790382D1*
X3593788Y3800734D1*
X3599548Y3810709D1*
X3605989Y3820257D1*
X3613081Y3829333D1*
X3620789Y3837893D1*
X3629076Y3845894D1*
X3637900Y3853297D1*
X3647220Y3860067D1*
X3656989Y3866171D1*
X3667160Y3871578D1*
X3677684Y3876263D1*
X3688508Y3880202D1*
X3699582Y3883377D1*
X3710849Y3885771D1*
X3722257Y3887374D1*
X3733748Y3888178D1*
X3745268D1*
X3756759Y3887374D1*
X3768166Y3885771D1*
X3779434Y3883377D1*
X3790507Y3880202D1*
X3801332Y3876263D1*
X3811856Y3871578D1*
X3822027Y3866171D1*
X3831796Y3860067D1*
X3841116Y3853297D1*
X3849940Y3845894D1*
X3858226Y3837893D1*
X3865934Y3829333D1*
X3873027Y3820257D1*
X3879468Y3810709D1*
X3885228Y3800734D1*
X3890278Y3790382D1*
X3894593Y3779703D1*
X3898153Y3768749D1*
X3900940Y3757573D1*
X3902940Y3746230D1*
X3904144Y3734775D1*
X3904546Y3723265D1*
X3904144Y3711754D1*
X3902940Y3700299D1*
X3900940Y3688956D1*
X3898153Y3677781D1*
X3894593Y3666827D1*
X3890278Y3656148D1*
X3885228Y3645796D1*
X3879468Y3635821D1*
X3873027Y3626272D1*
X3865934Y3617196D1*
X3858226Y3608637D1*
X3849940Y3600636D1*
X3841116Y3593232D1*
X3831796Y3586462D1*
X3822027Y3580359D1*
X3811856Y3574952D1*
X3801332Y3570267D1*
X3790507Y3566328D1*
X3779434Y3563153D1*
X3768166Y3560758D1*
X3756759Y3559155D1*
X3745268Y3558352D1*
X3733748D1*
X3722257Y3559155D1*
X3710849Y3560758D1*
X3699582Y3563153D1*
X3688508Y3566328D1*
X3677684Y3570267D1*
X3667160Y3574952D1*
X3656989Y3580359D1*
X3647220Y3586462D1*
X3637900Y3593232D1*
X3629076Y3600636D1*
X3620789Y3608637D1*
X3613081Y3617196D1*
X3605989Y3626272D1*
X3599548Y3635821D1*
X3593788Y3645796D1*
X3588738Y3656148D1*
X3584423Y3666827D1*
X3580863Y3677781D1*
X3578076Y3688956D1*
X3576076Y3700299D1*
X3574872Y3711754D1*
X3574470Y3723265D1*
X3619504Y3793265D2*
D24*
X3859512D1*
X3619504Y3653264D2*
X3859512D1*
X3739508Y3793265D2*
Y3778223D1*
Y3653264D2*
Y3668306D1*
X3729558Y3768253D2*
X3729582Y3768948D1*
X3729654Y3769640D1*
X3729775Y3770326D1*
X3729943Y3771001D1*
X3730158Y3771663D1*
X3730418Y3772308D1*
X3730722Y3772934D1*
X3731070Y3773536D1*
X3731458Y3774113D1*
X3731886Y3774662D1*
X3732350Y3775179D1*
X3732850Y3775662D1*
X3733382Y3776110D1*
X3733944Y3776519D1*
X3734533Y3776887D1*
X3735146Y3777214D1*
X3735780Y3777497D1*
X3736433Y3777735D1*
X3737101Y3777927D1*
X3737780Y3778072D1*
X3738468Y3778169D1*
X3739161Y3778217D1*
X3739855D1*
X3740548Y3778169D1*
X3741236Y3778072D1*
X3741915Y3777927D1*
X3742583Y3777735D1*
X3743235Y3777497D1*
X3743870Y3777214D1*
X3744483Y3776887D1*
X3745072Y3776519D1*
X3745634Y3776110D1*
X3746166Y3775662D1*
X3746666Y3775179D1*
X3747130Y3774662D1*
X3747558Y3774113D1*
X3747946Y3773536D1*
X3748294Y3772934D1*
X3748598Y3772308D1*
X3748858Y3771663D1*
X3749073Y3771001D1*
X3749241Y3770326D1*
X3749361Y3769640D1*
X3749434Y3768948D1*
X3749458Y3768253D1*
X3749434Y3767557D1*
X3749361Y3766865D1*
X3749241Y3766180D1*
X3749073Y3765504D1*
X3748858Y3764843D1*
X3748598Y3764197D1*
X3748294Y3763572D1*
X3747946Y3762969D1*
X3747558Y3762392D1*
X3747130Y3761844D1*
X3746666Y3761327D1*
X3746166Y3760843D1*
X3745634Y3760396D1*
X3745072Y3759987D1*
X3744483Y3759618D1*
X3743870Y3759291D1*
X3743235Y3759008D1*
X3742583Y3758770D1*
X3741915Y3758578D1*
X3741236Y3758434D1*
X3740548Y3758337D1*
X3739855Y3758288D1*
X3739161D1*
X3738468Y3758337D1*
X3737780Y3758434D1*
X3737101Y3758578D1*
X3736433Y3758770D1*
X3735780Y3759008D1*
X3735146Y3759291D1*
X3734533Y3759618D1*
X3733944Y3759987D1*
X3733382Y3760396D1*
X3732850Y3760843D1*
X3732350Y3761327D1*
X3731886Y3761844D1*
X3731458Y3762392D1*
X3731070Y3762969D1*
X3730722Y3763572D1*
X3730418Y3764197D1*
X3730158Y3764843D1*
X3729943Y3765504D1*
X3729775Y3766180D1*
X3729654Y3766865D1*
X3729582Y3767557D1*
X3729558Y3768253D1*
Y3683314D2*
X3729582Y3684009D1*
X3729654Y3684701D1*
X3729775Y3685387D1*
X3729943Y3686062D1*
X3730158Y3686724D1*
X3730418Y3687369D1*
X3730722Y3687995D1*
X3731070Y3688597D1*
X3731458Y3689174D1*
X3731886Y3689723D1*
X3732350Y3690240D1*
X3732850Y3690723D1*
X3733382Y3691171D1*
X3733944Y3691580D1*
X3734533Y3691948D1*
X3735146Y3692275D1*
X3735780Y3692558D1*
X3736433Y3692796D1*
X3737101Y3692988D1*
X3737780Y3693133D1*
X3738468Y3693230D1*
X3739161Y3693278D1*
X3739855D1*
X3740548Y3693230D1*
X3741236Y3693133D1*
X3741915Y3692988D1*
X3742583Y3692796D1*
X3743235Y3692558D1*
X3743870Y3692275D1*
X3744483Y3691948D1*
X3745072Y3691580D1*
X3745634Y3691171D1*
X3746166Y3690723D1*
X3746666Y3690240D1*
X3747130Y3689723D1*
X3747558Y3689174D1*
X3747946Y3688597D1*
X3748294Y3687995D1*
X3748598Y3687369D1*
X3748858Y3686724D1*
X3749073Y3686062D1*
X3749241Y3685387D1*
X3749361Y3684701D1*
X3749434Y3684009D1*
X3749458Y3683314D1*
X3749434Y3682618D1*
X3749361Y3681926D1*
X3749241Y3681241D1*
X3749073Y3680565D1*
X3748858Y3679904D1*
X3748598Y3679258D1*
X3748294Y3678633D1*
X3747946Y3678030D1*
X3747558Y3677453D1*
X3747130Y3676905D1*
X3746666Y3676388D1*
X3746166Y3675904D1*
X3745634Y3675457D1*
X3745072Y3675048D1*
X3744483Y3674679D1*
X3743870Y3674352D1*
X3743235Y3674069D1*
X3742583Y3673831D1*
X3741915Y3673639D1*
X3741236Y3673495D1*
X3740548Y3673398D1*
X3739855Y3673349D1*
X3739161D1*
X3738468Y3673398D1*
X3737780Y3673495D1*
X3737101Y3673639D1*
X3736433Y3673831D1*
X3735780Y3674069D1*
X3735146Y3674352D1*
X3734533Y3674679D1*
X3733944Y3675048D1*
X3733382Y3675457D1*
X3732850Y3675904D1*
X3732350Y3676388D1*
X3731886Y3676905D1*
X3731458Y3677453D1*
X3731070Y3678030D1*
X3730722Y3678633D1*
X3730418Y3679258D1*
X3730158Y3679904D1*
X3729943Y3680565D1*
X3729775Y3681241D1*
X3729654Y3681926D1*
X3729582Y3682618D1*
X3729558Y3683314D1*
X3739508Y3758282D2*
X3704510Y3678242D1*
X3439454Y4053257D2*
D10*
X4039476D1*
Y3393272D1*
X3439454D1*
Y4053257D1*
D27*
X9057050Y3395782D3*
X8471954Y3735780D2*
D10*
X8472356Y3747290D1*
X8473560Y3758745D1*
X8475560Y3770088D1*
X8478347Y3781264D1*
X8481907Y3792218D1*
X8486222Y3802897D1*
X8491272Y3813249D1*
X8497032Y3823224D1*
X8503473Y3832772D1*
X8510566Y3841848D1*
X8518274Y3850408D1*
X8526560Y3858409D1*
X8535384Y3865812D1*
X8544704Y3872582D1*
X8554473Y3878686D1*
X8564644Y3884093D1*
X8575168Y3888778D1*
X8585993Y3892717D1*
X8597066Y3895892D1*
X8608334Y3898286D1*
X8619741Y3899889D1*
X8631232Y3900693D1*
X8642752D1*
X8654243Y3899889D1*
X8665651Y3898286D1*
X8676918Y3895892D1*
X8687992Y3892717D1*
X8698816Y3888778D1*
X8709340Y3884093D1*
X8719511Y3878686D1*
X8729280Y3872582D1*
X8738600Y3865812D1*
X8747424Y3858409D1*
X8755711Y3850408D1*
X8763419Y3841848D1*
X8770511Y3832772D1*
X8776952Y3823224D1*
X8782712Y3813249D1*
X8787762Y3802897D1*
X8792077Y3792218D1*
X8795637Y3781264D1*
X8798424Y3770088D1*
X8800424Y3758745D1*
X8801628Y3747290D1*
X8802030Y3735780D1*
X8801628Y3724269D1*
X8800424Y3712814D1*
X8798424Y3701471D1*
X8795637Y3690296D1*
X8792077Y3679342D1*
X8787762Y3668663D1*
X8782712Y3658311D1*
X8776952Y3648336D1*
X8770511Y3638787D1*
X8763419Y3629711D1*
X8755711Y3621152D1*
X8747424Y3613151D1*
X8738600Y3605747D1*
X8729280Y3598977D1*
X8719511Y3592874D1*
X8709340Y3587467D1*
X8698816Y3582782D1*
X8687992Y3578843D1*
X8676918Y3575668D1*
X8665651Y3573273D1*
X8654243Y3571670D1*
X8642752Y3570867D1*
X8631232D1*
X8619741Y3571670D1*
X8608334Y3573273D1*
X8597066Y3575668D1*
X8585993Y3578843D1*
X8575168Y3582782D1*
X8564644Y3587467D1*
X8554473Y3592874D1*
X8544704Y3598977D1*
X8535384Y3605747D1*
X8526560Y3613151D1*
X8518274Y3621152D1*
X8510566Y3629711D1*
X8503473Y3638787D1*
X8497032Y3648336D1*
X8491272Y3658311D1*
X8486222Y3668663D1*
X8481907Y3679342D1*
X8478347Y3690296D1*
X8475560Y3701471D1*
X8473560Y3712814D1*
X8472356Y3724269D1*
X8471954Y3735780D1*
X8756996Y3665779D2*
D24*
X8516988D1*
X8756996Y3805780D2*
X8516988D1*
X8636992Y3665779D2*
Y3680821D1*
Y3805780D2*
Y3790738D1*
X8627042Y3690792D2*
X8627066Y3691487D1*
X8627139Y3692179D1*
X8627259Y3692865D1*
X8627427Y3693540D1*
X8627642Y3694202D1*
X8627902Y3694847D1*
X8628206Y3695473D1*
X8628554Y3696075D1*
X8628942Y3696652D1*
X8629370Y3697201D1*
X8629834Y3697718D1*
X8630334Y3698201D1*
X8630866Y3698649D1*
X8631428Y3699058D1*
X8632017Y3699426D1*
X8632630Y3699753D1*
X8633265Y3700036D1*
X8633917Y3700274D1*
X8634585Y3700466D1*
X8635264Y3700611D1*
X8635952Y3700708D1*
X8636645Y3700756D1*
X8637339D1*
X8638032Y3700708D1*
X8638720Y3700611D1*
X8639399Y3700466D1*
X8640067Y3700274D1*
X8640720Y3700036D1*
X8641354Y3699753D1*
X8641967Y3699426D1*
X8642556Y3699058D1*
X8643118Y3698649D1*
X8643650Y3698201D1*
X8644150Y3697718D1*
X8644614Y3697201D1*
X8645042Y3696652D1*
X8645430Y3696075D1*
X8645778Y3695473D1*
X8646082Y3694847D1*
X8646342Y3694202D1*
X8646557Y3693540D1*
X8646725Y3692865D1*
X8646846Y3692179D1*
X8646918Y3691487D1*
X8646942Y3690792D1*
X8646918Y3690096D1*
X8646846Y3689404D1*
X8646725Y3688719D1*
X8646557Y3688043D1*
X8646342Y3687382D1*
X8646082Y3686736D1*
X8645778Y3686111D1*
X8645430Y3685508D1*
X8645042Y3684931D1*
X8644614Y3684383D1*
X8644150Y3683866D1*
X8643650Y3683382D1*
X8643118Y3682935D1*
X8642556Y3682526D1*
X8641967Y3682157D1*
X8641354Y3681830D1*
X8640720Y3681547D1*
X8640067Y3681309D1*
X8639399Y3681117D1*
X8638720Y3680973D1*
X8638032Y3680876D1*
X8637339Y3680827D1*
X8636645D1*
X8635952Y3680876D1*
X8635264Y3680973D1*
X8634585Y3681117D1*
X8633917Y3681309D1*
X8633265Y3681547D1*
X8632630Y3681830D1*
X8632017Y3682157D1*
X8631428Y3682526D1*
X8630866Y3682935D1*
X8630334Y3683382D1*
X8629834Y3683866D1*
X8629370Y3684383D1*
X8628942Y3684931D1*
X8628554Y3685508D1*
X8628206Y3686111D1*
X8627902Y3686736D1*
X8627642Y3687382D1*
X8627427Y3688043D1*
X8627259Y3688719D1*
X8627139Y3689404D1*
X8627066Y3690096D1*
X8627042Y3690792D1*
Y3775731D2*
X8627066Y3776426D1*
X8627139Y3777118D1*
X8627259Y3777804D1*
X8627427Y3778479D1*
X8627642Y3779141D1*
X8627902Y3779786D1*
X8628206Y3780412D1*
X8628554Y3781014D1*
X8628942Y3781591D1*
X8629370Y3782140D1*
X8629834Y3782657D1*
X8630334Y3783140D1*
X8630866Y3783588D1*
X8631428Y3783997D1*
X8632017Y3784365D1*
X8632630Y3784692D1*
X8633265Y3784975D1*
X8633917Y3785213D1*
X8634585Y3785405D1*
X8635264Y3785550D1*
X8635952Y3785647D1*
X8636645Y3785695D1*
X8637339D1*
X8638032Y3785647D1*
X8638720Y3785550D1*
X8639399Y3785405D1*
X8640067Y3785213D1*
X8640720Y3784975D1*
X8641354Y3784692D1*
X8641967Y3784365D1*
X8642556Y3783997D1*
X8643118Y3783588D1*
X8643650Y3783140D1*
X8644150Y3782657D1*
X8644614Y3782140D1*
X8645042Y3781591D1*
X8645430Y3781014D1*
X8645778Y3780412D1*
X8646082Y3779786D1*
X8646342Y3779141D1*
X8646557Y3778479D1*
X8646725Y3777804D1*
X8646846Y3777118D1*
X8646918Y3776426D1*
X8646942Y3775731D1*
X8646918Y3775035D1*
X8646846Y3774343D1*
X8646725Y3773658D1*
X8646557Y3772982D1*
X8646342Y3772321D1*
X8646082Y3771675D1*
X8645778Y3771050D1*
X8645430Y3770447D1*
X8645042Y3769870D1*
X8644614Y3769322D1*
X8644150Y3768805D1*
X8643650Y3768321D1*
X8643118Y3767874D1*
X8642556Y3767465D1*
X8641967Y3767096D1*
X8641354Y3766769D1*
X8640720Y3766486D1*
X8640067Y3766248D1*
X8639399Y3766056D1*
X8638720Y3765912D1*
X8638032Y3765815D1*
X8637339Y3765766D1*
X8636645D1*
X8635952Y3765815D1*
X8635264Y3765912D1*
X8634585Y3766056D1*
X8633917Y3766248D1*
X8633265Y3766486D1*
X8632630Y3766769D1*
X8632017Y3767096D1*
X8631428Y3767465D1*
X8630866Y3767874D1*
X8630334Y3768321D1*
X8629834Y3768805D1*
X8629370Y3769322D1*
X8628942Y3769870D1*
X8628554Y3770447D1*
X8628206Y3771050D1*
X8627902Y3771675D1*
X8627642Y3772321D1*
X8627427Y3772982D1*
X8627259Y3773658D1*
X8627139Y3774343D1*
X8627066Y3775035D1*
X8627042Y3775731D1*
X8636992Y3700762D2*
X8671990Y3780802D1*
X8937046Y3405787D2*
D10*
X8337024D1*
Y4065772D1*
X8937046D1*
Y3405787D1*
D25*
X11090990Y4123322D3*
X10585979Y3703264D2*
D10*
X10586381Y3714777D1*
X10587585Y3726233D1*
X10589585Y3737578D1*
X10592371Y3748755D1*
X10595931Y3759711D1*
X10600245Y3770391D1*
X10605294Y3780745D1*
X10611053Y3790721D1*
X10617494Y3800271D1*
X10624585Y3809349D1*
X10632292Y3817909D1*
X10640577Y3825912D1*
X10649400Y3833316D1*
X10658718Y3840087D1*
X10668486Y3846192D1*
X10678655Y3851600D1*
X10689177Y3856285D1*
X10700001Y3860225D1*
X10711072Y3863400D1*
X10722338Y3865795D1*
X10733744Y3867398D1*
X10745234Y3868202D1*
X10756751D1*
X10768241Y3867398D1*
X10779647Y3865795D1*
X10790913Y3863400D1*
X10801984Y3860225D1*
X10812808Y3856285D1*
X10823330Y3851600D1*
X10833499Y3846192D1*
X10843267Y3840087D1*
X10852585Y3833316D1*
X10861408Y3825912D1*
X10869693Y3817909D1*
X10877400Y3809349D1*
X10884491Y3800271D1*
X10890932Y3790721D1*
X10896691Y3780745D1*
X10901740Y3770391D1*
X10906054Y3759711D1*
X10909614Y3748755D1*
X10912400Y3737578D1*
X10914400Y3726233D1*
X10915604Y3714777D1*
X10916006Y3703264D1*
X10915604Y3691752D1*
X10914400Y3680295D1*
X10912400Y3668951D1*
X10909614Y3657774D1*
X10906054Y3646818D1*
X10901740Y3636137D1*
X10896691Y3625784D1*
X10890932Y3615807D1*
X10884491Y3606257D1*
X10877400Y3597180D1*
X10869693Y3588619D1*
X10861408Y3580617D1*
X10852585Y3573212D1*
X10843267Y3566441D1*
X10833499Y3560337D1*
X10823330Y3554929D1*
X10812808Y3550244D1*
X10801984Y3546304D1*
X10790913Y3543129D1*
X10779647Y3540733D1*
X10768241Y3539130D1*
X10756751Y3538327D1*
X10745234D1*
X10733744Y3539130D1*
X10722338Y3540733D1*
X10711072Y3543129D1*
X10700001Y3546304D1*
X10689177Y3550244D1*
X10678655Y3554929D1*
X10668486Y3560337D1*
X10658718Y3566441D1*
X10649400Y3573212D1*
X10640577Y3580617D1*
X10632292Y3588619D1*
X10624585Y3597180D1*
X10617494Y3606257D1*
X10611053Y3615807D1*
X10605294Y3625784D1*
X10600245Y3636137D1*
X10595931Y3646818D1*
X10592371Y3657774D1*
X10589585Y3668951D1*
X10587585Y3680295D1*
X10586381Y3691752D1*
X10585979Y3703264D1*
X10820993Y3823269D2*
D24*
Y3583260D1*
X10680992Y3823269D2*
Y3583260D1*
X10820993Y3703264D2*
X10805951D1*
X10680992D2*
X10696034D1*
X10786010D2*
X10786034Y3703958D1*
X10786107Y3704649D1*
X10786228Y3705333D1*
X10786396Y3706007D1*
X10786611Y3706668D1*
X10786872Y3707311D1*
X10787177Y3707936D1*
X10787525Y3708537D1*
X10787914Y3709113D1*
X10788343Y3709660D1*
X10788808Y3710176D1*
X10789309Y3710659D1*
X10789842Y3711105D1*
X10790405Y3711514D1*
X10790995Y3711882D1*
X10791610Y3712208D1*
X10792245Y3712490D1*
X10792899Y3712728D1*
X10793568Y3712919D1*
X10794249Y3713063D1*
X10794938Y3713160D1*
X10795633Y3713209D1*
X10796328D1*
X10797023Y3713160D1*
X10797712Y3713063D1*
X10798393Y3712919D1*
X10799062Y3712728D1*
X10799716Y3712490D1*
X10800351Y3712208D1*
X10800966Y3711882D1*
X10801556Y3711514D1*
X10802119Y3711105D1*
X10802652Y3710659D1*
X10803153Y3710176D1*
X10803618Y3709660D1*
X10804047Y3709113D1*
X10804436Y3708537D1*
X10804784Y3707936D1*
X10805089Y3707311D1*
X10805350Y3706668D1*
X10805565Y3706007D1*
X10805733Y3705333D1*
X10805854Y3704649D1*
X10805927Y3703958D1*
X10805951Y3703264D1*
X10805927Y3702570D1*
X10805854Y3701880D1*
X10805733Y3701196D1*
X10805565Y3700522D1*
X10805350Y3699861D1*
X10805089Y3699217D1*
X10804784Y3698593D1*
X10804436Y3697991D1*
X10804047Y3697416D1*
X10803618Y3696868D1*
X10803153Y3696352D1*
X10802652Y3695870D1*
X10802119Y3695423D1*
X10801556Y3695015D1*
X10800966Y3694647D1*
X10800351Y3694321D1*
X10799716Y3694039D1*
X10799062Y3693801D1*
X10798393Y3693610D1*
X10797712Y3693465D1*
X10797023Y3693369D1*
X10796328Y3693320D1*
X10795633D1*
X10794938Y3693369D1*
X10794249Y3693465D1*
X10793568Y3693610D1*
X10792899Y3693801D1*
X10792245Y3694039D1*
X10791610Y3694321D1*
X10790995Y3694647D1*
X10790405Y3695015D1*
X10789842Y3695423D1*
X10789309Y3695870D1*
X10788808Y3696352D1*
X10788343Y3696868D1*
X10787914Y3697416D1*
X10787525Y3697991D1*
X10787177Y3698593D1*
X10786872Y3699217D1*
X10786611Y3699861D1*
X10786396Y3700522D1*
X10786228Y3701196D1*
X10786107Y3701880D1*
X10786034Y3702570D1*
X10786010Y3703264D1*
X10701071D2*
X10701095Y3703958D1*
X10701168Y3704649D1*
X10701289Y3705333D1*
X10701457Y3706007D1*
X10701672Y3706668D1*
X10701933Y3707311D1*
X10702238Y3707936D1*
X10702586Y3708537D1*
X10702975Y3709113D1*
X10703404Y3709660D1*
X10703869Y3710176D1*
X10704370Y3710659D1*
X10704903Y3711105D1*
X10705466Y3711514D1*
X10706056Y3711882D1*
X10706671Y3712208D1*
X10707306Y3712490D1*
X10707960Y3712728D1*
X10708629Y3712919D1*
X10709310Y3713063D1*
X10709999Y3713160D1*
X10710694Y3713209D1*
X10711389D1*
X10712084Y3713160D1*
X10712773Y3713063D1*
X10713454Y3712919D1*
X10714123Y3712728D1*
X10714777Y3712490D1*
X10715412Y3712208D1*
X10716027Y3711882D1*
X10716617Y3711514D1*
X10717180Y3711105D1*
X10717713Y3710659D1*
X10718214Y3710176D1*
X10718679Y3709660D1*
X10719108Y3709113D1*
X10719497Y3708537D1*
X10719845Y3707936D1*
X10720150Y3707311D1*
X10720411Y3706668D1*
X10720626Y3706007D1*
X10720794Y3705333D1*
X10720915Y3704649D1*
X10720988Y3703958D1*
X10721012Y3703264D1*
X10720988Y3702570D1*
X10720915Y3701880D1*
X10720794Y3701196D1*
X10720626Y3700522D1*
X10720411Y3699861D1*
X10720150Y3699217D1*
X10719845Y3698593D1*
X10719497Y3697991D1*
X10719108Y3697416D1*
X10718679Y3696868D1*
X10718214Y3696352D1*
X10717713Y3695870D1*
X10717180Y3695423D1*
X10716617Y3695015D1*
X10716027Y3694647D1*
X10715412Y3694321D1*
X10714777Y3694039D1*
X10714123Y3693801D1*
X10713454Y3693610D1*
X10712773Y3693465D1*
X10712084Y3693369D1*
X10711389Y3693320D1*
X10710694D1*
X10709999Y3693369D1*
X10709310Y3693465D1*
X10708629Y3693610D1*
X10707960Y3693801D1*
X10707306Y3694039D1*
X10706671Y3694321D1*
X10706056Y3694647D1*
X10705466Y3695015D1*
X10704903Y3695423D1*
X10704370Y3695870D1*
X10703869Y3696352D1*
X10703404Y3696868D1*
X10702975Y3697416D1*
X10702586Y3697991D1*
X10702238Y3698593D1*
X10701933Y3699217D1*
X10701672Y3699861D1*
X10701457Y3700522D1*
X10701289Y3701196D1*
X10701168Y3701880D1*
X10701095Y3702570D1*
X10701071Y3703264D1*
X10786010D2*
X10705970Y3738262D1*
X11080985Y4003318D2*
D10*
X10421000D1*
Y3403296D1*
X11080985D1*
Y4003318D1*
D27*
X2236450Y2975762D3*
X2491470Y2635765D2*
D10*
X2491872Y2647275D1*
X2493076Y2658730D1*
X2495076Y2670073D1*
X2497863Y2681249D1*
X2501423Y2692203D1*
X2505738Y2702882D1*
X2510788Y2713234D1*
X2516548Y2723209D1*
X2522989Y2732757D1*
X2530081Y2741833D1*
X2537789Y2750393D1*
X2546076Y2758394D1*
X2554900Y2765797D1*
X2564220Y2772567D1*
X2573989Y2778671D1*
X2584160Y2784078D1*
X2594684Y2788763D1*
X2605508Y2792702D1*
X2616582Y2795877D1*
X2627849Y2798271D1*
X2639257Y2799874D1*
X2650748Y2800678D1*
X2662268D1*
X2673759Y2799874D1*
X2685166Y2798271D1*
X2696434Y2795877D1*
X2707507Y2792702D1*
X2718332Y2788763D1*
X2728856Y2784078D1*
X2739027Y2778671D1*
X2748796Y2772567D1*
X2758116Y2765797D1*
X2766940Y2758394D1*
X2775226Y2750393D1*
X2782934Y2741833D1*
X2790027Y2732757D1*
X2796468Y2723209D1*
X2802228Y2713234D1*
X2807278Y2702882D1*
X2811593Y2692203D1*
X2815153Y2681249D1*
X2817940Y2670073D1*
X2819940Y2658730D1*
X2821144Y2647275D1*
X2821546Y2635765D1*
X2821144Y2624254D1*
X2819940Y2612799D1*
X2817940Y2601456D1*
X2815153Y2590281D1*
X2811593Y2579327D1*
X2807278Y2568648D1*
X2802228Y2558296D1*
X2796468Y2548321D1*
X2790027Y2538772D1*
X2782934Y2529696D1*
X2775226Y2521137D1*
X2766940Y2513136D1*
X2758116Y2505732D1*
X2748796Y2498962D1*
X2739027Y2492859D1*
X2728856Y2487452D1*
X2718332Y2482767D1*
X2707507Y2478828D1*
X2696434Y2475653D1*
X2685166Y2473258D1*
X2673759Y2471655D1*
X2662268Y2470852D1*
X2650748D1*
X2639257Y2471655D1*
X2627849Y2473258D1*
X2616582Y2475653D1*
X2605508Y2478828D1*
X2594684Y2482767D1*
X2584160Y2487452D1*
X2573989Y2492859D1*
X2564220Y2498962D1*
X2554900Y2505732D1*
X2546076Y2513136D1*
X2537789Y2521137D1*
X2530081Y2529696D1*
X2522989Y2538772D1*
X2516548Y2548321D1*
X2510788Y2558296D1*
X2505738Y2568648D1*
X2501423Y2579327D1*
X2497863Y2590281D1*
X2495076Y2601456D1*
X2493076Y2612799D1*
X2491872Y2624254D1*
X2491470Y2635765D1*
X2536504Y2705765D2*
D24*
X2776512D1*
X2536504Y2565764D2*
X2776512D1*
X2656508Y2705765D2*
Y2690723D1*
Y2565764D2*
Y2580806D1*
X2646558Y2680753D2*
X2646582Y2681448D1*
X2646654Y2682140D1*
X2646775Y2682826D1*
X2646943Y2683501D1*
X2647158Y2684163D1*
X2647418Y2684808D1*
X2647722Y2685434D1*
X2648070Y2686036D1*
X2648458Y2686613D1*
X2648886Y2687162D1*
X2649350Y2687679D1*
X2649850Y2688162D1*
X2650382Y2688610D1*
X2650944Y2689019D1*
X2651533Y2689387D1*
X2652146Y2689714D1*
X2652780Y2689997D1*
X2653433Y2690235D1*
X2654101Y2690427D1*
X2654780Y2690572D1*
X2655468Y2690669D1*
X2656161Y2690717D1*
X2656855D1*
X2657548Y2690669D1*
X2658236Y2690572D1*
X2658915Y2690427D1*
X2659583Y2690235D1*
X2660235Y2689997D1*
X2660870Y2689714D1*
X2661483Y2689387D1*
X2662072Y2689019D1*
X2662634Y2688610D1*
X2663166Y2688162D1*
X2663666Y2687679D1*
X2664130Y2687162D1*
X2664558Y2686613D1*
X2664946Y2686036D1*
X2665294Y2685434D1*
X2665598Y2684808D1*
X2665858Y2684163D1*
X2666073Y2683501D1*
X2666241Y2682826D1*
X2666361Y2682140D1*
X2666434Y2681448D1*
X2666458Y2680753D1*
X2666434Y2680057D1*
X2666361Y2679365D1*
X2666241Y2678680D1*
X2666073Y2678004D1*
X2665858Y2677343D1*
X2665598Y2676697D1*
X2665294Y2676072D1*
X2664946Y2675469D1*
X2664558Y2674892D1*
X2664130Y2674344D1*
X2663666Y2673827D1*
X2663166Y2673343D1*
X2662634Y2672896D1*
X2662072Y2672487D1*
X2661483Y2672118D1*
X2660870Y2671791D1*
X2660235Y2671508D1*
X2659583Y2671270D1*
X2658915Y2671078D1*
X2658236Y2670934D1*
X2657548Y2670837D1*
X2656855Y2670788D1*
X2656161D1*
X2655468Y2670837D1*
X2654780Y2670934D1*
X2654101Y2671078D1*
X2653433Y2671270D1*
X2652780Y2671508D1*
X2652146Y2671791D1*
X2651533Y2672118D1*
X2650944Y2672487D1*
X2650382Y2672896D1*
X2649850Y2673343D1*
X2649350Y2673827D1*
X2648886Y2674344D1*
X2648458Y2674892D1*
X2648070Y2675469D1*
X2647722Y2676072D1*
X2647418Y2676697D1*
X2647158Y2677343D1*
X2646943Y2678004D1*
X2646775Y2678680D1*
X2646654Y2679365D1*
X2646582Y2680057D1*
X2646558Y2680753D1*
Y2595814D2*
X2646582Y2596509D1*
X2646654Y2597201D1*
X2646775Y2597887D1*
X2646943Y2598562D1*
X2647158Y2599224D1*
X2647418Y2599869D1*
X2647722Y2600495D1*
X2648070Y2601097D1*
X2648458Y2601674D1*
X2648886Y2602223D1*
X2649350Y2602740D1*
X2649850Y2603223D1*
X2650382Y2603671D1*
X2650944Y2604080D1*
X2651533Y2604448D1*
X2652146Y2604775D1*
X2652780Y2605058D1*
X2653433Y2605296D1*
X2654101Y2605488D1*
X2654780Y2605633D1*
X2655468Y2605730D1*
X2656161Y2605778D1*
X2656855D1*
X2657548Y2605730D1*
X2658236Y2605633D1*
X2658915Y2605488D1*
X2659583Y2605296D1*
X2660235Y2605058D1*
X2660870Y2604775D1*
X2661483Y2604448D1*
X2662072Y2604080D1*
X2662634Y2603671D1*
X2663166Y2603223D1*
X2663666Y2602740D1*
X2664130Y2602223D1*
X2664558Y2601674D1*
X2664946Y2601097D1*
X2665294Y2600495D1*
X2665598Y2599869D1*
X2665858Y2599224D1*
X2666073Y2598562D1*
X2666241Y2597887D1*
X2666361Y2597201D1*
X2666434Y2596509D1*
X2666458Y2595814D1*
X2666434Y2595118D1*
X2666361Y2594426D1*
X2666241Y2593741D1*
X2666073Y2593065D1*
X2665858Y2592404D1*
X2665598Y2591758D1*
X2665294Y2591133D1*
X2664946Y2590530D1*
X2664558Y2589953D1*
X2664130Y2589405D1*
X2663666Y2588888D1*
X2663166Y2588404D1*
X2662634Y2587957D1*
X2662072Y2587548D1*
X2661483Y2587179D1*
X2660870Y2586852D1*
X2660235Y2586569D1*
X2659583Y2586331D1*
X2658915Y2586139D1*
X2658236Y2585995D1*
X2657548Y2585898D1*
X2656855Y2585849D1*
X2656161D1*
X2655468Y2585898D1*
X2654780Y2585995D1*
X2654101Y2586139D1*
X2653433Y2586331D1*
X2652780Y2586569D1*
X2652146Y2586852D1*
X2651533Y2587179D1*
X2650944Y2587548D1*
X2650382Y2587957D1*
X2649850Y2588404D1*
X2649350Y2588888D1*
X2648886Y2589405D1*
X2648458Y2589953D1*
X2648070Y2590530D1*
X2647722Y2591133D1*
X2647418Y2591758D1*
X2647158Y2592404D1*
X2646943Y2593065D1*
X2646775Y2593741D1*
X2646654Y2594426D1*
X2646582Y2595118D1*
X2646558Y2595814D1*
X2656508Y2670782D2*
X2621510Y2590742D1*
X2356454Y2965757D2*
D10*
X2956476D1*
Y2305772D1*
X2356454D1*
Y2965757D1*
X8072300Y8284782D2*
X9088300D1*
X8950327Y7839788D2*
D24*
X8210273D1*
Y8409806D1*
X8950327D1*
Y7839788D1*
X3757325Y1322989D2*
D10*
X3809343Y1286554D1*
X7500165Y6233349D2*
X7436661D1*
X6525748Y3684526D2*
X6589252D1*
X7496801Y3748490D2*
X7541709Y3793398D1*
X4776329Y3807575D2*
X4831322Y3775827D1*
X7528957Y2662840D2*
X7573866Y2707748D1*
X7993874Y4028483D2*
X8038783Y4073392D1*
X8477617Y1718924D2*
X8520102Y1766125D1*
X4111276Y5963405D2*
X4066367Y5918496D1*
X7486247Y7651520D2*
Y7715024D1*
X5423999Y6281632D2*
X5360495D1*
X5308509Y3603945D2*
X5363502Y3572197D1*
X9436633Y6680496D2*
X9391724Y6725405D1*
X4575878Y2479262D2*
X4627897Y2442827D1*
X8094323Y3732082D2*
D20*
X11493073Y3727256D1*
X9690170Y5422889D2*
Y2169116D1*
X1006823Y3732082D2*
X4405573Y3727256D1*
X2645670Y5422889D2*
Y2169116D1*
X6285900Y8671166D2*
X7684917D1*
Y8368676D1*
X6285900D1*
Y8671166D1*
M02*
