%TF.GenerationSoftware,Novarm,DipTrace,3.0.0.2*%
%TF.CreationDate,2017-10-23T18:11:06+01:00*%
%FSLAX35Y35*%
%MOMM*%
%TF.FileFunction,Copper,L1,Top*%
%TF.Part,Single*%
%AMOUTLINE0*
4,1,4,
-2.78247,0.80963,
-0.80963,2.78247,
2.78247,-0.80963,
0.80963,-2.78247,
-2.78247,0.80963,
0*%
%AMOUTLINE3*
4,1,4,
-1.3925,0.7,
1.3925,0.7,
1.3925,-0.7,
-1.3925,-0.7,
-1.3925,0.7,
0*%
%AMOUTLINE6*
4,1,4,
-0.445,0.775,
1.2,0.775,
1.2,-0.775,
-0.445,-0.775,
-0.445,0.775,
0*%
%AMOUTLINE9*
4,1,4,
-1.2,-0.775,
-1.2,0.775,
0.445,0.775,
0.445,-0.775,
-1.2,-0.775,
0*%
%AMOUTLINE12*
4,1,4,
0.53867,0.14167,
0.05113,-0.55463,
-0.53867,-0.14167,
-0.05113,0.55463,
0.53867,0.14167,
0*%
%AMOUTLINE15*
4,1,4,
0.04597,-0.55507,
-0.55507,0.04597,
-0.04597,0.55507,
0.55507,-0.04597,
0.04597,-0.55507,
0*%
%AMOUTLINE18*
4,1,4,
-0.52427,-0.18807,
-0.09927,0.54807,
0.52427,0.18807,
0.09927,-0.54807,
-0.52427,-0.18807,
0*%
%AMOUTLINE21*
4,1,4,
0.07493,-0.5519,
-0.55673,0.01683,
-0.07493,0.5519,
0.55673,-0.01683,
0.07493,-0.5519,
0*%
%AMOUTLINE24*
4,1,4,
0.52427,0.18807,
0.09927,-0.54807,
-0.52427,-0.18807,
-0.09927,0.54807,
0.52427,0.18807,
0*%
%AMOUTLINE27*
4,1,4,
-0.55507,-0.04597,
0.04597,0.55507,
0.55507,0.04597,
-0.04597,-0.55507,
-0.55507,-0.04597,
0*%
%AMOUTLINE30*5,1,4,0,0,1.13139,-169.99984*%
%AMOUTLINE33*5,1,4,0,0,1.1314,-90.0*%
%AMOUTLINE36*5,1,4,0,0,1.13135,-165.00073*%
%AMOUTLINE39*5,1,4,0,0,1.13135,-87.00052*%
%AMOUTLINE42*5,1,4,0,0,1.13135,14.99927*%
%AMOUTLINE45*5,1,4,0,0,1.1314,-180.0*%
%TA.AperFunction,Conductor*%
%ADD10C,0.25*%
%ADD14C,0.2*%
%ADD15C,0.5*%
%ADD16C,0.3*%
%ADD17C,0.35*%
%ADD22C,17.78*%
%ADD26R,1.4X2.785*%
%ADD28R,2.785X1.4*%
%ADD29R,0.72X0.85*%
%ADD30R,0.85X0.72*%
%ADD31R,1.1X1.0*%
%ADD33R,1.66X2.0*%
%ADD34R,0.4X1.35*%
%TA.AperFunction,ComponentPad*%
%ADD35O,1.25X0.95*%
%ADD36R,1.5X1.55*%
%ADD38R,1.6X0.3*%
%ADD39R,0.3X1.6*%
%ADD41R,1.1X0.6*%
%ADD42R,0.8X0.8*%
%TA.AperFunction,ViaPad*%
%ADD43C,0.6*%
%ADD80OUTLINE0*%
%ADD83OUTLINE3*%
%TA.AperFunction,ComponentPad*%
%ADD86OUTLINE6*%
%ADD89OUTLINE9*%
%ADD92OUTLINE12*%
%ADD95OUTLINE15*%
%ADD98OUTLINE18*%
%ADD101OUTLINE21*%
%ADD104OUTLINE24*%
%ADD107OUTLINE27*%
%ADD110OUTLINE30*%
%ADD113OUTLINE33*%
%ADD116OUTLINE36*%
%ADD119OUTLINE39*%
%ADD122OUTLINE42*%
%ADD125OUTLINE45*%
%TA.AperFunction,CopperBalancing*%
%ADD128C,0.25*%
G75*
G01*
%LPD*%
X5635500Y6784072D2*
D14*
Y6910776D1*
D15*
Y6784409D1*
D14*
X5514617D1*
X5463460Y6733252D1*
Y6390866D1*
X5477810Y6376516D1*
X5654403D1*
X5701827Y6329092D1*
Y6066092D1*
X5732313Y6035606D1*
Y6033366D1*
X6048087Y5805182D2*
X5994540Y5751636D1*
X5888403D1*
X5635500Y6910776D2*
D15*
X5783623D1*
X5891097Y7018249D1*
Y7375012D1*
X5956947Y9600616D2*
D14*
Y9397409D1*
X5784187Y9224649D1*
X6233403Y6346636D2*
Y6233892D1*
X6200587Y6201076D1*
Y6129939D1*
X6173000Y6102352D1*
Y6088609D1*
X6143500Y6624522D2*
D10*
Y6537362D1*
X6233403Y6447459D1*
Y6346636D1*
X6333403Y5506636D2*
D14*
Y5610046D1*
X6296517Y5646932D1*
Y5795599D1*
X6328763Y5827846D1*
Y5899086D1*
X9432000Y2860772D2*
X9027467D1*
X8990373Y2823679D1*
X6778500Y5045386D2*
X6781877D1*
X6728530Y5098732D1*
X6293663D1*
X6241403Y5046472D1*
X6728403Y5751636D2*
X6638017D1*
X6629610Y5743229D1*
X6560577D1*
X6525660Y5778146D1*
X6491033D1*
X6459117Y5810062D1*
Y5821859D1*
X6453900Y5827076D1*
Y5883819D1*
X6420217Y5917502D1*
X10526000Y3424772D2*
Y3362429D1*
X10652000Y3236429D1*
X6873750Y4252429D2*
X6516090D1*
X6728403Y5651636D2*
X6564480D1*
Y5639509D1*
X2935000Y2410772D2*
X3127250D1*
X6483403Y5506636D2*
Y5674842D1*
X6485490D1*
X1326000Y3469772D2*
Y3268179D1*
X6728403Y5701636D2*
X6544110D1*
X6510657Y5735089D1*
X6470590D1*
X6418670Y5787009D1*
Y5795759D1*
X6389573Y5824856D1*
Y5837266D1*
X4018000Y3498272D2*
X4198907D1*
X4212240Y3484939D1*
X6483403Y6346636D2*
Y6127806D1*
X6492813D1*
Y6122612D1*
X6481807Y6111606D1*
X8358500Y3960772D2*
X8213157D1*
X8175500Y3998429D1*
X7132050Y5026799D2*
Y6153129D1*
X7053403Y6231776D1*
X5888403Y6151636D2*
X5766697Y6151836D1*
X9963500Y5115772D2*
Y5226679D1*
X9890000Y5300179D1*
X7004500Y5147716D2*
Y5141429D1*
X5486387D1*
X6383403Y5506636D2*
Y5649409D1*
X6361403Y5671409D1*
X6358130D1*
X2876000Y5039772D2*
Y5202179D1*
X2873250Y5204929D1*
X6083403Y6346636D2*
D10*
X6085713Y6224309D1*
X8450300Y7869806D2*
D15*
Y7744929D1*
X8334250Y7776679D2*
Y7865856D1*
X8330300Y7869806D1*
X8420390Y7525226D2*
X8494567D1*
X8524697Y7555356D1*
Y7598429D1*
X8543243Y7616976D1*
X8610890D1*
X6533403Y5506636D2*
D10*
Y5402129D1*
X6487250Y5355976D1*
Y5295156D1*
X6487357Y5295049D1*
X6728403Y6151636D2*
X6822157D1*
X6864223Y6193702D1*
Y6325746D1*
X5888403Y5851636D2*
X5787327D1*
X5772357Y5866606D1*
Y5886832D1*
X5762573Y5896616D1*
X5641593D1*
X5635500Y5890522D1*
X8524697Y7542009D2*
D15*
Y7555356D1*
X5635500Y6208022D2*
X5626223D1*
Y6314946D1*
X5392247Y6202886D2*
D14*
Y6314946D1*
X5626223D1*
X5888403Y5851636D2*
X5997287D1*
X6009123Y5863472D1*
X6019633D1*
X6025937Y5869776D1*
X6084777D1*
X6112823Y5897822D1*
Y5998276D1*
X6032240Y6078859D1*
Y6170836D1*
X6085713Y6224309D1*
X6864223Y6325746D2*
X7182763D1*
X7196040D1*
Y6427219D1*
Y6826149D1*
X7355447Y6985556D1*
Y7534132D1*
X7409403Y7588089D1*
Y7681369D1*
X7407500Y7683272D1*
X7468413Y6154602D2*
X7469247D1*
Y6248382D1*
X7196040Y6110482D2*
Y6158176D1*
X7182763Y6171452D1*
Y6325746D1*
X6651500Y6629072D2*
X6583773D1*
X6524500D1*
Y6628272D1*
X8480300Y8139806D2*
X8680300D1*
X8480300D2*
X8230300D1*
X8930300D2*
X8680300D1*
X6651500Y6629072D2*
D15*
X6524500D1*
Y6628272D1*
X5762500Y6780322D2*
X5889500D1*
X6270500Y6779522D2*
X6143500D1*
X5889500Y6780322D2*
Y6889182D1*
X6143930D2*
Y6779952D1*
X6143500Y6779522D1*
X7364330Y8339686D2*
X7502920D1*
X7574240Y8411006D1*
X7730863D1*
X7918253Y8223616D1*
Y8045156D1*
X7917450Y8044352D1*
X6583403Y5506636D2*
D10*
Y5408822D1*
X6642937Y5349289D1*
Y5295629D1*
X6642357Y5295049D1*
X5888403Y6201636D2*
D16*
Y6246172D1*
D15*
X5858600Y6275976D1*
X5762500Y6372076D1*
Y6625322D1*
Y6531782D1*
X5635500D1*
Y6629072D1*
X5888403Y5801636D2*
D10*
X5792197D1*
X5771707Y5781146D1*
Y5756356D1*
X5758657Y5743306D1*
X5643283D1*
X5635500Y5735522D1*
D15*
X5507833D1*
X5484417Y5758939D1*
Y6053022D1*
X5540250D1*
X5635500D1*
X6728403Y6201636D2*
D10*
X6709223D1*
Y6325746D1*
X7876683Y6890966D2*
D15*
Y6935006D1*
X7883297Y6941619D1*
Y7129242D1*
X7882657Y7129882D1*
Y7430226D1*
X8150390D1*
X6651500Y6784072D2*
Y6874996D1*
X6875830D2*
Y6530806D1*
X6651500Y6784072D2*
X6524500D1*
Y6783272D1*
X6642357Y5295049D2*
X6871443Y5293549D1*
X7424147D2*
X7876330Y5745732D1*
Y6890612D1*
X7876683Y6890966D1*
Y6891979D2*
X7740943D1*
X5762500Y6638316D2*
Y6625322D1*
X5889500D2*
Y6531782D1*
X5762500D1*
X6033403Y6346636D2*
D16*
X5993403D1*
D15*
X5929260D1*
X5858600Y6275976D1*
X6875830Y6530806D2*
X6760460Y6415436D1*
X6709697D1*
Y6326219D1*
X6709223Y6325746D1*
X6016500Y6780322D2*
D10*
X6020850D1*
Y7481332D1*
X6047047Y7507529D1*
Y7614949D1*
X7132913Y7687902D2*
X7242870D1*
X7247500Y7683272D1*
X8321433Y1902276D2*
D15*
X8319970D1*
X8021687Y2200559D1*
X5392247Y5816886D2*
D14*
Y6042886D1*
X5455383Y3794836D2*
X5603750Y4030179D1*
X5635500D1*
X5750000Y3973039D1*
X9245360Y6534132D2*
X8978360D1*
X8933100Y6488872D1*
X4738827Y2656609D2*
X4939147Y2938329D1*
X4257640Y5772132D2*
X4397250Y5617679D1*
Y5522429D1*
X4349580Y5476969D1*
X8150390Y7620226D2*
X7982703D1*
X7921500Y7681429D1*
Y7885302D1*
X7917450Y7889352D1*
X7847510Y4219756D2*
X7699250Y4347679D1*
X7637107D1*
X7574100Y4284672D1*
X7382593Y2854112D2*
X7159500Y3045929D1*
X7061357D1*
X6995100Y2979672D1*
X4923203Y3998466D2*
X5032250Y4188929D1*
X5095750Y4220679D1*
X5178500Y4163539D1*
X7350437Y3939762D2*
X7228270Y4061929D1*
X7127750D1*
X7025100Y3966672D1*
X3920273Y1500336D2*
X4202553Y1858796D1*
X7468413Y5831402D2*
Y5994602D1*
X6557500Y3923272D2*
X6551030D1*
X6449900Y4024402D1*
Y4584372D1*
X6554917Y4689389D1*
X5888403Y5901636D2*
X5990253D1*
X6025840Y5937222D1*
X6048947D1*
Y5935212D1*
X5706500Y4966272D2*
Y5015132D1*
X5895123D1*
X5320543Y5107396D2*
Y6768629D1*
X5480870Y6928956D1*
X5561933D1*
X5588503Y6955526D1*
Y7003072D1*
X5615073Y7029642D1*
X5749323D1*
Y7197409D1*
X5797517Y7245602D1*
X6500267Y7353896D2*
Y7908486D1*
X6791263Y8199479D1*
X6583403Y6346636D2*
Y6468209D1*
X6629950Y6514756D1*
X6759037D1*
X6811707Y6567426D1*
Y6622149D1*
X6792480Y6641376D1*
Y8000722D1*
X7069693Y8277936D1*
X7587080D1*
X7619783Y8310639D1*
Y8325092D1*
X7616487Y8328389D1*
X6728403Y6101636D2*
X6835430D1*
X6897847Y6164052D1*
X7010773D1*
X7005540Y6158819D1*
X7247713Y6243329D2*
Y6339559D1*
X7266933Y6358779D1*
Y6787489D1*
X7428007Y6948562D1*
Y7459449D1*
X7681057Y7712499D1*
Y8205512D1*
X6083403Y5506636D2*
Y5703799D1*
X6072470Y5714732D1*
Y5723629D1*
X5256000Y4297772D2*
X5314540Y4394246D1*
X5888403Y5651636D2*
X5780293D1*
X5763077Y5634419D1*
X5748297D1*
X5392247Y5661886D2*
X5479387D1*
X6728403Y5801636D2*
X6589257D1*
Y5804466D1*
X6554917Y4844389D2*
X6534843D1*
X6593820Y4903366D1*
Y4934066D1*
X6183403Y6346636D2*
X6185520D1*
Y6244846D1*
X6151900Y6211226D1*
Y6189162D1*
X6101467Y6138729D1*
X8074637Y6308689D2*
X8752917D1*
X8823500Y6379272D1*
X6133403Y6346636D2*
D10*
Y6453886D1*
X6021023Y6566266D1*
Y6625322D1*
X6016500D1*
X6728403Y5851636D2*
D14*
X6637050D1*
X6623120Y5865566D1*
X6518113D1*
Y5853846D1*
X6885500Y3089272D2*
Y3095306D1*
X6818170Y3162636D1*
X6533403Y6346636D2*
Y6208309D1*
X6544300D1*
X7464500Y4394272D2*
X7403140Y4455632D1*
X6433403Y5506636D2*
Y5643009D1*
X6423367Y5653046D1*
Y5692796D1*
X6358890Y5757272D1*
X5827500Y4107272D2*
X5879587Y4202976D1*
X6033403Y5506636D2*
Y5630379D1*
X6022793Y5640989D1*
Y5654142D1*
X4459180Y5367369D2*
X4461807D1*
X4536790Y5292386D1*
X6433403Y6346636D2*
Y6457469D1*
X6531370Y6555436D1*
X6708183D1*
X6747593Y6594846D1*
X7467957D2*
Y6344502D1*
X7388683Y6265229D1*
Y5699739D1*
X7412020Y5676402D1*
X7468413D1*
X6233403Y5506636D2*
Y5595589D1*
X6212463Y5616529D1*
Y5712996D1*
X6139003Y5786456D1*
X4291460Y1985762D2*
X4356347Y2079742D1*
X4556000Y3331679D2*
X4619500Y3395179D1*
X4778250D1*
X4905250Y3522179D1*
Y3585679D1*
X6283403Y5506636D2*
Y5602649D1*
X6253440Y5632612D1*
Y5874856D1*
X6243417Y5884879D1*
X6237397D1*
X5028053Y3065296D2*
X5100347Y3175086D1*
Y3369486D1*
X5222750Y3530792D1*
Y3585679D1*
X6283403Y6346636D2*
Y6227159D1*
X6258340Y6202096D1*
Y6104606D1*
X6283403Y6346636D2*
Y6498572D1*
X6254917Y6527059D1*
Y6929102D2*
X6257787D1*
Y8105682D1*
X6728403Y5951636D2*
X6639217D1*
X6597210Y5993642D1*
X6546510D1*
X6512197Y5959329D1*
X6494707D1*
X6915500Y4076272D2*
X6842000Y4149772D1*
X6333403Y6346636D2*
Y6518906D1*
X6342687Y6528189D1*
Y7001892D2*
Y8171676D1*
X6728403Y5901636D2*
X6641593D1*
X6631347Y5911882D1*
X6574687D1*
Y5927342D1*
X7906500Y2304272D2*
Y2305862D1*
X7840517Y2371846D1*
X6728403Y6051636D2*
X6899940D1*
X6913243Y6038332D1*
X6997570D1*
X7028897Y6069659D1*
Y6075576D1*
X8561087Y7745952D2*
Y7750729D1*
X8551533Y7760282D1*
X8580300D1*
Y7869806D1*
X6728403Y6001636D2*
X6889923D1*
X6902833Y5988726D1*
X7032283D1*
Y5980812D1*
X8645300Y7869806D2*
Y7756459D1*
X8674743D1*
X8664240Y7745956D1*
X6270500Y6624522D2*
D10*
X6397500D1*
Y6628272D1*
X6417993D1*
X6421743Y6624522D1*
X6405630D1*
Y6496586D1*
X6383403Y6474359D1*
Y6346636D1*
X8515300Y7869806D2*
Y7957372D1*
X8488987Y7983686D1*
X8158920D1*
X8094860Y8047746D1*
X4212443Y7251529D2*
D15*
Y7211629D1*
X4814887Y6609186D1*
X8145497Y6884632D2*
X8040350D1*
X8046683Y6890966D1*
X4212443Y7251529D2*
D14*
Y7251539D1*
X5764520Y8803616D2*
D15*
X5764530D1*
X8710300Y7869806D2*
D17*
Y7796366D1*
X8739700Y7766966D1*
Y7693422D1*
X8710300Y7664022D1*
Y7461976D1*
D15*
X8610890D1*
X8420390Y7620226D2*
D16*
X8314760D1*
D10*
X8305187Y7629799D1*
D16*
Y7641956D1*
X8224073Y7723069D1*
X8119040D1*
X8094860Y7747249D1*
Y7892746D1*
X8420390Y7430226D2*
D15*
X8516360D1*
X8546350Y7460216D1*
X8609130D1*
X8610890Y7461976D1*
X8420390Y7430226D2*
D16*
X8305187D1*
Y7629799D1*
X6478943Y7044009D2*
D15*
Y6946522D1*
X6397500Y6865079D1*
Y6783272D1*
D43*
X5732313Y6033366D3*
X6048087Y5805182D3*
X5891097Y7375012D3*
X5784187Y9224649D3*
X8990373Y2823679D3*
X6778500Y5045386D3*
X6241403Y5046472D3*
X10652000Y3236429D3*
X6873750Y4252429D3*
X6516090D3*
X3127250Y2410772D3*
X1326000Y3268179D3*
X4212240Y3484939D3*
X8175500Y3998429D3*
X7132050Y5026799D3*
X7053403Y6231776D3*
X9890000Y5300179D3*
X7004500Y5147716D3*
X5486387Y5141429D3*
X2873250Y5204929D3*
X8450300Y7744929D3*
X8334250Y7776679D3*
X8524697Y7542009D3*
X5626223Y6314946D3*
X7469247Y6248382D3*
X7196040Y6110482D3*
X6583773Y6629072D3*
X7196040Y6427219D3*
X5889500Y6889182D3*
X6143930D3*
X7364330Y8339686D3*
X5484417Y6053022D3*
X5858600Y6275976D3*
X6651500Y6874996D3*
X6875830D3*
Y6530806D3*
X5762500Y6531782D3*
X6871443Y5293549D3*
X7424147D3*
X7740943Y6891979D3*
X6047047Y7614949D3*
X7132913Y7687902D3*
X5895123Y5015132D3*
X5320543Y5107396D3*
X5797517Y7245602D3*
X6500267Y7353896D3*
X6791263Y8199479D3*
X5895123Y5015132D3*
X7616487Y8328389D3*
X7005540Y6158819D3*
X7247713Y6243329D3*
X7681057Y8205512D3*
X5314540Y4394246D3*
X5479387Y5661886D3*
X6593820Y4934066D3*
X6101467Y6138729D3*
X8074637Y6308689D3*
X6818170Y3162636D3*
X7403140Y4455632D3*
X5879587Y4202976D3*
X4536790Y5292386D3*
X6747593Y6594846D3*
X7467957D3*
X4356347Y2079742D3*
X4556000Y3331679D3*
X4905250Y3585679D3*
X5222750D3*
X6254917Y6527059D3*
Y6929102D3*
X6257787Y8105682D3*
X6842000Y4149772D3*
X6342687Y6528189D3*
Y7001892D3*
Y8171676D3*
X7840517Y2371846D3*
X8561087Y7745952D3*
X8664240Y7745956D3*
X4814887Y6609186D3*
X8145497Y6884632D3*
X4212443Y7251539D3*
X5764520Y8803616D3*
X6478943Y7044009D3*
X8710300Y7461976D3*
X5766697Y6151836D3*
X6048947Y5935212D3*
X5748297Y5634419D3*
X6022793Y5654142D3*
X6072470Y5723629D3*
X6139003Y5786456D3*
X6237397Y5884879D3*
X6328763Y5899086D3*
X6358130Y5671409D3*
X6358890Y5757272D3*
X6485490Y5674842D3*
X6564480Y5639509D3*
X6389573Y5837266D3*
X6420217Y5917502D3*
X6589257Y5804466D3*
X6518113Y5853846D3*
X6574687Y5927342D3*
X6494707Y5959329D3*
X7032283Y5980812D3*
X7028897Y6075576D3*
X6544300Y6208309D3*
X6481807Y6111606D3*
X6258340Y6104606D3*
X6173000Y6088609D3*
X6085713Y6224309D3*
X5756353Y9668012D2*
D128*
X5832943D1*
X5756353Y9643346D2*
X5832943D1*
X5756353Y9618679D2*
X5832943D1*
X5756353Y9594012D2*
X5832943D1*
X5756353Y9569346D2*
X5832943D1*
X5756353Y9544679D2*
X5832943D1*
X5756353Y9520012D2*
X5832943D1*
X5756353Y9495346D2*
X5832943D1*
X5756353Y9470679D2*
X5832943D1*
X5563480Y9446012D2*
X5905990D1*
X6007913D2*
X6024977D1*
X5563480Y9421346D2*
X5905990D1*
X6007913D2*
X6024977D1*
X5563480Y9396679D2*
X5885190D1*
X6007913D2*
X6024977D1*
X5563480Y9372012D2*
X5860530D1*
X6000737D2*
X6024983D1*
X5563480Y9347346D2*
X5835823D1*
X5977933D2*
X6024983D1*
X5563480Y9322679D2*
X5811167D1*
X5953277D2*
X6024983D1*
X5563480Y9298012D2*
X5786507D1*
X5928570D2*
X6024983D1*
X5563480Y9273346D2*
X5733530D1*
X5903910D2*
X6024983D1*
X5563480Y9248679D2*
X5717563D1*
X5879253D2*
X6024983D1*
X5563480Y9224012D2*
X5713167D1*
X5855180D2*
X6024983D1*
X5563480Y9199346D2*
X5718050D1*
X5850347D2*
X6041097D1*
X5554497Y9174679D2*
X5734847D1*
X5833550D2*
X6065757D1*
X5529837Y9150012D2*
X7854477D1*
X5505180Y9125346D2*
X7894517D1*
X5480523Y9100679D2*
X5645493D1*
X5724517D2*
X7913950D1*
X5455813Y9076012D2*
X5620833D1*
X5749173D2*
X7924690D1*
X5431157Y9051346D2*
X5596127D1*
X5773833D2*
X6138313D1*
X7808940D2*
X7929037D1*
X5406497Y9026679D2*
X5571470D1*
X5798490D2*
X6107063D1*
X7840190D2*
X7930013D1*
X4837747Y9002012D2*
X5546810D1*
X5823150D2*
X6082407D1*
X7864847D2*
X7930013D1*
X4747467Y8977346D2*
X5522153D1*
X5847857D2*
X6061217D1*
X7886040D2*
X7930013D1*
X4676763Y8952679D2*
X5497493D1*
X5872513D2*
X6054330D1*
X7892923D2*
X7930013D1*
X4617827Y8928012D2*
X5472837D1*
X5897173D2*
X6047740D1*
X7899517D2*
X7930013D1*
X4568313Y8903346D2*
X5450863D1*
X5921830D2*
X6041097D1*
X7906157D2*
X7930013D1*
X4521000Y8878679D2*
X5447447D1*
X5946490D2*
X6040513D1*
X7906743D2*
X7930013D1*
X4481987Y8854012D2*
X5462827D1*
X5971147D2*
X6047153D1*
X7900103D2*
X7930013D1*
X4442923Y8829346D2*
X5487483D1*
X5995853D2*
X6053743D1*
X7893510D2*
X7930013D1*
X4409820Y8804679D2*
X5512143D1*
X6020513D2*
X6060433D1*
X7886870D2*
X7930013D1*
X4377153Y8780012D2*
X5536800D1*
X6045170D2*
X6080210D1*
X7867047D2*
X7930013D1*
X4347467Y8755346D2*
X5561460D1*
X6069830D2*
X6104867D1*
X7842387D2*
X7930013D1*
X4319877Y8730679D2*
X5586117D1*
X6084623D2*
X6132210D1*
X7815043D2*
X7930013D1*
X4292337Y8706012D2*
X5610823D1*
X6080667D2*
X7930013D1*
X4268950Y8681346D2*
X5635483D1*
X6058353D2*
X7930013D1*
X4245660Y8656679D2*
X5660140D1*
X6033697D2*
X7930013D1*
X4222857Y8632012D2*
X5684800D1*
X6009037D2*
X7930013D1*
X4203177Y8607346D2*
X5709457D1*
X5984380D2*
X7930013D1*
X4183500Y8582679D2*
X5734117D1*
X5959720D2*
X7930013D1*
X4164067Y8558012D2*
X5758823D1*
X5935013D2*
X7930013D1*
X4147563Y8533346D2*
X5783480D1*
X5910357D2*
X7930013D1*
X4131060Y8508679D2*
X5808140D1*
X5885697D2*
X7930013D1*
X4114553Y8484012D2*
X7934410D1*
X4100393Y8459346D2*
X7951790D1*
X4086723Y8434679D2*
X7967610D1*
X9395853D2*
X9532847D1*
X4073050Y8410012D2*
X7980990D1*
X9322367D2*
X9556870D1*
X4060453Y8385346D2*
X7575913D1*
X7657037D2*
X7991977D1*
X9312407D2*
X9580893D1*
X4049370Y8360679D2*
X7553597D1*
X7679400D2*
X8000473D1*
X9302447D2*
X9604917D1*
X4038287Y8336012D2*
X7545933D1*
X7687063D2*
X8007210D1*
X9292533D2*
X9628890D1*
X4027200Y8311346D2*
X7032063D1*
X7685357D2*
X8012437D1*
X9282573D2*
X9652913D1*
X4018120Y8286679D2*
X7007407D1*
X7673343D2*
X8015660D1*
X9272610D2*
X9676937D1*
X4009427Y8262012D2*
X6760823D1*
X6821733D2*
X6982747D1*
X7722270D2*
X8018833D1*
X9262650D2*
X9700960D1*
X4000737Y8237346D2*
X6320687D1*
X6364653D2*
X6731673D1*
X6850833D2*
X6958040D1*
X7744193D2*
X8022007D1*
X9252690D2*
X9724983D1*
X3992437Y8212679D2*
X6285337D1*
X6400053D2*
X6721567D1*
X6860990D2*
X6933383D1*
X7075493D2*
X7610433D1*
X7751663D2*
X8144810D1*
X9015777D2*
X9749007D1*
X3985990Y8188012D2*
X6273667D1*
X6411723D2*
X6708773D1*
X6861283D2*
X6908723D1*
X7050833D2*
X7612337D1*
X7749760D2*
X8144810D1*
X9015777D2*
X9751547D1*
X3979547Y8163346D2*
X6218297D1*
X6413187D2*
X6684067D1*
X6851957D2*
X6884067D1*
X7026127D2*
X7624593D1*
X7737553D2*
X8144810D1*
X9015777D2*
X9751400D1*
X3973100Y8138679D2*
X6195247D1*
X6405230D2*
X6659410D1*
X6825297D2*
X6859410D1*
X7001470D2*
X7630110D1*
X7732037D2*
X8144810D1*
X9015777D2*
X9751253D1*
X3967533Y8114012D2*
X6187290D1*
X6393657D2*
X6634750D1*
X6776860D2*
X6834750D1*
X6976810D2*
X7630110D1*
X7732037D2*
X7840463D1*
X7994437D2*
X8017857D1*
X9015777D2*
X9751157D1*
X3963237Y8089346D2*
X6188753D1*
X6393657D2*
X6610093D1*
X6752153D2*
X6810043D1*
X6952153D2*
X7630110D1*
X7732037D2*
X7840463D1*
X7994437D2*
X8017857D1*
X9015777D2*
X9751010D1*
X3958940Y8064679D2*
X6200423D1*
X6393657D2*
X6585433D1*
X6727493D2*
X6785383D1*
X6927493D2*
X7630110D1*
X7732037D2*
X7840463D1*
X7994437D2*
X8017857D1*
X9015777D2*
X9750863D1*
X3954690Y8040012D2*
X6206820D1*
X6393657D2*
X6560777D1*
X6702837D2*
X6760727D1*
X6902837D2*
X7630110D1*
X7732037D2*
X7840463D1*
X7994437D2*
X8017857D1*
X9008647D2*
X9750717D1*
X3951517Y8015346D2*
X6206820D1*
X6393657D2*
X6536070D1*
X6678177D2*
X6743783D1*
X6878130D2*
X7630110D1*
X7732037D2*
X7840463D1*
X7994437D2*
X8017857D1*
X8531890D2*
X9750620D1*
X3949370Y7990679D2*
X6206820D1*
X6393657D2*
X6511410D1*
X6653520D2*
X6741537D1*
X6853470D2*
X7630110D1*
X7732037D2*
X7840463D1*
X7994437D2*
X8017857D1*
X8556400D2*
X9750473D1*
X3947173Y7966012D2*
X6206820D1*
X6393657D2*
X6486753D1*
X6628813D2*
X6741537D1*
X6843460D2*
X7630110D1*
X7732037D2*
X7840463D1*
X7994437D2*
X8017857D1*
X8771293D2*
X9750327D1*
X3944973Y7941346D2*
X6206820D1*
X6393657D2*
X6462143D1*
X6604153D2*
X6741537D1*
X6843460D2*
X7630110D1*
X7732037D2*
X7840463D1*
X7994437D2*
X8017857D1*
X8895513D2*
X9750180D1*
X3944243Y7916679D2*
X6206820D1*
X6393657D2*
X6449983D1*
X6579497D2*
X6741537D1*
X6843460D2*
X7630110D1*
X7732037D2*
X7840463D1*
X7994437D2*
X8017857D1*
X8171880D2*
X8240707D1*
X8919927D2*
X9750083D1*
X3944243Y7892012D2*
X6206820D1*
X6393657D2*
X6449300D1*
X6554837D2*
X6741537D1*
X6843460D2*
X7630110D1*
X7732037D2*
X7840463D1*
X7994437D2*
X8017857D1*
X8171880D2*
X8229720D1*
X8930863D2*
X9749937D1*
X3944243Y7867346D2*
X6206820D1*
X6393657D2*
X6449300D1*
X6551223D2*
X6741537D1*
X6843460D2*
X7630110D1*
X7732037D2*
X7840463D1*
X7994437D2*
X8017857D1*
X8171880D2*
X8226840D1*
X8933743D2*
X9749790D1*
X3944243Y7842679D2*
X6206820D1*
X6393657D2*
X6449300D1*
X6551223D2*
X6741537D1*
X6843460D2*
X7630110D1*
X7732037D2*
X7840463D1*
X7994437D2*
X8017857D1*
X8171880D2*
X8231187D1*
X8929400D2*
X9749643D1*
X3944243Y7818012D2*
X6206820D1*
X6393657D2*
X6449300D1*
X6551223D2*
X6741537D1*
X6843460D2*
X7630110D1*
X7732037D2*
X7840463D1*
X7994437D2*
X8017857D1*
X8171880D2*
X8244127D1*
X8916460D2*
X9749497D1*
X3944243Y7793346D2*
X6206820D1*
X6393657D2*
X6449300D1*
X6551223D2*
X6741537D1*
X6843460D2*
X7630110D1*
X7732037D2*
X7870540D1*
X7972467D2*
X8038900D1*
X8150833D2*
X8273423D1*
X8887163D2*
X9749400D1*
X3944243Y7768679D2*
X6206820D1*
X6393657D2*
X6449300D1*
X6551223D2*
X6741537D1*
X6843460D2*
X7630110D1*
X7732037D2*
X7870540D1*
X7972467D2*
X8038900D1*
X8254497D2*
X8389290D1*
X8798150D2*
X9749253D1*
X3944243Y7744012D2*
X6206820D1*
X6393657D2*
X6449300D1*
X6551223D2*
X6741537D1*
X6843460D2*
X7091097D1*
X7488480D2*
X7630110D1*
X7732037D2*
X7870540D1*
X7972467D2*
X8038997D1*
X8281253D2*
X8490120D1*
X8798150D2*
X9749107D1*
X3944243Y7719346D2*
X6206820D1*
X6393657D2*
X6449300D1*
X6551223D2*
X6741537D1*
X6843460D2*
X7069563D1*
X7488480D2*
X7616880D1*
X7732037D2*
X7870540D1*
X7972467D2*
X8046763D1*
X8305913D2*
X8495443D1*
X8798150D2*
X9748960D1*
X3944243Y7694679D2*
X6206820D1*
X6393657D2*
X6449300D1*
X6551223D2*
X6741537D1*
X6843460D2*
X7062240D1*
X7488480D2*
X7592173D1*
X7728617D2*
X7870540D1*
X7979300D2*
X8069320D1*
X8330570D2*
X8513167D1*
X8798150D2*
X9748860D1*
X3944243Y7670012D2*
X6003793D1*
X6090287D2*
X6206820D1*
X6393657D2*
X6449300D1*
X6551223D2*
X6741537D1*
X6843460D2*
X7064290D1*
X7488480D2*
X7567513D1*
X7709623D2*
X7871910D1*
X8003960D2*
X8054380D1*
X8516410D2*
X8533870D1*
X8793023D2*
X9748717D1*
X3944243Y7645346D2*
X5983140D1*
X6110940D2*
X6206820D1*
X6393657D2*
X6449300D1*
X6551223D2*
X6741537D1*
X6843460D2*
X7076743D1*
X7488480D2*
X7542857D1*
X7684967D2*
X7886557D1*
X8516410D2*
X8533870D1*
X8773297D2*
X9748570D1*
X3944243Y7620679D2*
X5976303D1*
X6117827D2*
X6206820D1*
X6393657D2*
X6449300D1*
X6551223D2*
X6741537D1*
X6843460D2*
X7117270D1*
X7148587D2*
X7166490D1*
X7488480D2*
X7518197D1*
X7660257D2*
X7911217D1*
X8516410D2*
X8533870D1*
X8768753D2*
X9748423D1*
X3944243Y7596012D2*
X5978697D1*
X6115383D2*
X6206820D1*
X6393657D2*
X6449300D1*
X6551223D2*
X6741537D1*
X6843460D2*
X7493540D1*
X7635600D2*
X7935873D1*
X8516410D2*
X8533870D1*
X8768753D2*
X9748323D1*
X3944243Y7571346D2*
X5991733D1*
X6102397D2*
X6206820D1*
X6393657D2*
X6449300D1*
X6551223D2*
X6741537D1*
X6843460D2*
X7468880D1*
X7610940D2*
X8054380D1*
X8516410D2*
X8533870D1*
X8768753D2*
X9748177D1*
X3944243Y7546679D2*
X4091490D1*
X4171490D2*
X5993587D1*
X6100493D2*
X6206820D1*
X6393657D2*
X6449300D1*
X6551223D2*
X6741537D1*
X6843460D2*
X7444173D1*
X7586283D2*
X8249203D1*
X8516410D2*
X8533870D1*
X8768753D2*
X9748030D1*
X3944243Y7522012D2*
X4066830D1*
X4196147D2*
X5986947D1*
X6100493D2*
X6206820D1*
X6393657D2*
X6449300D1*
X6551223D2*
X6741537D1*
X6843460D2*
X7419517D1*
X7561627D2*
X8249203D1*
X8516410D2*
X8529380D1*
X8768753D2*
X9747883D1*
X3944243Y7497346D2*
X4042173D1*
X4220803D2*
X5969957D1*
X6099467D2*
X6206820D1*
X6393657D2*
X6449300D1*
X6551223D2*
X6741537D1*
X6843460D2*
X7394857D1*
X7536967D2*
X8054380D1*
X8771440D2*
X9747740D1*
X3944243Y7472679D2*
X4017467D1*
X4245463D2*
X5967367D1*
X6086723D2*
X6206820D1*
X6393657D2*
X6449300D1*
X6551223D2*
X6741537D1*
X6843460D2*
X7378890D1*
X7512260D2*
X7832993D1*
X8780473D2*
X9747640D1*
X3944243Y7448012D2*
X3992807D1*
X4270120D2*
X5967367D1*
X6074320D2*
X6206820D1*
X6393657D2*
X6449300D1*
X6551223D2*
X6741537D1*
X6843460D2*
X7377037D1*
X7487603D2*
X7819223D1*
X8779837D2*
X9747493D1*
X3944243Y7423346D2*
X3968150D1*
X4294830D2*
X5840073D1*
X5942143D2*
X5967367D1*
X6074320D2*
X6206820D1*
X6393657D2*
X6449300D1*
X6551223D2*
X6741537D1*
X6843460D2*
X7377037D1*
X7478960D2*
X7816683D1*
X8769390D2*
X9747347D1*
X4319487Y7398679D2*
X5824300D1*
X5957867D2*
X5967417D1*
X6074320D2*
X6206820D1*
X6393657D2*
X6445933D1*
X6554593D2*
X6741537D1*
X6843460D2*
X7377037D1*
X7478960D2*
X7816683D1*
X8246390D2*
X8259500D1*
X8738970D2*
X9747200D1*
X4344143Y7374012D2*
X5820103D1*
X6074320D2*
X6206820D1*
X6393657D2*
X6432310D1*
X6568267D2*
X6741537D1*
X6843460D2*
X7377037D1*
X7478960D2*
X7816683D1*
X8246390D2*
X8324400D1*
X8548343D2*
X9747103D1*
X4368803Y7349346D2*
X5825083D1*
X5957083D2*
X5967417D1*
X6074320D2*
X6206820D1*
X6393657D2*
X6429427D1*
X6571097D2*
X6741537D1*
X6843460D2*
X7377037D1*
X7478960D2*
X7816683D1*
X7948637D2*
X9746957D1*
X4393460Y7324679D2*
X5825130D1*
X5957083D2*
X5967417D1*
X6074320D2*
X6206820D1*
X6393657D2*
X6435823D1*
X6564700D2*
X6741537D1*
X6843460D2*
X7377037D1*
X7478960D2*
X7816683D1*
X7948637D2*
X9746810D1*
X4418120Y7300012D2*
X5753403D1*
X5957083D2*
X5967417D1*
X6074320D2*
X6206820D1*
X6393657D2*
X6455453D1*
X6545073D2*
X6741537D1*
X6843460D2*
X7377037D1*
X7478960D2*
X7816683D1*
X7948637D2*
X9746663D1*
X4442827Y7275346D2*
X5733333D1*
X5957083D2*
X5967417D1*
X6074320D2*
X6206820D1*
X6393657D2*
X6741537D1*
X6843460D2*
X7377037D1*
X7478960D2*
X7816683D1*
X7948637D2*
X9746567D1*
X3944243Y7250679D2*
X3959093D1*
X4467483D2*
X5726693D1*
X5957083D2*
X5967417D1*
X6074320D2*
X6206820D1*
X6393657D2*
X6741537D1*
X6843460D2*
X7377037D1*
X7478960D2*
X7816683D1*
X7948637D2*
X9746420D1*
X3944243Y7226012D2*
X3983773D1*
X4492143D2*
X5707700D1*
X5957083D2*
X5967417D1*
X6074320D2*
X6206820D1*
X6393657D2*
X6741537D1*
X6843460D2*
X7377037D1*
X7478960D2*
X7816683D1*
X7948637D2*
X9746273D1*
X3944243Y7201346D2*
X4008433D1*
X4516800D2*
X5698520D1*
X5957083D2*
X5967417D1*
X6074320D2*
X6206820D1*
X6393657D2*
X6741537D1*
X6843460D2*
X7377037D1*
X7478960D2*
X7799153D1*
X8121147D2*
X9746127D1*
X3944243Y7176679D2*
X4033090D1*
X4531157D2*
X5698373D1*
X5957083D2*
X5967417D1*
X6074320D2*
X6206820D1*
X6393657D2*
X6741537D1*
X6843460D2*
X7377037D1*
X7478960D2*
X7799153D1*
X8121147D2*
X9745980D1*
X3944243Y7152012D2*
X4057797D1*
X4526910D2*
X5698373D1*
X5957083D2*
X5967417D1*
X6074320D2*
X6206820D1*
X6393657D2*
X6741537D1*
X6843460D2*
X7377037D1*
X7478960D2*
X7799153D1*
X8121147D2*
X9745883D1*
X3944243Y7127346D2*
X4082457D1*
X4504350D2*
X5698373D1*
X5957083D2*
X5967417D1*
X6074320D2*
X6206820D1*
X6393657D2*
X6741537D1*
X6843460D2*
X7377037D1*
X7478960D2*
X7799153D1*
X8121147D2*
X9745737D1*
X3944243Y7102679D2*
X4107113D1*
X4479690D2*
X5698373D1*
X5957083D2*
X5967417D1*
X6074320D2*
X6206820D1*
X6393657D2*
X6441097D1*
X6516800D2*
X6741537D1*
X6843460D2*
X7377037D1*
X7478960D2*
X7799153D1*
X8121147D2*
X9745590D1*
X3944243Y7078012D2*
X4131773D1*
X4455033D2*
X5609507D1*
X5957083D2*
X5967417D1*
X6074320D2*
X6206820D1*
X6393657D2*
X6416977D1*
X6540923D2*
X6741537D1*
X6843460D2*
X7377037D1*
X7478960D2*
X7799153D1*
X8121147D2*
X9745443D1*
X3944243Y7053346D2*
X4156430D1*
X4462993D2*
X5567757D1*
X5957083D2*
X5967417D1*
X6074320D2*
X6206820D1*
X6393657D2*
X6408537D1*
X6549320D2*
X6741537D1*
X6843460D2*
X7377037D1*
X7478960D2*
X7817320D1*
X7949273D2*
X9745347D1*
X3944243Y7028679D2*
X4181087D1*
X4487650D2*
X5544857D1*
X5957083D2*
X5967417D1*
X6074320D2*
X6206820D1*
X6548197D2*
X6741537D1*
X6843460D2*
X7377037D1*
X7478960D2*
X7817320D1*
X7949273D2*
X9745200D1*
X3944243Y7004012D2*
X4205797D1*
X4512310D2*
X5537533D1*
X5955423D2*
X5967347D1*
X6074320D2*
X6206820D1*
X6544927D2*
X6741537D1*
X6843460D2*
X7377037D1*
X7478960D2*
X7817320D1*
X7949273D2*
X9745053D1*
X3944243Y6979346D2*
X4230453D1*
X4536967D2*
X5537533D1*
X5943753D2*
X5967367D1*
X6074320D2*
X6205843D1*
X6544927D2*
X6741537D1*
X6843460D2*
X7377037D1*
X7478960D2*
X7780697D1*
X8142680D2*
X9744907D1*
X3944243Y6954679D2*
X4255110D1*
X4331693D2*
X4377133D1*
X4561627D2*
X5435530D1*
X5919780D2*
X5967367D1*
X6074320D2*
X6188853D1*
X6544927D2*
X6741537D1*
X6843460D2*
X7363070D1*
X7478960D2*
X7710873D1*
X8142680D2*
X9744810D1*
X3944243Y6930012D2*
X4401790D1*
X4586333D2*
X5410873D1*
X5895120D2*
X5967367D1*
X6074320D2*
X6183920D1*
X6325933D2*
X6370200D1*
X6542730D2*
X6608187D1*
X6694830D2*
X6741537D1*
X6919143D2*
X7338413D1*
X7475297D2*
X7681480D1*
X8199320D2*
X9744663D1*
X3944243Y6905346D2*
X4426450D1*
X4610990D2*
X5386217D1*
X5870463D2*
X5967367D1*
X6074320D2*
X6188167D1*
X6321683D2*
X6345933D1*
X6529740D2*
X6587583D1*
X6715383D2*
X6741537D1*
X6939750D2*
X7313753D1*
X7455813D2*
X7671273D1*
X8213287D2*
X9744517D1*
X3944243Y6880679D2*
X4451157D1*
X4635650D2*
X5361557D1*
X5845803D2*
X5967367D1*
X6074320D2*
X6203990D1*
X6305863D2*
X6333480D1*
X6505377D2*
X6580747D1*
X6722270D2*
X6741537D1*
X6946587D2*
X7289097D1*
X7431157D2*
X7670883D1*
X8216360D2*
X9744370D1*
X3944243Y6856012D2*
X4475813D1*
X4660307D2*
X5336900D1*
X5478960D2*
X5558480D1*
X6728520D2*
X6741537D1*
X6944143D2*
X7264437D1*
X7406497D2*
X7680160D1*
X8210210D2*
X9728060D1*
X3944243Y6831346D2*
X4500473D1*
X4684967D2*
X5312240D1*
X5454300D2*
X5500033D1*
X6728520D2*
X6741537D1*
X6941800D2*
X7239730D1*
X7381840D2*
X7706577D1*
X8191020D2*
X9703060D1*
X3944243Y6806679D2*
X4525130D1*
X4709673D2*
X5287533D1*
X5429643D2*
X5465853D1*
X6728520D2*
X6741537D1*
X6941800D2*
X7219907D1*
X7357183D2*
X7780697D1*
X8142680D2*
X9678060D1*
X3944243Y6782012D2*
X4549790D1*
X4734330D2*
X5271470D1*
X5404983D2*
X5441197D1*
X6728520D2*
X6741537D1*
X6941800D2*
X7215950D1*
X7332473D2*
X7810383D1*
X7942290D2*
X9653013D1*
X3944243Y6757346D2*
X4574447D1*
X4758990D2*
X5269563D1*
X5380327D2*
X5418930D1*
X6728520D2*
X6741537D1*
X6941800D2*
X7215950D1*
X7317923D2*
X7810383D1*
X7942290D2*
X9628013D1*
X3944243Y6732679D2*
X4599153D1*
X4783647D2*
X5269563D1*
X5371490D2*
X5412483D1*
X5533940D2*
X5558480D1*
X6728520D2*
X6741537D1*
X6941800D2*
X7215950D1*
X7317923D2*
X7810383D1*
X7942290D2*
X9330550D1*
X9386480D2*
X9603013D1*
X3944243Y6708012D2*
X4623813D1*
X4808303D2*
X5269563D1*
X5371490D2*
X5412483D1*
X5514410D2*
X5558480D1*
X6728520D2*
X6741537D1*
X6941800D2*
X7215950D1*
X7317923D2*
X7810383D1*
X7942290D2*
X9305747D1*
X9411233D2*
X9577963D1*
X3944243Y6683346D2*
X4648470D1*
X4832963D2*
X5269563D1*
X5371490D2*
X5412483D1*
X5514410D2*
X5558480D1*
X6728520D2*
X6741537D1*
X6941800D2*
X7215950D1*
X7317923D2*
X7810383D1*
X7942290D2*
X9281087D1*
X9435893D2*
X9552963D1*
X3944243Y6658679D2*
X4673130D1*
X4864750D2*
X5269563D1*
X5371490D2*
X5412483D1*
X5514410D2*
X5558480D1*
X6941800D2*
X7215950D1*
X7317923D2*
X7440610D1*
X7495317D2*
X7810383D1*
X7942290D2*
X9262680D1*
X9454300D2*
X9527963D1*
X3944243Y6634012D2*
X4697787D1*
X4881207D2*
X5269563D1*
X5371490D2*
X5412483D1*
X5514410D2*
X5558480D1*
X6941800D2*
X7215950D1*
X7317923D2*
X7409263D1*
X7526663D2*
X7810383D1*
X7942290D2*
X9263313D1*
X9453667D2*
X9502963D1*
X3944243Y6609346D2*
X4722493D1*
X4885893D2*
X5269563D1*
X5371490D2*
X5412483D1*
X5514410D2*
X5558480D1*
X6941800D2*
X7215950D1*
X7317923D2*
X7398520D1*
X7537407D2*
X7810383D1*
X7942290D2*
X9207113D1*
X9434037D2*
X9477913D1*
X3944243Y6584679D2*
X4747153D1*
X4881353D2*
X5269563D1*
X5371490D2*
X5412483D1*
X5514410D2*
X5558480D1*
X6941800D2*
X7215950D1*
X7317923D2*
X7397740D1*
X7538187D2*
X7810383D1*
X7942290D2*
X9182457D1*
X9409380D2*
X9452913D1*
X3944243Y6560012D2*
X4764683D1*
X4865093D2*
X5269563D1*
X5371490D2*
X5412483D1*
X5514410D2*
X5558480D1*
X6941800D2*
X7215950D1*
X7317923D2*
X7406480D1*
X7529447D2*
X7810383D1*
X7942290D2*
X8896420D1*
X9384183D2*
X9427913D1*
X3944243Y6535346D2*
X5269563D1*
X5371490D2*
X5412483D1*
X5514410D2*
X5569517D1*
X5955473D2*
X5978013D1*
X6946683D2*
X7215950D1*
X7317923D2*
X7416977D1*
X7518900D2*
X7810383D1*
X7942290D2*
X8871763D1*
X9342877D2*
X9402913D1*
X3944243Y6510679D2*
X5269563D1*
X5371490D2*
X5412483D1*
X5514410D2*
X5573130D1*
X5951860D2*
X6002037D1*
X6943803D2*
X7215950D1*
X7317923D2*
X7416977D1*
X7518900D2*
X7810383D1*
X7942290D2*
X8847103D1*
X9334917D2*
X9377867D1*
X3944243Y6486012D2*
X5269563D1*
X5371490D2*
X5412483D1*
X5514410D2*
X5589047D1*
X5935990D2*
X6026693D1*
X6930130D2*
X7215950D1*
X7317923D2*
X7416977D1*
X7518900D2*
X7810383D1*
X7942290D2*
X8836653D1*
X9310697D2*
X9352867D1*
X3944243Y6461346D2*
X5269563D1*
X5371490D2*
X5412483D1*
X5514410D2*
X5696517D1*
X5828470D2*
X5977427D1*
X6898637D2*
X7215950D1*
X7317923D2*
X7416977D1*
X7518900D2*
X7810383D1*
X7942290D2*
X8797740D1*
X9013383D2*
X9204673D1*
X9286040D2*
X9327867D1*
X3930913Y6436679D2*
X5269563D1*
X5371490D2*
X5412483D1*
X5514410D2*
X5696517D1*
X5828470D2*
X5977427D1*
X6873980D2*
X7215950D1*
X7317923D2*
X7416977D1*
X7518900D2*
X7810383D1*
X7942290D2*
X8773080D1*
X8988723D2*
X9302817D1*
X3886820Y6412012D2*
X5269563D1*
X5371490D2*
X5412483D1*
X5828470D2*
X5977427D1*
X6849273D2*
X7215950D1*
X7317923D2*
X7416977D1*
X7518900D2*
X7810383D1*
X7942290D2*
X8748423D1*
X8964067D2*
X9277817D1*
X3842730Y6387346D2*
X5269563D1*
X5371490D2*
X5412630D1*
X5839507D2*
X5877720D1*
X6947710D2*
X7215950D1*
X7317923D2*
X7416977D1*
X7518900D2*
X7810383D1*
X7942290D2*
X8729183D1*
X8919830D2*
X9252817D1*
X3798637Y6362679D2*
X5269563D1*
X5371490D2*
X5421517D1*
X6947710D2*
X7202620D1*
X7317923D2*
X7415073D1*
X7518900D2*
X7810383D1*
X7942290D2*
X8029967D1*
X8119290D2*
X8728940D1*
X8913627D2*
X9227817D1*
X3754547Y6338012D2*
X5269563D1*
X5371490D2*
X5445883D1*
X6947710D2*
X7196763D1*
X7313237D2*
X7390413D1*
X7518510D2*
X7810383D1*
X7942290D2*
X8010240D1*
X8890043D2*
X9202767D1*
X3710893Y6313346D2*
X5269563D1*
X5371490D2*
X5646517D1*
X6947710D2*
X7196763D1*
X7298687D2*
X7365757D1*
X7507573D2*
X7810383D1*
X7942290D2*
X8003793D1*
X8865383D2*
X9177767D1*
X3675103Y6288679D2*
X5269563D1*
X5371490D2*
X5558480D1*
X6947710D2*
X7012777D1*
X7094047D2*
X7193880D1*
X7301567D2*
X7343783D1*
X7483160D2*
X7810383D1*
X7942290D2*
X8006627D1*
X8837163D2*
X9152767D1*
X3639360Y6264012D2*
X5269563D1*
X5473247D2*
X5558480D1*
X6947710D2*
X6990463D1*
X7116360D2*
X7179917D1*
X7315530D2*
X7337730D1*
X7458500D2*
X7810383D1*
X7942290D2*
X8020200D1*
X8774223D2*
X9127767D1*
X3603617Y6239346D2*
X5269563D1*
X5473247D2*
X5558480D1*
X6849417D2*
X6982847D1*
X7123980D2*
X7176840D1*
X7318607D2*
X7337730D1*
X7439653D2*
X7810383D1*
X7942290D2*
X9102720D1*
X3567827Y6214679D2*
X5269563D1*
X5473247D2*
X5558480D1*
X6009380D2*
X6101060D1*
X6332720D2*
X6432457D1*
X6849417D2*
X6963413D1*
X7141557D2*
X7182993D1*
X7312457D2*
X7337730D1*
X7549417D2*
X7810383D1*
X7942290D2*
X9077720D1*
X3532083Y6190012D2*
X5269563D1*
X5473247D2*
X5558480D1*
X6009380D2*
X6053550D1*
X6317290D2*
X6432457D1*
X7166217D2*
X7202230D1*
X7293217D2*
X7337730D1*
X7549417D2*
X7810383D1*
X7942290D2*
X9052720D1*
X3496343Y6165346D2*
X5269563D1*
X5473247D2*
X5558480D1*
X6009380D2*
X6035873D1*
X6309330D2*
X6432457D1*
X7181450D2*
X7337730D1*
X7549417D2*
X7810383D1*
X7942290D2*
X9027670D1*
X3460550Y6140679D2*
X5269563D1*
X5473247D2*
X5558480D1*
X6009380D2*
X6030503D1*
X6319097D2*
X6417270D1*
X6557670D2*
X6607407D1*
X7183013D2*
X7337730D1*
X7549417D2*
X7810383D1*
X7942290D2*
X9002670D1*
X3424810Y6116012D2*
X5269563D1*
X6009380D2*
X6034360D1*
X6328373D2*
X6410970D1*
X6552640D2*
X6607407D1*
X7183013D2*
X7337730D1*
X7549417D2*
X7810383D1*
X7942290D2*
X8977670D1*
X3389017Y6091346D2*
X5269563D1*
X6009380D2*
X6049497D1*
X6328030D2*
X6413853D1*
X6549760D2*
X6607407D1*
X7183013D2*
X7337730D1*
X7549417D2*
X7810383D1*
X7942290D2*
X8952670D1*
X3353277Y6066679D2*
X5269563D1*
X6009380D2*
X6105600D1*
X6317877D2*
X6427620D1*
X6536040D2*
X6607407D1*
X7183013D2*
X7337730D1*
X7549417D2*
X7810383D1*
X7942290D2*
X8927620D1*
X3317533Y6042012D2*
X5269563D1*
X6009380D2*
X6120297D1*
X6288677D2*
X6540950D1*
X7183013D2*
X7337730D1*
X7549417D2*
X7810383D1*
X7942290D2*
X8902620D1*
X3281743Y6017346D2*
X5269563D1*
X6009380D2*
X6455797D1*
X7183013D2*
X7337730D1*
X7549417D2*
X7810383D1*
X7942290D2*
X8877620D1*
X3246000Y5992679D2*
X5269563D1*
X6088723D2*
X6432357D1*
X7183013D2*
X7337730D1*
X7549417D2*
X7810383D1*
X7942290D2*
X8852620D1*
X3210257Y5968012D2*
X4113753D1*
X4175247D2*
X5269563D1*
X5550393D2*
X5558473D1*
X5755327D2*
X5767410D1*
X6111577D2*
X6371470D1*
X7183013D2*
X7337730D1*
X7549417D2*
X7810383D1*
X7942290D2*
X8836753D1*
X3174467Y5943346D2*
X4089097D1*
X4199907D2*
X5269563D1*
X5550393D2*
X5558473D1*
X5712503D2*
X5767417D1*
X6119437D2*
X6199203D1*
X6849417D2*
X6883333D1*
X7183013D2*
X7337730D1*
X7549417D2*
X7810383D1*
X7942290D2*
X8821223D1*
X3138723Y5918679D2*
X4064437D1*
X4224563D2*
X5269563D1*
X5550393D2*
X5558473D1*
X5712503D2*
X5767417D1*
X6117923D2*
X6175327D1*
X6849417D2*
X7000960D1*
X7063627D2*
X7081087D1*
X7183013D2*
X7337730D1*
X7549417D2*
X7810383D1*
X7942290D2*
X8811753D1*
X3102983Y5894012D2*
X4047983D1*
X4241020D2*
X5269563D1*
X5550393D2*
X5558473D1*
X5712503D2*
X5767417D1*
X6106157D2*
X6167027D1*
X6849417D2*
X7081087D1*
X7183013D2*
X7337730D1*
X7545413D2*
X7810383D1*
X7942290D2*
X8807210D1*
X3067190Y5869346D2*
X4050423D1*
X4238580D2*
X5269563D1*
X5550393D2*
X5558473D1*
X5712503D2*
X5767417D1*
X6074563D2*
X6168197D1*
X6849417D2*
X7081087D1*
X7183013D2*
X7337730D1*
X7545413D2*
X7810383D1*
X7942290D2*
X8802720D1*
X3031450Y5844679D2*
X4071617D1*
X4298540D2*
X5269563D1*
X5550393D2*
X5558473D1*
X5712503D2*
X5762387D1*
X6849417D2*
X7081087D1*
X7183013D2*
X7337730D1*
X7545413D2*
X7810383D1*
X7942290D2*
X8803647D1*
X2995660Y5820012D2*
X4096273D1*
X4323247D2*
X5269563D1*
X5550393D2*
X5558473D1*
X5712503D2*
X5736020D1*
X6849417D2*
X7081087D1*
X7183013D2*
X7337730D1*
X7545413D2*
X7810383D1*
X7942290D2*
X8808627D1*
X2959917Y5795346D2*
X4122837D1*
X4347367D2*
X5269563D1*
X5712503D2*
X5720260D1*
X6849417D2*
X7081087D1*
X7183013D2*
X7337730D1*
X7545413D2*
X7810383D1*
X7942290D2*
X8813607D1*
X2924173Y5770679D2*
X4160140D1*
X4355130D2*
X5269563D1*
X6849417D2*
X7081087D1*
X7183013D2*
X7337730D1*
X7545413D2*
X7809017D1*
X7942290D2*
X8825423D1*
X2888383Y5746012D2*
X4170347D1*
X4349077D2*
X5269563D1*
X6849417D2*
X7081087D1*
X7183013D2*
X7337730D1*
X7545413D2*
X7784360D1*
X7942290D2*
X8841587D1*
X2852640Y5721346D2*
X4194957D1*
X4371390D2*
X5269563D1*
X6849417D2*
X7081087D1*
X7183013D2*
X7337730D1*
X7545413D2*
X7759700D1*
X7937407D2*
X8859310D1*
X2816900Y5696679D2*
X4219613D1*
X4393657D2*
X5269563D1*
X6849417D2*
X7081087D1*
X7183013D2*
X7337827D1*
X7545413D2*
X7735043D1*
X7919537D2*
X8894613D1*
X2781107Y5672012D2*
X4280307D1*
X4415970D2*
X5269563D1*
X5549613D2*
X5558493D1*
X6849417D2*
X7081087D1*
X7183013D2*
X7346420D1*
X7545413D2*
X7710337D1*
X7894877D2*
X8954477D1*
X2745367Y5647346D2*
X4302620D1*
X4438090D2*
X5269563D1*
X5548833D2*
X5678550D1*
X6849417D2*
X7081087D1*
X7183013D2*
X7370053D1*
X7545413D2*
X7685677D1*
X7870220D2*
X9145737D1*
X2709623Y5622679D2*
X4324887D1*
X4447953D2*
X5269563D1*
X5538040D2*
X5678303D1*
X6849417D2*
X7081087D1*
X7183013D2*
X7391390D1*
X7545413D2*
X7661020D1*
X7845513D2*
X9369127D1*
X2673833Y5598012D2*
X4346273D1*
X4448197D2*
X5269563D1*
X5506643D2*
X5687777D1*
X5808843D2*
X5977427D1*
X6639410D2*
X7081087D1*
X7183013D2*
X7391390D1*
X7545413D2*
X7636360D1*
X7820853D2*
X9592563D1*
X2638090Y5573346D2*
X4346273D1*
X4448197D2*
X5269563D1*
X5371490D2*
X5714780D1*
X5781840D2*
X5977427D1*
X6639410D2*
X7081087D1*
X7183013D2*
X7611703D1*
X7796197D2*
X9672690D1*
X2602300Y5548679D2*
X4304280D1*
X4448197D2*
X5269563D1*
X5371490D2*
X5977427D1*
X6639410D2*
X7081087D1*
X7183013D2*
X7587047D1*
X7771537D2*
X9711070D1*
X2566557Y5524012D2*
X4279623D1*
X4448197D2*
X5000327D1*
X5371490D2*
X5557310D1*
X5855667D2*
X5977427D1*
X6639410D2*
X7081087D1*
X7183013D2*
X7562337D1*
X7746880D2*
X9749447D1*
X2530813Y5499346D2*
X4257457D1*
X4442387D2*
X4971567D1*
X5371490D2*
X5528550D1*
X5884427D2*
X5977427D1*
X6639410D2*
X7081087D1*
X7183013D2*
X7537680D1*
X7722220D2*
X9787777D1*
X2495023Y5474679D2*
X4253743D1*
X4446000D2*
X4969273D1*
X5371490D2*
X5526303D1*
X5886723D2*
X5977427D1*
X6639410D2*
X7081087D1*
X7183013D2*
X7513023D1*
X7697513D2*
X9826157D1*
X2459280Y5450012D2*
X4268733D1*
X4484330D2*
X4969273D1*
X5371490D2*
X5526303D1*
X5886723D2*
X5977427D1*
X6639410D2*
X7081087D1*
X7183013D2*
X7488363D1*
X7672857D2*
X9864537D1*
X2423540Y5425346D2*
X4293393D1*
X4509037D2*
X4969273D1*
X5371490D2*
X5526303D1*
X5886723D2*
X5977427D1*
X6641460D2*
X7081087D1*
X7183013D2*
X7463707D1*
X7648197D2*
X9902913D1*
X2387747Y5400679D2*
X4318050D1*
X4533697D2*
X4969273D1*
X5371490D2*
X5526303D1*
X5886723D2*
X5977427D1*
X6666117D2*
X7081087D1*
X7183013D2*
X7438997D1*
X7623540D2*
X9962777D1*
X2352007Y5376012D2*
X4362923D1*
X4553323D2*
X4969273D1*
X5371490D2*
X5526303D1*
X5886723D2*
X6541880D1*
X6688823D2*
X7081087D1*
X7183013D2*
X7414340D1*
X7598880D2*
X10030110D1*
X2316217Y5351346D2*
X4368687D1*
X4574173D2*
X4969273D1*
X5371490D2*
X5526303D1*
X5886723D2*
X6403843D1*
X6910697D2*
X7081087D1*
X7183013D2*
X7384897D1*
X7574223D2*
X9841977D1*
X9938040D2*
X10084360D1*
X2280473Y5326679D2*
X4392073D1*
X4598587D2*
X4974643D1*
X5371490D2*
X5531627D1*
X5881353D2*
X6403843D1*
X6933890D2*
X7081087D1*
X7183013D2*
X7361703D1*
X7549517D2*
X9824350D1*
X9955667D2*
X10131233D1*
X2244730Y5302012D2*
X4416733D1*
X4607133D2*
X5269563D1*
X5371490D2*
X6403843D1*
X6941900D2*
X7081087D1*
X7183013D2*
X7353697D1*
X7524857D2*
X9819027D1*
X9960990D2*
X10168247D1*
X2208940Y5277346D2*
X4444320D1*
X4606107D2*
X5269563D1*
X5371490D2*
X6403843D1*
X6940483D2*
X7081087D1*
X7183013D2*
X7355110D1*
X7500200D2*
X9402523D1*
X9624517D2*
X9822933D1*
X10074517D2*
X10201400D1*
X2173197Y5252679D2*
X2821617D1*
X2924857D2*
X4478450D1*
X4595120D2*
X5269563D1*
X5371490D2*
X6403843D1*
X6928910D2*
X7081087D1*
X7183013D2*
X7366683D1*
X7481597D2*
X9402523D1*
X9624517D2*
X9838167D1*
X10074517D2*
X10234310D1*
X2137457Y5228012D2*
X2806233D1*
X2940240D2*
X4510873D1*
X4562700D2*
X5269563D1*
X5371490D2*
X6403843D1*
X6725833D2*
X6849007D1*
X6893853D2*
X7081087D1*
X7183013D2*
X7401743D1*
X7446587D2*
X9402523D1*
X9624517D2*
X9852523D1*
X10074517D2*
X10257797D1*
X2102787Y5203346D2*
X2315023D1*
X2537017D2*
X2765023D1*
X2987017D2*
X5269563D1*
X5371490D2*
X5454573D1*
X5518167D2*
X6962047D1*
X7046977D2*
X7081087D1*
X7183013D2*
X9402523D1*
X9624517D2*
X9852523D1*
X10074517D2*
X10277377D1*
X2080277Y5178679D2*
X2315023D1*
X2537017D2*
X2765023D1*
X2987017D2*
X5269563D1*
X5371490D2*
X5426400D1*
X7068120D2*
X7081053D1*
X7183013D2*
X9402523D1*
X9624517D2*
X9852523D1*
X10074517D2*
X10296910D1*
X2057720Y5154012D2*
X2315023D1*
X2537017D2*
X2765023D1*
X2987017D2*
X5267857D1*
X5373247D2*
X5416537D1*
X7183013D2*
X9402523D1*
X9624517D2*
X9852523D1*
X10074517D2*
X10316440D1*
X2035160Y5129346D2*
X2315023D1*
X2537017D2*
X2765023D1*
X2987017D2*
X5253160D1*
X5387943D2*
X5416440D1*
X7073003D2*
X7081060D1*
X7183013D2*
X9402523D1*
X9624517D2*
X9852523D1*
X10074517D2*
X10335970D1*
X2012650Y5104679D2*
X2315023D1*
X2537017D2*
X2765023D1*
X2987017D2*
X5249593D1*
X5391507D2*
X5426060D1*
X7060307D2*
X7081087D1*
X7183013D2*
X9402523D1*
X9624517D2*
X9852523D1*
X10074517D2*
X10355550D1*
X1990093Y5080012D2*
X2315023D1*
X2537017D2*
X2765023D1*
X2987017D2*
X5255257D1*
X5385843D2*
X5453550D1*
X5519243D2*
X5870640D1*
X5919583D2*
X6179183D1*
X6840093D2*
X6991587D1*
X7017400D2*
X7081087D1*
X7183013D2*
X9402523D1*
X9624517D2*
X9852523D1*
X10074517D2*
X10375083D1*
X1967533Y5055346D2*
X2315023D1*
X2537017D2*
X2765023D1*
X2987017D2*
X4974350D1*
X5367583D2*
X5531333D1*
X5953080D2*
X6170980D1*
X6848783D2*
X7067270D1*
X7196830D2*
X9402523D1*
X9624517D2*
X9852523D1*
X10074517D2*
X10394613D1*
X1945023Y5030679D2*
X2315023D1*
X2537017D2*
X2765023D1*
X2987017D2*
X4969273D1*
X5329740D2*
X5526303D1*
X5964360D2*
X6172250D1*
X6310550D2*
X6709117D1*
X6847903D2*
X7061167D1*
X7202933D2*
X9402523D1*
X9624517D2*
X9852523D1*
X10074517D2*
X10414193D1*
X1922467Y5006012D2*
X2315023D1*
X2537017D2*
X2765023D1*
X2987017D2*
X4969273D1*
X5329740D2*
X5526303D1*
X5965530D2*
X6183627D1*
X6299173D2*
X6719957D1*
X6837063D2*
X7064290D1*
X7199810D2*
X9402523D1*
X9624517D2*
X9852523D1*
X10074517D2*
X10433723D1*
X1899907Y4981346D2*
X2315023D1*
X2537017D2*
X2765023D1*
X2987017D2*
X4969273D1*
X5329740D2*
X5526303D1*
X5957230D2*
X6217660D1*
X6265140D2*
X6541733D1*
X6645903D2*
X6751693D1*
X6805327D2*
X7078303D1*
X7185797D2*
X9402523D1*
X9624517D2*
X9852523D1*
X10074517D2*
X10453257D1*
X1877397Y4956679D2*
X2315023D1*
X2537017D2*
X2765023D1*
X2987017D2*
X4969273D1*
X5329740D2*
X5526303D1*
X5933353D2*
X6526643D1*
X6660990D2*
X9402523D1*
X9624517D2*
X9852523D1*
X10074517D2*
X10472837D1*
X1854837Y4932012D2*
X2315023D1*
X2537017D2*
X2765023D1*
X2987017D2*
X4969273D1*
X5329740D2*
X5526303D1*
X5886723D2*
X6522837D1*
X6664800D2*
X10492367D1*
X1832280Y4907346D2*
X2315023D1*
X2537017D2*
X2765023D1*
X2987017D2*
X4969273D1*
X5329740D2*
X5526303D1*
X5886723D2*
X6477913D1*
X6659380D2*
X10511900D1*
X1809770Y4882679D2*
X2315023D1*
X2537017D2*
X2765023D1*
X2987017D2*
X4971763D1*
X5327250D2*
X5528743D1*
X5884233D2*
X6477913D1*
X6641607D2*
X10531480D1*
X1787210Y4858012D2*
X5003743D1*
X5295220D2*
X5560777D1*
X5852250D2*
X6477913D1*
X6631937D2*
X10551010D1*
X1764653Y4833346D2*
X6477913D1*
X6631937D2*
X10570540D1*
X1742143Y4808679D2*
X6477913D1*
X6631937D2*
X10590120D1*
X1719583Y4784012D2*
X6477913D1*
X6631937D2*
X10609653D1*
X1697027Y4759346D2*
X6477913D1*
X6631937D2*
X10629183D1*
X1674517Y4734679D2*
X6477913D1*
X6631937D2*
X9402523D1*
X9624517D2*
X9852523D1*
X10074517D2*
X10648763D1*
X1651957Y4710012D2*
X6477913D1*
X6631937D2*
X9402523D1*
X9624517D2*
X9852523D1*
X10074517D2*
X10668297D1*
X1629400Y4685346D2*
X6477913D1*
X6631937D2*
X9402523D1*
X9624517D2*
X9852523D1*
X10074517D2*
X10687827D1*
X1606890Y4660679D2*
X6455160D1*
X6631937D2*
X9402523D1*
X9624517D2*
X9852523D1*
X10074517D2*
X10707407D1*
X1584330Y4636012D2*
X2315023D1*
X2537017D2*
X2765023D1*
X2987017D2*
X6430503D1*
X6631937D2*
X9402523D1*
X9624517D2*
X9852523D1*
X10074517D2*
X10726937D1*
X1561773Y4611346D2*
X2315023D1*
X2537017D2*
X2765023D1*
X2987017D2*
X6407113D1*
X6631937D2*
X9402523D1*
X9624517D2*
X9852523D1*
X10074517D2*
X10746470D1*
X1539213Y4586679D2*
X2315023D1*
X2537017D2*
X2765023D1*
X2987017D2*
X6399007D1*
X6523247D2*
X9402523D1*
X9624517D2*
X9852523D1*
X10074517D2*
X10766050D1*
X1516703Y4562012D2*
X2315023D1*
X2537017D2*
X2765023D1*
X2987017D2*
X6398910D1*
X6500883D2*
X9402523D1*
X9624517D2*
X9852523D1*
X10074517D2*
X10785580D1*
X1494143Y4537346D2*
X2315023D1*
X2537017D2*
X2765023D1*
X2987017D2*
X6398910D1*
X6500883D2*
X9402523D1*
X9624517D2*
X9852523D1*
X10074517D2*
X10805110D1*
X1471587Y4512679D2*
X2315023D1*
X2537017D2*
X2765023D1*
X2987017D2*
X6398910D1*
X6500883D2*
X7362730D1*
X7443560D2*
X9402523D1*
X9624517D2*
X9852523D1*
X10074517D2*
X10824690D1*
X1449077Y4488012D2*
X2315023D1*
X2537017D2*
X2765023D1*
X2987017D2*
X6398910D1*
X6500883D2*
X7340267D1*
X7466653D2*
X9402523D1*
X9624517D2*
X9852523D1*
X10074517D2*
X10844223D1*
X1426517Y4463346D2*
X2315023D1*
X2537017D2*
X2765023D1*
X2987017D2*
X6398910D1*
X6500883D2*
X7332553D1*
X7503227D2*
X9402523D1*
X9624517D2*
X9852523D1*
X10074517D2*
X10863753D1*
X1403960Y4438679D2*
X2315023D1*
X2537017D2*
X2765023D1*
X2987017D2*
X5259897D1*
X5369193D2*
X6398910D1*
X6500883D2*
X7334263D1*
X7527883D2*
X9402523D1*
X9624517D2*
X9852523D1*
X10074517D2*
X10883333D1*
X1381450Y4414012D2*
X2315023D1*
X2537017D2*
X2765023D1*
X2987017D2*
X5246470D1*
X5382620D2*
X6398910D1*
X6500883D2*
X7346223D1*
X7552300D2*
X9402523D1*
X9624517D2*
X9852523D1*
X10074517D2*
X10902867D1*
X1358890Y4389346D2*
X2315023D1*
X2537017D2*
X2765023D1*
X2987017D2*
X5232260D1*
X5385357D2*
X6398910D1*
X6500883D2*
X7369223D1*
X7560990D2*
X7609847D1*
X7726517D2*
X9402523D1*
X9624517D2*
X9852523D1*
X10074517D2*
X10922397D1*
X1336333Y4364679D2*
X2315023D1*
X2537017D2*
X2765023D1*
X2987017D2*
X5206137D1*
X5378813D2*
X6398910D1*
X6500883D2*
X7386263D1*
X7756253D2*
X10941977D1*
X1313823Y4340012D2*
X2315023D1*
X2537017D2*
X2765023D1*
X2987017D2*
X5191880D1*
X5358890D2*
X6398910D1*
X6500883D2*
X7410970D1*
X7784820D2*
X10961507D1*
X1291263Y4315346D2*
X2315023D1*
X2537017D2*
X2765023D1*
X2987017D2*
X5177670D1*
X5349370D2*
X6398910D1*
X6545660D2*
X6844173D1*
X6903323D2*
X7435630D1*
X7813433D2*
X10981040D1*
X1268707Y4290679D2*
X5164437D1*
X5340383D2*
X6398910D1*
X6933060D2*
X7477670D1*
X7669097D2*
X7688607D1*
X7890043D2*
X11000620D1*
X1246197Y4266012D2*
X5076107D1*
X5115383D2*
X5164877D1*
X5326127D2*
X5850277D1*
X5908890D2*
X6398910D1*
X6943413D2*
X7485433D1*
X7667923D2*
X7717220D1*
X7914700D2*
X11020150D1*
X1223637Y4241346D2*
X5026207D1*
X5311917D2*
X5820347D1*
X5938823D2*
X6398910D1*
X6943853D2*
X7509603D1*
X7647757D2*
X7745787D1*
X7938433D2*
X11039683D1*
X1201080Y4216679D2*
X4990023D1*
X5296490D2*
X5809993D1*
X5949223D2*
X6398910D1*
X6934673D2*
X7534263D1*
X7623100D2*
X7750083D1*
X7944927D2*
X11059263D1*
X1184280Y4192012D2*
X1215023D1*
X1437017D2*
X1665023D1*
X1887017D2*
X4975667D1*
X5270660D2*
X5790903D1*
X5949710D2*
X6398910D1*
X6550883D2*
X6785580D1*
X6908550D2*
X7566243D1*
X7591147D2*
X7761800D1*
X7988627D2*
X11073080D1*
X1180423Y4167346D2*
X1215023D1*
X1437017D2*
X1665023D1*
X1887017D2*
X4961557D1*
X5268853D2*
X5773717D1*
X5940580D2*
X6398910D1*
X6500883D2*
X6773277D1*
X6928080D2*
X7786460D1*
X8013383D2*
X11077280D1*
X1176617Y4142679D2*
X1215023D1*
X1437017D2*
X1665023D1*
X1887017D2*
X4947447D1*
X5064117D2*
X5085140D1*
X5254937D2*
X5759457D1*
X5917143D2*
X6398910D1*
X6500883D2*
X6771370D1*
X6956890D2*
X7811117D1*
X8038040D2*
X10415023D1*
X10637017D2*
X10865023D1*
X1172807Y4118012D2*
X1215023D1*
X1437017D2*
X1665023D1*
X1887017D2*
X4933287D1*
X5050003D2*
X5095883D1*
X5240677D2*
X5745200D1*
X5920023D2*
X6398910D1*
X6500883D2*
X6778793D1*
X6981547D2*
X7864830D1*
X8056450D2*
X10415023D1*
X10637017D2*
X10865023D1*
X1168950Y4093346D2*
X1215023D1*
X1437017D2*
X1665023D1*
X1887017D2*
X4919173D1*
X5035893D2*
X5135630D1*
X5226470D2*
X5734410D1*
X5907963D2*
X6398910D1*
X6500883D2*
X6800667D1*
X7005277D2*
X7087877D1*
X7267877D2*
X7865463D1*
X8055813D2*
X10415023D1*
X10637017D2*
X10865023D1*
X1165140Y4068679D2*
X1215023D1*
X1437017D2*
X1665023D1*
X1887017D2*
X4870640D1*
X5021733D2*
X5571810D1*
X5669390D2*
X5739583D1*
X5893707D2*
X6398910D1*
X6500883D2*
X6821030D1*
X7011870D2*
X7061263D1*
X7292583D2*
X7885093D1*
X8036187D2*
X8178257D1*
X8538773D2*
X8735240D1*
X9095757D2*
X10415023D1*
X10637017D2*
X10865023D1*
X1161283Y4044012D2*
X1215023D1*
X1437017D2*
X1665023D1*
X1887017D2*
X3280747D1*
X3641263D2*
X3837730D1*
X4198247D2*
X4856380D1*
X5007620D2*
X5552670D1*
X5879447D2*
X6398910D1*
X6501323D2*
X6839927D1*
X7317240D2*
X7909800D1*
X8011527D2*
X8121860D1*
X8538773D2*
X8735240D1*
X9095757D2*
X10415023D1*
X10637017D2*
X10865023D1*
X11087017D2*
X11098303D1*
X1157473Y4019346D2*
X1215023D1*
X1437017D2*
X1665023D1*
X1887017D2*
X3280747D1*
X3641263D2*
X3837730D1*
X4198247D2*
X4842173D1*
X5018313D2*
X5537143D1*
X5859477D2*
X6399203D1*
X6525980D2*
X6864633D1*
X7384330D2*
X7934993D1*
X7986333D2*
X8107747D1*
X8538773D2*
X8735240D1*
X9095757D2*
X10415023D1*
X10637017D2*
X10865023D1*
X11087017D2*
X11102523D1*
X1153617Y3994679D2*
X1215023D1*
X1437017D2*
X1665023D1*
X1887017D2*
X3280747D1*
X3641263D2*
X3837730D1*
X4198247D2*
X4829133D1*
X5014117D2*
X5521567D1*
X5843267D2*
X6409117D1*
X6638480D2*
X6889290D1*
X7129007D2*
X7224497D1*
X7408990D2*
X8104623D1*
X8538773D2*
X8735240D1*
X9095757D2*
X10415023D1*
X10637017D2*
X10865023D1*
X11087017D2*
X11106723D1*
X1149810Y3970012D2*
X1215023D1*
X1437017D2*
X1665023D1*
X1887017D2*
X3280747D1*
X3641263D2*
X3837730D1*
X4198247D2*
X4830160D1*
X4999857D2*
X5506040D1*
X5625590D2*
X5645003D1*
X5836723D2*
X6433237D1*
X6638480D2*
X6928647D1*
X7120757D2*
X7249153D1*
X7433647D2*
X8110677D1*
X8538773D2*
X8735240D1*
X9095757D2*
X10415023D1*
X10637017D2*
X10865023D1*
X11087017D2*
X11110923D1*
X1146000Y3945346D2*
X1215023D1*
X1437017D2*
X1665023D1*
X1887017D2*
X3280747D1*
X3641263D2*
X3837730D1*
X4198247D2*
X4803013D1*
X4985650D2*
X5490463D1*
X5610063D2*
X5657650D1*
X5822513D2*
X6457893D1*
X6638480D2*
X6938657D1*
X7117730D2*
X7253303D1*
X7447563D2*
X8129720D1*
X8538773D2*
X8735240D1*
X9095757D2*
X10415023D1*
X10637017D2*
X10865023D1*
X11087017D2*
X11115120D1*
X1142143Y3920679D2*
X1215023D1*
X1437017D2*
X1665023D1*
X1887017D2*
X3280747D1*
X3641263D2*
X3837730D1*
X4198247D2*
X4785190D1*
X4971050D2*
X5474937D1*
X5594537D2*
X5676253D1*
X5808257D2*
X6476497D1*
X6638480D2*
X6963267D1*
X7096097D2*
X7257993D1*
X7442923D2*
X7452433D1*
X7474750D2*
X8178257D1*
X8538773D2*
X8735240D1*
X9095757D2*
X10415023D1*
X10637017D2*
X10865023D1*
X11087017D2*
X11119320D1*
X1138333Y3896012D2*
X1215023D1*
X1437017D2*
X1665023D1*
X1887017D2*
X3280747D1*
X3641263D2*
X3837730D1*
X4198247D2*
X4770933D1*
X4932280D2*
X5459360D1*
X5578960D2*
X5718980D1*
X5793803D2*
X6476497D1*
X6638480D2*
X6987973D1*
X7071440D2*
X7280697D1*
X7507670D2*
X8178257D1*
X8538773D2*
X8735240D1*
X9095757D2*
X10415023D1*
X10637017D2*
X10865023D1*
X11087017D2*
X11123520D1*
X1134477Y3871346D2*
X1215023D1*
X1437017D2*
X1665023D1*
X1887017D2*
X3280747D1*
X3641263D2*
X3837730D1*
X4198247D2*
X4756723D1*
X4938677D2*
X5406577D1*
X5563433D2*
X6476497D1*
X6638480D2*
X7305403D1*
X7532330D2*
X8178257D1*
X8538773D2*
X8735240D1*
X9095757D2*
X10415023D1*
X10637017D2*
X10865023D1*
X11087017D2*
X11127720D1*
X1130667Y3846679D2*
X3280747D1*
X3641263D2*
X3837730D1*
X4198247D2*
X4747640D1*
X4928667D2*
X5392220D1*
X5547857D2*
X6476497D1*
X6638480D2*
X7335823D1*
X7555473D2*
X10415023D1*
X10637017D2*
X10865023D1*
X11087017D2*
X11131917D1*
X1126810Y3822012D2*
X4755403D1*
X4914457D2*
X5377963D1*
X5548880D2*
X6476497D1*
X6638480D2*
X7366293D1*
X7560843D2*
X10415023D1*
X10637017D2*
X10865023D1*
X11087017D2*
X11136117D1*
X1123003Y3797346D2*
X4792123D1*
X4900200D2*
X5363803D1*
X5549027D2*
X6476497D1*
X6638480D2*
X7379380D1*
X7547757D2*
X11140367D1*
X1119143Y3772679D2*
X4834847D1*
X4880813D2*
X5360530D1*
X5535697D2*
X6476497D1*
X6638480D2*
X7404037D1*
X7523100D2*
X11144563D1*
X1115337Y3748012D2*
X5348080D1*
X5521440D2*
X6476497D1*
X6638480D2*
X7428697D1*
X7498440D2*
X11148763D1*
X1111527Y3723346D2*
X5320980D1*
X5507230D2*
X6476497D1*
X6638480D2*
X11152963D1*
X1107670Y3698679D2*
X5306773D1*
X5459133D2*
X6476497D1*
X6638480D2*
X11157163D1*
X1103860Y3674012D2*
X5292513D1*
X5470853D2*
X11161360D1*
X1100003Y3649346D2*
X4877473D1*
X4933013D2*
X5194957D1*
X5250540D2*
X5280550D1*
X5464507D2*
X11165560D1*
X1096197Y3624679D2*
X1215023D1*
X1437017D2*
X1665023D1*
X1887017D2*
X4846420D1*
X4964067D2*
X5163950D1*
X5450247D2*
X11169760D1*
X1092337Y3600012D2*
X1215023D1*
X1437017D2*
X1665023D1*
X1887017D2*
X3280747D1*
X3641263D2*
X3837730D1*
X4198247D2*
X4835777D1*
X4974710D2*
X5153257D1*
X5292240D2*
X5313413D1*
X5435990D2*
X8178257D1*
X8538773D2*
X8735240D1*
X9095757D2*
X10415023D1*
X10637017D2*
X10865023D1*
X11087017D2*
X11173960D1*
X1088530Y3575346D2*
X1215023D1*
X1437017D2*
X1665023D1*
X1887017D2*
X3280747D1*
X3641263D2*
X3837730D1*
X4198247D2*
X4835043D1*
X4975443D2*
X5152523D1*
X5292973D2*
X5356137D1*
X5420610D2*
X8178257D1*
X8538773D2*
X8735240D1*
X9095757D2*
X10415023D1*
X10637017D2*
X10865023D1*
X11087017D2*
X11178207D1*
X1084720Y3550679D2*
X1215023D1*
X1437017D2*
X1665023D1*
X1887017D2*
X3280747D1*
X3641263D2*
X3837730D1*
X4233990D2*
X4843880D1*
X4966653D2*
X5161360D1*
X5284133D2*
X8178257D1*
X8538773D2*
X8735240D1*
X9095757D2*
X10415023D1*
X10637017D2*
X10865023D1*
X11087017D2*
X11182407D1*
X1080863Y3526012D2*
X1215023D1*
X1437017D2*
X1665023D1*
X1887017D2*
X3280747D1*
X3641263D2*
X3837730D1*
X4269537D2*
X4838023D1*
X4956207D2*
X5155797D1*
X5273490D2*
X8178257D1*
X8538773D2*
X8735240D1*
X9095757D2*
X10415023D1*
X10637017D2*
X10865023D1*
X11087017D2*
X11186607D1*
X1077053Y3501346D2*
X1215023D1*
X1437017D2*
X1665023D1*
X1887017D2*
X3280747D1*
X3641263D2*
X3837730D1*
X4281253D2*
X4813363D1*
X4951517D2*
X5137047D1*
X5263723D2*
X8178257D1*
X8538773D2*
X8735240D1*
X9095757D2*
X10415023D1*
X10637017D2*
X10865023D1*
X11087017D2*
X11190803D1*
X1073197Y3476679D2*
X1215023D1*
X1437017D2*
X1665023D1*
X1887017D2*
X3280747D1*
X3641263D2*
X3837730D1*
X4282720D2*
X4788707D1*
X4930813D2*
X5118343D1*
X5245023D2*
X8178257D1*
X8538773D2*
X8735240D1*
X9095757D2*
X10415023D1*
X10637017D2*
X10865023D1*
X11087017D2*
X11195003D1*
X1069390Y3452012D2*
X1215023D1*
X1437017D2*
X1665023D1*
X1887017D2*
X3280747D1*
X3641263D2*
X3837730D1*
X4274810D2*
X4764047D1*
X4906107D2*
X5099643D1*
X5226323D2*
X8178257D1*
X8538773D2*
X8735240D1*
X9095757D2*
X10415023D1*
X10637017D2*
X10865023D1*
X11087017D2*
X11199203D1*
X1065530Y3427346D2*
X1215023D1*
X1437017D2*
X1665023D1*
X1887017D2*
X3280747D1*
X3641263D2*
X3837730D1*
X4251810D2*
X4580650D1*
X4881450D2*
X5080893D1*
X5207573D2*
X8178257D1*
X8538773D2*
X8735240D1*
X9095757D2*
X10415023D1*
X10637017D2*
X10865023D1*
X11087017D2*
X11203403D1*
X1061723Y3402679D2*
X1215023D1*
X1437017D2*
X1665023D1*
X1887017D2*
X3280747D1*
X3641263D2*
X3837730D1*
X4198247D2*
X4555940D1*
X4856790D2*
X5062190D1*
X5188870D2*
X8178257D1*
X8538773D2*
X8735240D1*
X9095757D2*
X10415023D1*
X10637017D2*
X10865023D1*
X11087017D2*
X11207603D1*
X1057913Y3378012D2*
X1215023D1*
X1437017D2*
X1665023D1*
X1887017D2*
X4503060D1*
X4832133D2*
X5050130D1*
X5170170D2*
X10415023D1*
X10637017D2*
X10865023D1*
X11087017D2*
X11211800D1*
X1055377Y3353346D2*
X1215023D1*
X1437017D2*
X1665023D1*
X1887017D2*
X4488510D1*
X4805230D2*
X5049400D1*
X5151420D2*
X10415023D1*
X10637017D2*
X10865023D1*
X11087017D2*
X11213853D1*
X1056253Y3328679D2*
X1215023D1*
X1437017D2*
X1665023D1*
X1887017D2*
X4485043D1*
X4626957D2*
X5049400D1*
X5151323D2*
X10415023D1*
X10637017D2*
X10865023D1*
X11087017D2*
X11196420D1*
X1057083Y3304012D2*
X1215023D1*
X1437017D2*
X1665023D1*
X1887017D2*
X4490853D1*
X4621147D2*
X5049400D1*
X5151323D2*
X10415023D1*
X10665677D2*
X10865023D1*
X11087017D2*
X11179037D1*
X1070513Y3279346D2*
X1255893D1*
X1396097D2*
X4509310D1*
X4602690D2*
X5049400D1*
X5151323D2*
X10415023D1*
X10707867D2*
X10865023D1*
X11087017D2*
X11161607D1*
X1101860Y3254679D2*
X1256333D1*
X1395660D2*
X5049400D1*
X5151323D2*
X10415023D1*
X10720513D2*
X10865023D1*
X11087017D2*
X11144223D1*
X1133207Y3230012D2*
X1266633D1*
X1385403D2*
X5049400D1*
X5151323D2*
X6803303D1*
X6833013D2*
X10581283D1*
X10722710D2*
X11126790D1*
X1164603Y3205346D2*
X1296223D1*
X1355767D2*
X5049400D1*
X5151323D2*
X6762093D1*
X6874223D2*
X10588460D1*
X10715530D2*
X11083287D1*
X1356743Y3180679D2*
X5043490D1*
X5151323D2*
X6749593D1*
X6897220D2*
X10609700D1*
X10694290D2*
X11012190D1*
X1373197Y3156012D2*
X5005063D1*
X5147417D2*
X6747493D1*
X6926567D2*
X10941097D1*
X1389653Y3131346D2*
X4980893D1*
X5132083D2*
X6754720D1*
X6951223D2*
X10918833D1*
X1406107Y3106679D2*
X4963607D1*
X5115823D2*
X6776157D1*
X6975053D2*
X10911217D1*
X1422563Y3082012D2*
X4946370D1*
X5122807D2*
X6790903D1*
X6981890D2*
X7026497D1*
X7194390D2*
X10902963D1*
X1434967Y3057346D2*
X4933723D1*
X5115873D2*
X6809603D1*
X7223050D2*
X10892563D1*
X1442680Y3032679D2*
X4937923D1*
X5098637D2*
X6834263D1*
X7251763D2*
X10879380D1*
X1450443Y3008012D2*
X4894517D1*
X5081353D2*
X6858970D1*
X7280423D2*
X10863753D1*
X1458207Y2983346D2*
X4877280D1*
X5063580D2*
X6898617D1*
X7090677D2*
X7155453D1*
X7309133D2*
X10845103D1*
X1465970Y2958679D2*
X2197740D1*
X2558257D2*
X2754770D1*
X3115240D2*
X4859993D1*
X5033500D2*
X6908383D1*
X7087893D2*
X7184117D1*
X7337797D2*
X9251743D1*
X9612260D2*
X9808773D1*
X10169243D2*
X10822690D1*
X1473687Y2934012D2*
X2197740D1*
X2558257D2*
X2754770D1*
X3115240D2*
X4845590D1*
X5029253D2*
X6932943D1*
X7066460D2*
X7212827D1*
X7416167D2*
X9251743D1*
X9612260D2*
X9808773D1*
X10169243D2*
X10797300D1*
X1481450Y2909346D2*
X2197740D1*
X2558257D2*
X2754770D1*
X3115240D2*
X4847300D1*
X5012260D2*
X6957603D1*
X7041800D2*
X7241490D1*
X7440823D2*
X9251743D1*
X9612260D2*
X9808773D1*
X10169243D2*
X10787533D1*
X1489213Y2884679D2*
X2197740D1*
X2558257D2*
X2754770D1*
X3115240D2*
X4839047D1*
X4994973D2*
X7270200D1*
X7465483D2*
X8956723D1*
X9612260D2*
X9808773D1*
X10169243D2*
X10778940D1*
X1496977Y2860012D2*
X2197740D1*
X2558257D2*
X2754770D1*
X3115240D2*
X4821470D1*
X4977690D2*
X7285530D1*
X7479690D2*
X8929820D1*
X9612260D2*
X9808773D1*
X10169243D2*
X10770393D1*
X1504690Y2835346D2*
X2197740D1*
X2558257D2*
X2754770D1*
X3115240D2*
X4803940D1*
X4927883D2*
X7289927D1*
X7475247D2*
X7486150D1*
X7505327D2*
X8920393D1*
X9612260D2*
X9808773D1*
X10169243D2*
X10761800D1*
X1512457Y2810679D2*
X2197740D1*
X2558257D2*
X2754770D1*
X3115240D2*
X4786410D1*
X4910357D2*
X7312533D1*
X7539507D2*
X8920640D1*
X9060110D2*
X9251743D1*
X9612260D2*
X9808773D1*
X10169243D2*
X10753207D1*
X1520220Y2786012D2*
X2197740D1*
X2558257D2*
X2754770D1*
X3115240D2*
X4768880D1*
X4892827D2*
X7337240D1*
X7564163D2*
X8930650D1*
X9050103D2*
X9251743D1*
X9612260D2*
X9808773D1*
X10169243D2*
X10744613D1*
X1527983Y2761346D2*
X2197740D1*
X2558257D2*
X2754770D1*
X3115240D2*
X4751353D1*
X4875247D2*
X7367073D1*
X7587457D2*
X8959457D1*
X9021293D2*
X9251743D1*
X9612260D2*
X9808773D1*
X10169243D2*
X10736070D1*
X1535747Y2736679D2*
X4696713D1*
X4857720D2*
X7398423D1*
X7593023D2*
X10727473D1*
X1543460Y2712012D2*
X4679330D1*
X4840190D2*
X7411217D1*
X7580230D2*
X10718880D1*
X1551223Y2687346D2*
X4662047D1*
X4829300D2*
X7435873D1*
X7555570D2*
X10710337D1*
X1558990Y2662679D2*
X4645590D1*
X4835307D2*
X7460580D1*
X7530913D2*
X10701743D1*
X1566753Y2638012D2*
X4643150D1*
X4824077D2*
X10693150D1*
X1574467Y2613346D2*
X4613510D1*
X4806840D2*
X10684553D1*
X1582230Y2588679D2*
X4592953D1*
X4789553D2*
X10676010D1*
X1589993Y2564012D2*
X4575717D1*
X4762063D2*
X10667417D1*
X1597757Y2539346D2*
X4558433D1*
X4743510D2*
X10658823D1*
X1605473Y2514679D2*
X2197740D1*
X2558257D2*
X2754770D1*
X3115240D2*
X4550377D1*
X4737700D2*
X9251743D1*
X9612260D2*
X9808773D1*
X10169243D2*
X10650277D1*
X1613237Y2490012D2*
X2197740D1*
X2558257D2*
X2754770D1*
X3115240D2*
X4560240D1*
X4720463D2*
X4749057D1*
X7128373D2*
X9251743D1*
X9612260D2*
X9808773D1*
X10169243D2*
X10641683D1*
X1621000Y2465346D2*
X2197740D1*
X2558257D2*
X2754770D1*
X3171147D2*
X4593733D1*
X4703177D2*
X4731577D1*
X7145073D2*
X9251743D1*
X9612260D2*
X9808773D1*
X10169243D2*
X10633090D1*
X1628763Y2440679D2*
X2197740D1*
X2558257D2*
X2754770D1*
X3191360D2*
X4628940D1*
X4684477D2*
X4714097D1*
X7161820D2*
X9251743D1*
X9612260D2*
X9808773D1*
X10169243D2*
X10624497D1*
X1636527Y2416012D2*
X2197740D1*
X2558257D2*
X2754770D1*
X3198050D2*
X4696617D1*
X7178520D2*
X7785677D1*
X7895367D2*
X9251743D1*
X9612260D2*
X9808773D1*
X10169243D2*
X10615950D1*
X1644243Y2391346D2*
X2197740D1*
X2558257D2*
X2754770D1*
X3195413D2*
X4679133D1*
X7195220D2*
X7772347D1*
X7923050D2*
X9251743D1*
X9612260D2*
X9808773D1*
X10169243D2*
X10607357D1*
X1652007Y2366679D2*
X2197740D1*
X2558257D2*
X2754770D1*
X3182183D2*
X4661653D1*
X7211917D2*
X7769710D1*
X7950980D2*
X9251743D1*
X9612260D2*
X9808773D1*
X10169243D2*
X10598763D1*
X1659770Y2342012D2*
X2197740D1*
X2558257D2*
X2754770D1*
X3115240D2*
X4644173D1*
X7228617D2*
X7776353D1*
X7978373D2*
X9251743D1*
X9612260D2*
X9808773D1*
X10169243D2*
X10590220D1*
X1667533Y2317346D2*
X2197740D1*
X2558257D2*
X2754770D1*
X3115240D2*
X4626693D1*
X7245367D2*
X7796517D1*
X8000200D2*
X9251743D1*
X9612260D2*
X9808773D1*
X10169243D2*
X10581627D1*
X1675247Y2292679D2*
X4609213D1*
X7262063D2*
X7812240D1*
X8027417D2*
X10573030D1*
X1683013Y2268012D2*
X4591733D1*
X7294047D2*
X7832993D1*
X8060550D2*
X10564437D1*
X1690777Y2243346D2*
X4574253D1*
X7343363D2*
X7860383D1*
X8087943D2*
X10554233D1*
X1698540Y2218679D2*
X4556773D1*
X7392680D2*
X7887923D1*
X8112847D2*
X10522690D1*
X1706253Y2194012D2*
X4539290D1*
X7441997D2*
X7925960D1*
X8120513D2*
X10491097D1*
X1714017Y2169346D2*
X4521810D1*
X7491313D2*
X7942563D1*
X8145170D2*
X10459553D1*
X1721780Y2144679D2*
X4332063D1*
X4380667D2*
X4504330D1*
X7540630D2*
X7969957D1*
X8169830D2*
X10428013D1*
X1729547Y2120012D2*
X4298423D1*
X4414263D2*
X4486850D1*
X7589947D2*
X7997347D1*
X8194487D2*
X10396420D1*
X1737310Y2095346D2*
X4287143D1*
X4425540D2*
X4469370D1*
X7638627D2*
X8034653D1*
X8219143D2*
X10364877D1*
X1745023Y2070679D2*
X4259117D1*
X4426763D2*
X4451693D1*
X7686917D2*
X8059310D1*
X8243803D2*
X10333333D1*
X1752787Y2046012D2*
X4240220D1*
X4418460D2*
X4433977D1*
X7735210D2*
X8083970D1*
X8268510D2*
X10301743D1*
X1760550Y2021346D2*
X4222983D1*
X4394633D2*
X4416293D1*
X7783450D2*
X8108627D1*
X8293167D2*
X10270200D1*
X1768313Y1996679D2*
X4205697D1*
X4386137D2*
X4398587D1*
X7831743D2*
X8133333D1*
X8327493D2*
X10238657D1*
X1776030Y1972012D2*
X4196617D1*
X7880033D2*
X8157993D1*
X8363723D2*
X10207063D1*
X1785697Y1947346D2*
X4175327D1*
X7928323D2*
X8182650D1*
X8391117D2*
X10175523D1*
X1799273Y1922679D2*
X4153890D1*
X7976617D2*
X8207310D1*
X8414700D2*
X10143980D1*
X1816703Y1898012D2*
X4136607D1*
X4319973D2*
X4327837D1*
X8024907D2*
X8224007D1*
X8418217D2*
X10112387D1*
X1837210Y1873346D2*
X4119320D1*
X4297367D2*
X4310117D1*
X8073150D2*
X8234067D1*
X8473343D2*
X10080843D1*
X1861870Y1848679D2*
X4107943D1*
X8121440D2*
X8261167D1*
X8500737D2*
X10049300D1*
X1892387Y1824012D2*
X4110970D1*
X8169730D2*
X8288607D1*
X8527837D2*
X10017710D1*
X1931890Y1799346D2*
X4091537D1*
X8218023D2*
X8343540D1*
X8537747D2*
X9986167D1*
X1980377Y1774679D2*
X4072103D1*
X8266313D2*
X8347103D1*
X8529790D2*
X9954623D1*
X2030767Y1750012D2*
X4052720D1*
X4181060D2*
X4221663D1*
X8314603D2*
X8370787D1*
X8507720D2*
X9923030D1*
X2081157Y1725346D2*
X4033287D1*
X4161673D2*
X4203940D1*
X8362893D2*
X8398177D1*
X8485503D2*
X9891490D1*
X2131597Y1700679D2*
X4013853D1*
X4142240D2*
X4186263D1*
X8411137D2*
X8435093D1*
X8451500D2*
X9859947D1*
X2181987Y1676012D2*
X3994417D1*
X4122807D2*
X4168587D1*
X8459427D2*
X9828353D1*
X2232377Y1651346D2*
X3974983D1*
X4103373D2*
X4150863D1*
X8507720D2*
X9796810D1*
X2282817Y1626679D2*
X3955600D1*
X4083940D2*
X4133187D1*
X8666703D2*
X9765267D1*
X2333207Y1602012D2*
X3936167D1*
X4064553D2*
X4115463D1*
X8870170D2*
X9733677D1*
X2383597Y1577346D2*
X3875913D1*
X4045120D2*
X4097787D1*
X9073687D2*
X9702133D1*
X2434037Y1552679D2*
X3858627D1*
X4025687D2*
X4080110D1*
X9277153D2*
X9653353D1*
X2484427Y1528012D2*
X3841343D1*
X4012553D2*
X4062387D1*
X9480667D2*
X9562533D1*
X2534820Y1503346D2*
X3825813D1*
X4016360D2*
X4044710D1*
X2585210Y1478679D2*
X3825473D1*
X4003423D2*
X4026987D1*
X2635650Y1454012D2*
X3790950D1*
X3986137D2*
X4009310D1*
X2686040Y1429346D2*
X3772250D1*
X3968853D2*
X3991633D1*
X2736430Y1404679D2*
X3755013D1*
X3915433D2*
X3973910D1*
X2786870Y1380012D2*
X3737777D1*
X3925150D2*
X3956233D1*
X2837260Y1355346D2*
X3732063D1*
X3917047D2*
X3938510D1*
X2887650Y1330679D2*
X3744760D1*
X3899760D2*
X3920833D1*
X2938090Y1306012D2*
X3779527D1*
X3882473D2*
X3903160D1*
X2988480Y1281346D2*
X3814830D1*
X3861820D2*
X3885433D1*
X3038870Y1256679D2*
X3867757D1*
X3089310Y1232012D2*
X3850033D1*
X3139700Y1207346D2*
X3832357D1*
X3190093Y1182679D2*
X3814683D1*
X3240483Y1158012D2*
X3788803D1*
X3290923Y1133346D2*
X3761360D1*
X3341313Y1108679D2*
X3722103D1*
X3391703Y1084012D2*
X3672250D1*
X3463530Y1059346D2*
X3586070D1*
X3941740Y7394486D2*
X4106477Y7559052D1*
X4111363Y7562602D1*
X4116747Y7565346D1*
X4122493Y7567212D1*
X4128460Y7568156D1*
X4134500D1*
X4140467Y7567212D1*
X4146213Y7565346D1*
X4151597Y7562602D1*
X4156483Y7559052D1*
X4185220Y7530482D1*
X4519967Y7195569D1*
X4523517Y7190682D1*
X4526260Y7185299D1*
X4528127Y7179552D1*
X4529070Y7173586D1*
Y7167546D1*
X4528127Y7161579D1*
X4526260Y7155832D1*
X4523517Y7150449D1*
X4519967Y7145562D1*
X4517913Y7143342D1*
X4444200Y7069629D1*
X4841640Y6672236D1*
X4850677Y6667592D1*
X4859373Y6661272D1*
X4866973Y6653672D1*
X4873293Y6644976D1*
X4878173Y6635399D1*
X4881493Y6625176D1*
X4883177Y6614559D1*
Y6603812D1*
X4881493Y6593196D1*
X4878173Y6582972D1*
X4873293Y6573396D1*
X4866973Y6564699D1*
X4859373Y6557099D1*
X4850677Y6550779D1*
X4841100Y6545899D1*
X4830877Y6542579D1*
X4820260Y6540896D1*
X4809513D1*
X4798897Y6542579D1*
X4788673Y6545899D1*
X4779097Y6550779D1*
X4770400Y6557099D1*
X4762800Y6564699D1*
X4756480Y6573396D1*
X4751820Y6582496D1*
X4354387Y6979882D1*
X4318410Y6944006D1*
X4313523Y6940456D1*
X4308140Y6937712D1*
X4302393Y6935846D1*
X4296427Y6934902D1*
X4290387D1*
X4284420Y6935846D1*
X4278673Y6937712D1*
X4273290Y6940456D1*
X4268403Y6944006D1*
X4239667Y6972576D1*
X3949103Y7263186D1*
X3941750Y7258659D1*
X3941713Y6450492D1*
X3940800Y6446689D1*
X3938757Y6443352D1*
X3935780Y6440816D1*
X3709973Y6314482D1*
X2102100Y5205362D1*
X1182907Y4199512D1*
X1052617Y3360129D1*
X1055120Y3289399D1*
X1176943Y3193662D1*
X1340863Y3193526D1*
X1344580Y3192316D1*
X1347747Y3190019D1*
X1349307Y3188112D1*
X1428803Y3068589D1*
X1436867Y3043266D1*
X1778827Y1955229D1*
X1797007Y1922226D1*
X1820023Y1889752D1*
X1846560Y1860082D1*
X1876273Y1833592D1*
X1908790Y1810626D1*
X1944680Y1790916D1*
X3429197Y1064452D1*
X3496093Y1053679D1*
X3566860Y1054996D1*
X3636293Y1068849D1*
X3702167Y1094792D1*
X3762397Y1132012D1*
X3814313Y1178642D1*
X4477957Y2103919D1*
X4753070Y2491912D1*
X4756207Y2494249D1*
X4759910Y2495502D1*
X4762013Y2495679D1*
X7117367Y2495526D1*
X7121087Y2494316D1*
X7124250Y2492019D1*
X7125760Y2490189D1*
X7268483Y2279506D1*
X7618367Y2104416D1*
X8519190Y1644209D1*
X9497370Y1525682D1*
X9533743Y1525182D1*
X9569987Y1528456D1*
X9605733Y1535476D1*
X9640560Y1546162D1*
X9674093Y1560402D1*
X9704653Y1577316D1*
X10559080Y2245186D1*
X10797387Y2930369D1*
X10799497Y2933662D1*
X10834553Y2967792D1*
X10857417Y2995039D1*
X10877453Y3024456D1*
X10894443Y3055736D1*
X10908210Y3088562D1*
X10925983Y3146056D1*
X10928230Y3149259D1*
X10931357Y3151609D1*
X10933117Y3152376D1*
X11120357Y3217342D1*
X11218130Y3355866D1*
X11084500Y4139522D1*
Y3804022D1*
X10867500D1*
Y4159522D1*
X11081143D1*
X11073993Y4201279D1*
X10246473Y5245466D1*
X10173453Y5300206D1*
X10117737Y5337349D1*
X10013997Y5384469D1*
X9920330Y5415819D1*
X9688007Y5565106D1*
X9645410Y5592492D1*
X8984750Y5665549D1*
X8920580Y5680656D1*
X8917507Y5682462D1*
X8859420Y5723189D1*
X8857240Y5726006D1*
X8818440Y5785399D1*
X8817463Y5788826D1*
X8803510Y5858379D1*
X8803877Y5861926D1*
X8816767Y5931686D1*
X8818427Y5934842D1*
X8854680Y5992216D1*
X9746857Y6872082D1*
X9754167Y8209992D1*
X9514230Y8456376D1*
X9324833Y8422396D1*
X9250303Y8238056D1*
X9247790Y8235059D1*
X9244473Y8232982D1*
X9240680Y8232036D1*
X9063613Y8232212D1*
X9010310Y8232206D1*
X9012377Y8225689D1*
X9013290Y8218256D1*
X9013220Y8059809D1*
X9012010Y8052419D1*
X9009390Y8045402D1*
X9005463Y8039026D1*
X9000377Y8033529D1*
X8994323Y8029122D1*
X8987530Y8025972D1*
X8980257Y8024196D1*
X8974800Y8023806D1*
X8807803Y8023886D1*
X8800413Y8025096D1*
X8793800Y8027522D1*
Y8023806D1*
X8520413D1*
X8525050Y8019749D1*
X8554080Y7990496D1*
X8558783Y7984019D1*
X8562813Y7975819D1*
X8562417Y7976889D1*
X8562813Y7975819D1*
X8703800Y7975756D1*
X8768800Y7975806D1*
Y7942162D1*
X8778737Y7947646D1*
X8788013Y7951362D1*
X8797660Y7953976D1*
X8807547Y7955456D1*
X8820300Y7955806D1*
X8852527Y7955502D1*
X8862420Y7954086D1*
X8872080Y7951529D1*
X8881383Y7947869D1*
X8890197Y7943156D1*
X8898403Y7937452D1*
X8905893Y7930836D1*
X8912563Y7923392D1*
X8918327Y7915229D1*
X8923103Y7906449D1*
X8926830Y7897176D1*
X8929453Y7887532D1*
X8930940Y7877649D1*
X8931263Y7867306D1*
X8930393Y7857349D1*
X8928373Y7847562D1*
X8925233Y7838072D1*
X8921010Y7829016D1*
X8915767Y7820506D1*
X8909570Y7812662D1*
X8902507Y7805592D1*
X8894673Y7799389D1*
X8886170Y7794136D1*
X8877113Y7789906D1*
X8867630Y7786756D1*
X8857843Y7784726D1*
X8847887Y7783846D1*
X8810390Y7783946D1*
X8800463Y7785096D1*
X8791947Y7787046D1*
X8794153Y7780039D1*
X8795527Y7771359D1*
X8795700Y7754466D1*
X8795527Y7689029D1*
X8794153Y7680349D1*
X8791437Y7671992D1*
X8787447Y7664162D1*
X8782283Y7657052D1*
X8766280Y7640809D1*
X8766300Y7501376D1*
X8771333Y7493076D1*
X8775447Y7483142D1*
X8777957Y7472692D1*
X8778800Y7461976D1*
X8777957Y7451259D1*
X8775447Y7440809D1*
X8771333Y7430876D1*
X8765717Y7421712D1*
X8758737Y7413539D1*
X8750563Y7406559D1*
X8741400Y7400942D1*
X8731467Y7396829D1*
X8721017Y7394319D1*
X8710300Y7393476D1*
X8699583Y7394319D1*
X8689133Y7396829D1*
X8685407Y7398202D1*
X8685390Y7380976D1*
X8556437D1*
X8549540Y7376082D1*
X8540660Y7371559D1*
X8531183Y7368479D1*
X8521343Y7366922D1*
X8515523Y7366759D1*
X8513890Y7361726D1*
X8326890D1*
Y7376716D1*
X8300990Y7376889D1*
X8292697Y7378202D1*
X8284713Y7380799D1*
X8277233Y7384609D1*
X8270440Y7389542D1*
X8264503Y7395479D1*
X8259570Y7402272D1*
X8255760Y7409752D1*
X8253163Y7417736D1*
X8251850Y7426029D1*
X8251687Y7442726D1*
Y7619849D1*
X8243913Y7627569D1*
X8243890Y7551726D1*
X8056890D1*
Y7571792D1*
X7978897Y7571876D1*
X7971380Y7573066D1*
X7964143Y7575416D1*
X7957363Y7578872D1*
X7951203Y7583346D1*
X7930730Y7603609D1*
X7884620Y7649929D1*
X7880147Y7656089D1*
X7876690Y7662869D1*
X7874340Y7670106D1*
X7873150Y7677622D1*
X7873000Y7706429D1*
Y7808332D1*
X7842950Y7808352D1*
Y8125352D1*
X7991950D1*
Y7808352D1*
X7969930D1*
X7970000Y7701466D1*
X8002853Y7668662D1*
X8056873Y7668726D1*
X8056890Y7688726D1*
X8077740D1*
X8054177Y7712502D1*
X8049243Y7719296D1*
X8045433Y7726776D1*
X8042837Y7734759D1*
X8041523Y7743052D1*
X8041360Y7759749D1*
Y7811752D1*
X8020360Y7811746D1*
Y8128746D1*
X8147363D1*
X8147380Y8219802D1*
X8148590Y8227192D1*
X8150007Y8231489D1*
X8150523Y8232679D1*
X8034143Y8232866D1*
X8030427Y8234079D1*
X8027263Y8236379D1*
X8024967Y8239542D1*
X8023760Y8243262D1*
X8014330Y8316109D1*
X8006430Y8350399D1*
X7995263Y8383686D1*
X7980930Y8415739D1*
X7963560Y8446249D1*
X7933780Y8488752D1*
X7932627Y8492492D1*
X7932500Y8506762D1*
X7932503Y9043712D1*
X7929103Y9070722D1*
X7920703Y9094039D1*
X7907407Y9114972D1*
X7889860Y9132492D1*
X7868903Y9145752D1*
X7848783Y9152952D1*
X6093223Y9153082D1*
X6089507Y9154292D1*
X6086340Y9156589D1*
X6085767Y9157212D1*
X6029887Y9213262D1*
X6028113Y9216746D1*
X6027500Y9220609D1*
X6027533Y9221456D1*
X6027500Y9462162D1*
X6005450Y9462116D1*
X6005297Y9393602D1*
X6004107Y9386086D1*
X6001753Y9378849D1*
X5998300Y9372069D1*
X5993827Y9365912D1*
X5973563Y9345436D1*
X5852687Y9224559D1*
X5851843Y9213932D1*
X5849333Y9203482D1*
X5845220Y9193549D1*
X5839603Y9184386D1*
X5832623Y9176212D1*
X5824450Y9169232D1*
X5815287Y9163616D1*
X5805353Y9159502D1*
X5794903Y9156992D1*
X5784187Y9156149D1*
X5773470Y9156992D1*
X5763020Y9159502D1*
X5753087Y9163616D1*
X5743923Y9169232D1*
X5735750Y9176212D1*
X5728770Y9184386D1*
X5723153Y9193549D1*
X5719040Y9203482D1*
X5716530Y9213932D1*
X5715687Y9224649D1*
X5716530Y9235366D1*
X5719040Y9245816D1*
X5723153Y9255749D1*
X5728770Y9264912D1*
X5735750Y9273086D1*
X5743923Y9280066D1*
X5753087Y9285682D1*
X5763020Y9289796D1*
X5773470Y9292306D1*
X5784123Y9293146D1*
X5908473Y9417526D1*
X5908447Y9462106D1*
X5835447Y9462116D1*
Y9692729D1*
X5753820Y9692679D1*
X5753843Y9462116D1*
X5560963D1*
X5560847Y9186902D1*
X5559637Y9183182D1*
X5557340Y9180019D1*
X5556717Y9179446D1*
X5405417Y9028316D1*
X5401933Y9026539D1*
X5398070Y9025929D1*
X4972353Y9025926D1*
X4878477Y9012132D1*
X4784693Y8990226D1*
X4693050Y8960566D1*
X4604203Y8923366D1*
X4518773Y8878876D1*
X4437353Y8827412D1*
X4360510Y8769332D1*
X4288780Y8705046D1*
X4222667Y8634992D1*
X4162630Y8559672D1*
X4109093Y8479599D1*
X4062423Y8395339D1*
X4022943Y8307479D1*
X3990937Y8216629D1*
X3966623Y8123429D1*
X3950177Y8028522D1*
X3941717Y7932746D1*
X3941750Y7394449D1*
X3954890Y7407586D1*
X5469327Y8922069D2*
X5659990Y9112566D1*
X5664877Y9116116D1*
X5670260Y9118859D1*
X5676007Y9120726D1*
X5681973Y9121669D1*
X5688013D1*
X5693980Y9120726D1*
X5699727Y9118859D1*
X5705110Y9116116D1*
X5709997Y9112566D1*
X5738733Y9083996D1*
X6073480Y8749082D1*
X6077030Y8744196D1*
X6079773Y8738812D1*
X6081640Y8733066D1*
X6082583Y8727099D1*
Y8721059D1*
X6081640Y8715092D1*
X6079773Y8709346D1*
X6077030Y8703962D1*
X6073480Y8699076D1*
X6071427Y8696856D1*
X5871923Y8497519D1*
X5867037Y8493969D1*
X5861653Y8491226D1*
X5855907Y8489359D1*
X5849940Y8488416D1*
X5843900D1*
X5837933Y8489359D1*
X5832187Y8491226D1*
X5826803Y8493969D1*
X5821917Y8497519D1*
X5793180Y8526089D1*
X5458433Y8861002D1*
X5454883Y8865889D1*
X5452140Y8871272D1*
X5450273Y8877019D1*
X5449330Y8882986D1*
Y8889026D1*
X5450273Y8894992D1*
X5452140Y8900739D1*
X5454883Y8906122D1*
X5458433Y8911009D1*
X5469327Y8922069D1*
X4971783Y5485122D2*
X4972013Y5490786D1*
X4973610Y5498102D1*
X4976593Y5504969D1*
X4980850Y5511132D1*
X4986220Y5516352D1*
X4992497Y5520436D1*
X4999443Y5523226D1*
X5006803Y5524619D1*
X5032750Y5524772D1*
X5272077D1*
X5272193Y6772436D1*
X5273383Y6779952D1*
X5275733Y6787189D1*
X5279190Y6793969D1*
X5283663Y6800129D1*
X5303927Y6820602D1*
X5449373Y6965836D1*
X5455530Y6970309D1*
X5462310Y6973762D1*
X5469547Y6976116D1*
X5477063Y6977306D1*
X5505870Y6977456D1*
X5540000D1*
X5540153Y7006879D1*
X5541343Y7014396D1*
X5543697Y7021632D1*
X5547150Y7028412D1*
X5551623Y7034569D1*
X5571887Y7055046D1*
X5583577Y7066522D1*
X5589733Y7070996D1*
X5596513Y7074449D1*
X5603750Y7076802D1*
X5611267Y7077992D1*
X5640073Y7078142D1*
X5700863D1*
X5700973Y7201216D1*
X5702163Y7208732D1*
X5704517Y7215969D1*
X5707970Y7222749D1*
X5712443Y7228906D1*
X5729013Y7245686D1*
X5729860Y7256319D1*
X5732370Y7266769D1*
X5736483Y7276702D1*
X5742100Y7285866D1*
X5749080Y7294039D1*
X5757253Y7301019D1*
X5766417Y7306636D1*
X5776350Y7310749D1*
X5786800Y7313259D1*
X5797517Y7314102D1*
X5808233Y7313259D1*
X5818683Y7310749D1*
X5827643Y7307086D1*
X5827597Y7349352D1*
X5824490Y7359022D1*
X5822807Y7369639D1*
Y7380386D1*
X5824490Y7391002D1*
X5827810Y7401226D1*
X5832690Y7410802D1*
X5839010Y7419499D1*
X5846610Y7427099D1*
X5855307Y7433419D1*
X5864883Y7438299D1*
X5875107Y7441619D1*
X5885723Y7443302D1*
X5896470D1*
X5907087Y7441619D1*
X5917310Y7438299D1*
X5926887Y7433419D1*
X5935583Y7427099D1*
X5943183Y7419499D1*
X5949503Y7410802D1*
X5954383Y7401226D1*
X5957703Y7391002D1*
X5959387Y7380386D1*
Y7369639D1*
X5957703Y7359022D1*
X5954563Y7349292D1*
X5954400Y7013266D1*
X5952843Y7003426D1*
X5949763Y6993949D1*
X5945240Y6985069D1*
X5939383Y6977009D1*
X5927160Y6964509D1*
X5824863Y6862489D1*
X5824023Y6861826D1*
X5824863Y6862489D1*
X5824023Y6861826D1*
X5825000Y6861322D1*
X5969880D1*
X5970007Y7485332D1*
X5971260Y7493239D1*
X5973733Y7500849D1*
X5977367Y7507979D1*
X5982070Y7514456D1*
X5996077Y7528686D1*
X5996047Y7569199D1*
X5991630Y7574686D1*
X5986013Y7583849D1*
X5981900Y7593782D1*
X5979390Y7604232D1*
X5978547Y7614949D1*
X5979390Y7625666D1*
X5981900Y7636116D1*
X5986013Y7646049D1*
X5991630Y7655212D1*
X5998610Y7663386D1*
X6006783Y7670366D1*
X6015947Y7675982D1*
X6025880Y7680096D1*
X6036330Y7682606D1*
X6047047Y7683449D1*
X6057763Y7682606D1*
X6068213Y7680096D1*
X6078147Y7675982D1*
X6087310Y7670366D1*
X6095483Y7663386D1*
X6102463Y7655212D1*
X6108080Y7646049D1*
X6112193Y7636116D1*
X6114703Y7625666D1*
X6115547Y7614949D1*
X6114703Y7604232D1*
X6112193Y7593782D1*
X6108080Y7583849D1*
X6102463Y7574686D1*
X6098007Y7569242D1*
X6097890Y7503529D1*
X6096637Y7495622D1*
X6094163Y7488012D1*
X6090530Y7480882D1*
X6085827Y7474406D1*
X6071820Y7460176D1*
X6071850Y6861362D1*
X6091000Y6861322D1*
Y6860492D1*
X6323003Y6860522D1*
X6323000Y6864272D1*
X6333987D1*
X6334780Y6875012D1*
X6337107Y6884702D1*
X6340920Y6893909D1*
X6346127Y6902402D1*
X6353213Y6910549D1*
X6415473Y6972852D1*
X6405973Y6975679D1*
X6401093Y6966102D1*
X6394773Y6957406D1*
X6387173Y6949806D1*
X6378477Y6943486D1*
X6368900Y6938606D1*
X6358677Y6935286D1*
X6348060Y6933602D1*
X6337313D1*
X6326697Y6935286D1*
X6323037Y6936316D1*
X6323417Y6929102D1*
X6322573Y6918386D1*
X6320063Y6907936D1*
X6315950Y6898002D1*
X6310333Y6888839D1*
X6303353Y6880666D1*
X6295180Y6873686D1*
X6286017Y6868069D1*
X6276083Y6863956D1*
X6265633Y6861446D1*
X6254917Y6860602D1*
X6244200Y6861446D1*
X6233750Y6863956D1*
X6223817Y6868069D1*
X6214653Y6873686D1*
X6206480Y6880666D1*
X6199500Y6888839D1*
X6193883Y6898002D1*
X6189770Y6907936D1*
X6187260Y6918386D1*
X6186417Y6929102D1*
X6187260Y6939819D1*
X6189770Y6950269D1*
X6193883Y6960202D1*
X6199500Y6969366D1*
X6206480Y6977539D1*
X6209333Y6980179D1*
X6209287Y8057276D1*
X6202370Y8065419D1*
X6196753Y8074582D1*
X6192640Y8084516D1*
X6190130Y8094966D1*
X6189287Y8105682D1*
X6190130Y8116399D1*
X6192640Y8126849D1*
X6196753Y8136782D1*
X6202370Y8145946D1*
X6209350Y8154119D1*
X6217523Y8161099D1*
X6226687Y8166716D1*
X6236620Y8170829D1*
X6247070Y8173339D1*
X6257787Y8174182D1*
X6268503Y8173339D1*
X6274203Y8172169D1*
X6275030Y8182392D1*
X6277540Y8192842D1*
X6281653Y8202776D1*
X6287270Y8211939D1*
X6294250Y8220112D1*
X6302423Y8227092D1*
X6311587Y8232709D1*
X6321520Y8236822D1*
X6331970Y8239332D1*
X6342687Y8240176D1*
X6353403Y8239332D1*
X6363853Y8236822D1*
X6373787Y8232709D1*
X6382950Y8227092D1*
X6391123Y8220112D1*
X6398103Y8211939D1*
X6403720Y8202776D1*
X6407833Y8192842D1*
X6410343Y8182392D1*
X6411187Y8171676D1*
X6410343Y8160959D1*
X6407833Y8150509D1*
X6403720Y8140576D1*
X6398103Y8131412D1*
X6391167Y8123286D1*
X6391187Y7050239D1*
X6398103Y7042156D1*
X6403720Y7032992D1*
X6407833Y7023059D1*
X6410343Y7012609D1*
X6411187Y7001892D1*
X6410343Y6991176D1*
X6407833Y6980726D1*
X6405973Y6975679D1*
X6415443Y6972742D1*
Y7018349D1*
X6412337Y7028019D1*
X6410653Y7038636D1*
Y7049382D1*
X6412337Y7059999D1*
X6415657Y7070222D1*
X6420537Y7079799D1*
X6426857Y7088496D1*
X6434457Y7096096D1*
X6443153Y7102416D1*
X6452730Y7107296D1*
X6462953Y7110616D1*
X6473570Y7112299D1*
X6484317D1*
X6494933Y7110616D1*
X6505157Y7107296D1*
X6514733Y7102416D1*
X6523430Y7096096D1*
X6531030Y7088496D1*
X6537350Y7079799D1*
X6542230Y7070222D1*
X6545550Y7059999D1*
X6547233Y7049382D1*
Y7038636D1*
X6545550Y7028019D1*
X6542443Y7018276D1*
X6542247Y6941539D1*
X6540690Y6931699D1*
X6537610Y6922222D1*
X6533087Y6913342D1*
X6527230Y6905282D1*
X6515007Y6892782D1*
X6486473Y6864272D1*
X6577003D1*
X6577000Y6865072D1*
X6583690D1*
X6583000Y6874996D1*
X6583843Y6885712D1*
X6586353Y6896162D1*
X6590467Y6906096D1*
X6596083Y6915259D1*
X6603063Y6923432D1*
X6611237Y6930412D1*
X6620400Y6936029D1*
X6630333Y6940142D1*
X6640783Y6942652D1*
X6651500Y6943496D1*
X6662217Y6942652D1*
X6672667Y6940142D1*
X6682600Y6936029D1*
X6691763Y6930412D1*
X6699937Y6923432D1*
X6706917Y6915259D1*
X6712533Y6906096D1*
X6716647Y6896162D1*
X6719157Y6885712D1*
X6720000Y6874996D1*
X6719247Y6865052D1*
X6726000Y6865072D1*
Y6659846D1*
X6736877Y6662502D1*
X6744003Y6663206D1*
X6744130Y8004529D1*
X6745320Y8012046D1*
X6747670Y8019282D1*
X6751127Y8026062D1*
X6755600Y8032222D1*
X6775863Y8052696D1*
X7038193Y8314816D1*
X7044353Y8319289D1*
X7051133Y8322746D1*
X7058370Y8325096D1*
X7065887Y8326286D1*
X7094693Y8326436D1*
X7548063D1*
X7548197Y8333762D1*
X7549880Y8344379D1*
X7553200Y8354602D1*
X7558080Y8364179D1*
X7564400Y8372876D1*
X7572000Y8380476D1*
X7580697Y8386796D1*
X7590273Y8391676D1*
X7600497Y8394996D1*
X7611113Y8396679D1*
X7621860D1*
X7632477Y8394996D1*
X7642700Y8391676D1*
X7652277Y8386796D1*
X7660973Y8380476D1*
X7668573Y8372876D1*
X7674893Y8364179D1*
X7679773Y8354602D1*
X7683093Y8344379D1*
X7684777Y8333762D1*
Y8323016D1*
X7683093Y8312399D1*
X7679773Y8302176D1*
X7674893Y8292599D1*
X7668573Y8283902D1*
X7660973Y8276302D1*
X7652277Y8269982D1*
X7642873Y8265182D1*
X7645267Y8263919D1*
X7654843Y8268799D1*
X7665067Y8272119D1*
X7675683Y8273802D1*
X7686430D1*
X7697047Y8272119D1*
X7707270Y8268799D1*
X7716847Y8263919D1*
X7725543Y8257599D1*
X7733143Y8249999D1*
X7739463Y8241302D1*
X7744343Y8231726D1*
X7747663Y8221502D1*
X7749347Y8210886D1*
Y8200139D1*
X7747663Y8189522D1*
X7744343Y8179299D1*
X7739463Y8169722D1*
X7733143Y8161026D1*
X7729537Y8157122D1*
X7729407Y7708692D1*
X7728217Y7701176D1*
X7725867Y7693939D1*
X7722410Y7687159D1*
X7717937Y7680999D1*
X7697673Y7660526D1*
X7476460Y7439312D1*
X7476507Y6948562D1*
X7475910Y6940976D1*
X7474133Y6933576D1*
X7471220Y6926542D1*
X7467243Y6920056D1*
X7461680Y6913692D1*
X7315390Y6767356D1*
X7315283Y6354972D1*
X7314093Y6347456D1*
X7311740Y6340219D1*
X7308287Y6333439D1*
X7303813Y6327282D1*
X7296153Y6319409D1*
X7296213Y6291659D1*
X7303130Y6283592D1*
X7308747Y6274429D1*
X7312860Y6264496D1*
X7315370Y6254046D1*
X7316213Y6243329D1*
X7315370Y6232612D1*
X7312860Y6222162D1*
X7308747Y6212229D1*
X7303130Y6203066D1*
X7296150Y6194892D1*
X7287977Y6187912D1*
X7278813Y6182296D1*
X7268880Y6178182D1*
X7258430Y6175672D1*
X7247713Y6174829D1*
X7236997Y6175672D1*
X7226547Y6178182D1*
X7216613Y6182296D1*
X7207450Y6187912D1*
X7199277Y6194892D1*
X7192297Y6203066D1*
X7186680Y6212229D1*
X7182567Y6222162D1*
X7180057Y6232612D1*
X7179213Y6243329D1*
X7180057Y6254046D1*
X7182567Y6264496D1*
X7186680Y6274429D1*
X7192297Y6283592D1*
X7199233Y6291719D1*
X7199363Y6343366D1*
X7200553Y6350882D1*
X7202907Y6358119D1*
X7206360Y6364899D1*
X7210833Y6371056D1*
X7218493Y6378929D1*
X7218433Y6787489D1*
X7219030Y6795076D1*
X7220807Y6802476D1*
X7223720Y6809509D1*
X7227697Y6815996D1*
X7233260Y6822359D1*
X7379550Y6968696D1*
X7379657Y7463256D1*
X7380847Y7470772D1*
X7383200Y7478009D1*
X7386653Y7484789D1*
X7391127Y7490949D1*
X7411390Y7511422D1*
X7632603Y7732636D1*
X7632557Y8157176D1*
X7625640Y8165249D1*
X7620023Y8174412D1*
X7615910Y8184346D1*
X7613400Y8194796D1*
X7612557Y8205512D1*
X7613400Y8216229D1*
X7615910Y8226679D1*
X7620023Y8236612D1*
X7625640Y8245776D1*
X7632620Y8253949D1*
X7640793Y8260929D1*
X7645267Y8263919D1*
X7642927Y8265192D1*
X7618580Y8241056D1*
X7612420Y8236582D1*
X7605640Y8233126D1*
X7598403Y8230776D1*
X7590887Y8229586D1*
X7562080Y8229436D1*
X7089797Y8229449D1*
X6840980Y7980652D1*
X6840937Y6933906D1*
X6849617Y6938282D1*
X6859840Y6941602D1*
X6870457Y6943286D1*
X6881203D1*
X6891820Y6941602D1*
X6902043Y6938282D1*
X6911620Y6933402D1*
X6920317Y6927082D1*
X6927917Y6919482D1*
X6934237Y6910786D1*
X6939117Y6901209D1*
X6942437Y6890986D1*
X6944120Y6880369D1*
Y6869622D1*
X6942437Y6859006D1*
X6939330Y6849262D1*
Y6556489D1*
X6942437Y6546796D1*
X6944120Y6536179D1*
Y6525432D1*
X6942437Y6514816D1*
X6939117Y6504592D1*
X6934237Y6495016D1*
X6927917Y6486319D1*
X6920317Y6478719D1*
X6911620Y6472399D1*
X6902520Y6467739D1*
X6835030Y6400246D1*
X6945223D1*
Y6251246D1*
X6846913D1*
X6846903Y6181649D1*
X6866350Y6200932D1*
X6872507Y6205406D1*
X6879287Y6208859D1*
X6886523Y6211212D1*
X6894040Y6212402D1*
X6922847Y6212552D1*
X6963033D1*
X6969750Y6217226D1*
X6979327Y6222106D1*
X6985323Y6224236D1*
X6984903Y6231776D1*
X6985747Y6242492D1*
X6988257Y6252942D1*
X6992370Y6262876D1*
X6997987Y6272039D1*
X7004967Y6280212D1*
X7013140Y6287192D1*
X7022303Y6292809D1*
X7032237Y6296922D1*
X7042687Y6299432D1*
X7053403Y6300276D1*
X7064120Y6299432D1*
X7074570Y6296922D1*
X7084503Y6292809D1*
X7093667Y6287192D1*
X7101840Y6280212D1*
X7108820Y6272039D1*
X7114437Y6262876D1*
X7118550Y6252942D1*
X7121060Y6242492D1*
X7121900Y6231839D1*
X7168930Y6184629D1*
X7173403Y6178469D1*
X7176860Y6171689D1*
X7179210Y6164452D1*
X7180400Y6156936D1*
X7180550Y6128129D1*
Y5075149D1*
X7187467Y5067062D1*
X7193083Y5057899D1*
X7197197Y5047966D1*
X7199707Y5037516D1*
X7200550Y5026799D1*
X7199707Y5016082D1*
X7197197Y5005632D1*
X7193083Y4995699D1*
X7187467Y4986536D1*
X7180487Y4978362D1*
X7172313Y4971382D1*
X7163150Y4965766D1*
X7153217Y4961652D1*
X7142767Y4959142D1*
X7132050Y4958299D1*
X7121333Y4959142D1*
X7110883Y4961652D1*
X7100950Y4965766D1*
X7091787Y4971382D1*
X7083613Y4978362D1*
X7076633Y4986536D1*
X7071017Y4995699D1*
X7066903Y5005632D1*
X7064393Y5016082D1*
X7063550Y5026799D1*
X7064393Y5037516D1*
X7066903Y5047966D1*
X7071017Y5057899D1*
X7076633Y5067062D1*
X7083570Y5075189D1*
X7083550Y5935342D1*
X7076770Y5928726D1*
X7068073Y5922406D1*
X7058497Y5917526D1*
X7048273Y5914206D1*
X7037657Y5912522D1*
X7026910D1*
X7016293Y5914206D1*
X7006070Y5917526D1*
X6996493Y5922406D1*
X6987797Y5928726D1*
X6980197Y5936326D1*
X6977087Y5940269D1*
X6899027Y5940376D1*
X6891510Y5941566D1*
X6884273Y5943916D1*
X6877493Y5947372D1*
X6870407Y5952706D1*
X6871333Y5951846D1*
X6870407Y5952706D1*
X6852423Y5953136D1*
X6846907D1*
X6846903Y5648136D1*
Y5598136D1*
X6636893D1*
X6637143Y5427206D1*
X6681717Y5382412D1*
X6686420Y5375936D1*
X6688897Y5371319D1*
X6689727Y5369549D1*
X6723357D1*
Y5357976D1*
X6846137Y5357216D1*
X6855453Y5360156D1*
X6866070Y5361839D1*
X6876817D1*
X6887433Y5360156D1*
X6897657Y5356836D1*
X6907233Y5351956D1*
X6915930Y5345636D1*
X6923530Y5338036D1*
X6929850Y5329339D1*
X6934730Y5319762D1*
X6938050Y5309539D1*
X6939733Y5298922D1*
Y5288176D1*
X6938050Y5277559D1*
X6934730Y5267336D1*
X6929850Y5257759D1*
X6923530Y5249062D1*
X6915930Y5241462D1*
X6907233Y5235142D1*
X6897657Y5230262D1*
X6887433Y5226942D1*
X6876817Y5225259D1*
X6866070D1*
X6855453Y5226942D1*
X6845250Y5230256D1*
X6723327Y5231019D1*
X6723357Y5220549D1*
X6406357D1*
Y5369549D1*
X6550607D1*
X6544623Y5375699D1*
X6539920Y5382176D1*
X6537443Y5386792D1*
X6534403Y5388136D1*
X6279903D1*
X6029903Y5388182D1*
X5979903Y5388136D1*
Y5598146D1*
X5806367Y5598136D1*
X5800383Y5589932D1*
X5792783Y5582332D1*
X5784087Y5576012D1*
X5774510Y5571132D1*
X5764287Y5567812D1*
X5753670Y5566129D1*
X5742923D1*
X5732307Y5567812D1*
X5722083Y5571132D1*
X5712507Y5576012D1*
X5703810Y5582332D1*
X5696210Y5589932D1*
X5689890Y5598629D1*
X5685010Y5608206D1*
X5681690Y5618429D1*
X5680007Y5629046D1*
Y5639792D1*
X5681690Y5650409D1*
X5682847Y5654516D1*
X5561000Y5654522D1*
Y5672052D1*
X5547170Y5672022D1*
X5547887Y5661886D1*
X5547043Y5651169D1*
X5544533Y5640719D1*
X5540420Y5630786D1*
X5534803Y5621622D1*
X5527823Y5613449D1*
X5519650Y5606469D1*
X5510487Y5600852D1*
X5500553Y5596739D1*
X5490103Y5594229D1*
X5479387Y5593386D1*
X5468670Y5594229D1*
X5466753Y5594609D1*
X5466747Y5580886D1*
X5369043D1*
Y5155786D1*
X5375960Y5147659D1*
X5381577Y5138496D1*
X5385690Y5128562D1*
X5388200Y5118112D1*
X5389043Y5107396D1*
X5388200Y5096679D1*
X5385690Y5086229D1*
X5381577Y5076296D1*
X5375960Y5067132D1*
X5368980Y5058959D1*
X5360807Y5051979D1*
X5351643Y5046362D1*
X5341710Y5042249D1*
X5331260Y5039739D1*
X5327107Y5039249D1*
X5327250Y5011272D1*
X5327130Y4893252D1*
X5326187Y4887286D1*
X5324320Y4881539D1*
X5321577Y4876156D1*
X5318027Y4871269D1*
X5313753Y4866996D1*
X5308867Y4863446D1*
X5303483Y4860702D1*
X5297737Y4858836D1*
X5291770Y4857889D1*
X5251250Y4857772D1*
X5007230Y4857892D1*
X5001260Y4858836D1*
X4995517Y4860702D1*
X4990133Y4863446D1*
X4985247Y4866996D1*
X4980973Y4871269D1*
X4977423Y4876156D1*
X4974680Y4881539D1*
X4972813Y4887286D1*
X4971867Y4893252D1*
X4971750Y4933772D1*
X4971867Y5039292D1*
X4972813Y5045259D1*
X4974680Y5051006D1*
X4977423Y5056389D1*
X4980973Y5061276D1*
X4985247Y5065549D1*
X4990133Y5069099D1*
X4995517Y5071842D1*
X5001260Y5073709D1*
X5007230Y5074652D1*
X5011087Y5074739D1*
X5011397Y5307806D2*
X5005737Y5308039D1*
X4998420Y5309636D1*
X4991550Y5312619D1*
X4985390Y5316872D1*
X4980170Y5322242D1*
X4976087Y5328519D1*
X4973297Y5335469D1*
X4971903Y5342826D1*
X4971783Y5367309D1*
X5579750Y5524772D2*
X5848770Y5524652D1*
X5854737Y5523709D1*
X5860483Y5521842D1*
X5865867Y5519099D1*
X5870753Y5515549D1*
X5875023Y5511276D1*
X5878577Y5506389D1*
X5881320Y5501006D1*
X5883187Y5495259D1*
X5884130Y5489292D1*
X5884250Y5448772D1*
X5884130Y5343252D1*
X5883187Y5337286D1*
X5881320Y5331539D1*
X5878577Y5326156D1*
X5875023Y5321269D1*
X5870753Y5316996D1*
X5865867Y5313446D1*
X5860483Y5310702D1*
X5854737Y5308836D1*
X5848770Y5307892D1*
X5808250Y5307772D1*
X5564230Y5307892D1*
X5558260Y5308836D1*
X5552517Y5310702D1*
X5547133Y5313446D1*
X5542247Y5316996D1*
X5537973Y5321269D1*
X5534423Y5326156D1*
X5531680Y5331539D1*
X5529813Y5337286D1*
X5528867Y5343252D1*
X5528750Y5383772D1*
X5528867Y5489292D1*
X5529813Y5495259D1*
X5531680Y5501006D1*
X5534423Y5506389D1*
X5537973Y5511276D1*
X5542247Y5515549D1*
X5547133Y5519099D1*
X5552517Y5521842D1*
X5558260Y5523709D1*
X5564230Y5524652D1*
X5579750Y5524772D1*
X4971783Y5035412D2*
X4972223Y5042296D1*
X4973633Y5048169D1*
X4975947Y5053752D1*
X4979103Y5058902D1*
X4983027Y5063496D1*
X4987620Y5067419D1*
X4992770Y5070576D1*
X4998353Y5072889D1*
X5004227Y5074299D1*
X5010250Y5074772D1*
X5260297D1*
X5257257Y5081182D1*
X5253937Y5091406D1*
X5252253Y5102022D1*
Y5112769D1*
X5253937Y5123386D1*
X5257257Y5133609D1*
X5262137Y5143186D1*
X5268457Y5151882D1*
X5272063Y5155786D1*
X5272080Y5307772D1*
X5007750Y5307852D1*
X5000360Y5309062D1*
X4993347Y5311682D1*
X4986970Y5315609D1*
X4981473Y5320696D1*
X4977067Y5326749D1*
X4973917Y5333542D1*
X4972137Y5340816D1*
X4971750Y5346272D1*
X4971830Y5488769D1*
X4973040Y5496159D1*
X4975657Y5503176D1*
X4979583Y5509552D1*
X4984670Y5515049D1*
X4990727Y5519456D1*
X4997517Y5522606D1*
X5004793Y5524382D1*
X5011287Y5524739D1*
X5579750Y5074772D2*
X5848770Y5074652D1*
X5854737Y5073709D1*
X5858057Y5072736D1*
X5864023Y5076166D1*
X5873957Y5080279D1*
X5884407Y5082789D1*
X5895123Y5083632D1*
X5905840Y5082789D1*
X5916290Y5080279D1*
X5926223Y5076166D1*
X5935387Y5070549D1*
X5943560Y5063569D1*
X5950540Y5055396D1*
X5956157Y5046232D1*
X5960270Y5036299D1*
X5962780Y5025849D1*
X5963623Y5015132D1*
X5962780Y5004416D1*
X5960270Y4993966D1*
X5956157Y4984032D1*
X5950540Y4974869D1*
X5943560Y4966696D1*
X5935387Y4959716D1*
X5926223Y4954099D1*
X5916290Y4949986D1*
X5905840Y4947476D1*
X5895123Y4946632D1*
X5884223Y4947512D1*
X5884217Y4945412D1*
X5884250Y4896272D1*
X5883777Y4890249D1*
X5882363Y4884376D1*
X5880053Y4878792D1*
X5876897Y4873642D1*
X5872973Y4869049D1*
X5868380Y4865126D1*
X5863227Y4861969D1*
X5857647Y4859656D1*
X5851773Y4858246D1*
X5845750Y4857772D1*
X5564230Y4857892D1*
X5558260Y4858836D1*
X5552517Y4860702D1*
X5547133Y4863446D1*
X5542247Y4866996D1*
X5537973Y4871269D1*
X5534423Y4876156D1*
X5531680Y4881539D1*
X5529813Y4887286D1*
X5528867Y4893252D1*
X5528750Y4933772D1*
X5528867Y5039292D1*
X5529813Y5045259D1*
X5531680Y5051006D1*
X5534423Y5056389D1*
X5537973Y5061276D1*
X5542247Y5065549D1*
X5547133Y5069099D1*
X5552517Y5071842D1*
X5558260Y5073709D1*
X5564230Y5074652D1*
X5579750Y5074772D1*
X2320000Y4660522D2*
X2534500D1*
Y4305022D1*
X2317500D1*
Y4660522D1*
X2320000D1*
X2330000Y5217522D2*
X2534500D1*
Y4862022D1*
X2317500D1*
Y5217522D1*
X2330000D1*
X2780000Y4660522D2*
X2984500D1*
Y4305022D1*
X2767500D1*
Y4660522D1*
X2780000D1*
Y5217522D2*
X2805930D1*
X2808103Y5226096D1*
X2812217Y5236029D1*
X2817833Y5245192D1*
X2824813Y5253366D1*
X2832987Y5260346D1*
X2842150Y5265962D1*
X2852083Y5270076D1*
X2862533Y5272586D1*
X2873250Y5273429D1*
X2883967Y5272586D1*
X2894417Y5270076D1*
X2904350Y5265962D1*
X2913513Y5260346D1*
X2921687Y5253366D1*
X2928667Y5245192D1*
X2934283Y5236029D1*
X2938397Y5226096D1*
X2940533Y5217519D1*
X2984500Y5217522D1*
Y4862022D1*
X2767500D1*
Y5217522D1*
X2780000D1*
X9407500Y4736522D2*
X9622000D1*
Y4381022D1*
X9405000D1*
Y4736522D1*
X9407500D1*
X9417500Y5293522D2*
X9622000D1*
Y4938022D1*
X9405000D1*
Y5293522D1*
X9417500D1*
X9867500Y4736522D2*
X10072000D1*
Y4381022D1*
X9855000D1*
Y4736522D1*
X9867500D1*
X9965207Y5293522D2*
X10072000D1*
Y4938022D1*
X9855000D1*
Y5241292D1*
X9845513Y5248092D1*
X9837913Y5255692D1*
X9831593Y5264389D1*
X9826713Y5273966D1*
X9823393Y5284189D1*
X9821710Y5294806D1*
Y5305552D1*
X9823393Y5316169D1*
X9826713Y5326392D1*
X9831593Y5335969D1*
X9837913Y5344666D1*
X9845513Y5352266D1*
X9854210Y5358586D1*
X9863787Y5363466D1*
X9874010Y5366786D1*
X9884627Y5368469D1*
X9895373D1*
X9905990Y5366786D1*
X9916213Y5363466D1*
X9925790Y5358586D1*
X9934487Y5352266D1*
X9942087Y5344666D1*
X9948407Y5335969D1*
X9953287Y5326392D1*
X9956607Y5316169D1*
X9958290Y5305552D1*
X9958497Y5300242D1*
X9965277Y5293489D1*
X9813750Y2519272D2*
X10166750D1*
Y2302272D1*
X9811250D1*
Y2519272D1*
X9813750D1*
X9266750D2*
X9609750D1*
Y2302272D1*
X9254250D1*
Y2519272D1*
X9266750D1*
X9823750Y2969272D2*
X10166750D1*
Y2752272D1*
X9811250D1*
Y2969272D1*
X9823750D1*
X9266750D2*
X9609750D1*
Y2752272D1*
X9254250D1*
Y2812282D1*
X9057927Y2812272D1*
X9055520Y2802512D1*
X9051407Y2792579D1*
X9045790Y2783416D1*
X9038810Y2775242D1*
X9030637Y2768262D1*
X9021473Y2762646D1*
X9011540Y2758532D1*
X9001090Y2756022D1*
X8990373Y2755179D1*
X8979657Y2756022D1*
X8969207Y2758532D1*
X8959273Y2762646D1*
X8950110Y2768262D1*
X8941937Y2775242D1*
X8934957Y2783416D1*
X8929340Y2792579D1*
X8925227Y2802512D1*
X8922717Y2812962D1*
X8921873Y2823679D1*
X8922717Y2834396D1*
X8925227Y2844846D1*
X8929340Y2854779D1*
X8934957Y2863942D1*
X8941937Y2872116D1*
X8950110Y2879096D1*
X8959273Y2884712D1*
X8969207Y2888826D1*
X8979657Y2891336D1*
X8990310Y2892176D1*
X8995970Y2897652D1*
X9002127Y2902126D1*
X9008907Y2905579D1*
X9016143Y2907932D1*
X9023660Y2909122D1*
X9052467Y2909272D1*
X9254273D1*
X9254250Y2969272D1*
X9266750D1*
X1670000Y4204522D2*
X1884500D1*
Y3849022D1*
X1667500D1*
Y4204522D1*
X1670000D1*
X1680000Y3647522D2*
X1884500D1*
Y3292022D1*
X1667500D1*
Y3647522D1*
X1680000D1*
X1230000Y4204522D2*
X1434500D1*
Y3849022D1*
X1217500D1*
Y4204522D1*
X1230000D1*
Y3647522D2*
X1434500D1*
Y3292022D1*
X1390213D1*
X1392607Y3284169D1*
X1394290Y3273552D1*
Y3262806D1*
X1392607Y3252189D1*
X1389287Y3241966D1*
X1384407Y3232389D1*
X1378087Y3223692D1*
X1370487Y3216092D1*
X1361790Y3209772D1*
X1352213Y3204892D1*
X1341990Y3201572D1*
X1331373Y3199889D1*
X1320627D1*
X1310010Y3201572D1*
X1299787Y3204892D1*
X1290210Y3209772D1*
X1281513Y3216092D1*
X1273913Y3223692D1*
X1267593Y3232389D1*
X1262713Y3241966D1*
X1259393Y3252189D1*
X1257710Y3262806D1*
Y3273552D1*
X1259393Y3284169D1*
X1261833Y3292009D1*
X1217500Y3292022D1*
Y3647522D1*
X1230000D1*
X3285750Y4056772D2*
X3638750D1*
Y3839772D1*
X3283250D1*
Y4056772D1*
X3285750D1*
X3852750D2*
X4195750D1*
Y3839772D1*
X3840250D1*
Y4056772D1*
X3852750D1*
X3295750Y3606772D2*
X3638750D1*
Y3389772D1*
X3283250D1*
Y3606772D1*
X3295750D1*
X3852750D2*
X4195750D1*
Y3551449D1*
X4206867Y3553229D1*
X4217613D1*
X4228230Y3551546D1*
X4238453Y3548226D1*
X4248030Y3543346D1*
X4256727Y3537026D1*
X4264327Y3529426D1*
X4270647Y3520729D1*
X4275527Y3511152D1*
X4278847Y3500929D1*
X4280530Y3490312D1*
Y3479566D1*
X4278847Y3468949D1*
X4275527Y3458726D1*
X4270647Y3449149D1*
X4264327Y3440452D1*
X4256727Y3432852D1*
X4248030Y3426532D1*
X4238453Y3421652D1*
X4228230Y3418332D1*
X4217613Y3416649D1*
X4206867D1*
X4195743Y3418476D1*
X4195750Y3389772D1*
X3840250D1*
Y3606772D1*
X3852750D1*
X8740250Y3619272D2*
X9093250D1*
Y3402272D1*
X8737750D1*
Y3619272D1*
X8740250D1*
X8193250D2*
X8536250D1*
Y3402272D1*
X8180750D1*
Y3619272D1*
X8193250D1*
X8750250Y4069272D2*
X9093250D1*
Y3852272D1*
X8737750D1*
Y4069272D1*
X8750250D1*
X8193250D2*
X8536250D1*
Y3852272D1*
X8180750D1*
Y3924682D1*
X8175443Y3929896D1*
X8164783Y3930772D1*
X8154333Y3933282D1*
X8144400Y3937396D1*
X8135237Y3943012D1*
X8127063Y3949992D1*
X8120083Y3958166D1*
X8114467Y3967329D1*
X8110353Y3977262D1*
X8107843Y3987712D1*
X8107000Y3998429D1*
X8107843Y4009146D1*
X8110353Y4019596D1*
X8114467Y4029529D1*
X8120083Y4038692D1*
X8127063Y4046866D1*
X8135237Y4053846D1*
X8144400Y4059462D1*
X8154333Y4063576D1*
X8164783Y4066086D1*
X8175500Y4066929D1*
X8180770Y4066722D1*
X8180750Y4069272D1*
X8193250D1*
X10880000Y3602522D2*
X11084500D1*
Y3247022D1*
X10867500D1*
Y3602522D1*
X10880000D1*
X10430000Y4159522D2*
X10634500D1*
Y3804022D1*
X10417500D1*
Y4159522D1*
X10430000D1*
Y3602522D2*
X10634500D1*
Y3322492D1*
X10652100Y3304919D1*
X10662717Y3304086D1*
X10673167Y3301576D1*
X10683100Y3297462D1*
X10692263Y3291846D1*
X10700437Y3284866D1*
X10707417Y3276692D1*
X10713033Y3267529D1*
X10717147Y3257596D1*
X10719657Y3247146D1*
X10720500Y3236429D1*
X10719657Y3225712D1*
X10717147Y3215262D1*
X10713033Y3205329D1*
X10707417Y3196166D1*
X10700437Y3187992D1*
X10692263Y3181012D1*
X10683100Y3175396D1*
X10673167Y3171282D1*
X10662717Y3168772D1*
X10652000Y3167929D1*
X10641283Y3168772D1*
X10630833Y3171282D1*
X10620900Y3175396D1*
X10611737Y3181012D1*
X10603563Y3187992D1*
X10596583Y3196166D1*
X10590967Y3205329D1*
X10586853Y3215262D1*
X10584343Y3225712D1*
X10583503Y3236366D1*
X10572787Y3247052D1*
X10417500Y3247022D1*
Y3602522D1*
X10430000D1*
X2202750Y2969272D2*
X2555750D1*
Y2752272D1*
X2200250D1*
Y2969272D1*
X2202750D1*
X2769750D2*
X3112750D1*
Y2752272D1*
X2757250D1*
Y2969272D1*
X2769750D1*
X2212750Y2519272D2*
X2555750D1*
Y2302272D1*
X2200250D1*
Y2519272D1*
X2212750D1*
X2769750D2*
X3112750D1*
Y2477719D1*
X3121877Y2479062D1*
X3132623D1*
X3143240Y2477379D1*
X3153463Y2474059D1*
X3163040Y2469179D1*
X3171737Y2462859D1*
X3179337Y2455259D1*
X3185657Y2446562D1*
X3190537Y2436986D1*
X3193857Y2426762D1*
X3195540Y2416146D1*
Y2405399D1*
X3193857Y2394782D1*
X3190537Y2384559D1*
X3185657Y2374982D1*
X3179337Y2366286D1*
X3171737Y2358686D1*
X3163040Y2352366D1*
X3153463Y2347486D1*
X3143240Y2344166D1*
X3132623Y2342482D1*
X3121877D1*
X3112763Y2343866D1*
X3112750Y2302272D1*
X2757250D1*
Y2519272D1*
X2769750D1*
X5964000Y6544369D2*
X5953007Y6544322D1*
X5952803Y6526799D1*
X5951247Y6516959D1*
X5948167Y6507482D1*
X5943643Y6498602D1*
X5937787Y6490542D1*
X5930740Y6483496D1*
X5922680Y6477639D1*
X5913800Y6473116D1*
X5904323Y6470036D1*
X5894483Y6468479D1*
X5877000Y6468282D1*
X5825973D1*
X5826000Y6398319D1*
X5858603Y6365776D1*
X5888020Y6394922D1*
X5896080Y6400779D1*
X5904960Y6405302D1*
X5914437Y6408382D1*
X5924277Y6409939D1*
X5941760Y6410136D1*
X5979893D1*
X5979903Y6465136D1*
X6050070D1*
X5982243Y6533142D1*
X5977540Y6539619D1*
X5975063Y6544236D1*
X5953500Y6544322D1*
X5701847Y5972022D2*
X5561000D1*
Y5989552D1*
X5547910Y5989522D1*
X5547917Y5798969D1*
X5561007Y5799022D1*
X5561000Y5971522D1*
X5702867D1*
X5709983Y5968649D1*
X5710000Y5794306D1*
X5722433D1*
X5724590Y5800662D1*
X5728223Y5807792D1*
X5732927Y5814269D1*
X5756133Y5837699D1*
X5762220Y5842896D1*
X5769910Y5847476D1*
X5769903Y5976112D1*
X5763413Y5972332D1*
X5753480Y5968219D1*
X5743030Y5965709D1*
X5732313Y5964866D1*
X5721597Y5965709D1*
X5711147Y5968219D1*
X5561000Y6116506D2*
Y6289022D1*
X5653353D1*
X5653327Y6309012D1*
X5634283Y6328046D1*
X5474003Y6328166D1*
X5466487Y6329356D1*
X5459250Y6331706D1*
X5452470Y6335162D1*
X5446310Y6339636D1*
X5429167Y6356572D1*
X5424223Y6362359D1*
X5420247Y6368846D1*
X5417333Y6375879D1*
X5415557Y6383279D1*
X5414993Y6391712D1*
X5415110Y6737059D1*
X5416300Y6744576D1*
X5418650Y6751812D1*
X5422107Y6758592D1*
X5426580Y6764752D1*
X5446843Y6785226D1*
X5483117Y6821289D1*
X5489277Y6825762D1*
X5496057Y6829219D1*
X5503293Y6831569D1*
X5510810Y6832759D1*
X5539617Y6832909D1*
X5560953D1*
X5561000Y6865072D1*
X5571987D1*
X5572000Y6881529D1*
X5565740Y6880606D1*
X5500947Y6880456D1*
X5369013Y6748509D1*
X5369043Y6281372D1*
X5470747Y6281386D1*
Y6124386D1*
X5369020D1*
X5376247Y6121386D1*
X5470747D1*
Y6120166D1*
X5479043Y6121312D1*
X5489790D1*
X5500407Y6119629D1*
X5510137Y6116489D1*
X5561003Y6116522D1*
X5561000Y6134522D1*
X8536390Y7522919D2*
Y7682059D1*
X8529987Y7684919D1*
X8520823Y7690536D1*
X8512650Y7697516D1*
X8505670Y7705689D1*
X8500053Y7714852D1*
X8495940Y7724786D1*
X8493430Y7735236D1*
X8492587Y7745952D1*
X8493430Y7756669D1*
X8495010Y7763822D1*
X8391800Y7763806D1*
Y7797466D1*
X8383953Y7792982D1*
X8374780Y7789016D1*
X8365207Y7786142D1*
X8355367Y7784396D1*
X8345300Y7783806D1*
X8307897Y7784126D1*
X8298007Y7785562D1*
X8288350Y7788139D1*
X8279057Y7791816D1*
X8270253Y7796546D1*
X8262060Y7802269D1*
X8254583Y7808902D1*
X8247927Y7816356D1*
X8242180Y7824532D1*
X8237423Y7833322D1*
X8233717Y7842602D1*
X8231110Y7852252D1*
X8229643Y7862139D1*
X8229330Y7872129D1*
X8230180Y7882086D1*
X8232180Y7891879D1*
X8235303Y7901372D1*
X8239507Y7910442D1*
X8244733Y7918959D1*
X8250910Y7926816D1*
X8256673Y7932716D1*
X8169407Y7932686D1*
X8169360Y7811746D1*
X8148317D1*
X8148360Y7776582D1*
X8228270Y7776406D1*
X8236563Y7775092D1*
X8244547Y7772496D1*
X8252027Y7768686D1*
X8258820Y7763752D1*
X8270743Y7752059D1*
X8334100Y7688706D1*
X8513890Y7688726D1*
Y7514749D1*
X8522050Y7518882D1*
X8532577Y7522169D1*
X8531527Y7521962D1*
X8532577Y7522169D1*
X7814157Y7204382D2*
X7819187D1*
X7819353Y7435209D1*
X7820910Y7445049D1*
X7823990Y7454526D1*
X7828513Y7463406D1*
X7834370Y7471466D1*
X7841417Y7478512D1*
X7849477Y7484369D1*
X7858357Y7488892D1*
X7867833Y7491972D1*
X7877673Y7493529D1*
X7895157Y7493726D1*
X8056923D1*
X8056890Y7498726D1*
X8243890D1*
Y7361726D1*
X8056890D1*
Y7366756D1*
X7946143Y7366726D1*
X7946157Y7204396D1*
X8118657Y7204382D1*
Y7055382D1*
X7946810D1*
X7946797Y6979486D1*
X8140183Y6979466D1*
Y6952952D1*
X8150870Y6952922D1*
X8161487Y6951239D1*
X8171710Y6947919D1*
X8181287Y6943039D1*
X8189983Y6936719D1*
X8197583Y6929119D1*
X8203903Y6920422D1*
X8208783Y6910846D1*
X8212103Y6900622D1*
X8213787Y6890006D1*
Y6879259D1*
X8212103Y6868642D1*
X8208783Y6858419D1*
X8203903Y6848842D1*
X8197583Y6840146D1*
X8189983Y6832546D1*
X8181287Y6826226D1*
X8171710Y6821346D1*
X8161487Y6818026D1*
X8150870Y6816342D1*
X8140187D1*
X8140183Y6802466D1*
X7939763D1*
X7939830Y5745732D1*
X7939047Y5735799D1*
X7936723Y5726109D1*
X7932910Y5716902D1*
X7927703Y5708409D1*
X7920617Y5700262D1*
X7487197Y5266796D1*
X7482553Y5257759D1*
X7476233Y5249062D1*
X7468633Y5241462D1*
X7459937Y5235142D1*
X7450360Y5230262D1*
X7440137Y5226942D1*
X7429520Y5225259D1*
X7418773D1*
X7408157Y5226942D1*
X7397933Y5230262D1*
X7388357Y5235142D1*
X7379660Y5241462D1*
X7372060Y5249062D1*
X7365740Y5257759D1*
X7360860Y5267336D1*
X7357540Y5277559D1*
X7355857Y5288176D1*
Y5298922D1*
X7357540Y5309539D1*
X7360860Y5319762D1*
X7365740Y5329339D1*
X7372060Y5338036D1*
X7379660Y5345636D1*
X7388357Y5351956D1*
X7397457Y5356616D1*
X7812867Y5772072D1*
X7812830Y6802422D1*
X7783183Y6802466D1*
Y6828492D1*
X7766673Y6828479D1*
X7756933Y6825372D1*
X7746317Y6823689D1*
X7735570D1*
X7724953Y6825372D1*
X7714730Y6828692D1*
X7705153Y6833572D1*
X7696457Y6839892D1*
X7688857Y6847492D1*
X7682537Y6856189D1*
X7677657Y6865766D1*
X7674337Y6875989D1*
X7672653Y6886606D1*
Y6897352D1*
X7674337Y6907969D1*
X7677657Y6918192D1*
X7682537Y6927769D1*
X7688857Y6936466D1*
X7696457Y6944066D1*
X7705153Y6950386D1*
X7714730Y6955266D1*
X7724953Y6958586D1*
X7735570Y6960269D1*
X7746317D1*
X7756933Y6958586D1*
X7766663Y6955446D1*
X7783180Y6955479D1*
X7783183Y6979466D1*
X7819853D1*
X7819797Y7055339D1*
X7801657Y7055382D1*
Y7204382D1*
X7814157D1*
X5561047Y6703072D2*
X5561000Y6735932D1*
X5534670Y6735909D1*
X5511933Y6713136D1*
X5511960Y6424999D1*
X5658210Y6424866D1*
X5665727Y6423676D1*
X5672963Y6421326D1*
X5679743Y6417869D1*
X5685903Y6413396D1*
X5699023Y6400486D1*
X5699000Y6468316D1*
X5630517Y6468479D1*
X5620677Y6470036D1*
X5611200Y6473116D1*
X5602320Y6477639D1*
X5594260Y6483496D1*
X5587213Y6490542D1*
X5581357Y6498602D1*
X5576833Y6507482D1*
X5573753Y6516959D1*
X5572197Y6526799D1*
X5572000Y6548042D1*
X5561000Y6548072D1*
X5561050Y6710072D1*
X4369697Y1967609D2*
X4326280Y1905809D1*
X4322083Y1901466D1*
X4317260Y1897829D1*
X4311927Y1894992D1*
X4306213Y1893026D1*
X4300263Y1891976D1*
X4294223Y1891872D1*
X4289577Y1892469D1*
X4292823Y1885499D1*
X4294337Y1879649D1*
X4294913Y1873636D1*
X4294547Y1867606D1*
X4293237Y1861706D1*
X4291023Y1856086D1*
X4287957Y1850879D1*
X4237373Y1778842D1*
X4233177Y1774499D1*
X4228353Y1770862D1*
X4223020Y1768026D1*
X4217307Y1766059D1*
X4211357Y1765009D1*
X4205317Y1764902D1*
X4199333Y1765746D1*
X4192660Y1767906D1*
X4085987Y1632379D1*
X4007293Y1532446D1*
X4009977Y1528232D1*
X4012387Y1522692D1*
X4013900Y1516846D1*
X4014477Y1510832D1*
X4014110Y1504802D1*
X4012800Y1498902D1*
X4010587Y1493282D1*
X4007520Y1488076D1*
X3959803Y1420136D1*
X3955607Y1415792D1*
X3950783Y1412156D1*
X3945450Y1409319D1*
X3939737Y1407352D1*
X3933787Y1406302D1*
X3927747Y1406199D1*
X3921763Y1407039D1*
X3915987Y1408806D1*
X3910557Y1411452D1*
X3877297Y1434596D1*
X3840073Y1460806D1*
X3835730Y1465002D1*
X3832093Y1469826D1*
X3829257Y1475159D1*
X3827290Y1480872D1*
X3826240Y1486822D1*
X3826137Y1492862D1*
X3826977Y1498846D1*
X3828743Y1504622D1*
X3831390Y1510052D1*
X3854533Y1543312D1*
X3880743Y1580536D1*
X3884940Y1584879D1*
X3889763Y1588516D1*
X3895097Y1591352D1*
X3900810Y1593319D1*
X3906760Y1594369D1*
X3912800Y1594472D1*
X3918783Y1593632D1*
X3924560Y1591866D1*
X3927327Y1590649D1*
X3929003Y1589749D1*
X4114990Y1825992D1*
X4112283Y1832092D1*
X4110770Y1837942D1*
X4110193Y1843956D1*
X4110560Y1849986D1*
X4111870Y1855886D1*
X4114083Y1861506D1*
X4117150Y1866712D1*
X4167733Y1938749D1*
X4171930Y1943092D1*
X4176753Y1946729D1*
X4182087Y1949566D1*
X4187800Y1951532D1*
X4193750Y1952582D1*
X4199790Y1952689D1*
X4204437Y1952089D1*
X4201190Y1959059D1*
X4199677Y1964909D1*
X4199100Y1970922D1*
X4199467Y1976952D1*
X4200777Y1982852D1*
X4202990Y1988472D1*
X4206057Y1993679D1*
X4256640Y2065716D1*
X4260837Y2070059D1*
X4265660Y2073696D1*
X4270993Y2076532D1*
X4276707Y2078499D1*
X4282657Y2079549D1*
X4287847Y2079742D1*
X4288690Y2090459D1*
X4291200Y2100909D1*
X4295313Y2110842D1*
X4300930Y2120006D1*
X4307910Y2128179D1*
X4316083Y2135159D1*
X4325247Y2140776D1*
X4335180Y2144889D1*
X4345630Y2147399D1*
X4356347Y2148242D1*
X4367063Y2147399D1*
X4377513Y2144889D1*
X4387447Y2140776D1*
X4396610Y2135159D1*
X4404783Y2128179D1*
X4411763Y2120006D1*
X4417380Y2110842D1*
X4421493Y2100909D1*
X4424003Y2090459D1*
X4424847Y2079742D1*
X4424003Y2069026D1*
X4421493Y2058576D1*
X4417380Y2048642D1*
X4411763Y2039479D1*
X4404783Y2031306D1*
X4396610Y2024326D1*
X4387447Y2018709D1*
X4380413Y2015662D1*
X4382600Y2009569D1*
X4383650Y2003619D1*
X4383753Y1997579D1*
X4382913Y1991596D1*
X4381147Y1985819D1*
X4378500Y1980389D1*
X4369697Y1967609D1*
X7542870Y5757402D2*
X7542913Y5595402D1*
X7393913D1*
Y5631486D1*
X7386680Y5635049D1*
X7380523Y5639522D1*
X7360047Y5659786D1*
X7351803Y5668239D1*
X7347330Y5674399D1*
X7343873Y5681179D1*
X7341523Y5688416D1*
X7340333Y5695932D1*
X7340183Y5724739D1*
X7340333Y6269036D1*
X7341523Y6276552D1*
X7343873Y6283789D1*
X7347330Y6290569D1*
X7351803Y6296729D1*
X7372067Y6317202D1*
X7419470Y6364606D1*
X7419457Y6546506D1*
X7412540Y6554582D1*
X7406923Y6563746D1*
X7402810Y6573679D1*
X7400300Y6584129D1*
X7399457Y6594846D1*
X7400300Y6605562D1*
X7402810Y6616012D1*
X7406923Y6625946D1*
X7412540Y6635109D1*
X7419520Y6643282D1*
X7427693Y6650262D1*
X7436857Y6655879D1*
X7446790Y6659992D1*
X7457240Y6662502D1*
X7467957Y6663346D1*
X7478673Y6662502D1*
X7489123Y6659992D1*
X7499057Y6655879D1*
X7508220Y6650262D1*
X7516393Y6643282D1*
X7523373Y6635109D1*
X7528990Y6625946D1*
X7533103Y6616012D1*
X7535613Y6605562D1*
X7536457Y6594846D1*
X7535613Y6584129D1*
X7533103Y6573679D1*
X7528990Y6563746D1*
X7523373Y6554582D1*
X7516437Y6546456D1*
X7516307Y6340696D1*
X7515117Y6333179D1*
X7512767Y6325942D1*
X7509310Y6319162D1*
X7504837Y6313002D1*
X7484573Y6292529D1*
X7437170Y6245126D1*
X7437413Y6233102D1*
X7546913D1*
Y6076102D1*
X7437157D1*
X7439913Y6073102D1*
X7546913D1*
Y5916102D1*
X7516883D1*
X7518913Y5912402D1*
X7542913D1*
X7542867Y5750402D1*
X6492917Y4925389D2*
X6525877D1*
X6525320Y4934066D1*
X6526163Y4944782D1*
X6528673Y4955232D1*
X6532787Y4965166D1*
X6538403Y4974329D1*
X6545383Y4982502D1*
X6553557Y4989482D1*
X6562720Y4995099D1*
X6572653Y4999212D1*
X6583103Y5001722D1*
X6593820Y5002566D1*
X6604537Y5001722D1*
X6614987Y4999212D1*
X6624920Y4995099D1*
X6634083Y4989482D1*
X6642257Y4982502D1*
X6649237Y4974329D1*
X6654853Y4965166D1*
X6658967Y4955232D1*
X6661477Y4944782D1*
X6662320Y4934066D1*
X6661477Y4923349D1*
X6658967Y4912899D1*
X6654853Y4902966D1*
X6649237Y4893802D1*
X6642257Y4885629D1*
X6636640Y4880666D1*
X6633057Y4874859D1*
X6629840Y4870939D1*
X6629417Y4850389D1*
Y4608389D1*
X6542453D1*
X6498373Y4564256D1*
X6498400Y4318602D1*
X6505373Y4320086D1*
X6516090Y4320929D1*
X6526807Y4320086D1*
X6537257Y4317576D1*
X6547190Y4313462D1*
X6556353Y4307846D1*
X6564480Y4300909D1*
X6825417Y4300929D1*
X6833487Y4307846D1*
X6842650Y4313462D1*
X6852583Y4317576D1*
X6863033Y4320086D1*
X6873750Y4320929D1*
X6884467Y4320086D1*
X6894917Y4317576D1*
X6904850Y4313462D1*
X6914013Y4307846D1*
X6922187Y4300866D1*
X6929167Y4292692D1*
X6934783Y4283529D1*
X6938897Y4273596D1*
X6941407Y4263146D1*
X6942250Y4252429D1*
X6941407Y4241712D1*
X6938897Y4231262D1*
X6934783Y4221329D1*
X6929167Y4212166D1*
X6922187Y4203992D1*
X6914013Y4197012D1*
X6904850Y4191396D1*
X6898447Y4188582D1*
X6903033Y4180872D1*
X6907393Y4170069D1*
X6913923Y4170159D1*
X6919890Y4169216D1*
X6925637Y4167349D1*
X6931020Y4164606D1*
X6935907Y4161056D1*
X6964643Y4132486D1*
X7000283Y4096679D1*
X7003833Y4091792D1*
X7006577Y4086409D1*
X7008443Y4080662D1*
X7009387Y4074696D1*
Y4068656D1*
X7008443Y4062689D1*
X7007047Y4058216D1*
X7014480Y4060206D1*
X7020503Y4060679D1*
X7026527Y4060206D1*
X7032400Y4058796D1*
X7037983Y4056482D1*
X7043133Y4053326D1*
X7045350Y4051579D1*
X7097650Y4099959D1*
X7103970Y4104199D1*
X7110877Y4107399D1*
X7118197Y4109479D1*
X7127750Y4110429D1*
X7232077Y4110279D1*
X7239593Y4109089D1*
X7246830Y4106736D1*
X7253610Y4103282D1*
X7259767Y4098809D1*
X7280243Y4078546D1*
X7329927Y4028862D1*
X7335707Y4031899D1*
X7341450Y4033766D1*
X7347420Y4034712D1*
X7353460D1*
X7359427Y4033766D1*
X7365173Y4031899D1*
X7370557Y4029156D1*
X7375443Y4025606D1*
X7404180Y3997036D1*
X7436283Y3964762D1*
X7439837Y3959876D1*
X7442580Y3954492D1*
X7444447Y3948749D1*
X7445390Y3942779D1*
Y3936739D1*
X7444447Y3930772D1*
X7442580Y3925026D1*
X7439837Y3919642D1*
X7436283Y3914756D1*
X7407717Y3886019D1*
X7375443Y3853916D1*
X7370557Y3850362D1*
X7365173Y3847619D1*
X7359427Y3845752D1*
X7353460Y3844809D1*
X7347420D1*
X7341450Y3845752D1*
X7335707Y3847619D1*
X7330323Y3850362D1*
X7325437Y3853916D1*
X7296700Y3882482D1*
X7264593Y3914756D1*
X7261043Y3919642D1*
X7258300Y3925026D1*
X7256433Y3930772D1*
X7255487Y3936739D1*
Y3942779D1*
X7256433Y3948749D1*
X7258300Y3954492D1*
X7261337Y3960319D1*
X7208177Y4013432D1*
X7146777Y4013429D1*
X7113433Y3982192D1*
X7116177Y3976809D1*
X7118043Y3971062D1*
X7118987Y3965096D1*
Y3959056D1*
X7118043Y3953089D1*
X7116177Y3947342D1*
X7113433Y3941959D1*
X7109883Y3937072D1*
X7081313Y3908336D1*
X7054700Y3881889D1*
X7049813Y3878339D1*
X7044430Y3875596D1*
X7038683Y3873729D1*
X7032717Y3872786D1*
X7026677D1*
X7020710Y3873729D1*
X7014963Y3875596D1*
X7009580Y3878339D1*
X7004693Y3881889D1*
X6975957Y3910459D1*
X6940317Y3946266D1*
X6936767Y3951152D1*
X6934023Y3956536D1*
X6932157Y3962282D1*
X6931213Y3968249D1*
Y3974289D1*
X6932157Y3980256D1*
X6933553Y3984729D1*
X6926120Y3982739D1*
X6920097Y3982266D1*
X6914073Y3982739D1*
X6908200Y3984149D1*
X6902617Y3986462D1*
X6897467Y3989619D1*
X6892873Y3993542D1*
X6830717Y4055866D1*
X6827167Y4060752D1*
X6824423Y4066136D1*
X6822557Y4071882D1*
X6821613Y4077849D1*
X6821670Y4084369D1*
X6810900Y4088739D1*
X6801737Y4094356D1*
X6793563Y4101336D1*
X6786583Y4109509D1*
X6780967Y4118672D1*
X6776853Y4128606D1*
X6774343Y4139056D1*
X6773500Y4149772D1*
X6774343Y4160489D1*
X6776853Y4170939D1*
X6780967Y4180872D1*
X6786583Y4190036D1*
X6793563Y4198209D1*
X6800170Y4203956D1*
X6564423Y4203929D1*
X6556353Y4197012D1*
X6547190Y4191396D1*
X6537257Y4187282D1*
X6526807Y4184772D1*
X6516090Y4183929D1*
X6505373Y4184772D1*
X6498380Y4186306D1*
X6498400Y4044479D1*
X6541500Y4001772D1*
X6636000D1*
Y3844772D1*
X6479000D1*
Y3926756D1*
X6413020Y3992902D1*
X6408547Y3999062D1*
X6405090Y4005842D1*
X6402740Y4013079D1*
X6401550Y4020596D1*
X6401400Y4049402D1*
X6401550Y4588179D1*
X6402740Y4595696D1*
X6405090Y4602932D1*
X6408547Y4609712D1*
X6413020Y4615872D1*
X6433283Y4636346D1*
X6480413Y4683472D1*
X6480417Y4925389D1*
X6492917D1*
X5176480Y4309042D2*
X5214343Y4374386D1*
X5218147Y4379079D1*
X5222637Y4383122D1*
X5227703Y4386412D1*
X5233220Y4388872D1*
X5239057Y4390436D1*
X5246117Y4391052D1*
X5246250Y4399619D1*
X5247933Y4410236D1*
X5251253Y4420459D1*
X5256133Y4430036D1*
X5262453Y4438732D1*
X5270053Y4446332D1*
X5278750Y4452652D1*
X5288327Y4457532D1*
X5298550Y4460852D1*
X5309167Y4462536D1*
X5319913D1*
X5330530Y4460852D1*
X5340753Y4457532D1*
X5350330Y4452652D1*
X5359027Y4446332D1*
X5366627Y4438732D1*
X5372947Y4430036D1*
X5377827Y4420459D1*
X5381147Y4410236D1*
X5382830Y4399619D1*
Y4388872D1*
X5381147Y4378256D1*
X5377827Y4368032D1*
X5372947Y4358456D1*
X5366627Y4349759D1*
X5359027Y4342159D1*
X5350330Y4335839D1*
X5343560Y4332252D1*
X5345617Y4326542D1*
X5346717Y4320602D1*
X5346873Y4314566D1*
X5346087Y4308576D1*
X5344370Y4302782D1*
X5341770Y4297329D1*
X5297657Y4221159D1*
X5293853Y4216462D1*
X5289363Y4212422D1*
X5284297Y4209132D1*
X5278780Y4206672D1*
X5272943Y4205109D1*
X5266933Y4204479D1*
X5262253Y4204669D1*
X5266097Y4198006D1*
X5268113Y4192309D1*
X5269217Y4186369D1*
X5269373Y4180332D1*
X5268587Y4174342D1*
X5266870Y4168549D1*
X5264270Y4163096D1*
X5220157Y4086926D1*
X5216353Y4082232D1*
X5211863Y4078189D1*
X5206797Y4074899D1*
X5201280Y4072442D1*
X5195443Y4070876D1*
X5189433Y4070246D1*
X5183400Y4070562D1*
X5177493Y4071819D1*
X5171853Y4073982D1*
X5136700Y4094139D1*
X5104267Y4113002D1*
X5099570Y4116806D1*
X5095530Y4121296D1*
X5092240Y4126362D1*
X5089780Y4131882D1*
X5088217Y4137716D1*
X5087587Y4143726D1*
X5087903Y4149759D1*
X5089160Y4155666D1*
X5091323Y4161306D1*
X5092683Y4163889D1*
X5091323Y4161306D1*
X5092683Y4163889D1*
X5083900Y4160529D1*
X5066997Y4152079D1*
X5003767Y4041562D1*
X5008387Y4036539D1*
X5011677Y4031472D1*
X5014133Y4025952D1*
X5015697Y4020119D1*
X5016330Y4014109D1*
X5016013Y4008076D1*
X5014757Y4002166D1*
X5012593Y3996526D1*
X4992433Y3961376D1*
X4969570Y3922016D1*
X4965770Y3917319D1*
X4961280Y3913279D1*
X4956213Y3909989D1*
X4950693Y3907529D1*
X4944857Y3905966D1*
X4938850Y3905336D1*
X4932817Y3905652D1*
X4926907Y3906909D1*
X4921267Y3909072D1*
X4886117Y3929232D1*
X4846757Y3952092D1*
X4842060Y3955896D1*
X4838017Y3960386D1*
X4834727Y3965452D1*
X4832270Y3970972D1*
X4830707Y3976806D1*
X4830077Y3982816D1*
X4830390Y3988849D1*
X4831647Y3994759D1*
X4833813Y4000399D1*
X4853970Y4035549D1*
X4876833Y4074909D1*
X4880637Y4079606D1*
X4885127Y4083646D1*
X4890193Y4086936D1*
X4895710Y4089396D1*
X4901547Y4090959D1*
X4907557Y4091589D1*
X4913587Y4091272D1*
X4919733Y4089936D1*
X4992180Y4216256D1*
X4996950Y4222186D1*
X5002587Y4227299D1*
X5010560Y4232309D1*
X5077530Y4265626D1*
X5084787Y4267922D1*
X5092313Y4269056D1*
X5099923Y4268999D1*
X5107430Y4267752D1*
X5114650Y4265346D1*
X5121403Y4261839D1*
X5142957Y4247022D1*
X5147603Y4250636D1*
X5152913Y4253516D1*
X5158610Y4255532D1*
X5164550Y4256636D1*
X5172247Y4256639D1*
X5168403Y4263306D1*
X5166383Y4269002D1*
X5165283Y4274942D1*
X5165127Y4280979D1*
X5165913Y4286969D1*
X5167630Y4292762D1*
X5170230Y4298216D1*
X5176480Y4309042D1*
X6854033Y3015382D2*
X6800717Y3068866D1*
X6797167Y3073752D1*
X6794423Y3079136D1*
X6792557Y3084882D1*
X6791613Y3090849D1*
Y3096889D1*
X6791903Y3099366D1*
X6791613Y3096889D1*
X6791903Y3099366D1*
X6782380Y3104229D1*
X6773683Y3110549D1*
X6766083Y3118149D1*
X6759763Y3126846D1*
X6754883Y3136422D1*
X6751563Y3146646D1*
X6749880Y3157262D1*
Y3168009D1*
X6751563Y3178626D1*
X6754883Y3188849D1*
X6759763Y3198426D1*
X6766083Y3207122D1*
X6773683Y3214722D1*
X6782380Y3221042D1*
X6791957Y3225922D1*
X6802180Y3229242D1*
X6812797Y3230926D1*
X6823543D1*
X6834160Y3229242D1*
X6844383Y3225922D1*
X6853960Y3221042D1*
X6862657Y3214722D1*
X6870257Y3207122D1*
X6876577Y3198426D1*
X6881457Y3188849D1*
X6883493Y3183176D1*
X6889890Y3182216D1*
X6895637Y3180349D1*
X6901020Y3177606D1*
X6905907Y3174056D1*
X6934643Y3145486D1*
X6970283Y3109679D1*
X6973833Y3104792D1*
X6976577Y3099409D1*
X6978443Y3093662D1*
X6979387Y3087696D1*
Y3081656D1*
X6978443Y3075689D1*
X6977047Y3071216D1*
X6984480Y3073206D1*
X6990503Y3073679D1*
X6996527Y3073206D1*
X7002400Y3071796D1*
X7007983Y3069482D1*
X7013180Y3066289D1*
X7029860Y3082809D1*
X7036017Y3087282D1*
X7042797Y3090736D1*
X7050033Y3093089D1*
X7057550Y3094279D1*
X7086357Y3094429D1*
X7163307Y3094279D1*
X7170823Y3093089D1*
X7178060Y3090736D1*
X7184840Y3087282D1*
X7191663Y3082192D1*
X7357397Y2939739D1*
X7362480Y2943506D1*
X7367863Y2946249D1*
X7373607Y2948116D1*
X7379577Y2949062D1*
X7385617D1*
X7391583Y2948116D1*
X7397330Y2946249D1*
X7402713Y2943506D1*
X7407600Y2939956D1*
X7436337Y2911386D1*
X7468440Y2879112D1*
X7471993Y2874226D1*
X7474737Y2868842D1*
X7476603Y2863099D1*
X7477547Y2857129D1*
Y2851089D1*
X7476603Y2845122D1*
X7474737Y2839376D1*
X7471993Y2833992D1*
X7468440Y2829106D1*
X7439873Y2800369D1*
X7407600Y2768266D1*
X7402713Y2764712D1*
X7397330Y2761969D1*
X7391583Y2760102D1*
X7385617Y2759159D1*
X7379577D1*
X7373607Y2760102D1*
X7367863Y2761969D1*
X7362480Y2764712D1*
X7357593Y2768266D1*
X7328857Y2796832D1*
X7296750Y2829106D1*
X7293200Y2833992D1*
X7290457Y2839376D1*
X7288590Y2845122D1*
X7287643Y2851089D1*
Y2857129D1*
X7288590Y2863099D1*
X7290650Y2869262D1*
X7141453Y2997482D1*
X7081913Y2997429D1*
X7084910Y2992556D1*
X7087223Y2986972D1*
X7088633Y2981099D1*
X7089107Y2975076D1*
X7088633Y2969052D1*
X7087223Y2963179D1*
X7084910Y2957596D1*
X7081753Y2952446D1*
X7077830Y2947852D1*
X7024700Y2894889D1*
X7019813Y2891339D1*
X7014430Y2888596D1*
X7008683Y2886729D1*
X7002717Y2885782D1*
X6996677D1*
X6990710Y2886729D1*
X6984963Y2888596D1*
X6979580Y2891339D1*
X6974693Y2894889D1*
X6945957Y2923459D1*
X6910317Y2959266D1*
X6906767Y2964152D1*
X6904023Y2969536D1*
X6902157Y2975282D1*
X6901213Y2981249D1*
Y2987289D1*
X6902157Y2993256D1*
X6903553Y2997729D1*
X6896120Y2995739D1*
X6890097Y2995266D1*
X6884073Y2995739D1*
X6878200Y2997149D1*
X6872617Y2999462D1*
X6867467Y3002619D1*
X6862873Y3006542D1*
X6854033Y3015382D1*
X7433033Y4320382D2*
X7379717Y4373866D1*
X7376167Y4378752D1*
X7373423Y4384136D1*
X7371557Y4389882D1*
X7370967Y4392846D1*
X7370673Y4395319D1*
X7362877Y4400216D1*
X7354703Y4407196D1*
X7347723Y4415369D1*
X7342107Y4424532D1*
X7337993Y4434466D1*
X7335483Y4444916D1*
X7334640Y4455632D1*
X7335483Y4466349D1*
X7337993Y4476799D1*
X7342107Y4486732D1*
X7347723Y4495896D1*
X7354703Y4504069D1*
X7362877Y4511049D1*
X7372040Y4516666D1*
X7381973Y4520779D1*
X7392423Y4523289D1*
X7403140Y4524132D1*
X7413857Y4523289D1*
X7424307Y4520779D1*
X7434240Y4516666D1*
X7443403Y4511049D1*
X7451577Y4504069D1*
X7458557Y4495896D1*
X7463423Y4488069D1*
X7468890Y4487216D1*
X7474637Y4485349D1*
X7480020Y4482606D1*
X7484907Y4479056D1*
X7513643Y4450486D1*
X7549283Y4414679D1*
X7552833Y4409792D1*
X7555577Y4404409D1*
X7557443Y4398662D1*
X7558387Y4392696D1*
Y4386656D1*
X7557443Y4380689D1*
X7556047Y4376216D1*
X7563480Y4378206D1*
X7569503Y4378679D1*
X7575527Y4378206D1*
X7581400Y4376796D1*
X7586983Y4374482D1*
X7592180Y4371289D1*
X7605607Y4384559D1*
X7611767Y4389032D1*
X7618547Y4392489D1*
X7625783Y4394839D1*
X7633300Y4396029D1*
X7662107Y4396179D1*
X7703057Y4396029D1*
X7710573Y4394839D1*
X7717810Y4392489D1*
X7724590Y4389032D1*
X7731460Y4383902D1*
X7822510Y4305599D1*
X7827397Y4309149D1*
X7832780Y4311892D1*
X7838523Y4313759D1*
X7844493Y4314706D1*
X7850533D1*
X7856500Y4313759D1*
X7862247Y4311892D1*
X7867630Y4309149D1*
X7872517Y4305599D1*
X7901253Y4277029D1*
X7933357Y4244756D1*
X7936910Y4239869D1*
X7939653Y4234486D1*
X7941520Y4228742D1*
X7942463Y4222772D1*
Y4216732D1*
X7941520Y4210766D1*
X7939653Y4205019D1*
X7936910Y4199636D1*
X7933357Y4194749D1*
X7904790Y4166012D1*
X7872517Y4133909D1*
X7867630Y4130356D1*
X7862247Y4127612D1*
X7856500Y4125746D1*
X7850533Y4124802D1*
X7844493D1*
X7838523Y4125746D1*
X7832780Y4127612D1*
X7827397Y4130356D1*
X7822510Y4133909D1*
X7793773Y4162476D1*
X7761667Y4194749D1*
X7758117Y4199636D1*
X7755373Y4205019D1*
X7753507Y4210766D1*
X7752560Y4216732D1*
Y4222772D1*
X7753507Y4228742D1*
X7755373Y4234486D1*
X7755627Y4235032D1*
X7681147Y4299239D1*
X7662970Y4299179D1*
X7665177Y4294809D1*
X7667043Y4289062D1*
X7667987Y4283096D1*
Y4277056D1*
X7667043Y4271089D1*
X7665177Y4265342D1*
X7662433Y4259959D1*
X7658883Y4255072D1*
X7630313Y4226336D1*
X7603700Y4199889D1*
X7598813Y4196339D1*
X7593430Y4193596D1*
X7587683Y4191729D1*
X7581717Y4190786D1*
X7575677D1*
X7569710Y4191729D1*
X7563963Y4193596D1*
X7558580Y4196339D1*
X7553693Y4199889D1*
X7524957Y4228459D1*
X7489317Y4264266D1*
X7485767Y4269152D1*
X7483023Y4274536D1*
X7481157Y4280282D1*
X7480213Y4286249D1*
Y4292289D1*
X7481157Y4298256D1*
X7482553Y4302729D1*
X7475120Y4300739D1*
X7469097Y4300266D1*
X7463073Y4300739D1*
X7457200Y4302149D1*
X7451617Y4304462D1*
X7446467Y4307619D1*
X7441873Y4311542D1*
X7433033Y4320382D1*
X7948473Y2166276D2*
X7938087Y2175742D1*
X7934283Y2180436D1*
X7931263Y2185669D1*
X7929100Y2191309D1*
X7927843Y2197219D1*
X7927527Y2203252D1*
X7928157Y2209259D1*
X7929320Y2213799D1*
X7921997Y2211422D1*
X7916007Y2210636D1*
X7909967Y2210792D1*
X7904027Y2211896D1*
X7898333Y2213912D1*
X7893023Y2216792D1*
X7887630Y2221056D1*
X7822900Y2279452D1*
X7819097Y2284149D1*
X7816077Y2289379D1*
X7813913Y2295019D1*
X7812657Y2300929D1*
X7812340Y2306962D1*
X7812493Y2309332D1*
X7804727Y2313439D1*
X7796030Y2319759D1*
X7788430Y2327359D1*
X7782110Y2336056D1*
X7777230Y2345632D1*
X7773910Y2355856D1*
X7772227Y2366472D1*
Y2377219D1*
X7773910Y2387836D1*
X7777230Y2398059D1*
X7782110Y2407636D1*
X7788430Y2416332D1*
X7796030Y2423932D1*
X7804727Y2430252D1*
X7814303Y2435132D1*
X7824527Y2438452D1*
X7835143Y2440136D1*
X7845890D1*
X7856507Y2438452D1*
X7866730Y2435132D1*
X7876307Y2430252D1*
X7885003Y2423932D1*
X7892603Y2416332D1*
X7898923Y2407636D1*
X7903970Y2397606D1*
X7908970Y2396652D1*
X7914667Y2394636D1*
X7919973Y2391752D1*
X7924767Y2388076D1*
X7990100Y2329092D1*
X7993903Y2324396D1*
X7996923Y2319166D1*
X7999087Y2313526D1*
X8000343Y2307616D1*
X8000660Y2301582D1*
X8000030Y2295572D1*
X7998867Y2291036D1*
X8006187Y2293409D1*
X8012177Y2294196D1*
X8018217Y2294039D1*
X8024157Y2292939D1*
X8029853Y2290922D1*
X8035160Y2288039D1*
X8039953Y2284359D1*
X8105287Y2225379D1*
X8109090Y2220682D1*
X8112110Y2215452D1*
X8114273Y2209812D1*
X8115530Y2203902D1*
X8115740Y2196256D1*
X8315007Y1997042D1*
X8322493Y1997056D1*
X8328433Y1995952D1*
X8334130Y1993936D1*
X8339440Y1991056D1*
X8344233Y1987376D1*
X8405847Y1931736D1*
X8409650Y1927042D1*
X8412670Y1921809D1*
X8414833Y1916169D1*
X8416090Y1910259D1*
X8416407Y1904229D1*
X8415777Y1898219D1*
X8414213Y1892382D1*
X8411753Y1886866D1*
X8408463Y1881799D1*
X8381440Y1851606D1*
X8350890Y1817859D1*
X8346197Y1814056D1*
X8340963Y1811036D1*
X8335323Y1808872D1*
X8329413Y1807616D1*
X8323383Y1807299D1*
X8317373Y1807929D1*
X8311537Y1809492D1*
X8306020Y1811952D1*
X8300953Y1815242D1*
X8270760Y1842266D1*
X8237013Y1872816D1*
X8233210Y1877509D1*
X8230190Y1882742D1*
X8228027Y1888382D1*
X8226770Y1894292D1*
X8226453Y1900322D1*
X8226650Y1903339D1*
X8226967Y1905526D1*
X8025157Y2107079D1*
X8019217Y2108179D1*
X8013520Y2110196D1*
X8008213Y2113079D1*
X8003420Y2116759D1*
X7938087Y2175739D1*
X7934283Y2180436D1*
X7931263Y2185666D1*
X7929100Y2191306D1*
X7927843Y2197216D1*
X7927527Y2203249D1*
X7928157Y2209259D1*
X7929320Y2213796D1*
X7922000Y2211422D1*
X7916010Y2210636D1*
X7909970Y2210792D1*
X7904030Y2211892D1*
X7898333Y2213909D1*
X7893027Y2216792D1*
X7888233Y2220469D1*
X7865237Y2241222D1*
X4427713Y5293479D2*
X4374397Y5346962D1*
X4370847Y5351849D1*
X4368103Y5357232D1*
X4366237Y5362979D1*
X4365293Y5368946D1*
Y5374986D1*
X4366237Y5380952D1*
X4367633Y5385426D1*
X4360200Y5383436D1*
X4354177Y5382962D1*
X4348153Y5383436D1*
X4342280Y5384846D1*
X4336697Y5387159D1*
X4331547Y5390316D1*
X4326953Y5394239D1*
X4264797Y5456562D1*
X4261247Y5461449D1*
X4258503Y5466832D1*
X4256637Y5472579D1*
X4255693Y5478546D1*
Y5484586D1*
X4256637Y5490552D1*
X4258503Y5496299D1*
X4261247Y5501682D1*
X4264797Y5506569D1*
X4293367Y5535306D1*
X4319980Y5561752D1*
X4324867Y5565302D1*
X4330250Y5568046D1*
X4335997Y5569912D1*
X4341963Y5570856D1*
X4348003D1*
X4348790Y5570766D1*
X4348750Y5599039D1*
X4274600Y5681039D1*
X4269533Y5678949D1*
X4263660Y5677539D1*
X4257637Y5677066D1*
X4251613Y5677539D1*
X4245740Y5678949D1*
X4240160Y5681262D1*
X4235007Y5684419D1*
X4230413Y5688342D1*
X4171793Y5747132D1*
X4168240Y5752019D1*
X4165497Y5757402D1*
X4163630Y5763146D1*
X4162687Y5769116D1*
Y5775156D1*
X4163630Y5781122D1*
X4165497Y5786869D1*
X4168240Y5792252D1*
X4171793Y5797139D1*
X4200360Y5825876D1*
X4232633Y5857979D1*
X4237520Y5861532D1*
X4242903Y5864276D1*
X4248650Y5866142D1*
X4254617Y5867086D1*
X4260657D1*
X4266627Y5866142D1*
X4272370Y5864276D1*
X4277753Y5861532D1*
X4282640Y5857979D1*
X4311377Y5829412D1*
X4343483Y5797139D1*
X4347033Y5792252D1*
X4349777Y5786869D1*
X4351643Y5781122D1*
X4352590Y5775156D1*
Y5769116D1*
X4351643Y5763146D1*
X4349777Y5757402D1*
X4347033Y5752019D1*
X4344457Y5748366D1*
X4435670Y5647279D1*
X4439827Y5640902D1*
X4442937Y5633956D1*
X4444920Y5626609D1*
X4445750Y5617679D1*
X4445600Y5518622D1*
X4444410Y5511106D1*
X4442060Y5503869D1*
X4437900Y5496036D1*
X4437263Y5495079D1*
X4437913Y5492489D1*
X4440657Y5487106D1*
X4442523Y5481359D1*
X4443470Y5475392D1*
Y5469352D1*
X4442523Y5463386D1*
X4441127Y5458912D1*
X4448560Y5460902D1*
X4454583Y5461376D1*
X4460607Y5460902D1*
X4466480Y5459492D1*
X4472063Y5457179D1*
X4477213Y5454022D1*
X4481807Y5450099D1*
X4543963Y5387776D1*
X4547513Y5382889D1*
X4550257Y5377506D1*
X4552123Y5371759D1*
X4553067Y5365792D1*
Y5359752D1*
X4552973Y5358942D1*
X4563003Y5355672D1*
X4572580Y5350792D1*
X4581277Y5344472D1*
X4588877Y5336872D1*
X4595197Y5328176D1*
X4600077Y5318599D1*
X4603397Y5308376D1*
X4605080Y5297759D1*
Y5287012D1*
X4603397Y5276396D1*
X4600077Y5266172D1*
X4595197Y5256596D1*
X4588877Y5247899D1*
X4581277Y5240299D1*
X4572580Y5233979D1*
X4563003Y5229099D1*
X4552780Y5225779D1*
X4542163Y5224096D1*
X4531417D1*
X4520800Y5225779D1*
X4510577Y5229099D1*
X4501000Y5233979D1*
X4492303Y5240299D1*
X4484703Y5247899D1*
X4478383Y5256596D1*
X4473503Y5266172D1*
X4470840Y5274069D1*
X4463777Y5273362D1*
X4457753Y5273836D1*
X4451880Y5275246D1*
X4446297Y5277559D1*
X4441147Y5280716D1*
X4436553Y5284639D1*
X4427713Y5293479D1*
X5907020Y4096002D2*
X5869157Y4030659D1*
X5865353Y4025966D1*
X5860863Y4021922D1*
X5855797Y4018632D1*
X5850280Y4016172D1*
X5844443Y4014609D1*
X5838433Y4013979D1*
X5833753Y4014169D1*
X5837597Y4007506D1*
X5839613Y4001809D1*
X5840717Y3995869D1*
X5840873Y3989832D1*
X5840087Y3983842D1*
X5838370Y3978049D1*
X5835770Y3972596D1*
X5791657Y3896426D1*
X5787853Y3891732D1*
X5783363Y3887689D1*
X5778297Y3884399D1*
X5772780Y3881939D1*
X5766943Y3880376D1*
X5760933Y3879746D1*
X5754900Y3880062D1*
X5748993Y3881319D1*
X5743353Y3883482D1*
X5708200Y3903639D1*
X5675767Y3922502D1*
X5671070Y3926306D1*
X5667030Y3930796D1*
X5663740Y3935862D1*
X5661280Y3941382D1*
X5659717Y3947216D1*
X5659087Y3953226D1*
X5659403Y3959259D1*
X5660273Y3963646D1*
X5628950Y3979246D1*
X5538353Y3835499D1*
X5542310Y3830439D1*
X5545193Y3825132D1*
X5547210Y3819436D1*
X5548313Y3813496D1*
X5548470Y3807456D1*
X5547680Y3801466D1*
X5545967Y3795676D1*
X5543363Y3790222D1*
X5501750Y3718386D1*
X5497950Y3713689D1*
X5493460Y3709649D1*
X5488393Y3706359D1*
X5482873Y3703899D1*
X5477037Y3702336D1*
X5471030Y3701706D1*
X5464997Y3702022D1*
X5459087Y3703279D1*
X5453447Y3705442D1*
X5418297Y3725602D1*
X5378937Y3748462D1*
X5374240Y3752266D1*
X5370197Y3756756D1*
X5366907Y3761822D1*
X5364450Y3767342D1*
X5362887Y3773176D1*
X5362257Y3779186D1*
X5362573Y3785219D1*
X5363827Y3791129D1*
X5365993Y3796769D1*
X5386150Y3831919D1*
X5409013Y3871279D1*
X5412817Y3875976D1*
X5417307Y3880016D1*
X5422373Y3883306D1*
X5427890Y3885766D1*
X5433727Y3887329D1*
X5439737Y3887959D1*
X5445767Y3887642D1*
X5451677Y3886386D1*
X5455050Y3885196D1*
X5564877Y4059182D1*
X5569893Y4064906D1*
X5575743Y4069776D1*
X5582283Y4073669D1*
X5589350Y4076492D1*
X5596773Y4078176D1*
X5604947Y4078646D1*
X5639307Y4078529D1*
X5646823Y4077339D1*
X5654060Y4074986D1*
X5690710Y4056832D1*
X5707530Y4048436D1*
X5712147Y4054346D1*
X5716637Y4058389D1*
X5721703Y4061679D1*
X5727220Y4064139D1*
X5733057Y4065702D1*
X5739067Y4066332D1*
X5743747Y4066142D1*
X5739903Y4072806D1*
X5737887Y4078502D1*
X5736783Y4084442D1*
X5736627Y4090479D1*
X5737413Y4096469D1*
X5739130Y4102262D1*
X5741730Y4107716D1*
X5785843Y4183886D1*
X5789647Y4188579D1*
X5794137Y4192622D1*
X5799203Y4195912D1*
X5804720Y4198372D1*
X5810557Y4199936D1*
X5811153Y4200022D1*
X5811297Y4208349D1*
X5812980Y4218966D1*
X5816300Y4229189D1*
X5821180Y4238766D1*
X5827500Y4247462D1*
X5835100Y4255062D1*
X5843797Y4261382D1*
X5853373Y4266262D1*
X5863597Y4269582D1*
X5874213Y4271266D1*
X5884960D1*
X5895577Y4269582D1*
X5905800Y4266262D1*
X5915377Y4261382D1*
X5924073Y4255062D1*
X5931673Y4247462D1*
X5937993Y4238766D1*
X5942873Y4229189D1*
X5946193Y4218966D1*
X5947877Y4208349D1*
Y4197602D1*
X5946193Y4186986D1*
X5942873Y4176762D1*
X5937993Y4167186D1*
X5931673Y4158489D1*
X5924073Y4150889D1*
X5915377Y4144569D1*
X5914040Y4143819D1*
X5916220Y4138932D1*
X5917783Y4133096D1*
X5918413Y4127086D1*
X5918097Y4121052D1*
X5916840Y4115146D1*
X5914677Y4109506D1*
X5907020Y4096002D1*
X8733437Y6357742D2*
X8731377Y6362779D1*
X8729967Y6368652D1*
X8729493Y6374676D1*
X8729967Y6380699D1*
X8731377Y6386572D1*
X8733690Y6392156D1*
X8736847Y6397306D1*
X8740873Y6402002D1*
X8736950Y6397409D1*
X8740873Y6402002D1*
X8803093Y6464056D1*
X8807980Y6467606D1*
X8813363Y6470349D1*
X8819110Y6472216D1*
X8825077Y6473162D1*
X8831117D1*
X8837083Y6472216D1*
X8841557Y6470819D1*
X8839567Y6478252D1*
X8839093Y6484276D1*
X8839567Y6490299D1*
X8840977Y6496172D1*
X8843290Y6501756D1*
X8846447Y6506906D1*
X8850370Y6511499D1*
X8912693Y6573656D1*
X8917580Y6577206D1*
X8922963Y6579949D1*
X8928710Y6581816D1*
X8934677Y6582759D1*
X8940717D1*
X8946683Y6581816D1*
X8952430Y6579949D1*
X8955177Y6578682D1*
X8957020Y6577649D1*
X8963373Y6580259D1*
X8970773Y6582036D1*
X8978360Y6582632D1*
X9182900D1*
X9220360Y6619982D1*
X9225247Y6623532D1*
X9230630Y6626276D1*
X9236373Y6628142D1*
X9242343Y6629086D1*
X9248383D1*
X9254350Y6628142D1*
X9260097Y6626276D1*
X9265480Y6623532D1*
X9270367Y6619982D1*
X9299103Y6591412D1*
X9331210Y6559139D1*
X9334760Y6554252D1*
X9337503Y6548869D1*
X9339370Y6543122D1*
X9340313Y6537156D1*
Y6531116D1*
X9339370Y6525146D1*
X9337503Y6519402D1*
X9334760Y6514019D1*
X9331210Y6509132D1*
X9302640Y6480396D1*
X9270367Y6448289D1*
X9265480Y6444739D1*
X9260097Y6441996D1*
X9254350Y6440129D1*
X9248383Y6439182D1*
X9242343D1*
X9236373Y6440129D1*
X9230630Y6441996D1*
X9225247Y6444739D1*
X9220360Y6448289D1*
X9191623Y6476859D1*
X9182860Y6485632D1*
X9026267D1*
X9024177Y6478736D1*
X9021433Y6473352D1*
X9017883Y6468466D1*
X8989313Y6439729D1*
X8953507Y6404089D1*
X8948620Y6400539D1*
X8943237Y6397796D1*
X8937490Y6395929D1*
X8931523Y6394986D1*
X8925483D1*
X8919517Y6395929D1*
X8915043Y6397326D1*
X8917033Y6389892D1*
X8917507Y6383869D1*
X8917033Y6377846D1*
X8915623Y6371972D1*
X8913310Y6366389D1*
X8910153Y6361239D1*
X8906230Y6356646D1*
X8843907Y6294489D1*
X8839020Y6290939D1*
X8833637Y6288196D1*
X8827890Y6286329D1*
X8821923Y6285386D1*
X8815883D1*
X8809917Y6286329D1*
X8804170Y6288196D1*
X8801970Y6289209D1*
X8804170Y6288196D1*
X8801970Y6289209D1*
X8784417Y6271809D1*
X8778257Y6267336D1*
X8771477Y6263879D1*
X8764240Y6261529D1*
X8756723Y6260339D1*
X8727917Y6260189D1*
X8122987D1*
X8114900Y6253272D1*
X8105737Y6247656D1*
X8095803Y6243542D1*
X8085353Y6241032D1*
X8074637Y6240189D1*
X8063920Y6241032D1*
X8053470Y6243542D1*
X8043537Y6247656D1*
X8034373Y6253272D1*
X8026200Y6260252D1*
X8019220Y6268426D1*
X8013603Y6277589D1*
X8009490Y6287522D1*
X8006980Y6297972D1*
X8006137Y6308689D1*
X8006980Y6319406D1*
X8009490Y6329856D1*
X8013603Y6339789D1*
X8019220Y6348952D1*
X8026200Y6357126D1*
X8034373Y6364106D1*
X8043537Y6369722D1*
X8053470Y6373836D1*
X8063920Y6376346D1*
X8074637Y6377189D1*
X8085353Y6376346D1*
X8095803Y6373836D1*
X8105737Y6369722D1*
X8114900Y6364106D1*
X8123027Y6357169D1*
X8732890Y6357189D1*
X8730557Y6365689D1*
X8729610Y6371656D1*
Y6377696D1*
X8730557Y6383662D1*
X8732423Y6389409D1*
X8735167Y6394792D1*
X8738717Y6399679D1*
X8749607Y6410739D1*
X5106290Y3047139D2*
X5062873Y2985342D1*
X5058677Y2980999D1*
X5053853Y2977362D1*
X5048520Y2974526D1*
X5042807Y2972559D1*
X5036857Y2971509D1*
X5030817Y2971402D1*
X5026170Y2972002D1*
X5029417Y2965032D1*
X5030930Y2959182D1*
X5031507Y2953169D1*
X5031140Y2947139D1*
X5029830Y2941239D1*
X5027617Y2935619D1*
X5024550Y2930412D1*
X4973970Y2858376D1*
X4969773Y2854032D1*
X4964947Y2850396D1*
X4959613Y2847559D1*
X4953900Y2845592D1*
X4947950Y2844542D1*
X4941910Y2844436D1*
X4935927Y2845279D1*
X4932993Y2846052D1*
X4823413Y2691876D1*
X4827007Y2687119D1*
X4829843Y2681786D1*
X4831810Y2676072D1*
X4832860Y2670122D1*
X4832967Y2664082D1*
X4832123Y2658099D1*
X4830357Y2652322D1*
X4827710Y2646892D1*
X4804567Y2613632D1*
X4778357Y2576409D1*
X4774160Y2572066D1*
X4769337Y2568429D1*
X4764003Y2565592D1*
X4758290Y2563626D1*
X4752340Y2562576D1*
X4746300Y2562469D1*
X4740317Y2563312D1*
X4734540Y2565079D1*
X4729110Y2567726D1*
X4695850Y2590869D1*
X4658627Y2617079D1*
X4654283Y2621276D1*
X4650647Y2626099D1*
X4647810Y2631432D1*
X4645843Y2637146D1*
X4644793Y2643096D1*
X4644687Y2649136D1*
X4645530Y2655119D1*
X4647297Y2660896D1*
X4649943Y2666326D1*
X4673087Y2699586D1*
X4699297Y2736809D1*
X4703493Y2741152D1*
X4708317Y2744789D1*
X4713650Y2747626D1*
X4719363Y2749592D1*
X4725313Y2750642D1*
X4731353Y2750749D1*
X4737337Y2749906D1*
X4744120Y2747699D1*
X4743113Y2748139D1*
X4744120Y2747699D1*
X4853823Y2902029D1*
X4849973Y2908809D1*
X4848007Y2914522D1*
X4846957Y2920472D1*
X4846853Y2926512D1*
X4847693Y2932496D1*
X4849460Y2938272D1*
X4852107Y2943702D1*
X4902497Y3015876D1*
X4906337Y3020536D1*
X4910863Y3024539D1*
X4915957Y3027786D1*
X4921497Y3030196D1*
X4927347Y3031706D1*
X4933360Y3032286D1*
X4941030Y3031622D1*
X4937783Y3038592D1*
X4936270Y3044442D1*
X4935693Y3050456D1*
X4936060Y3056486D1*
X4937370Y3062386D1*
X4939583Y3068006D1*
X4942650Y3073212D1*
X4993233Y3145249D1*
X4997430Y3149592D1*
X5002253Y3153229D1*
X5007587Y3156066D1*
X5013300Y3158032D1*
X5019250Y3159082D1*
X5025290Y3159189D1*
X5031283Y3158342D1*
X5051860Y3189639D1*
X5051997Y3373292D1*
X5053187Y3380809D1*
X5055537Y3388046D1*
X5058993Y3394826D1*
X5069267Y3408762D1*
X5170183Y3541749D1*
X5164343Y3549889D1*
X5159463Y3559466D1*
X5156143Y3569689D1*
X5154460Y3580306D1*
Y3591052D1*
X5156143Y3601669D1*
X5159463Y3611892D1*
X5164343Y3621469D1*
X5170663Y3630166D1*
X5178263Y3637766D1*
X5186960Y3644086D1*
X5196537Y3648966D1*
X5206760Y3652286D1*
X5217377Y3653969D1*
X5228123D1*
X5238740Y3652286D1*
X5248963Y3648966D1*
X5258540Y3644086D1*
X5267237Y3637766D1*
X5274837Y3630166D1*
X5281157Y3621469D1*
X5286037Y3611892D1*
X5289357Y3601669D1*
X5291040Y3591052D1*
Y3580306D1*
X5289357Y3569689D1*
X5286037Y3559466D1*
X5281157Y3549889D1*
X5274837Y3541192D1*
X5271230Y3537289D1*
X5271100Y3526986D1*
X5269910Y3519469D1*
X5267560Y3512232D1*
X5264103Y3505452D1*
X5253830Y3491516D1*
X5148840Y3353159D1*
X5148697Y3171279D1*
X5147507Y3163762D1*
X5145157Y3156526D1*
X5140853Y3148412D1*
X5111557Y3103922D1*
X5114390Y3100149D1*
X5117227Y3094816D1*
X5119193Y3089102D1*
X5120243Y3083152D1*
X5120350Y3077112D1*
X5119507Y3071129D1*
X5117740Y3065352D1*
X5115093Y3059922D1*
X5106290Y3047139D1*
X6117237Y5929839D2*
X6115553Y5919222D1*
X6112233Y5908999D1*
X6107353Y5899422D1*
X6101033Y5890726D1*
X6093433Y5883126D1*
X6084737Y5876806D1*
X6075160Y5871926D1*
X6070093Y5870059D1*
X6079187Y5866216D1*
X6088350Y5860599D1*
X6096523Y5853619D1*
X6103703Y5845149D1*
X6112790Y5849742D1*
X6123013Y5853062D1*
X6133630Y5854746D1*
X6144377D1*
X6154993Y5853062D1*
X6165217Y5849742D1*
X6174793Y5844862D1*
X6183490Y5838542D1*
X6191090Y5830942D1*
X6197410Y5822246D1*
X6202290Y5812669D1*
X6204977Y5804692D1*
X6204940Y5824556D1*
X6197133Y5829462D1*
X6188960Y5836442D1*
X6181980Y5844616D1*
X6176363Y5853779D1*
X6172250Y5863712D1*
X6169740Y5874162D1*
X6168897Y5884879D1*
X6169740Y5895596D1*
X6172250Y5906046D1*
X6176363Y5915979D1*
X6181980Y5925142D1*
X6188960Y5933316D1*
X6197133Y5940296D1*
X6206297Y5945912D1*
X6216230Y5950026D1*
X6226680Y5952536D1*
X6237397Y5953379D1*
X6248113Y5952536D1*
X6258563Y5950026D1*
X6268497Y5945912D1*
X6275267Y5941896D1*
X6280327Y5947522D1*
X6288500Y5954502D1*
X6297663Y5960119D1*
X6307597Y5964232D1*
X6318047Y5966742D1*
X6328763Y5967586D1*
X6339480Y5966742D1*
X6349930Y5964232D1*
X6359863Y5960119D1*
X6364573Y5957479D1*
X6371780Y5965939D1*
X6379953Y5972919D1*
X6389117Y5978536D1*
X6399050Y5982649D1*
X6409500Y5985159D1*
X6420217Y5986002D1*
X6431240Y5985099D1*
X6436300Y5995119D1*
X6442620Y6003816D1*
X6450220Y6011416D1*
X6458917Y6017736D1*
X6468493Y6022616D1*
X6478717Y6025936D1*
X6489333Y6027619D1*
X6500080D1*
X6510347Y6026006D1*
X6515013Y6030522D1*
X6521170Y6034996D1*
X6527950Y6038449D1*
X6535187Y6040802D1*
X6542703Y6041992D1*
X6597210Y6042142D1*
X6604797Y6041546D1*
X6609750Y6040459D1*
X6609903Y6135636D1*
Y6188592D1*
X6607587Y6182096D1*
X6602707Y6172519D1*
X6596387Y6163822D1*
X6588787Y6156222D1*
X6580090Y6149902D1*
X6570513Y6145022D1*
X6560290Y6141702D1*
X6549673Y6140019D1*
X6544237Y6139812D1*
X6546953Y6132772D1*
X6549463Y6122322D1*
X6550307Y6111606D1*
X6549463Y6100889D1*
X6546953Y6090439D1*
X6542840Y6080506D1*
X6537223Y6071342D1*
X6530243Y6063169D1*
X6522070Y6056189D1*
X6512907Y6050572D1*
X6502973Y6046459D1*
X6492523Y6043949D1*
X6481807Y6043106D1*
X6471090Y6043949D1*
X6460640Y6046459D1*
X6450707Y6050572D1*
X6441543Y6056189D1*
X6433370Y6063169D1*
X6426390Y6071342D1*
X6420773Y6080506D1*
X6416660Y6090439D1*
X6414150Y6100889D1*
X6413307Y6111606D1*
X6414150Y6122322D1*
X6416660Y6132772D1*
X6420773Y6142706D1*
X6426390Y6151869D1*
X6433370Y6160042D1*
X6434927Y6161482D1*
X6434903Y6228149D1*
X6331843Y6228136D1*
X6331307Y6219572D1*
X6329530Y6212172D1*
X6326617Y6205139D1*
X6322640Y6198652D1*
X6317077Y6192289D1*
X6306823Y6181989D1*
X6306840Y6153022D1*
X6313757Y6144869D1*
X6319373Y6135706D1*
X6323487Y6125772D1*
X6325997Y6115322D1*
X6326840Y6104606D1*
X6325997Y6093889D1*
X6323487Y6083439D1*
X6319373Y6073506D1*
X6313757Y6064342D1*
X6306777Y6056169D1*
X6298603Y6049189D1*
X6289440Y6043572D1*
X6279507Y6039459D1*
X6269057Y6036949D1*
X6258340Y6036106D1*
X6247623Y6036949D1*
X6237173Y6039459D1*
X6227240Y6043572D1*
X6225463Y6044569D1*
X6217487Y6036522D1*
X6208790Y6030202D1*
X6199213Y6025322D1*
X6188990Y6022002D1*
X6178373Y6020319D1*
X6167627D1*
X6157010Y6022002D1*
X6146787Y6025322D1*
X6137210Y6030202D1*
X6128513Y6036522D1*
X6120913Y6044122D1*
X6114593Y6052819D1*
X6109713Y6062396D1*
X6106840Y6070439D1*
X6096093D1*
X6085477Y6072122D1*
X6075253Y6075442D1*
X6065677Y6080322D1*
X6056980Y6086642D1*
X6049380Y6094242D1*
X6043060Y6102939D1*
X6038180Y6112516D1*
X6034860Y6122739D1*
X6033177Y6133356D1*
Y6144102D1*
X6034860Y6154719D1*
X6038180Y6164942D1*
X6043060Y6174519D1*
X6049380Y6183216D1*
X6056980Y6190816D1*
X6065677Y6197136D1*
X6075253Y6202016D1*
X6085477Y6205336D1*
X6096093Y6207019D1*
X6101403Y6207226D1*
X6103460Y6209312D1*
X6103550Y6215032D1*
X6104740Y6222549D1*
X6106210Y6227399D1*
X6104403Y6228136D1*
X6006873D1*
X6006853Y6048136D1*
X6006903Y5989266D1*
X6013157Y5993619D1*
X6022733Y5998499D1*
X6032957Y6001819D1*
X6043573Y6003502D1*
X6054320D1*
X6064937Y6001819D1*
X6075160Y5998499D1*
X6084737Y5993619D1*
X6093433Y5987299D1*
X6101033Y5979699D1*
X6107353Y5971002D1*
X6112233Y5961426D1*
X6115553Y5951202D1*
X6117237Y5940586D1*
Y5929839D1*
X6434900Y6228136D2*
X6331873D1*
X6331307Y6219572D1*
X6329530Y6212172D1*
X6326617Y6205139D1*
X6322640Y6198652D1*
X6317697Y6192866D1*
X3751667Y1327279D2*
X3747163Y1330719D1*
X3742087Y1336222D1*
X3738170Y1342606D1*
X3735563Y1349626D1*
X3734367Y1357016D1*
X3734623Y1364499D1*
X3736323Y1371792D1*
X3739400Y1378619D1*
X3754157Y1399962D1*
X3790263Y1450962D1*
X3795830Y1455972D1*
X3802263Y1459809D1*
X3809313Y1462326D1*
X3816720Y1463432D1*
X3824200Y1463086D1*
X3831470Y1461296D1*
X3838257Y1458132D1*
X3853047Y1447916D1*
X3910190Y1407509D1*
X3915200Y1401942D1*
X3919037Y1395509D1*
X3921553Y1388459D1*
X3922660Y1381052D1*
X3922313Y1373572D1*
X3920523Y1366302D1*
X3917360Y1359516D1*
X3907143Y1344726D1*
X3866737Y1287582D1*
X3861170Y1282572D1*
X3854737Y1278736D1*
X3847687Y1276219D1*
X3840280Y1275112D1*
X3832800Y1275459D1*
X3825530Y1277249D1*
X3818743Y1280412D1*
X3803953Y1290629D1*
X3746810Y1331036D1*
X3741800Y1336602D1*
X3737963Y1343036D1*
X3735447Y1350086D1*
X3734340Y1357492D1*
X3734687Y1364972D1*
X3736477Y1372242D1*
X3739640Y1379029D1*
X3745927Y1388149D1*
X3905333Y1411266D2*
X3909837Y1407826D1*
X3914913Y1402322D1*
X3918830Y1395939D1*
X3921437Y1388919D1*
X3922633Y1381529D1*
X3922377Y1374046D1*
X3920677Y1366752D1*
X3917600Y1359926D1*
X3905067Y1341816D1*
X6481500Y3841772D2*
X6636000D1*
Y3684772D1*
X6479000D1*
Y3841772D1*
X6481500D1*
X7491590Y3743666D2*
X7487420Y3739826D1*
X7481117Y3735782D1*
X7474153Y3733036D1*
X7466787Y3731686D1*
X7459300Y3731792D1*
X7451973Y3733342D1*
X7445087Y3736282D1*
X7438900Y3740502D1*
X7420443Y3758739D1*
X7376487Y3803156D1*
X7372520Y3809506D1*
X7369860Y3816506D1*
X7368603Y3823889D1*
X7368800Y3831372D1*
X7370443Y3838679D1*
X7373467Y3845529D1*
X7377760Y3851662D1*
X7390390Y3864452D1*
X7440107Y3913712D1*
X7446460Y3917679D1*
X7453457Y3920339D1*
X7460840Y3921596D1*
X7468327Y3921399D1*
X7475630Y3919756D1*
X7482480Y3916732D1*
X7488617Y3912439D1*
X7501407Y3899809D1*
X7550667Y3850092D1*
X7554633Y3843739D1*
X7557293Y3836742D1*
X7558550Y3829359D1*
X7558353Y3821872D1*
X7556710Y3814569D1*
X7553683Y3807719D1*
X7549390Y3801582D1*
X7536763Y3788792D1*
X7487043Y3739532D1*
X7480693Y3735566D1*
X7473693Y3732906D1*
X7466310Y3731649D1*
X7458827Y3731846D1*
X7451520Y3733489D1*
X7444670Y3736516D1*
X7438537Y3740809D1*
X7434583Y3744596D1*
X7380617Y3798609D2*
X7376777Y3802779D1*
X7372733Y3809082D1*
X7369987Y3816046D1*
X7368640Y3823412D1*
X7368743Y3830899D1*
X7370297Y3838226D1*
X7373237Y3845112D1*
X7377453Y3851299D1*
X7379783Y3853846D1*
X7378247Y3856599D1*
X7373070Y3852042D1*
X7367917Y3848886D1*
X7362337Y3846572D1*
X7356463Y3845162D1*
X7350440Y3844689D1*
X7344417Y3845162D1*
X7338543Y3846572D1*
X7332960Y3848886D1*
X7327810Y3852042D1*
X7323217Y3855966D1*
X4770323Y3811372D2*
X4765537Y3814406D1*
X4760000Y3819446D1*
X4755543Y3825462D1*
X4752333Y3832229D1*
X4750497Y3839489D1*
X4750100Y3846966D1*
X4751157Y3854379D1*
X4753630Y3861446D1*
X4766470Y3883996D1*
X4797993Y3937946D1*
X4803103Y3943419D1*
X4809177Y3947802D1*
X4815980Y3950926D1*
X4823263Y3952672D1*
X4830743Y3952976D1*
X4838143Y3951829D1*
X4845180Y3949269D1*
X4860803Y3940382D1*
X4921250Y3905106D1*
X4926723Y3899999D1*
X4931107Y3893926D1*
X4934230Y3887119D1*
X4935977Y3879839D1*
X4936280Y3872356D1*
X4935130Y3864959D1*
X4932570Y3857919D1*
X4923683Y3842299D1*
X4888410Y3781852D1*
X4883300Y3776379D1*
X4877230Y3771996D1*
X4870423Y3768872D1*
X4863143Y3767126D1*
X4855660Y3766822D1*
X4848260Y3767969D1*
X4841223Y3770529D1*
X4825603Y3779416D1*
X4765157Y3814692D1*
X4759683Y3819799D1*
X4755300Y3825872D1*
X4752177Y3832679D1*
X4750430Y3839959D1*
X4750123Y3847442D1*
X4751273Y3854839D1*
X4753833Y3861879D1*
X4760267Y3873236D1*
X4761173Y3874752D1*
X4916080Y3908426D2*
X4920870Y3905396D1*
X4926407Y3900352D1*
X4930863Y3894336D1*
X4934070Y3887569D1*
X4935907Y3880309D1*
X4936303Y3872832D1*
X4935247Y3865419D1*
X4932773Y3858352D1*
X4919043Y3834326D1*
X7523760Y2658029D2*
X7519577Y2654176D1*
X7513277Y2650132D1*
X7506310Y2647386D1*
X7498943Y2646036D1*
X7491457Y2646142D1*
X7484130Y2647692D1*
X7477243Y2650632D1*
X7471057Y2654849D1*
X7452600Y2673089D1*
X7408643Y2717506D1*
X7404677Y2723856D1*
X7402017Y2730856D1*
X7400760Y2738236D1*
X7400957Y2745722D1*
X7402597Y2753029D1*
X7405623Y2759879D1*
X7409917Y2766012D1*
X7422547Y2778802D1*
X7472263Y2828062D1*
X7478617Y2832029D1*
X7485613Y2834689D1*
X7492997Y2835946D1*
X7500483Y2835749D1*
X7507790Y2834106D1*
X7514637Y2831082D1*
X7520773Y2826789D1*
X7533563Y2814159D1*
X7582823Y2764442D1*
X7586787Y2758089D1*
X7589450Y2751092D1*
X7590707Y2743709D1*
X7590510Y2736222D1*
X7588867Y2728916D1*
X7585840Y2722069D1*
X7581547Y2715932D1*
X7568920Y2703142D1*
X7519200Y2653882D1*
X7512850Y2649919D1*
X7505850Y2647256D1*
X7498467Y2645999D1*
X7490983Y2646196D1*
X7483677Y2647839D1*
X7476827Y2650866D1*
X7470693Y2655159D1*
X7466740Y2658946D1*
X7988663Y4023659D2*
X7984493Y4019819D1*
X7978190Y4015776D1*
X7971227Y4013029D1*
X7963860Y4011679D1*
X7956373Y4011786D1*
X7949047Y4013336D1*
X7942160Y4016276D1*
X7935973Y4020496D1*
X7917517Y4038732D1*
X7873560Y4083149D1*
X7869593Y4089499D1*
X7866933Y4096499D1*
X7865677Y4103882D1*
X7865873Y4111366D1*
X7867517Y4118672D1*
X7870540Y4125522D1*
X7874833Y4131656D1*
X7887463Y4144446D1*
X7937180Y4193706D1*
X7943533Y4197672D1*
X7950530Y4200332D1*
X7957913Y4201589D1*
X7965400Y4201392D1*
X7972703Y4199749D1*
X7979553Y4196726D1*
X7985690Y4192432D1*
X7998480Y4179802D1*
X8047740Y4130086D1*
X8051707Y4123732D1*
X8054367Y4116736D1*
X8055623Y4109352D1*
X8055427Y4101866D1*
X8053783Y4094562D1*
X8050757Y4087712D1*
X8046463Y4081576D1*
X8033837Y4068786D1*
X7984117Y4019526D1*
X7977767Y4015559D1*
X7970767Y4012899D1*
X7963383Y4011642D1*
X7955900Y4011839D1*
X7948593Y4013482D1*
X7941743Y4016509D1*
X7935610Y4020802D1*
X7931657Y4024589D1*
X7877690Y4078602D2*
X7873850Y4082772D1*
X7869807Y4089076D1*
X7867060Y4096039D1*
X7865713Y4103406D1*
X7865817Y4110892D1*
X7867370Y4118219D1*
X7870310Y4125106D1*
X7874527Y4131292D1*
X7876857Y4133839D1*
X7875320Y4136592D1*
X7870143Y4132036D1*
X7864990Y4128879D1*
X7859410Y4126566D1*
X7853537Y4125156D1*
X7847513Y4124682D1*
X7841490Y4125156D1*
X7835617Y4126566D1*
X7830033Y4128879D1*
X7824883Y4132036D1*
X7820290Y4135959D1*
X8472650Y1713836D2*
X8468687Y1709782D1*
X8462603Y1705416D1*
X8455793Y1702309D1*
X8448507Y1700576D1*
X8441023Y1700289D1*
X8433627Y1701456D1*
X8426597Y1704032D1*
X8420197Y1707919D1*
X8400810Y1725166D1*
X8354593Y1767219D1*
X8350300Y1773356D1*
X8347277Y1780206D1*
X8345637Y1787512D1*
X8345440Y1794996D1*
X8346700Y1802379D1*
X8349360Y1809376D1*
X8353330Y1815729D1*
X8365270Y1829162D1*
X8412340Y1880952D1*
X8418477Y1885246D1*
X8425327Y1888269D1*
X8432633Y1889909D1*
X8440117Y1890106D1*
X8447500Y1888846D1*
X8454497Y1886186D1*
X8460850Y1882216D1*
X8474283Y1870276D1*
X8526073Y1823206D1*
X8530367Y1817069D1*
X8533390Y1810219D1*
X8535030Y1802912D1*
X8535227Y1795429D1*
X8533967Y1788046D1*
X8531307Y1781049D1*
X8527337Y1774696D1*
X8515397Y1761262D1*
X8468327Y1709472D1*
X8462190Y1705179D1*
X8455340Y1702156D1*
X8448033Y1700516D1*
X8440550Y1700319D1*
X8433167Y1701579D1*
X8426170Y1704239D1*
X8419817Y1708209D1*
X8415673Y1711786D1*
X8521710Y1827529D2*
X8525763Y1823566D1*
X8530130Y1817482D1*
X8533237Y1810672D1*
X8534970Y1803386D1*
X8535257Y1795902D1*
X8534090Y1788506D1*
X8531513Y1781476D1*
X8527627Y1775076D1*
X8518603Y1764872D1*
X4172527Y5802329D2*
X4168347Y5798472D1*
X4162043Y5794429D1*
X4155077Y5791682D1*
X4147710Y5790336D1*
X4140223Y5790439D1*
X4132900Y5791992D1*
X4126013Y5794932D1*
X4119823Y5799149D1*
X4101367Y5817389D1*
X4057410Y5861802D1*
X4053443Y5868156D1*
X4050783Y5875152D1*
X4049527Y5882536D1*
X4049723Y5890022D1*
X4051367Y5897326D1*
X4054393Y5904176D1*
X4058687Y5910312D1*
X4071313Y5923102D1*
X4121033Y5972362D1*
X4127383Y5976326D1*
X4134383Y5978989D1*
X4141767Y5980246D1*
X4149250Y5980049D1*
X4156557Y5978406D1*
X4163407Y5975379D1*
X4169540Y5971086D1*
X4182330Y5958459D1*
X4231590Y5908739D1*
X4235557Y5902389D1*
X4238217Y5895389D1*
X4239473Y5888006D1*
X4239277Y5880522D1*
X4237633Y5873216D1*
X4234610Y5866366D1*
X4230317Y5860232D1*
X4217687Y5847442D1*
X4167970Y5798182D1*
X4161617Y5794216D1*
X4154620Y5791556D1*
X4147237Y5790299D1*
X4139750Y5790496D1*
X4132443Y5792139D1*
X4125597Y5795162D1*
X4119460Y5799456D1*
X4115510Y5803246D1*
X4227460Y5913282D2*
X4231300Y5909116D1*
X4235343Y5902812D1*
X4238090Y5895849D1*
X4239437Y5888482D1*
X4239333Y5880992D1*
X4237780Y5873669D1*
X4234840Y5866782D1*
X4230623Y5860596D1*
X4223987Y5853786D1*
X4230413Y5855929D1*
X4235007Y5859852D1*
X4240160Y5863009D1*
X4245740Y5865319D1*
X4251613Y5866732D1*
X4257637Y5867206D1*
X4263660Y5866732D1*
X4269533Y5865319D1*
X4275117Y5863009D1*
X4280267Y5859852D1*
X4284860Y5855929D1*
X7331500Y7761772D2*
X7486000D1*
Y7604772D1*
X7329000D1*
Y7761772D1*
X7331500D1*
X7181500D2*
X7326000D1*
Y7604772D1*
X7169000D1*
X7168703Y7629496D1*
X7159127Y7624616D1*
X7148903Y7621296D1*
X7138287Y7619612D1*
X7127540D1*
X7116923Y7621296D1*
X7106700Y7624616D1*
X7097123Y7629496D1*
X7088427Y7635816D1*
X7080827Y7643416D1*
X7074507Y7652112D1*
X7069627Y7661689D1*
X7066307Y7671912D1*
X7064623Y7682529D1*
Y7693276D1*
X7066307Y7703892D1*
X7069627Y7714116D1*
X7074507Y7723692D1*
X7080827Y7732389D1*
X7088427Y7739989D1*
X7097123Y7746309D1*
X7106700Y7751189D1*
X7116923Y7754509D1*
X7127540Y7756192D1*
X7138287D1*
X7148903Y7754509D1*
X7159127Y7751189D1*
X7169000Y7746109D1*
Y7761772D1*
X7181500D1*
X5448260Y3704796D2*
X5453050Y3701766D1*
X5458587Y3696722D1*
X5463043Y3690706D1*
X5466250Y3683939D1*
X5468087Y3676679D1*
X5468487Y3669202D1*
X5467427Y3661789D1*
X5464953Y3654722D1*
X5452113Y3632172D1*
X5420590Y3578222D1*
X5415483Y3572749D1*
X5409410Y3568366D1*
X5402603Y3565242D1*
X5395323Y3563496D1*
X5387840Y3563189D1*
X5380440Y3564339D1*
X5373403Y3566899D1*
X5357780Y3575786D1*
X5297337Y3611062D1*
X5291860Y3616169D1*
X5287480Y3622242D1*
X5284357Y3629049D1*
X5282610Y3636329D1*
X5282303Y3643812D1*
X5283453Y3651209D1*
X5286013Y3658246D1*
X5294900Y3673869D1*
X5330173Y3734316D1*
X5335283Y3739789D1*
X5341357Y3744172D1*
X5348160Y3747296D1*
X5355443Y3749042D1*
X5362923Y3749349D1*
X5370323Y3748199D1*
X5377360Y3745639D1*
X5392983Y3736752D1*
X5453430Y3701476D1*
X5458903Y3696369D1*
X5463287Y3690296D1*
X5466410Y3683489D1*
X5468157Y3676209D1*
X5468460Y3668726D1*
X5467310Y3661329D1*
X5464753Y3654292D1*
X5452130Y3632212D1*
X5451233Y3630712D1*
X5302503Y3607742D2*
X5297717Y3610772D1*
X5292180Y3615816D1*
X5287723Y3621832D1*
X5284513Y3628599D1*
X5282677Y3635859D1*
X5282280Y3643336D1*
X5283337Y3650749D1*
X5285810Y3657816D1*
X5293333Y3671089D1*
X9275540Y6619259D2*
X9271700Y6623426D1*
X9267657Y6629729D1*
X9264910Y6636696D1*
X9263563Y6644062D1*
X9263667Y6651549D1*
X9265220Y6658876D1*
X9268160Y6665762D1*
X9272377Y6671949D1*
X9290617Y6690406D1*
X9335030Y6734362D1*
X9341383Y6738326D1*
X9348380Y6740989D1*
X9355763Y6742246D1*
X9363250Y6742049D1*
X9370553Y6740406D1*
X9377403Y6737379D1*
X9383540Y6733086D1*
X9396330Y6720459D1*
X9445590Y6670739D1*
X9449553Y6664389D1*
X9452217Y6657389D1*
X9453473Y6650006D1*
X9453277Y6642522D1*
X9451633Y6635216D1*
X9448607Y6628366D1*
X9444313Y6622232D1*
X9431687Y6609442D1*
X9381967Y6560182D1*
X9375617Y6556216D1*
X9368617Y6553556D1*
X9361233Y6552299D1*
X9353750Y6552496D1*
X9346443Y6554139D1*
X9339593Y6557162D1*
X9333460Y6561456D1*
X9320670Y6574086D1*
X9271410Y6623802D1*
X9267443Y6630156D1*
X9264783Y6637152D1*
X9263527Y6644536D1*
X9263723Y6652022D1*
X9265367Y6659326D1*
X9268390Y6666176D1*
X9272683Y6672312D1*
X9276473Y6676262D1*
X4570220Y2483552D2*
X4565717Y2486992D1*
X4560640Y2492496D1*
X4556723Y2498879D1*
X4554117Y2505899D1*
X4552920Y2513292D1*
X4553177Y2520776D1*
X4554877Y2528066D1*
X4557957Y2534892D1*
X4572710Y2556236D1*
X4608817Y2607236D1*
X4614383Y2612246D1*
X4620817Y2616082D1*
X4627867Y2618599D1*
X4635273Y2619706D1*
X4642753Y2619359D1*
X4650023Y2617569D1*
X4656810Y2614406D1*
X4671600Y2604189D1*
X4728743Y2563782D1*
X4733753Y2558216D1*
X4737590Y2551782D1*
X4740107Y2544732D1*
X4741213Y2537326D1*
X4740867Y2529846D1*
X4739077Y2522576D1*
X4735913Y2515789D1*
X4725697Y2500999D1*
X4685290Y2443856D1*
X4679723Y2438846D1*
X4673290Y2435009D1*
X4666240Y2432492D1*
X4658833Y2431386D1*
X4651353Y2431732D1*
X4644083Y2433522D1*
X4637297Y2436686D1*
X4622507Y2446902D1*
X4565363Y2487309D1*
X4560353Y2492876D1*
X4556517Y2499309D1*
X4554000Y2506359D1*
X4552893Y2513766D1*
X4553240Y2521246D1*
X4555030Y2528516D1*
X4558193Y2535302D1*
X4564480Y2544422D1*
X4723887Y2567539D2*
X4728390Y2564099D1*
X4733467Y2558596D1*
X4737383Y2552212D1*
X4739990Y2545192D1*
X4741187Y2537802D1*
X4740930Y2530316D1*
X4739230Y2523026D1*
X4736150Y2516199D1*
X4723620Y2498089D1*
X6236133Y9072422D2*
X7726183Y9072322D1*
X7733033Y9071012D1*
X7809487Y9050459D1*
X7816337Y9047079D1*
X7822210Y9042192D1*
X7878250Y8986026D1*
X7882493Y8979672D1*
X7885140Y8972506D1*
X7905590Y8895842D1*
X7906090Y8888219D1*
X7904797Y8880689D1*
X7884173Y8804069D1*
X7880793Y8797219D1*
X7875907Y8791346D1*
X7819740Y8735306D1*
X7813387Y8731062D1*
X7806220Y8728416D1*
X7729557Y8707966D1*
X7722780Y8707456D1*
X6221087Y8707519D1*
X6214410Y8708779D1*
X6137787Y8729379D1*
X6130937Y8732759D1*
X6125063Y8737646D1*
X6069017Y8793812D1*
X6064773Y8800162D1*
X6062127Y8807332D1*
X6041677Y8883996D1*
X6041177Y8891619D1*
X6042470Y8899149D1*
X6063093Y8975769D1*
X6066473Y8982619D1*
X6071360Y8988496D1*
X6127527Y9044539D1*
X6133877Y9048782D1*
X6141047Y9051429D1*
X6217710Y9071879D1*
X6224487Y9072389D1*
X6236133Y9072422D1*
X6708460Y5050232D2*
X6313737D1*
X6309900Y5046379D1*
X6309060Y5035756D1*
X6306550Y5025306D1*
X6302437Y5015372D1*
X6296820Y5006209D1*
X6289840Y4998036D1*
X6281667Y4991056D1*
X6272503Y4985439D1*
X6262570Y4981326D1*
X6252120Y4978816D1*
X6241403Y4977972D1*
X6230687Y4978816D1*
X6220237Y4981326D1*
X6210303Y4985439D1*
X6201140Y4991056D1*
X6192967Y4998036D1*
X6185987Y5006209D1*
X6180370Y5015372D1*
X6176257Y5025306D1*
X6173747Y5035756D1*
X6172903Y5046472D1*
X6173747Y5057189D1*
X6176257Y5067639D1*
X6180370Y5077572D1*
X6185987Y5086736D1*
X6191157Y5092949D1*
X5534723Y5092929D1*
X5526650Y5086012D1*
X5517487Y5080396D1*
X5507553Y5076282D1*
X5497103Y5073772D1*
X5486387Y5072929D1*
X5475670Y5073772D1*
X5465220Y5076282D1*
X5455287Y5080396D1*
X5446123Y5086012D1*
X5437950Y5092992D1*
X5430970Y5101166D1*
X5425353Y5110329D1*
X5421240Y5120262D1*
X5418730Y5130712D1*
X5417887Y5141429D1*
X5418730Y5152146D1*
X5421240Y5162596D1*
X5425353Y5172529D1*
X5430970Y5181692D1*
X5437950Y5189866D1*
X5446123Y5196846D1*
X5455287Y5202462D1*
X5465220Y5206576D1*
X5475670Y5209086D1*
X5486387Y5209929D1*
X5497103Y5209086D1*
X5507553Y5206576D1*
X5517487Y5202462D1*
X5526650Y5196846D1*
X5534777Y5189909D1*
X6950597Y5189929D1*
X6956063Y5196152D1*
X6964237Y5203132D1*
X6973400Y5208749D1*
X6983333Y5212862D1*
X6993783Y5215372D1*
X7004500Y5216216D1*
X7015217Y5215372D1*
X7025667Y5212862D1*
X7035600Y5208749D1*
X7044763Y5203132D1*
X7052937Y5196152D1*
X7059917Y5187979D1*
X7065533Y5178816D1*
X7069647Y5168882D1*
X7072157Y5158432D1*
X7073000Y5147716D1*
X7072157Y5136999D1*
X7069647Y5126549D1*
X7065533Y5116616D1*
X7059917Y5107452D1*
X7052937Y5099279D1*
X7044763Y5092299D1*
X7035600Y5086682D1*
X7025667Y5082569D1*
X7015217Y5080059D1*
X7004500Y5079216D1*
X6993783Y5080059D1*
X6983333Y5082569D1*
X6973400Y5086682D1*
X6964237Y5092299D1*
X6963397Y5092962D1*
X6827790Y5092929D1*
X6833917Y5085649D1*
X6839533Y5076486D1*
X6843647Y5066552D1*
X6846157Y5056102D1*
X6847000Y5045386D1*
X6846157Y5034669D1*
X6843647Y5024219D1*
X6839533Y5014286D1*
X6833917Y5005122D1*
X6826937Y4996949D1*
X6818763Y4989969D1*
X6809600Y4984352D1*
X6799667Y4980239D1*
X6789217Y4977729D1*
X6778500Y4976886D1*
X6767783Y4977729D1*
X6757333Y4980239D1*
X6747400Y4984352D1*
X6738237Y4989969D1*
X6730063Y4996949D1*
X6723083Y5005122D1*
X6717467Y5014286D1*
X6713353Y5024219D1*
X6710843Y5034669D1*
X6710000Y5045386D1*
X6710127Y5048599D1*
X5755550Y5837066D2*
X5762220Y5842896D1*
X5769903Y5847462D1*
Y5855636D1*
Y5976112D1*
X6451767Y7402286D2*
X6451917Y7912292D1*
X6453107Y7919809D1*
X6455460Y7927046D1*
X6458913Y7933826D1*
X6463387Y7939986D1*
X6483650Y7960459D1*
X6722750Y8199556D1*
X6723607Y8210196D1*
X6726117Y8220646D1*
X6730230Y8230579D1*
X6735847Y8239742D1*
X6742827Y8247916D1*
X6751000Y8254896D1*
X6760163Y8260512D1*
X6770097Y8264626D1*
X6780547Y8267136D1*
X6791263Y8267979D1*
X6801980Y8267136D1*
X6812430Y8264626D1*
X6822363Y8260512D1*
X6831527Y8254896D1*
X6839700Y8247916D1*
X6846680Y8239742D1*
X6852297Y8230579D1*
X6856410Y8220646D1*
X6858920Y8210196D1*
X6859763Y8199479D1*
X6858920Y8188762D1*
X6856410Y8178312D1*
X6852297Y8168379D1*
X6846680Y8159216D1*
X6839700Y8151042D1*
X6831527Y8144062D1*
X6822363Y8138446D1*
X6812430Y8134332D1*
X6801980Y8131822D1*
X6791327Y8130982D1*
X6548757Y7888386D1*
X6548767Y7402286D1*
X6555683Y7394159D1*
X6561300Y7384996D1*
X6565413Y7375062D1*
X6567923Y7364612D1*
X6568767Y7353896D1*
X6567923Y7343179D1*
X6565413Y7332729D1*
X6561300Y7322796D1*
X6555683Y7313632D1*
X6548703Y7305459D1*
X6540530Y7298479D1*
X6531367Y7292862D1*
X6521433Y7288749D1*
X6510983Y7286239D1*
X6500267Y7285396D1*
X6489550Y7286239D1*
X6479100Y7288749D1*
X6469167Y7292862D1*
X6460003Y7298479D1*
X6451830Y7305459D1*
X6444850Y7313632D1*
X6439233Y7322796D1*
X6435120Y7332729D1*
X6432610Y7343179D1*
X6431767Y7353896D1*
X6432610Y7364612D1*
X6435120Y7375062D1*
X6439233Y7384996D1*
X6444850Y7394159D1*
X6451787Y7402286D1*
X5858093Y5072709D2*
X5864023Y5076166D1*
X5873957Y5080279D1*
X5884407Y5082789D1*
X5895123Y5083632D1*
X5905840Y5082789D1*
X5916290Y5080279D1*
X5926223Y5076166D1*
X5935387Y5070549D1*
X5943560Y5063569D1*
X5950540Y5055396D1*
X5956157Y5046232D1*
X5960270Y5036299D1*
X5962780Y5025849D1*
X5963623Y5015132D1*
X5962780Y5004416D1*
X5960270Y4993966D1*
X5956157Y4984032D1*
X5950540Y4974869D1*
X5943560Y4966696D1*
X5935387Y4959716D1*
X5926223Y4954099D1*
X5916290Y4949986D1*
X5905840Y4947476D1*
X5895123Y4946632D1*
X5884407Y4947476D1*
X4555920Y3400189D2*
X4588003Y3432059D1*
X4594160Y3436532D1*
X4600940Y3439986D1*
X4608177Y3442339D1*
X4615693Y3443529D1*
X4644500Y3443679D1*
X4758220D1*
X4854337Y3539856D1*
X4849833Y3545416D1*
X4844217Y3554579D1*
X4840103Y3564512D1*
X4837593Y3574962D1*
X4836750Y3585679D1*
X4837593Y3596396D1*
X4840103Y3606846D1*
X4844217Y3616779D1*
X4849833Y3625942D1*
X4856813Y3634116D1*
X4864987Y3641096D1*
X4874150Y3646712D1*
X4884083Y3650826D1*
X4894533Y3653336D1*
X4905250Y3654179D1*
X4915967Y3653336D1*
X4926417Y3650826D1*
X4936350Y3646712D1*
X4945513Y3641096D1*
X4953687Y3634116D1*
X4960667Y3625942D1*
X4966283Y3616779D1*
X4970397Y3606846D1*
X4972907Y3596396D1*
X4973750Y3585679D1*
X4972907Y3574962D1*
X4970397Y3564512D1*
X4966283Y3554579D1*
X4960667Y3545416D1*
X4953730Y3537289D1*
X4953600Y3518372D1*
X4952410Y3510856D1*
X4950057Y3503619D1*
X4946603Y3496839D1*
X4942130Y3490679D1*
X4921867Y3470206D1*
X4809750Y3358299D1*
X4803590Y3353826D1*
X4796810Y3350372D1*
X4789573Y3348019D1*
X4782057Y3346829D1*
X4753250Y3346679D1*
X4639530D1*
X4624480Y3331572D1*
X4623657Y3320962D1*
X4621147Y3310512D1*
X4617033Y3300579D1*
X4611417Y3291416D1*
X4604437Y3283242D1*
X4596263Y3276262D1*
X4587100Y3270646D1*
X4577167Y3266532D1*
X4566717Y3264022D1*
X4556000Y3263179D1*
X4545283Y3264022D1*
X4534833Y3266532D1*
X4524900Y3270646D1*
X4515737Y3276262D1*
X4507563Y3283242D1*
X4500583Y3291416D1*
X4494967Y3300579D1*
X4490853Y3310512D1*
X4488343Y3320962D1*
X4487500Y3331679D1*
X4488343Y3342396D1*
X4490853Y3352846D1*
X4494967Y3362779D1*
X4500583Y3371942D1*
X4507563Y3380116D1*
X4515737Y3387096D1*
X4524900Y3392712D1*
X4534833Y3396826D1*
X4545283Y3399336D1*
X4555937Y3400176D1*
X5149500Y5524746D2*
Y5307799D1*
X4971773Y5416272D2*
X5149500D1*
X2426000Y4660472D2*
Y4305069D1*
X2317550Y4482772D2*
X2534453D1*
X9513500Y4736472D2*
Y4381069D1*
X9405050Y4558772D2*
X9621953D1*
X9989000Y2519222D2*
Y2302322D1*
X9811300Y2410772D2*
X10166700D1*
X1776000Y4204472D2*
Y3849072D1*
X1667550Y4026772D2*
X1884450D1*
X3461000Y4056722D2*
Y3839822D1*
X3283300Y3948272D2*
X3638700D1*
X8915500Y3619222D2*
Y3402319D1*
X8737800Y3510772D2*
X9093203D1*
X10976000Y4159472D2*
Y3804069D1*
X10867550Y3981772D2*
X11084453D1*
X2378000Y2969222D2*
Y2752322D1*
X2200300Y2860772D2*
X2555700D1*
X5889500Y6861272D2*
Y6780322D1*
X6487357Y5369499D2*
Y5220599D1*
X6406407Y5295049D2*
X6487357D1*
X6864223Y6400196D2*
Y6251292D1*
Y6325746D2*
X6945177D1*
X5635500Y6288972D2*
Y6208022D1*
X5561050D2*
X5635500D1*
Y5971472D2*
Y5890522D1*
X5561050D2*
X5709953D1*
X8536440Y7616976D2*
X8610890D1*
X8037657Y7204332D2*
Y7055432D1*
Y7129882D2*
X8118607D1*
X7917450Y8125302D2*
Y8044352D1*
X7843000D2*
X7991900D1*
X5632343Y9600616D2*
Y9462166D1*
Y9600616D2*
X5753793D1*
X8450300Y7869806D2*
Y7763856D1*
X8830300Y7955756D2*
Y7783852D1*
Y7869806D2*
X8931250D1*
X8330300D2*
Y7783852D1*
X8229350Y7869806D2*
X8330300D1*
X8147323Y8139806D2*
X8230300D1*
X8930300D2*
Y8023832D1*
Y8139806D2*
X9013277D1*
X8680300D2*
Y8023852D1*
X6143500Y6860472D2*
Y6779522D1*
X6270500Y6860472D2*
Y6779522D1*
X5769953Y5851636D2*
X5888403D1*
X6533403Y5506636D2*
Y5388186D1*
X6609953Y6151636D2*
X6728403D1*
X6083403Y6346636D2*
Y6228186D1*
X8420390Y7525226D2*
X8513840D1*
X3828500Y1462189D2*
Y1276356D1*
X3735583Y1369272D2*
X3921417D1*
X7468413Y6233052D2*
Y6076152D1*
Y6154602D2*
X7546863D1*
X6557500Y3841722D2*
Y3684822D1*
X6479050Y3763272D2*
X6635950D1*
X7463577Y3921669D2*
Y3731579D1*
X7368530Y3826622D2*
X7558620D1*
X4843203Y3950086D2*
Y3769712D1*
X4753017Y3859899D2*
X4933387D1*
X7495733Y2836019D2*
Y2645929D1*
X7400687Y2740972D2*
X7590777D1*
X7960650Y4201662D2*
Y4011572D1*
X7865603Y4106616D2*
X8055693D1*
X8440333Y1890079D2*
Y1700346D1*
X8345467Y1795212D2*
X8535200D1*
X4144500Y5980316D2*
Y5790226D1*
X4049457Y5885272D2*
X4239547D1*
X7407500Y7761722D2*
Y7604819D1*
X7329050Y7683272D2*
X7485953D1*
X5392247Y6281336D2*
Y6124432D1*
Y6202886D2*
X5470700D1*
X5375383Y3746456D2*
Y3566082D1*
X5285197Y3656269D2*
X5465567D1*
X9358500Y6742316D2*
Y6552226D1*
X9263453Y6647272D2*
X9453543D1*
X4647053Y2618462D2*
Y2432629D1*
X4554137Y2525546D2*
X4739970D1*
D80*
X4212443Y7251529D3*
X5765957Y8805042D3*
D22*
X4989200Y8028286D3*
D83*
X5149499Y5416272D3*
X5706499D3*
X5149499Y4966272D3*
X5706499D3*
D26*
X2426000Y4482772D3*
Y5039772D3*
X2876000Y4482772D3*
Y5039772D3*
X9513500Y4558772D3*
Y5115772D3*
X9963500Y4558772D3*
Y5115772D3*
D28*
X9989000Y2410772D3*
X9432000D3*
X9989000Y2860772D3*
X9432000D3*
D26*
X1776000Y4026772D3*
Y3469772D3*
X1326000Y4026772D3*
Y3469772D3*
D28*
X3461000Y3948272D3*
X4018000D3*
X3461000Y3498272D3*
X4018000D3*
X8915500Y3510772D3*
X8358500D3*
X8915500Y3960772D3*
X8358500D3*
D26*
X10976000Y3981772D3*
Y3424772D3*
X10526000Y3981772D3*
Y3424772D3*
D28*
X2378000Y2860772D3*
X2935000D3*
X2378000Y2410772D3*
X2935000D3*
D29*
X6524500Y6783272D3*
Y6628272D3*
X5889500Y6625322D3*
Y6780322D3*
X5762500Y6625322D3*
Y6780322D3*
D30*
X6642357Y5295049D3*
X6487357D3*
D29*
X6651500Y6784072D3*
Y6629072D3*
D30*
X6709223Y6325746D3*
X6864223D3*
D29*
X5635500Y6053022D3*
Y6208022D3*
Y5735522D3*
Y5890522D3*
X8610890Y7461976D3*
Y7616976D3*
D30*
X7882657Y7129882D3*
X8037657D3*
D29*
X7917450Y7889352D3*
Y8044352D3*
D31*
X7876683Y6890966D3*
X8046683D3*
D33*
X5632343Y9600616D3*
D34*
X8710300Y7869806D3*
X8645300D3*
X8580300D3*
X8515300D3*
X8450300D3*
D35*
X8830300D3*
X8330300D3*
D86*
X8230300Y8139806D3*
D89*
X8930300D3*
D36*
X8480300D3*
X8680300D3*
D33*
X5956947Y9600616D3*
D29*
X6143500Y6624522D3*
Y6779522D3*
X6397500Y6783272D3*
Y6628272D3*
X5635500Y6784072D3*
Y6629072D3*
X6270500Y6624522D3*
Y6779522D3*
X8094860Y8047746D3*
Y7892746D3*
D92*
X4291460Y1985762D3*
X4202553Y1858796D3*
D29*
X7468413Y5676402D3*
Y5831402D3*
X6554917Y4844389D3*
Y4689389D3*
D95*
X6915500Y4076272D3*
X7025100Y3966672D3*
D98*
X5256000Y4297772D3*
X5178500Y4163539D3*
D95*
X6885500Y3089272D3*
X6995100Y2979672D3*
X7464500Y4394272D3*
X7574100Y4284672D3*
D101*
X7906500Y2304272D3*
X8021687Y2200559D3*
D95*
X4459180Y5367369D3*
X4349580Y5476969D3*
D29*
X6016500Y6625322D3*
Y6780322D3*
X5392247Y5661886D3*
Y5816886D3*
D104*
X5827500Y4107272D3*
X5750000Y3973039D3*
D107*
X8823500Y6379272D3*
X8933100Y6488872D3*
D92*
X5028053Y3065296D3*
X4939147Y2938329D3*
D38*
X5888403Y6201636D3*
Y6151636D3*
Y6101636D3*
Y6051636D3*
Y6001636D3*
Y5951636D3*
Y5901636D3*
Y5851636D3*
Y5801636D3*
Y5751636D3*
Y5701636D3*
Y5651636D3*
D39*
X6033403Y5506636D3*
X6083403D3*
X6133403D3*
X6183403D3*
X6233403D3*
X6283403D3*
X6333403D3*
X6383403D3*
X6433403D3*
X6483403D3*
X6533403D3*
X6583403D3*
D38*
X6728403Y5651636D3*
Y5701636D3*
Y5751636D3*
Y5801636D3*
Y5851636D3*
Y5901636D3*
Y5951636D3*
Y6001636D3*
Y6051636D3*
Y6101636D3*
Y6151636D3*
Y6201636D3*
D39*
X6583403Y6346636D3*
X6533403D3*
X6483403D3*
X6433403D3*
X6383403D3*
X6333403D3*
X6283403D3*
X6233403D3*
X6183403D3*
X6133403D3*
X6083403D3*
X6033403D3*
D41*
X8420390Y7430226D3*
Y7525226D3*
Y7620226D3*
X8150390D3*
Y7430226D3*
D110*
X3828500Y1369272D3*
X3920273Y1500336D3*
D42*
X7468413Y6154602D3*
Y5994602D3*
X6557500Y3763272D3*
Y3923272D3*
D113*
X7463576Y3826623D3*
X7350439Y3939760D3*
D116*
X4843203Y3859899D3*
X4923203Y3998462D3*
D113*
X7495733Y2740973D3*
X7382596Y2854110D3*
X7960649Y4106616D3*
X7847513Y4219753D3*
D119*
X8440333Y1795212D3*
X8321430Y1902276D3*
D113*
X4144501Y5885271D3*
X4257637Y5772135D3*
D42*
X7407500Y7683272D3*
X7247500D3*
X5392247Y6202886D3*
Y6042886D3*
D122*
X5375383Y3656269D3*
X5455383Y3794832D3*
D125*
X9358499Y6647271D3*
X9245362Y6534135D3*
D110*
X4647053Y2525546D3*
X4738827Y2656609D3*
M02*
