%TF.GenerationSoftware,Novarm,DipTrace,3.0.0.2*%
%TF.CreationDate,2017-12-11T17:26:21+01:00*%
%FSLAX35Y35*%
%MOMM*%
%TF.FileFunction,Drawing,Top*%
%TF.Part,Single*%
%ADD10C,0.25*%
%ADD20C,0.03333*%
%ADD23O,0.4006X0.3995*%
%ADD24C,0.1*%
%ADD25O,0.4002X0.39973*%
%ADD27O,0.39973X0.4002*%
%ADD37O,0.401X0.399*%
%ADD40O,0.39103X0.39118*%
%ADD77C,0.03922*%
G75*
G01*
%LPD*%
D23*
X5007967Y5531272D3*
X5262951Y5191286D2*
D10*
G02X5262951Y5191286I165043J0D01*
G01*
X5307986Y5261250D2*
D24*
X5548002D1*
X5307986Y5121254D2*
X5548002D1*
X5427994Y5261250D2*
Y5246209D1*
Y5121254D2*
Y5136295D1*
X5418043Y5236238D2*
X5418068Y5236934D1*
X5418140Y5237626D1*
X5418261Y5238311D1*
X5418429Y5238987D1*
X5418644Y5239648D1*
X5418904Y5240294D1*
X5419208Y5240919D1*
X5419555Y5241522D1*
X5419944Y5242099D1*
X5420371Y5242647D1*
X5420836Y5243164D1*
X5421336Y5243648D1*
X5421868Y5244095D1*
X5422430Y5244504D1*
X5423019Y5244873D1*
X5423632Y5245199D1*
X5424266Y5245483D1*
X5424919Y5245721D1*
X5425587Y5245912D1*
X5426266Y5246057D1*
X5426954Y5246154D1*
X5427647Y5246202D1*
X5428341D1*
X5429034Y5246154D1*
X5429722Y5246057D1*
X5430401Y5245912D1*
X5431069Y5245721D1*
X5431722Y5245483D1*
X5432356Y5245199D1*
X5432969Y5244873D1*
X5433558Y5244504D1*
X5434120Y5244095D1*
X5434652Y5243648D1*
X5435152Y5243164D1*
X5435617Y5242647D1*
X5436044Y5242099D1*
X5436433Y5241522D1*
X5436780Y5240919D1*
X5437084Y5240294D1*
X5437345Y5239648D1*
X5437559Y5238987D1*
X5437727Y5238311D1*
X5437848Y5237626D1*
X5437920Y5236934D1*
X5437945Y5236238D1*
X5437920Y5235543D1*
X5437848Y5234851D1*
X5437727Y5234165D1*
X5437559Y5233490D1*
X5437345Y5232828D1*
X5437084Y5232183D1*
X5436780Y5231558D1*
X5436433Y5230955D1*
X5436044Y5230378D1*
X5435617Y5229830D1*
X5435152Y5229313D1*
X5434652Y5228829D1*
X5434120Y5228382D1*
X5433558Y5227973D1*
X5432969Y5227604D1*
X5432356Y5227277D1*
X5431722Y5226994D1*
X5431069Y5226756D1*
X5430401Y5226564D1*
X5429722Y5226420D1*
X5429034Y5226323D1*
X5428341Y5226274D1*
X5427647D1*
X5426954Y5226323D1*
X5426266Y5226420D1*
X5425587Y5226564D1*
X5424919Y5226756D1*
X5424266Y5226994D1*
X5423632Y5227277D1*
X5423019Y5227604D1*
X5422430Y5227973D1*
X5421868Y5228382D1*
X5421336Y5228829D1*
X5420836Y5229313D1*
X5420371Y5229830D1*
X5419944Y5230378D1*
X5419555Y5230955D1*
X5419208Y5231558D1*
X5418904Y5232183D1*
X5418644Y5232828D1*
X5418429Y5233490D1*
X5418261Y5234165D1*
X5418140Y5234851D1*
X5418068Y5235543D1*
X5418043Y5236238D1*
Y5151302D2*
X5418068Y5151998D1*
X5418140Y5152690D1*
X5418261Y5153375D1*
X5418429Y5154050D1*
X5418644Y5154712D1*
X5418904Y5155357D1*
X5419208Y5155983D1*
X5419555Y5156586D1*
X5419944Y5157163D1*
X5420371Y5157711D1*
X5420836Y5158228D1*
X5421336Y5158712D1*
X5421868Y5159159D1*
X5422430Y5159568D1*
X5423019Y5159937D1*
X5423632Y5160263D1*
X5424266Y5160546D1*
X5424919Y5160784D1*
X5425587Y5160976D1*
X5426266Y5161121D1*
X5426954Y5161218D1*
X5427647Y5161266D1*
X5428341D1*
X5429034Y5161218D1*
X5429722Y5161121D1*
X5430401Y5160976D1*
X5431069Y5160784D1*
X5431722Y5160546D1*
X5432356Y5160263D1*
X5432969Y5159937D1*
X5433558Y5159568D1*
X5434120Y5159159D1*
X5434652Y5158712D1*
X5435152Y5158228D1*
X5435617Y5157711D1*
X5436044Y5157163D1*
X5436433Y5156586D1*
X5436780Y5155983D1*
X5437084Y5155357D1*
X5437345Y5154712D1*
X5437559Y5154050D1*
X5437727Y5153375D1*
X5437848Y5152690D1*
X5437920Y5151998D1*
X5437945Y5151302D1*
X5437920Y5150607D1*
X5437848Y5149915D1*
X5437727Y5149229D1*
X5437559Y5148554D1*
X5437345Y5147892D1*
X5437084Y5147247D1*
X5436780Y5146622D1*
X5436433Y5146019D1*
X5436044Y5145442D1*
X5435617Y5144894D1*
X5435152Y5144376D1*
X5434652Y5143893D1*
X5434120Y5143446D1*
X5433558Y5143037D1*
X5432969Y5142668D1*
X5432356Y5142341D1*
X5431722Y5142058D1*
X5431069Y5141820D1*
X5430401Y5141628D1*
X5429722Y5141484D1*
X5429034Y5141387D1*
X5428341Y5141338D1*
X5427647D1*
X5426954Y5141387D1*
X5426266Y5141484D1*
X5425587Y5141628D1*
X5424919Y5141820D1*
X5424266Y5142058D1*
X5423632Y5142341D1*
X5423019Y5142668D1*
X5422430Y5143037D1*
X5421868Y5143446D1*
X5421336Y5143893D1*
X5420836Y5144376D1*
X5420371Y5144894D1*
X5419944Y5145442D1*
X5419555Y5146019D1*
X5419208Y5146622D1*
X5418904Y5147247D1*
X5418644Y5147892D1*
X5418429Y5148554D1*
X5418261Y5149229D1*
X5418140Y5149915D1*
X5418068Y5150607D1*
X5418043Y5151302D1*
X5427994Y5226268D2*
X5392995Y5146231D1*
X5127932Y5521233D2*
D10*
X5727970D1*
Y4861271D1*
X5127932D1*
Y5521233D1*
D25*
X2311010Y4341222D3*
X2485994Y4761280D2*
D10*
X2486396Y4772793D1*
X2487600Y4784249D1*
X2489600Y4795593D1*
X2492386Y4806771D1*
X2495946Y4817726D1*
X2500260Y4828407D1*
X2505309Y4838761D1*
X2511068Y4848737D1*
X2517509Y4858287D1*
X2524600Y4867365D1*
X2532307Y4875925D1*
X2540592Y4883927D1*
X2549415Y4891332D1*
X2558733Y4898103D1*
X2568501Y4904207D1*
X2578670Y4909615D1*
X2589192Y4914301D1*
X2600016Y4918241D1*
X2611087Y4921416D1*
X2622353Y4923811D1*
X2633759Y4925414D1*
X2645249Y4926218D1*
X2656766D1*
X2668256Y4925414D1*
X2679662Y4923811D1*
X2690928Y4921416D1*
X2701999Y4918241D1*
X2712823Y4914301D1*
X2723345Y4909615D1*
X2733514Y4904207D1*
X2743282Y4898103D1*
X2752600Y4891332D1*
X2761423Y4883927D1*
X2769708Y4875925D1*
X2777415Y4867365D1*
X2784506Y4858287D1*
X2790947Y4848737D1*
X2796706Y4838761D1*
X2801755Y4828407D1*
X2806069Y4817726D1*
X2809629Y4806771D1*
X2812415Y4795593D1*
X2814415Y4784249D1*
X2815619Y4772793D1*
X2816021Y4761280D1*
X2815619Y4749768D1*
X2814415Y4738311D1*
X2812415Y4726967D1*
X2809629Y4715789D1*
X2806069Y4704834D1*
X2801755Y4694153D1*
X2796706Y4683799D1*
X2790947Y4673823D1*
X2784506Y4664273D1*
X2777415Y4655196D1*
X2769708Y4646635D1*
X2761423Y4638633D1*
X2752600Y4631228D1*
X2743282Y4624457D1*
X2733514Y4618353D1*
X2723345Y4612945D1*
X2712823Y4608259D1*
X2701999Y4604319D1*
X2690928Y4601144D1*
X2679662Y4598749D1*
X2668256Y4597146D1*
X2656766Y4596342D1*
X2645249D1*
X2633759Y4597146D1*
X2622353Y4598749D1*
X2611087Y4601144D1*
X2600016Y4604319D1*
X2589192Y4608259D1*
X2578670Y4612945D1*
X2568501Y4618353D1*
X2558733Y4624457D1*
X2549415Y4631228D1*
X2540592Y4638633D1*
X2532307Y4646635D1*
X2524600Y4655196D1*
X2517509Y4664273D1*
X2511068Y4673823D1*
X2505309Y4683799D1*
X2500260Y4694153D1*
X2495946Y4704834D1*
X2492386Y4715789D1*
X2489600Y4726967D1*
X2487600Y4738311D1*
X2486396Y4749768D1*
X2485994Y4761280D1*
X2581007Y4641276D2*
D24*
Y4881284D1*
X2721008Y4641276D2*
Y4881284D1*
X2581007Y4761280D2*
X2596049D1*
X2721008D2*
X2705966D1*
X2596049D2*
X2596073Y4761974D1*
X2596146Y4762665D1*
X2596267Y4763349D1*
X2596435Y4764023D1*
X2596650Y4764683D1*
X2596911Y4765327D1*
X2597216Y4765952D1*
X2597564Y4766553D1*
X2597953Y4767129D1*
X2598382Y4767676D1*
X2598847Y4768192D1*
X2599348Y4768675D1*
X2599881Y4769121D1*
X2600444Y4769529D1*
X2601034Y4769897D1*
X2601649Y4770223D1*
X2602284Y4770506D1*
X2602938Y4770743D1*
X2603607Y4770935D1*
X2604288Y4771079D1*
X2604977Y4771176D1*
X2605672Y4771224D1*
X2606367D1*
X2607062Y4771176D1*
X2607751Y4771079D1*
X2608432Y4770935D1*
X2609101Y4770743D1*
X2609755Y4770506D1*
X2610390Y4770223D1*
X2611005Y4769897D1*
X2611595Y4769529D1*
X2612158Y4769121D1*
X2612691Y4768675D1*
X2613192Y4768192D1*
X2613657Y4767676D1*
X2614086Y4767129D1*
X2614475Y4766553D1*
X2614823Y4765952D1*
X2615128Y4765327D1*
X2615389Y4764683D1*
X2615604Y4764023D1*
X2615772Y4763349D1*
X2615893Y4762665D1*
X2615966Y4761974D1*
X2615990Y4761280D1*
X2615966Y4760586D1*
X2615893Y4759895D1*
X2615772Y4759211D1*
X2615604Y4758537D1*
X2615389Y4757877D1*
X2615128Y4757233D1*
X2614823Y4756609D1*
X2614475Y4756007D1*
X2614086Y4755431D1*
X2613657Y4754884D1*
X2613192Y4754368D1*
X2612691Y4753886D1*
X2612158Y4753439D1*
X2611595Y4753031D1*
X2611005Y4752663D1*
X2610390Y4752337D1*
X2609755Y4752054D1*
X2609101Y4751817D1*
X2608432Y4751625D1*
X2607751Y4751481D1*
X2607062Y4751384D1*
X2606367Y4751336D1*
X2605672D1*
X2604977Y4751384D1*
X2604288Y4751481D1*
X2603607Y4751625D1*
X2602938Y4751817D1*
X2602284Y4752054D1*
X2601649Y4752337D1*
X2601034Y4752663D1*
X2600444Y4753031D1*
X2599881Y4753439D1*
X2599348Y4753886D1*
X2598847Y4754368D1*
X2598382Y4754884D1*
X2597953Y4755431D1*
X2597564Y4756007D1*
X2597216Y4756609D1*
X2596911Y4757233D1*
X2596650Y4757877D1*
X2596435Y4758537D1*
X2596267Y4759211D1*
X2596146Y4759895D1*
X2596073Y4760586D1*
X2596049Y4761280D1*
X2680988D2*
X2681012Y4761974D1*
X2681085Y4762665D1*
X2681206Y4763349D1*
X2681374Y4764023D1*
X2681589Y4764683D1*
X2681850Y4765327D1*
X2682155Y4765952D1*
X2682503Y4766553D1*
X2682892Y4767129D1*
X2683321Y4767676D1*
X2683786Y4768192D1*
X2684287Y4768675D1*
X2684820Y4769121D1*
X2685383Y4769529D1*
X2685973Y4769897D1*
X2686588Y4770223D1*
X2687223Y4770506D1*
X2687877Y4770743D1*
X2688546Y4770935D1*
X2689227Y4771079D1*
X2689916Y4771176D1*
X2690611Y4771224D1*
X2691306D1*
X2692001Y4771176D1*
X2692690Y4771079D1*
X2693371Y4770935D1*
X2694040Y4770743D1*
X2694694Y4770506D1*
X2695329Y4770223D1*
X2695944Y4769897D1*
X2696534Y4769529D1*
X2697097Y4769121D1*
X2697630Y4768675D1*
X2698131Y4768192D1*
X2698596Y4767676D1*
X2699025Y4767129D1*
X2699414Y4766553D1*
X2699762Y4765952D1*
X2700067Y4765327D1*
X2700328Y4764683D1*
X2700543Y4764023D1*
X2700711Y4763349D1*
X2700832Y4762665D1*
X2700905Y4761974D1*
X2700929Y4761280D1*
X2700905Y4760586D1*
X2700832Y4759895D1*
X2700711Y4759211D1*
X2700543Y4758537D1*
X2700328Y4757877D1*
X2700067Y4757233D1*
X2699762Y4756609D1*
X2699414Y4756007D1*
X2699025Y4755431D1*
X2698596Y4754884D1*
X2698131Y4754368D1*
X2697630Y4753886D1*
X2697097Y4753439D1*
X2696534Y4753031D1*
X2695944Y4752663D1*
X2695329Y4752337D1*
X2694694Y4752054D1*
X2694040Y4751817D1*
X2693371Y4751625D1*
X2692690Y4751481D1*
X2692001Y4751384D1*
X2691306Y4751336D1*
X2690611D1*
X2689916Y4751384D1*
X2689227Y4751481D1*
X2688546Y4751625D1*
X2687877Y4751817D1*
X2687223Y4752054D1*
X2686588Y4752337D1*
X2685973Y4752663D1*
X2685383Y4753031D1*
X2684820Y4753439D1*
X2684287Y4753886D1*
X2683786Y4754368D1*
X2683321Y4754884D1*
X2682892Y4755431D1*
X2682503Y4756007D1*
X2682155Y4756609D1*
X2681850Y4757233D1*
X2681589Y4757877D1*
X2681374Y4758537D1*
X2681206Y4759211D1*
X2681085Y4759895D1*
X2681012Y4760586D1*
X2680988Y4761280D1*
X2615990D2*
X2696030Y4726282D1*
X2321015Y4461226D2*
D10*
X2981000D1*
Y5061248D1*
X2321015D1*
Y4461226D1*
D25*
X9398510Y4417222D3*
X9573494Y4837280D2*
D10*
X9573896Y4848793D1*
X9575100Y4860249D1*
X9577100Y4871593D1*
X9579886Y4882771D1*
X9583446Y4893726D1*
X9587760Y4904407D1*
X9592809Y4914761D1*
X9598568Y4924737D1*
X9605009Y4934287D1*
X9612100Y4943365D1*
X9619807Y4951925D1*
X9628092Y4959927D1*
X9636915Y4967332D1*
X9646233Y4974103D1*
X9656001Y4980207D1*
X9666170Y4985615D1*
X9676692Y4990301D1*
X9687516Y4994241D1*
X9698587Y4997416D1*
X9709853Y4999811D1*
X9721259Y5001414D1*
X9732749Y5002218D1*
X9744266D1*
X9755756Y5001414D1*
X9767162Y4999811D1*
X9778428Y4997416D1*
X9789499Y4994241D1*
X9800323Y4990301D1*
X9810845Y4985615D1*
X9821014Y4980207D1*
X9830782Y4974103D1*
X9840100Y4967332D1*
X9848923Y4959927D1*
X9857208Y4951925D1*
X9864915Y4943365D1*
X9872006Y4934287D1*
X9878447Y4924737D1*
X9884206Y4914761D1*
X9889255Y4904407D1*
X9893569Y4893726D1*
X9897129Y4882771D1*
X9899915Y4871593D1*
X9901915Y4860249D1*
X9903119Y4848793D1*
X9903521Y4837280D1*
X9903119Y4825768D1*
X9901915Y4814311D1*
X9899915Y4802967D1*
X9897129Y4791789D1*
X9893569Y4780834D1*
X9889255Y4770153D1*
X9884206Y4759799D1*
X9878447Y4749823D1*
X9872006Y4740273D1*
X9864915Y4731196D1*
X9857208Y4722635D1*
X9848923Y4714633D1*
X9840100Y4707228D1*
X9830782Y4700457D1*
X9821014Y4694353D1*
X9810845Y4688945D1*
X9800323Y4684259D1*
X9789499Y4680319D1*
X9778428Y4677144D1*
X9767162Y4674749D1*
X9755756Y4673146D1*
X9744266Y4672342D1*
X9732749D1*
X9721259Y4673146D1*
X9709853Y4674749D1*
X9698587Y4677144D1*
X9687516Y4680319D1*
X9676692Y4684259D1*
X9666170Y4688945D1*
X9656001Y4694353D1*
X9646233Y4700457D1*
X9636915Y4707228D1*
X9628092Y4714633D1*
X9619807Y4722635D1*
X9612100Y4731196D1*
X9605009Y4740273D1*
X9598568Y4749823D1*
X9592809Y4759799D1*
X9587760Y4770153D1*
X9583446Y4780834D1*
X9579886Y4791789D1*
X9577100Y4802967D1*
X9575100Y4814311D1*
X9573896Y4825768D1*
X9573494Y4837280D1*
X9668507Y4717276D2*
D24*
Y4957284D1*
X9808508Y4717276D2*
Y4957284D1*
X9668507Y4837280D2*
X9683549D1*
X9808508D2*
X9793466D1*
X9683549D2*
X9683573Y4837974D1*
X9683646Y4838665D1*
X9683767Y4839349D1*
X9683935Y4840023D1*
X9684150Y4840683D1*
X9684411Y4841327D1*
X9684716Y4841952D1*
X9685064Y4842553D1*
X9685453Y4843129D1*
X9685882Y4843676D1*
X9686347Y4844192D1*
X9686848Y4844675D1*
X9687381Y4845121D1*
X9687944Y4845529D1*
X9688534Y4845897D1*
X9689149Y4846223D1*
X9689784Y4846506D1*
X9690438Y4846743D1*
X9691107Y4846935D1*
X9691788Y4847079D1*
X9692477Y4847176D1*
X9693172Y4847224D1*
X9693867D1*
X9694562Y4847176D1*
X9695251Y4847079D1*
X9695932Y4846935D1*
X9696601Y4846743D1*
X9697255Y4846506D1*
X9697890Y4846223D1*
X9698505Y4845897D1*
X9699095Y4845529D1*
X9699658Y4845121D1*
X9700191Y4844675D1*
X9700692Y4844192D1*
X9701157Y4843676D1*
X9701586Y4843129D1*
X9701975Y4842553D1*
X9702323Y4841952D1*
X9702628Y4841327D1*
X9702889Y4840683D1*
X9703104Y4840023D1*
X9703272Y4839349D1*
X9703393Y4838665D1*
X9703466Y4837974D1*
X9703490Y4837280D1*
X9703466Y4836586D1*
X9703393Y4835895D1*
X9703272Y4835211D1*
X9703104Y4834537D1*
X9702889Y4833877D1*
X9702628Y4833233D1*
X9702323Y4832609D1*
X9701975Y4832007D1*
X9701586Y4831431D1*
X9701157Y4830884D1*
X9700692Y4830368D1*
X9700191Y4829886D1*
X9699658Y4829439D1*
X9699095Y4829031D1*
X9698505Y4828663D1*
X9697890Y4828337D1*
X9697255Y4828054D1*
X9696601Y4827817D1*
X9695932Y4827625D1*
X9695251Y4827481D1*
X9694562Y4827384D1*
X9693867Y4827336D1*
X9693172D1*
X9692477Y4827384D1*
X9691788Y4827481D1*
X9691107Y4827625D1*
X9690438Y4827817D1*
X9689784Y4828054D1*
X9689149Y4828337D1*
X9688534Y4828663D1*
X9687944Y4829031D1*
X9687381Y4829439D1*
X9686848Y4829886D1*
X9686347Y4830368D1*
X9685882Y4830884D1*
X9685453Y4831431D1*
X9685064Y4832007D1*
X9684716Y4832609D1*
X9684411Y4833233D1*
X9684150Y4833877D1*
X9683935Y4834537D1*
X9683767Y4835211D1*
X9683646Y4835895D1*
X9683573Y4836586D1*
X9683549Y4837280D1*
X9768488D2*
X9768512Y4837974D1*
X9768585Y4838665D1*
X9768706Y4839349D1*
X9768874Y4840023D1*
X9769089Y4840683D1*
X9769350Y4841327D1*
X9769655Y4841952D1*
X9770003Y4842553D1*
X9770392Y4843129D1*
X9770821Y4843676D1*
X9771286Y4844192D1*
X9771787Y4844675D1*
X9772320Y4845121D1*
X9772883Y4845529D1*
X9773473Y4845897D1*
X9774088Y4846223D1*
X9774723Y4846506D1*
X9775377Y4846743D1*
X9776046Y4846935D1*
X9776727Y4847079D1*
X9777416Y4847176D1*
X9778111Y4847224D1*
X9778806D1*
X9779501Y4847176D1*
X9780190Y4847079D1*
X9780871Y4846935D1*
X9781540Y4846743D1*
X9782194Y4846506D1*
X9782829Y4846223D1*
X9783444Y4845897D1*
X9784034Y4845529D1*
X9784597Y4845121D1*
X9785130Y4844675D1*
X9785631Y4844192D1*
X9786096Y4843676D1*
X9786525Y4843129D1*
X9786914Y4842553D1*
X9787262Y4841952D1*
X9787567Y4841327D1*
X9787828Y4840683D1*
X9788043Y4840023D1*
X9788211Y4839349D1*
X9788332Y4838665D1*
X9788405Y4837974D1*
X9788429Y4837280D1*
X9788405Y4836586D1*
X9788332Y4835895D1*
X9788211Y4835211D1*
X9788043Y4834537D1*
X9787828Y4833877D1*
X9787567Y4833233D1*
X9787262Y4832609D1*
X9786914Y4832007D1*
X9786525Y4831431D1*
X9786096Y4830884D1*
X9785631Y4830368D1*
X9785130Y4829886D1*
X9784597Y4829439D1*
X9784034Y4829031D1*
X9783444Y4828663D1*
X9782829Y4828337D1*
X9782194Y4828054D1*
X9781540Y4827817D1*
X9780871Y4827625D1*
X9780190Y4827481D1*
X9779501Y4827384D1*
X9778806Y4827336D1*
X9778111D1*
X9777416Y4827384D1*
X9776727Y4827481D1*
X9776046Y4827625D1*
X9775377Y4827817D1*
X9774723Y4828054D1*
X9774088Y4828337D1*
X9773473Y4828663D1*
X9772883Y4829031D1*
X9772320Y4829439D1*
X9771787Y4829886D1*
X9771286Y4830368D1*
X9770821Y4830884D1*
X9770392Y4831431D1*
X9770003Y4832007D1*
X9769655Y4832609D1*
X9769350Y4833233D1*
X9769089Y4833877D1*
X9768874Y4834537D1*
X9768706Y4835211D1*
X9768585Y4835895D1*
X9768512Y4836586D1*
X9768488Y4837280D1*
X9703490D2*
X9783530Y4802282D1*
X9408515Y4537226D2*
D10*
X10068500D1*
Y5137248D1*
X9408515D1*
Y4537226D1*
D27*
X10130550Y2295782D3*
X9545454Y2635780D2*
D10*
X9545856Y2647290D1*
X9547060Y2658745D1*
X9549060Y2670088D1*
X9551847Y2681264D1*
X9555407Y2692218D1*
X9559722Y2702897D1*
X9564772Y2713249D1*
X9570532Y2723224D1*
X9576973Y2732772D1*
X9584066Y2741848D1*
X9591774Y2750408D1*
X9600060Y2758409D1*
X9608884Y2765812D1*
X9618204Y2772582D1*
X9627973Y2778686D1*
X9638144Y2784093D1*
X9648668Y2788778D1*
X9659493Y2792717D1*
X9670566Y2795892D1*
X9681834Y2798286D1*
X9693241Y2799889D1*
X9704732Y2800693D1*
X9716252D1*
X9727743Y2799889D1*
X9739151Y2798286D1*
X9750418Y2795892D1*
X9761492Y2792717D1*
X9772316Y2788778D1*
X9782840Y2784093D1*
X9793011Y2778686D1*
X9802780Y2772582D1*
X9812100Y2765812D1*
X9820924Y2758409D1*
X9829211Y2750408D1*
X9836919Y2741848D1*
X9844011Y2732772D1*
X9850452Y2723224D1*
X9856212Y2713249D1*
X9861262Y2702897D1*
X9865577Y2692218D1*
X9869137Y2681264D1*
X9871924Y2670088D1*
X9873924Y2658745D1*
X9875128Y2647290D1*
X9875530Y2635780D1*
X9875128Y2624269D1*
X9873924Y2612814D1*
X9871924Y2601471D1*
X9869137Y2590296D1*
X9865577Y2579342D1*
X9861262Y2568663D1*
X9856212Y2558311D1*
X9850452Y2548336D1*
X9844011Y2538787D1*
X9836919Y2529711D1*
X9829211Y2521152D1*
X9820924Y2513151D1*
X9812100Y2505747D1*
X9802780Y2498977D1*
X9793011Y2492874D1*
X9782840Y2487467D1*
X9772316Y2482782D1*
X9761492Y2478843D1*
X9750418Y2475668D1*
X9739151Y2473273D1*
X9727743Y2471670D1*
X9716252Y2470867D1*
X9704732D1*
X9693241Y2471670D1*
X9681834Y2473273D1*
X9670566Y2475668D1*
X9659493Y2478843D1*
X9648668Y2482782D1*
X9638144Y2487467D1*
X9627973Y2492874D1*
X9618204Y2498977D1*
X9608884Y2505747D1*
X9600060Y2513151D1*
X9591774Y2521152D1*
X9584066Y2529711D1*
X9576973Y2538787D1*
X9570532Y2548336D1*
X9564772Y2558311D1*
X9559722Y2568663D1*
X9555407Y2579342D1*
X9551847Y2590296D1*
X9549060Y2601471D1*
X9547060Y2612814D1*
X9545856Y2624269D1*
X9545454Y2635780D1*
X9830496Y2565779D2*
D24*
X9590488D1*
X9830496Y2705780D2*
X9590488D1*
X9710492Y2565779D2*
Y2580821D1*
Y2705780D2*
Y2690738D1*
X9700542Y2590792D2*
X9700566Y2591487D1*
X9700639Y2592179D1*
X9700759Y2592865D1*
X9700927Y2593540D1*
X9701142Y2594202D1*
X9701402Y2594847D1*
X9701706Y2595473D1*
X9702054Y2596075D1*
X9702442Y2596652D1*
X9702870Y2597201D1*
X9703334Y2597718D1*
X9703834Y2598201D1*
X9704366Y2598649D1*
X9704928Y2599058D1*
X9705517Y2599426D1*
X9706130Y2599753D1*
X9706765Y2600036D1*
X9707417Y2600274D1*
X9708085Y2600466D1*
X9708764Y2600611D1*
X9709452Y2600708D1*
X9710145Y2600756D1*
X9710839D1*
X9711532Y2600708D1*
X9712220Y2600611D1*
X9712899Y2600466D1*
X9713567Y2600274D1*
X9714220Y2600036D1*
X9714854Y2599753D1*
X9715467Y2599426D1*
X9716056Y2599058D1*
X9716618Y2598649D1*
X9717150Y2598201D1*
X9717650Y2597718D1*
X9718114Y2597201D1*
X9718542Y2596652D1*
X9718930Y2596075D1*
X9719278Y2595473D1*
X9719582Y2594847D1*
X9719842Y2594202D1*
X9720057Y2593540D1*
X9720225Y2592865D1*
X9720346Y2592179D1*
X9720418Y2591487D1*
X9720442Y2590792D1*
X9720418Y2590096D1*
X9720346Y2589404D1*
X9720225Y2588719D1*
X9720057Y2588043D1*
X9719842Y2587382D1*
X9719582Y2586736D1*
X9719278Y2586111D1*
X9718930Y2585508D1*
X9718542Y2584931D1*
X9718114Y2584383D1*
X9717650Y2583866D1*
X9717150Y2583382D1*
X9716618Y2582935D1*
X9716056Y2582526D1*
X9715467Y2582157D1*
X9714854Y2581830D1*
X9714220Y2581547D1*
X9713567Y2581309D1*
X9712899Y2581117D1*
X9712220Y2580973D1*
X9711532Y2580876D1*
X9710839Y2580827D1*
X9710145D1*
X9709452Y2580876D1*
X9708764Y2580973D1*
X9708085Y2581117D1*
X9707417Y2581309D1*
X9706765Y2581547D1*
X9706130Y2581830D1*
X9705517Y2582157D1*
X9704928Y2582526D1*
X9704366Y2582935D1*
X9703834Y2583382D1*
X9703334Y2583866D1*
X9702870Y2584383D1*
X9702442Y2584931D1*
X9702054Y2585508D1*
X9701706Y2586111D1*
X9701402Y2586736D1*
X9701142Y2587382D1*
X9700927Y2588043D1*
X9700759Y2588719D1*
X9700639Y2589404D1*
X9700566Y2590096D1*
X9700542Y2590792D1*
Y2675731D2*
X9700566Y2676426D1*
X9700639Y2677118D1*
X9700759Y2677804D1*
X9700927Y2678479D1*
X9701142Y2679141D1*
X9701402Y2679786D1*
X9701706Y2680412D1*
X9702054Y2681014D1*
X9702442Y2681591D1*
X9702870Y2682140D1*
X9703334Y2682657D1*
X9703834Y2683140D1*
X9704366Y2683588D1*
X9704928Y2683997D1*
X9705517Y2684365D1*
X9706130Y2684692D1*
X9706765Y2684975D1*
X9707417Y2685213D1*
X9708085Y2685405D1*
X9708764Y2685550D1*
X9709452Y2685647D1*
X9710145Y2685695D1*
X9710839D1*
X9711532Y2685647D1*
X9712220Y2685550D1*
X9712899Y2685405D1*
X9713567Y2685213D1*
X9714220Y2684975D1*
X9714854Y2684692D1*
X9715467Y2684365D1*
X9716056Y2683997D1*
X9716618Y2683588D1*
X9717150Y2683140D1*
X9717650Y2682657D1*
X9718114Y2682140D1*
X9718542Y2681591D1*
X9718930Y2681014D1*
X9719278Y2680412D1*
X9719582Y2679786D1*
X9719842Y2679141D1*
X9720057Y2678479D1*
X9720225Y2677804D1*
X9720346Y2677118D1*
X9720418Y2676426D1*
X9720442Y2675731D1*
X9720418Y2675035D1*
X9720346Y2674343D1*
X9720225Y2673658D1*
X9720057Y2672982D1*
X9719842Y2672321D1*
X9719582Y2671675D1*
X9719278Y2671050D1*
X9718930Y2670447D1*
X9718542Y2669870D1*
X9718114Y2669322D1*
X9717650Y2668805D1*
X9717150Y2668321D1*
X9716618Y2667874D1*
X9716056Y2667465D1*
X9715467Y2667096D1*
X9714854Y2666769D1*
X9714220Y2666486D1*
X9713567Y2666248D1*
X9712899Y2666056D1*
X9712220Y2665912D1*
X9711532Y2665815D1*
X9710839Y2665766D1*
X9710145D1*
X9709452Y2665815D1*
X9708764Y2665912D1*
X9708085Y2666056D1*
X9707417Y2666248D1*
X9706765Y2666486D1*
X9706130Y2666769D1*
X9705517Y2667096D1*
X9704928Y2667465D1*
X9704366Y2667874D1*
X9703834Y2668321D1*
X9703334Y2668805D1*
X9702870Y2669322D1*
X9702442Y2669870D1*
X9702054Y2670447D1*
X9701706Y2671050D1*
X9701402Y2671675D1*
X9701142Y2672321D1*
X9700927Y2672982D1*
X9700759Y2673658D1*
X9700639Y2674343D1*
X9700566Y2675035D1*
X9700542Y2675731D1*
X9710492Y2600762D2*
X9745490Y2680802D1*
X10010546Y2305787D2*
D10*
X9410524D1*
Y2965772D1*
X10010546D1*
Y2305787D1*
D25*
X1890990Y4168322D3*
X1385979Y3748264D2*
D10*
X1386381Y3759777D1*
X1387585Y3771233D1*
X1389585Y3782578D1*
X1392371Y3793755D1*
X1395931Y3804711D1*
X1400245Y3815391D1*
X1405294Y3825745D1*
X1411053Y3835721D1*
X1417494Y3845271D1*
X1424585Y3854349D1*
X1432292Y3862909D1*
X1440577Y3870912D1*
X1449400Y3878316D1*
X1458718Y3885087D1*
X1468486Y3891192D1*
X1478655Y3896600D1*
X1489177Y3901285D1*
X1500001Y3905225D1*
X1511072Y3908400D1*
X1522338Y3910795D1*
X1533744Y3912398D1*
X1545234Y3913202D1*
X1556751D1*
X1568241Y3912398D1*
X1579647Y3910795D1*
X1590913Y3908400D1*
X1601984Y3905225D1*
X1612808Y3901285D1*
X1623330Y3896600D1*
X1633499Y3891192D1*
X1643267Y3885087D1*
X1652585Y3878316D1*
X1661408Y3870912D1*
X1669693Y3862909D1*
X1677400Y3854349D1*
X1684491Y3845271D1*
X1690932Y3835721D1*
X1696691Y3825745D1*
X1701740Y3815391D1*
X1706054Y3804711D1*
X1709614Y3793755D1*
X1712400Y3782578D1*
X1714400Y3771233D1*
X1715604Y3759777D1*
X1716006Y3748264D1*
X1715604Y3736752D1*
X1714400Y3725295D1*
X1712400Y3713951D1*
X1709614Y3702774D1*
X1706054Y3691818D1*
X1701740Y3681137D1*
X1696691Y3670784D1*
X1690932Y3660807D1*
X1684491Y3651257D1*
X1677400Y3642180D1*
X1669693Y3633619D1*
X1661408Y3625617D1*
X1652585Y3618212D1*
X1643267Y3611441D1*
X1633499Y3605337D1*
X1623330Y3599929D1*
X1612808Y3595244D1*
X1601984Y3591304D1*
X1590913Y3588129D1*
X1579647Y3585733D1*
X1568241Y3584130D1*
X1556751Y3583327D1*
X1545234D1*
X1533744Y3584130D1*
X1522338Y3585733D1*
X1511072Y3588129D1*
X1500001Y3591304D1*
X1489177Y3595244D1*
X1478655Y3599929D1*
X1468486Y3605337D1*
X1458718Y3611441D1*
X1449400Y3618212D1*
X1440577Y3625617D1*
X1432292Y3633619D1*
X1424585Y3642180D1*
X1417494Y3651257D1*
X1411053Y3660807D1*
X1405294Y3670784D1*
X1400245Y3681137D1*
X1395931Y3691818D1*
X1392371Y3702774D1*
X1389585Y3713951D1*
X1387585Y3725295D1*
X1386381Y3736752D1*
X1385979Y3748264D1*
X1620993Y3868269D2*
D24*
Y3628260D1*
X1480992Y3868269D2*
Y3628260D1*
X1620993Y3748264D2*
X1605951D1*
X1480992D2*
X1496034D1*
X1586010D2*
X1586034Y3748958D1*
X1586107Y3749649D1*
X1586228Y3750333D1*
X1586396Y3751007D1*
X1586611Y3751668D1*
X1586872Y3752311D1*
X1587177Y3752936D1*
X1587525Y3753537D1*
X1587914Y3754113D1*
X1588343Y3754660D1*
X1588808Y3755176D1*
X1589309Y3755659D1*
X1589842Y3756105D1*
X1590405Y3756514D1*
X1590995Y3756882D1*
X1591610Y3757208D1*
X1592245Y3757490D1*
X1592899Y3757728D1*
X1593568Y3757919D1*
X1594249Y3758063D1*
X1594938Y3758160D1*
X1595633Y3758209D1*
X1596328D1*
X1597023Y3758160D1*
X1597712Y3758063D1*
X1598393Y3757919D1*
X1599062Y3757728D1*
X1599716Y3757490D1*
X1600351Y3757208D1*
X1600966Y3756882D1*
X1601556Y3756514D1*
X1602119Y3756105D1*
X1602652Y3755659D1*
X1603153Y3755176D1*
X1603618Y3754660D1*
X1604047Y3754113D1*
X1604436Y3753537D1*
X1604784Y3752936D1*
X1605089Y3752311D1*
X1605350Y3751668D1*
X1605565Y3751007D1*
X1605733Y3750333D1*
X1605854Y3749649D1*
X1605927Y3748958D1*
X1605951Y3748264D1*
X1605927Y3747570D1*
X1605854Y3746880D1*
X1605733Y3746196D1*
X1605565Y3745522D1*
X1605350Y3744861D1*
X1605089Y3744217D1*
X1604784Y3743593D1*
X1604436Y3742991D1*
X1604047Y3742416D1*
X1603618Y3741868D1*
X1603153Y3741352D1*
X1602652Y3740870D1*
X1602119Y3740423D1*
X1601556Y3740015D1*
X1600966Y3739647D1*
X1600351Y3739321D1*
X1599716Y3739039D1*
X1599062Y3738801D1*
X1598393Y3738610D1*
X1597712Y3738465D1*
X1597023Y3738369D1*
X1596328Y3738320D1*
X1595633D1*
X1594938Y3738369D1*
X1594249Y3738465D1*
X1593568Y3738610D1*
X1592899Y3738801D1*
X1592245Y3739039D1*
X1591610Y3739321D1*
X1590995Y3739647D1*
X1590405Y3740015D1*
X1589842Y3740423D1*
X1589309Y3740870D1*
X1588808Y3741352D1*
X1588343Y3741868D1*
X1587914Y3742416D1*
X1587525Y3742991D1*
X1587177Y3743593D1*
X1586872Y3744217D1*
X1586611Y3744861D1*
X1586396Y3745522D1*
X1586228Y3746196D1*
X1586107Y3746880D1*
X1586034Y3747570D1*
X1586010Y3748264D1*
X1501071D2*
X1501095Y3748958D1*
X1501168Y3749649D1*
X1501289Y3750333D1*
X1501457Y3751007D1*
X1501672Y3751668D1*
X1501933Y3752311D1*
X1502238Y3752936D1*
X1502586Y3753537D1*
X1502975Y3754113D1*
X1503404Y3754660D1*
X1503869Y3755176D1*
X1504370Y3755659D1*
X1504903Y3756105D1*
X1505466Y3756514D1*
X1506056Y3756882D1*
X1506671Y3757208D1*
X1507306Y3757490D1*
X1507960Y3757728D1*
X1508629Y3757919D1*
X1509310Y3758063D1*
X1509999Y3758160D1*
X1510694Y3758209D1*
X1511389D1*
X1512084Y3758160D1*
X1512773Y3758063D1*
X1513454Y3757919D1*
X1514123Y3757728D1*
X1514777Y3757490D1*
X1515412Y3757208D1*
X1516027Y3756882D1*
X1516617Y3756514D1*
X1517180Y3756105D1*
X1517713Y3755659D1*
X1518214Y3755176D1*
X1518679Y3754660D1*
X1519108Y3754113D1*
X1519497Y3753537D1*
X1519845Y3752936D1*
X1520150Y3752311D1*
X1520411Y3751668D1*
X1520626Y3751007D1*
X1520794Y3750333D1*
X1520915Y3749649D1*
X1520988Y3748958D1*
X1521012Y3748264D1*
X1520988Y3747570D1*
X1520915Y3746880D1*
X1520794Y3746196D1*
X1520626Y3745522D1*
X1520411Y3744861D1*
X1520150Y3744217D1*
X1519845Y3743593D1*
X1519497Y3742991D1*
X1519108Y3742416D1*
X1518679Y3741868D1*
X1518214Y3741352D1*
X1517713Y3740870D1*
X1517180Y3740423D1*
X1516617Y3740015D1*
X1516027Y3739647D1*
X1515412Y3739321D1*
X1514777Y3739039D1*
X1514123Y3738801D1*
X1513454Y3738610D1*
X1512773Y3738465D1*
X1512084Y3738369D1*
X1511389Y3738320D1*
X1510694D1*
X1509999Y3738369D1*
X1509310Y3738465D1*
X1508629Y3738610D1*
X1507960Y3738801D1*
X1507306Y3739039D1*
X1506671Y3739321D1*
X1506056Y3739647D1*
X1505466Y3740015D1*
X1504903Y3740423D1*
X1504370Y3740870D1*
X1503869Y3741352D1*
X1503404Y3741868D1*
X1502975Y3742416D1*
X1502586Y3742991D1*
X1502238Y3743593D1*
X1501933Y3744217D1*
X1501672Y3744861D1*
X1501457Y3745522D1*
X1501289Y3746196D1*
X1501168Y3746880D1*
X1501095Y3747570D1*
X1501071Y3748264D1*
X1586010D2*
X1505970Y3783262D1*
X1880985Y4048318D2*
D10*
X1221000D1*
Y3448296D1*
X1880985D1*
Y4048318D1*
D27*
X3319450Y4063262D3*
X3574470Y3723265D2*
D10*
X3574872Y3734775D1*
X3576076Y3746230D1*
X3578076Y3757573D1*
X3580863Y3768749D1*
X3584423Y3779703D1*
X3588738Y3790382D1*
X3593788Y3800734D1*
X3599548Y3810709D1*
X3605989Y3820257D1*
X3613081Y3829333D1*
X3620789Y3837893D1*
X3629076Y3845894D1*
X3637900Y3853297D1*
X3647220Y3860067D1*
X3656989Y3866171D1*
X3667160Y3871578D1*
X3677684Y3876263D1*
X3688508Y3880202D1*
X3699582Y3883377D1*
X3710849Y3885771D1*
X3722257Y3887374D1*
X3733748Y3888178D1*
X3745268D1*
X3756759Y3887374D1*
X3768166Y3885771D1*
X3779434Y3883377D1*
X3790507Y3880202D1*
X3801332Y3876263D1*
X3811856Y3871578D1*
X3822027Y3866171D1*
X3831796Y3860067D1*
X3841116Y3853297D1*
X3849940Y3845894D1*
X3858226Y3837893D1*
X3865934Y3829333D1*
X3873027Y3820257D1*
X3879468Y3810709D1*
X3885228Y3800734D1*
X3890278Y3790382D1*
X3894593Y3779703D1*
X3898153Y3768749D1*
X3900940Y3757573D1*
X3902940Y3746230D1*
X3904144Y3734775D1*
X3904546Y3723265D1*
X3904144Y3711754D1*
X3902940Y3700299D1*
X3900940Y3688956D1*
X3898153Y3677781D1*
X3894593Y3666827D1*
X3890278Y3656148D1*
X3885228Y3645796D1*
X3879468Y3635821D1*
X3873027Y3626272D1*
X3865934Y3617196D1*
X3858226Y3608637D1*
X3849940Y3600636D1*
X3841116Y3593232D1*
X3831796Y3586462D1*
X3822027Y3580359D1*
X3811856Y3574952D1*
X3801332Y3570267D1*
X3790507Y3566328D1*
X3779434Y3563153D1*
X3768166Y3560758D1*
X3756759Y3559155D1*
X3745268Y3558352D1*
X3733748D1*
X3722257Y3559155D1*
X3710849Y3560758D1*
X3699582Y3563153D1*
X3688508Y3566328D1*
X3677684Y3570267D1*
X3667160Y3574952D1*
X3656989Y3580359D1*
X3647220Y3586462D1*
X3637900Y3593232D1*
X3629076Y3600636D1*
X3620789Y3608637D1*
X3613081Y3617196D1*
X3605989Y3626272D1*
X3599548Y3635821D1*
X3593788Y3645796D1*
X3588738Y3656148D1*
X3584423Y3666827D1*
X3580863Y3677781D1*
X3578076Y3688956D1*
X3576076Y3700299D1*
X3574872Y3711754D1*
X3574470Y3723265D1*
X3619504Y3793265D2*
D24*
X3859512D1*
X3619504Y3653264D2*
X3859512D1*
X3739508Y3793265D2*
Y3778223D1*
Y3653264D2*
Y3668306D1*
X3729558Y3768253D2*
X3729582Y3768948D1*
X3729654Y3769640D1*
X3729775Y3770326D1*
X3729943Y3771001D1*
X3730158Y3771663D1*
X3730418Y3772308D1*
X3730722Y3772934D1*
X3731070Y3773536D1*
X3731458Y3774113D1*
X3731886Y3774662D1*
X3732350Y3775179D1*
X3732850Y3775662D1*
X3733382Y3776110D1*
X3733944Y3776519D1*
X3734533Y3776887D1*
X3735146Y3777214D1*
X3735780Y3777497D1*
X3736433Y3777735D1*
X3737101Y3777927D1*
X3737780Y3778072D1*
X3738468Y3778169D1*
X3739161Y3778217D1*
X3739855D1*
X3740548Y3778169D1*
X3741236Y3778072D1*
X3741915Y3777927D1*
X3742583Y3777735D1*
X3743235Y3777497D1*
X3743870Y3777214D1*
X3744483Y3776887D1*
X3745072Y3776519D1*
X3745634Y3776110D1*
X3746166Y3775662D1*
X3746666Y3775179D1*
X3747130Y3774662D1*
X3747558Y3774113D1*
X3747946Y3773536D1*
X3748294Y3772934D1*
X3748598Y3772308D1*
X3748858Y3771663D1*
X3749073Y3771001D1*
X3749241Y3770326D1*
X3749361Y3769640D1*
X3749434Y3768948D1*
X3749458Y3768253D1*
X3749434Y3767557D1*
X3749361Y3766865D1*
X3749241Y3766180D1*
X3749073Y3765504D1*
X3748858Y3764843D1*
X3748598Y3764197D1*
X3748294Y3763572D1*
X3747946Y3762969D1*
X3747558Y3762392D1*
X3747130Y3761844D1*
X3746666Y3761327D1*
X3746166Y3760843D1*
X3745634Y3760396D1*
X3745072Y3759987D1*
X3744483Y3759618D1*
X3743870Y3759291D1*
X3743235Y3759008D1*
X3742583Y3758770D1*
X3741915Y3758578D1*
X3741236Y3758434D1*
X3740548Y3758337D1*
X3739855Y3758288D1*
X3739161D1*
X3738468Y3758337D1*
X3737780Y3758434D1*
X3737101Y3758578D1*
X3736433Y3758770D1*
X3735780Y3759008D1*
X3735146Y3759291D1*
X3734533Y3759618D1*
X3733944Y3759987D1*
X3733382Y3760396D1*
X3732850Y3760843D1*
X3732350Y3761327D1*
X3731886Y3761844D1*
X3731458Y3762392D1*
X3731070Y3762969D1*
X3730722Y3763572D1*
X3730418Y3764197D1*
X3730158Y3764843D1*
X3729943Y3765504D1*
X3729775Y3766180D1*
X3729654Y3766865D1*
X3729582Y3767557D1*
X3729558Y3768253D1*
Y3683314D2*
X3729582Y3684009D1*
X3729654Y3684701D1*
X3729775Y3685387D1*
X3729943Y3686062D1*
X3730158Y3686724D1*
X3730418Y3687369D1*
X3730722Y3687995D1*
X3731070Y3688597D1*
X3731458Y3689174D1*
X3731886Y3689723D1*
X3732350Y3690240D1*
X3732850Y3690723D1*
X3733382Y3691171D1*
X3733944Y3691580D1*
X3734533Y3691948D1*
X3735146Y3692275D1*
X3735780Y3692558D1*
X3736433Y3692796D1*
X3737101Y3692988D1*
X3737780Y3693133D1*
X3738468Y3693230D1*
X3739161Y3693278D1*
X3739855D1*
X3740548Y3693230D1*
X3741236Y3693133D1*
X3741915Y3692988D1*
X3742583Y3692796D1*
X3743235Y3692558D1*
X3743870Y3692275D1*
X3744483Y3691948D1*
X3745072Y3691580D1*
X3745634Y3691171D1*
X3746166Y3690723D1*
X3746666Y3690240D1*
X3747130Y3689723D1*
X3747558Y3689174D1*
X3747946Y3688597D1*
X3748294Y3687995D1*
X3748598Y3687369D1*
X3748858Y3686724D1*
X3749073Y3686062D1*
X3749241Y3685387D1*
X3749361Y3684701D1*
X3749434Y3684009D1*
X3749458Y3683314D1*
X3749434Y3682618D1*
X3749361Y3681926D1*
X3749241Y3681241D1*
X3749073Y3680565D1*
X3748858Y3679904D1*
X3748598Y3679258D1*
X3748294Y3678633D1*
X3747946Y3678030D1*
X3747558Y3677453D1*
X3747130Y3676905D1*
X3746666Y3676388D1*
X3746166Y3675904D1*
X3745634Y3675457D1*
X3745072Y3675048D1*
X3744483Y3674679D1*
X3743870Y3674352D1*
X3743235Y3674069D1*
X3742583Y3673831D1*
X3741915Y3673639D1*
X3741236Y3673495D1*
X3740548Y3673398D1*
X3739855Y3673349D1*
X3739161D1*
X3738468Y3673398D1*
X3737780Y3673495D1*
X3737101Y3673639D1*
X3736433Y3673831D1*
X3735780Y3674069D1*
X3735146Y3674352D1*
X3734533Y3674679D1*
X3733944Y3675048D1*
X3733382Y3675457D1*
X3732850Y3675904D1*
X3732350Y3676388D1*
X3731886Y3676905D1*
X3731458Y3677453D1*
X3731070Y3678030D1*
X3730722Y3678633D1*
X3730418Y3679258D1*
X3730158Y3679904D1*
X3729943Y3680565D1*
X3729775Y3681241D1*
X3729654Y3681926D1*
X3729582Y3682618D1*
X3729558Y3683314D1*
X3739508Y3758282D2*
X3704510Y3678242D1*
X3439454Y4053257D2*
D10*
X4039476D1*
Y3393272D1*
X3439454D1*
Y4053257D1*
D27*
X9057050Y3395782D3*
X8471954Y3735780D2*
D10*
X8472356Y3747290D1*
X8473560Y3758745D1*
X8475560Y3770088D1*
X8478347Y3781264D1*
X8481907Y3792218D1*
X8486222Y3802897D1*
X8491272Y3813249D1*
X8497032Y3823224D1*
X8503473Y3832772D1*
X8510566Y3841848D1*
X8518274Y3850408D1*
X8526560Y3858409D1*
X8535384Y3865812D1*
X8544704Y3872582D1*
X8554473Y3878686D1*
X8564644Y3884093D1*
X8575168Y3888778D1*
X8585993Y3892717D1*
X8597066Y3895892D1*
X8608334Y3898286D1*
X8619741Y3899889D1*
X8631232Y3900693D1*
X8642752D1*
X8654243Y3899889D1*
X8665651Y3898286D1*
X8676918Y3895892D1*
X8687992Y3892717D1*
X8698816Y3888778D1*
X8709340Y3884093D1*
X8719511Y3878686D1*
X8729280Y3872582D1*
X8738600Y3865812D1*
X8747424Y3858409D1*
X8755711Y3850408D1*
X8763419Y3841848D1*
X8770511Y3832772D1*
X8776952Y3823224D1*
X8782712Y3813249D1*
X8787762Y3802897D1*
X8792077Y3792218D1*
X8795637Y3781264D1*
X8798424Y3770088D1*
X8800424Y3758745D1*
X8801628Y3747290D1*
X8802030Y3735780D1*
X8801628Y3724269D1*
X8800424Y3712814D1*
X8798424Y3701471D1*
X8795637Y3690296D1*
X8792077Y3679342D1*
X8787762Y3668663D1*
X8782712Y3658311D1*
X8776952Y3648336D1*
X8770511Y3638787D1*
X8763419Y3629711D1*
X8755711Y3621152D1*
X8747424Y3613151D1*
X8738600Y3605747D1*
X8729280Y3598977D1*
X8719511Y3592874D1*
X8709340Y3587467D1*
X8698816Y3582782D1*
X8687992Y3578843D1*
X8676918Y3575668D1*
X8665651Y3573273D1*
X8654243Y3571670D1*
X8642752Y3570867D1*
X8631232D1*
X8619741Y3571670D1*
X8608334Y3573273D1*
X8597066Y3575668D1*
X8585993Y3578843D1*
X8575168Y3582782D1*
X8564644Y3587467D1*
X8554473Y3592874D1*
X8544704Y3598977D1*
X8535384Y3605747D1*
X8526560Y3613151D1*
X8518274Y3621152D1*
X8510566Y3629711D1*
X8503473Y3638787D1*
X8497032Y3648336D1*
X8491272Y3658311D1*
X8486222Y3668663D1*
X8481907Y3679342D1*
X8478347Y3690296D1*
X8475560Y3701471D1*
X8473560Y3712814D1*
X8472356Y3724269D1*
X8471954Y3735780D1*
X8756996Y3665779D2*
D24*
X8516988D1*
X8756996Y3805780D2*
X8516988D1*
X8636992Y3665779D2*
Y3680821D1*
Y3805780D2*
Y3790738D1*
X8627042Y3690792D2*
X8627066Y3691487D1*
X8627139Y3692179D1*
X8627259Y3692865D1*
X8627427Y3693540D1*
X8627642Y3694202D1*
X8627902Y3694847D1*
X8628206Y3695473D1*
X8628554Y3696075D1*
X8628942Y3696652D1*
X8629370Y3697201D1*
X8629834Y3697718D1*
X8630334Y3698201D1*
X8630866Y3698649D1*
X8631428Y3699058D1*
X8632017Y3699426D1*
X8632630Y3699753D1*
X8633265Y3700036D1*
X8633917Y3700274D1*
X8634585Y3700466D1*
X8635264Y3700611D1*
X8635952Y3700708D1*
X8636645Y3700756D1*
X8637339D1*
X8638032Y3700708D1*
X8638720Y3700611D1*
X8639399Y3700466D1*
X8640067Y3700274D1*
X8640720Y3700036D1*
X8641354Y3699753D1*
X8641967Y3699426D1*
X8642556Y3699058D1*
X8643118Y3698649D1*
X8643650Y3698201D1*
X8644150Y3697718D1*
X8644614Y3697201D1*
X8645042Y3696652D1*
X8645430Y3696075D1*
X8645778Y3695473D1*
X8646082Y3694847D1*
X8646342Y3694202D1*
X8646557Y3693540D1*
X8646725Y3692865D1*
X8646846Y3692179D1*
X8646918Y3691487D1*
X8646942Y3690792D1*
X8646918Y3690096D1*
X8646846Y3689404D1*
X8646725Y3688719D1*
X8646557Y3688043D1*
X8646342Y3687382D1*
X8646082Y3686736D1*
X8645778Y3686111D1*
X8645430Y3685508D1*
X8645042Y3684931D1*
X8644614Y3684383D1*
X8644150Y3683866D1*
X8643650Y3683382D1*
X8643118Y3682935D1*
X8642556Y3682526D1*
X8641967Y3682157D1*
X8641354Y3681830D1*
X8640720Y3681547D1*
X8640067Y3681309D1*
X8639399Y3681117D1*
X8638720Y3680973D1*
X8638032Y3680876D1*
X8637339Y3680827D1*
X8636645D1*
X8635952Y3680876D1*
X8635264Y3680973D1*
X8634585Y3681117D1*
X8633917Y3681309D1*
X8633265Y3681547D1*
X8632630Y3681830D1*
X8632017Y3682157D1*
X8631428Y3682526D1*
X8630866Y3682935D1*
X8630334Y3683382D1*
X8629834Y3683866D1*
X8629370Y3684383D1*
X8628942Y3684931D1*
X8628554Y3685508D1*
X8628206Y3686111D1*
X8627902Y3686736D1*
X8627642Y3687382D1*
X8627427Y3688043D1*
X8627259Y3688719D1*
X8627139Y3689404D1*
X8627066Y3690096D1*
X8627042Y3690792D1*
Y3775731D2*
X8627066Y3776426D1*
X8627139Y3777118D1*
X8627259Y3777804D1*
X8627427Y3778479D1*
X8627642Y3779141D1*
X8627902Y3779786D1*
X8628206Y3780412D1*
X8628554Y3781014D1*
X8628942Y3781591D1*
X8629370Y3782140D1*
X8629834Y3782657D1*
X8630334Y3783140D1*
X8630866Y3783588D1*
X8631428Y3783997D1*
X8632017Y3784365D1*
X8632630Y3784692D1*
X8633265Y3784975D1*
X8633917Y3785213D1*
X8634585Y3785405D1*
X8635264Y3785550D1*
X8635952Y3785647D1*
X8636645Y3785695D1*
X8637339D1*
X8638032Y3785647D1*
X8638720Y3785550D1*
X8639399Y3785405D1*
X8640067Y3785213D1*
X8640720Y3784975D1*
X8641354Y3784692D1*
X8641967Y3784365D1*
X8642556Y3783997D1*
X8643118Y3783588D1*
X8643650Y3783140D1*
X8644150Y3782657D1*
X8644614Y3782140D1*
X8645042Y3781591D1*
X8645430Y3781014D1*
X8645778Y3780412D1*
X8646082Y3779786D1*
X8646342Y3779141D1*
X8646557Y3778479D1*
X8646725Y3777804D1*
X8646846Y3777118D1*
X8646918Y3776426D1*
X8646942Y3775731D1*
X8646918Y3775035D1*
X8646846Y3774343D1*
X8646725Y3773658D1*
X8646557Y3772982D1*
X8646342Y3772321D1*
X8646082Y3771675D1*
X8645778Y3771050D1*
X8645430Y3770447D1*
X8645042Y3769870D1*
X8644614Y3769322D1*
X8644150Y3768805D1*
X8643650Y3768321D1*
X8643118Y3767874D1*
X8642556Y3767465D1*
X8641967Y3767096D1*
X8641354Y3766769D1*
X8640720Y3766486D1*
X8640067Y3766248D1*
X8639399Y3766056D1*
X8638720Y3765912D1*
X8638032Y3765815D1*
X8637339Y3765766D1*
X8636645D1*
X8635952Y3765815D1*
X8635264Y3765912D1*
X8634585Y3766056D1*
X8633917Y3766248D1*
X8633265Y3766486D1*
X8632630Y3766769D1*
X8632017Y3767096D1*
X8631428Y3767465D1*
X8630866Y3767874D1*
X8630334Y3768321D1*
X8629834Y3768805D1*
X8629370Y3769322D1*
X8628942Y3769870D1*
X8628554Y3770447D1*
X8628206Y3771050D1*
X8627902Y3771675D1*
X8627642Y3772321D1*
X8627427Y3772982D1*
X8627259Y3773658D1*
X8627139Y3774343D1*
X8627066Y3775035D1*
X8627042Y3775731D1*
X8636992Y3700762D2*
X8671990Y3780802D1*
X8937046Y3405787D2*
D10*
X8337024D1*
Y4065772D1*
X8937046D1*
Y3405787D1*
D25*
X11090990Y4123322D3*
X10585979Y3703264D2*
D10*
X10586381Y3714777D1*
X10587585Y3726233D1*
X10589585Y3737578D1*
X10592371Y3748755D1*
X10595931Y3759711D1*
X10600245Y3770391D1*
X10605294Y3780745D1*
X10611053Y3790721D1*
X10617494Y3800271D1*
X10624585Y3809349D1*
X10632292Y3817909D1*
X10640577Y3825912D1*
X10649400Y3833316D1*
X10658718Y3840087D1*
X10668486Y3846192D1*
X10678655Y3851600D1*
X10689177Y3856285D1*
X10700001Y3860225D1*
X10711072Y3863400D1*
X10722338Y3865795D1*
X10733744Y3867398D1*
X10745234Y3868202D1*
X10756751D1*
X10768241Y3867398D1*
X10779647Y3865795D1*
X10790913Y3863400D1*
X10801984Y3860225D1*
X10812808Y3856285D1*
X10823330Y3851600D1*
X10833499Y3846192D1*
X10843267Y3840087D1*
X10852585Y3833316D1*
X10861408Y3825912D1*
X10869693Y3817909D1*
X10877400Y3809349D1*
X10884491Y3800271D1*
X10890932Y3790721D1*
X10896691Y3780745D1*
X10901740Y3770391D1*
X10906054Y3759711D1*
X10909614Y3748755D1*
X10912400Y3737578D1*
X10914400Y3726233D1*
X10915604Y3714777D1*
X10916006Y3703264D1*
X10915604Y3691752D1*
X10914400Y3680295D1*
X10912400Y3668951D1*
X10909614Y3657774D1*
X10906054Y3646818D1*
X10901740Y3636137D1*
X10896691Y3625784D1*
X10890932Y3615807D1*
X10884491Y3606257D1*
X10877400Y3597180D1*
X10869693Y3588619D1*
X10861408Y3580617D1*
X10852585Y3573212D1*
X10843267Y3566441D1*
X10833499Y3560337D1*
X10823330Y3554929D1*
X10812808Y3550244D1*
X10801984Y3546304D1*
X10790913Y3543129D1*
X10779647Y3540733D1*
X10768241Y3539130D1*
X10756751Y3538327D1*
X10745234D1*
X10733744Y3539130D1*
X10722338Y3540733D1*
X10711072Y3543129D1*
X10700001Y3546304D1*
X10689177Y3550244D1*
X10678655Y3554929D1*
X10668486Y3560337D1*
X10658718Y3566441D1*
X10649400Y3573212D1*
X10640577Y3580617D1*
X10632292Y3588619D1*
X10624585Y3597180D1*
X10617494Y3606257D1*
X10611053Y3615807D1*
X10605294Y3625784D1*
X10600245Y3636137D1*
X10595931Y3646818D1*
X10592371Y3657774D1*
X10589585Y3668951D1*
X10587585Y3680295D1*
X10586381Y3691752D1*
X10585979Y3703264D1*
X10820993Y3823269D2*
D24*
Y3583260D1*
X10680992Y3823269D2*
Y3583260D1*
X10820993Y3703264D2*
X10805951D1*
X10680992D2*
X10696034D1*
X10786010D2*
X10786034Y3703958D1*
X10786107Y3704649D1*
X10786228Y3705333D1*
X10786396Y3706007D1*
X10786611Y3706668D1*
X10786872Y3707311D1*
X10787177Y3707936D1*
X10787525Y3708537D1*
X10787914Y3709113D1*
X10788343Y3709660D1*
X10788808Y3710176D1*
X10789309Y3710659D1*
X10789842Y3711105D1*
X10790405Y3711514D1*
X10790995Y3711882D1*
X10791610Y3712208D1*
X10792245Y3712490D1*
X10792899Y3712728D1*
X10793568Y3712919D1*
X10794249Y3713063D1*
X10794938Y3713160D1*
X10795633Y3713209D1*
X10796328D1*
X10797023Y3713160D1*
X10797712Y3713063D1*
X10798393Y3712919D1*
X10799062Y3712728D1*
X10799716Y3712490D1*
X10800351Y3712208D1*
X10800966Y3711882D1*
X10801556Y3711514D1*
X10802119Y3711105D1*
X10802652Y3710659D1*
X10803153Y3710176D1*
X10803618Y3709660D1*
X10804047Y3709113D1*
X10804436Y3708537D1*
X10804784Y3707936D1*
X10805089Y3707311D1*
X10805350Y3706668D1*
X10805565Y3706007D1*
X10805733Y3705333D1*
X10805854Y3704649D1*
X10805927Y3703958D1*
X10805951Y3703264D1*
X10805927Y3702570D1*
X10805854Y3701880D1*
X10805733Y3701196D1*
X10805565Y3700522D1*
X10805350Y3699861D1*
X10805089Y3699217D1*
X10804784Y3698593D1*
X10804436Y3697991D1*
X10804047Y3697416D1*
X10803618Y3696868D1*
X10803153Y3696352D1*
X10802652Y3695870D1*
X10802119Y3695423D1*
X10801556Y3695015D1*
X10800966Y3694647D1*
X10800351Y3694321D1*
X10799716Y3694039D1*
X10799062Y3693801D1*
X10798393Y3693610D1*
X10797712Y3693465D1*
X10797023Y3693369D1*
X10796328Y3693320D1*
X10795633D1*
X10794938Y3693369D1*
X10794249Y3693465D1*
X10793568Y3693610D1*
X10792899Y3693801D1*
X10792245Y3694039D1*
X10791610Y3694321D1*
X10790995Y3694647D1*
X10790405Y3695015D1*
X10789842Y3695423D1*
X10789309Y3695870D1*
X10788808Y3696352D1*
X10788343Y3696868D1*
X10787914Y3697416D1*
X10787525Y3697991D1*
X10787177Y3698593D1*
X10786872Y3699217D1*
X10786611Y3699861D1*
X10786396Y3700522D1*
X10786228Y3701196D1*
X10786107Y3701880D1*
X10786034Y3702570D1*
X10786010Y3703264D1*
X10701071D2*
X10701095Y3703958D1*
X10701168Y3704649D1*
X10701289Y3705333D1*
X10701457Y3706007D1*
X10701672Y3706668D1*
X10701933Y3707311D1*
X10702238Y3707936D1*
X10702586Y3708537D1*
X10702975Y3709113D1*
X10703404Y3709660D1*
X10703869Y3710176D1*
X10704370Y3710659D1*
X10704903Y3711105D1*
X10705466Y3711514D1*
X10706056Y3711882D1*
X10706671Y3712208D1*
X10707306Y3712490D1*
X10707960Y3712728D1*
X10708629Y3712919D1*
X10709310Y3713063D1*
X10709999Y3713160D1*
X10710694Y3713209D1*
X10711389D1*
X10712084Y3713160D1*
X10712773Y3713063D1*
X10713454Y3712919D1*
X10714123Y3712728D1*
X10714777Y3712490D1*
X10715412Y3712208D1*
X10716027Y3711882D1*
X10716617Y3711514D1*
X10717180Y3711105D1*
X10717713Y3710659D1*
X10718214Y3710176D1*
X10718679Y3709660D1*
X10719108Y3709113D1*
X10719497Y3708537D1*
X10719845Y3707936D1*
X10720150Y3707311D1*
X10720411Y3706668D1*
X10720626Y3706007D1*
X10720794Y3705333D1*
X10720915Y3704649D1*
X10720988Y3703958D1*
X10721012Y3703264D1*
X10720988Y3702570D1*
X10720915Y3701880D1*
X10720794Y3701196D1*
X10720626Y3700522D1*
X10720411Y3699861D1*
X10720150Y3699217D1*
X10719845Y3698593D1*
X10719497Y3697991D1*
X10719108Y3697416D1*
X10718679Y3696868D1*
X10718214Y3696352D1*
X10717713Y3695870D1*
X10717180Y3695423D1*
X10716617Y3695015D1*
X10716027Y3694647D1*
X10715412Y3694321D1*
X10714777Y3694039D1*
X10714123Y3693801D1*
X10713454Y3693610D1*
X10712773Y3693465D1*
X10712084Y3693369D1*
X10711389Y3693320D1*
X10710694D1*
X10709999Y3693369D1*
X10709310Y3693465D1*
X10708629Y3693610D1*
X10707960Y3693801D1*
X10707306Y3694039D1*
X10706671Y3694321D1*
X10706056Y3694647D1*
X10705466Y3695015D1*
X10704903Y3695423D1*
X10704370Y3695870D1*
X10703869Y3696352D1*
X10703404Y3696868D1*
X10702975Y3697416D1*
X10702586Y3697991D1*
X10702238Y3698593D1*
X10701933Y3699217D1*
X10701672Y3699861D1*
X10701457Y3700522D1*
X10701289Y3701196D1*
X10701168Y3701880D1*
X10701095Y3702570D1*
X10701071Y3703264D1*
X10786010D2*
X10705970Y3738262D1*
X11080985Y4003318D2*
D10*
X10421000D1*
Y3403296D1*
X11080985D1*
Y4003318D1*
D27*
X2236450Y2975762D3*
X2491470Y2635765D2*
D10*
X2491872Y2647275D1*
X2493076Y2658730D1*
X2495076Y2670073D1*
X2497863Y2681249D1*
X2501423Y2692203D1*
X2505738Y2702882D1*
X2510788Y2713234D1*
X2516548Y2723209D1*
X2522989Y2732757D1*
X2530081Y2741833D1*
X2537789Y2750393D1*
X2546076Y2758394D1*
X2554900Y2765797D1*
X2564220Y2772567D1*
X2573989Y2778671D1*
X2584160Y2784078D1*
X2594684Y2788763D1*
X2605508Y2792702D1*
X2616582Y2795877D1*
X2627849Y2798271D1*
X2639257Y2799874D1*
X2650748Y2800678D1*
X2662268D1*
X2673759Y2799874D1*
X2685166Y2798271D1*
X2696434Y2795877D1*
X2707507Y2792702D1*
X2718332Y2788763D1*
X2728856Y2784078D1*
X2739027Y2778671D1*
X2748796Y2772567D1*
X2758116Y2765797D1*
X2766940Y2758394D1*
X2775226Y2750393D1*
X2782934Y2741833D1*
X2790027Y2732757D1*
X2796468Y2723209D1*
X2802228Y2713234D1*
X2807278Y2702882D1*
X2811593Y2692203D1*
X2815153Y2681249D1*
X2817940Y2670073D1*
X2819940Y2658730D1*
X2821144Y2647275D1*
X2821546Y2635765D1*
X2821144Y2624254D1*
X2819940Y2612799D1*
X2817940Y2601456D1*
X2815153Y2590281D1*
X2811593Y2579327D1*
X2807278Y2568648D1*
X2802228Y2558296D1*
X2796468Y2548321D1*
X2790027Y2538772D1*
X2782934Y2529696D1*
X2775226Y2521137D1*
X2766940Y2513136D1*
X2758116Y2505732D1*
X2748796Y2498962D1*
X2739027Y2492859D1*
X2728856Y2487452D1*
X2718332Y2482767D1*
X2707507Y2478828D1*
X2696434Y2475653D1*
X2685166Y2473258D1*
X2673759Y2471655D1*
X2662268Y2470852D1*
X2650748D1*
X2639257Y2471655D1*
X2627849Y2473258D1*
X2616582Y2475653D1*
X2605508Y2478828D1*
X2594684Y2482767D1*
X2584160Y2487452D1*
X2573989Y2492859D1*
X2564220Y2498962D1*
X2554900Y2505732D1*
X2546076Y2513136D1*
X2537789Y2521137D1*
X2530081Y2529696D1*
X2522989Y2538772D1*
X2516548Y2548321D1*
X2510788Y2558296D1*
X2505738Y2568648D1*
X2501423Y2579327D1*
X2497863Y2590281D1*
X2495076Y2601456D1*
X2493076Y2612799D1*
X2491872Y2624254D1*
X2491470Y2635765D1*
X2536504Y2705765D2*
D24*
X2776512D1*
X2536504Y2565764D2*
X2776512D1*
X2656508Y2705765D2*
Y2690723D1*
Y2565764D2*
Y2580806D1*
X2646558Y2680753D2*
X2646582Y2681448D1*
X2646654Y2682140D1*
X2646775Y2682826D1*
X2646943Y2683501D1*
X2647158Y2684163D1*
X2647418Y2684808D1*
X2647722Y2685434D1*
X2648070Y2686036D1*
X2648458Y2686613D1*
X2648886Y2687162D1*
X2649350Y2687679D1*
X2649850Y2688162D1*
X2650382Y2688610D1*
X2650944Y2689019D1*
X2651533Y2689387D1*
X2652146Y2689714D1*
X2652780Y2689997D1*
X2653433Y2690235D1*
X2654101Y2690427D1*
X2654780Y2690572D1*
X2655468Y2690669D1*
X2656161Y2690717D1*
X2656855D1*
X2657548Y2690669D1*
X2658236Y2690572D1*
X2658915Y2690427D1*
X2659583Y2690235D1*
X2660235Y2689997D1*
X2660870Y2689714D1*
X2661483Y2689387D1*
X2662072Y2689019D1*
X2662634Y2688610D1*
X2663166Y2688162D1*
X2663666Y2687679D1*
X2664130Y2687162D1*
X2664558Y2686613D1*
X2664946Y2686036D1*
X2665294Y2685434D1*
X2665598Y2684808D1*
X2665858Y2684163D1*
X2666073Y2683501D1*
X2666241Y2682826D1*
X2666361Y2682140D1*
X2666434Y2681448D1*
X2666458Y2680753D1*
X2666434Y2680057D1*
X2666361Y2679365D1*
X2666241Y2678680D1*
X2666073Y2678004D1*
X2665858Y2677343D1*
X2665598Y2676697D1*
X2665294Y2676072D1*
X2664946Y2675469D1*
X2664558Y2674892D1*
X2664130Y2674344D1*
X2663666Y2673827D1*
X2663166Y2673343D1*
X2662634Y2672896D1*
X2662072Y2672487D1*
X2661483Y2672118D1*
X2660870Y2671791D1*
X2660235Y2671508D1*
X2659583Y2671270D1*
X2658915Y2671078D1*
X2658236Y2670934D1*
X2657548Y2670837D1*
X2656855Y2670788D1*
X2656161D1*
X2655468Y2670837D1*
X2654780Y2670934D1*
X2654101Y2671078D1*
X2653433Y2671270D1*
X2652780Y2671508D1*
X2652146Y2671791D1*
X2651533Y2672118D1*
X2650944Y2672487D1*
X2650382Y2672896D1*
X2649850Y2673343D1*
X2649350Y2673827D1*
X2648886Y2674344D1*
X2648458Y2674892D1*
X2648070Y2675469D1*
X2647722Y2676072D1*
X2647418Y2676697D1*
X2647158Y2677343D1*
X2646943Y2678004D1*
X2646775Y2678680D1*
X2646654Y2679365D1*
X2646582Y2680057D1*
X2646558Y2680753D1*
Y2595814D2*
X2646582Y2596509D1*
X2646654Y2597201D1*
X2646775Y2597887D1*
X2646943Y2598562D1*
X2647158Y2599224D1*
X2647418Y2599869D1*
X2647722Y2600495D1*
X2648070Y2601097D1*
X2648458Y2601674D1*
X2648886Y2602223D1*
X2649350Y2602740D1*
X2649850Y2603223D1*
X2650382Y2603671D1*
X2650944Y2604080D1*
X2651533Y2604448D1*
X2652146Y2604775D1*
X2652780Y2605058D1*
X2653433Y2605296D1*
X2654101Y2605488D1*
X2654780Y2605633D1*
X2655468Y2605730D1*
X2656161Y2605778D1*
X2656855D1*
X2657548Y2605730D1*
X2658236Y2605633D1*
X2658915Y2605488D1*
X2659583Y2605296D1*
X2660235Y2605058D1*
X2660870Y2604775D1*
X2661483Y2604448D1*
X2662072Y2604080D1*
X2662634Y2603671D1*
X2663166Y2603223D1*
X2663666Y2602740D1*
X2664130Y2602223D1*
X2664558Y2601674D1*
X2664946Y2601097D1*
X2665294Y2600495D1*
X2665598Y2599869D1*
X2665858Y2599224D1*
X2666073Y2598562D1*
X2666241Y2597887D1*
X2666361Y2597201D1*
X2666434Y2596509D1*
X2666458Y2595814D1*
X2666434Y2595118D1*
X2666361Y2594426D1*
X2666241Y2593741D1*
X2666073Y2593065D1*
X2665858Y2592404D1*
X2665598Y2591758D1*
X2665294Y2591133D1*
X2664946Y2590530D1*
X2664558Y2589953D1*
X2664130Y2589405D1*
X2663666Y2588888D1*
X2663166Y2588404D1*
X2662634Y2587957D1*
X2662072Y2587548D1*
X2661483Y2587179D1*
X2660870Y2586852D1*
X2660235Y2586569D1*
X2659583Y2586331D1*
X2658915Y2586139D1*
X2658236Y2585995D1*
X2657548Y2585898D1*
X2656855Y2585849D1*
X2656161D1*
X2655468Y2585898D1*
X2654780Y2585995D1*
X2654101Y2586139D1*
X2653433Y2586331D1*
X2652780Y2586569D1*
X2652146Y2586852D1*
X2651533Y2587179D1*
X2650944Y2587548D1*
X2650382Y2587957D1*
X2649850Y2588404D1*
X2649350Y2588888D1*
X2648886Y2589405D1*
X2648458Y2589953D1*
X2648070Y2590530D1*
X2647722Y2591133D1*
X2647418Y2591758D1*
X2647158Y2592404D1*
X2646943Y2593065D1*
X2646775Y2593741D1*
X2646654Y2594426D1*
X2646582Y2595118D1*
X2646558Y2595814D1*
X2656508Y2670782D2*
X2621510Y2590742D1*
X2356454Y2965757D2*
D10*
X2956476D1*
Y2305772D1*
X2356454D1*
Y2965757D1*
X8072300Y8284782D2*
X9088300D1*
X8950327Y7839788D2*
D24*
X8210273D1*
Y8409806D1*
X8950327D1*
Y7839788D1*
X3757325Y1322989D2*
D10*
X3809343Y1286554D1*
X7500165Y6233349D2*
X7436661D1*
X6525748Y3684526D2*
X6589252D1*
X7496801Y3748490D2*
X7541709Y3793398D1*
X4776329Y3807575D2*
X4831322Y3775827D1*
X7528957Y2662840D2*
X7573866Y2707748D1*
X7993874Y4028483D2*
X8038783Y4073392D1*
X8477617Y1718924D2*
X8520102Y1766125D1*
X4111276Y5963405D2*
X4066367Y5918496D1*
X7486247Y7651520D2*
Y7715024D1*
X5423999Y6281632D2*
X5360495D1*
X5308509Y3603945D2*
X5363502Y3572197D1*
X9436633Y6680496D2*
X9391724Y6725405D1*
X4575878Y2479262D2*
X4627897Y2442827D1*
X8094323Y3732082D2*
D20*
X11493073Y3727256D1*
X9690170Y5422889D2*
Y2169116D1*
X1006823Y3732082D2*
X4405573Y3727256D1*
X2645670Y5422889D2*
Y2169116D1*
X6285900Y8671166D2*
X7684917D1*
Y8368676D1*
X6285900D1*
Y8671166D1*
X7791683Y6850966D2*
D10*
Y6930966D1*
X6008303Y6226636D2*
X6608503D1*
Y5626636D1*
X6008303D1*
Y6226636D1*
G36*
D2*
Y6146636D1*
X6088403Y6226636D1*
X6008303D1*
G37*
D37*
X5888353Y6271686D3*
D40*
X8462618Y7361865D3*
X8325292Y7375231D2*
D10*
Y7675226D1*
X8245306Y7375231D2*
Y7675226D1*
X8325292D2*
X8245306D1*
X8325292Y7375231D2*
X8245306D1*
X4973725Y9120486D2*
D77*
Y9094964D1*
X4984675D1*
X4988325Y9096200D1*
X4989532Y9097407D1*
X4990739Y9099822D1*
Y9103472D1*
X4989532Y9105914D1*
X4988325Y9107122D1*
X4984675Y9108329D1*
X4988325Y9109564D1*
X4989532Y9110772D1*
X4990739Y9113186D1*
Y9115629D1*
X4989532Y9118044D1*
X4988325Y9119279D1*
X4984675Y9120486D1*
X4973725D1*
Y9108329D2*
X4984675D1*
X4998583Y9115601D2*
X5001025Y9116836D1*
X5004675Y9120458D1*
Y9094964D1*
X5381971Y5588445D2*
Y5562923D1*
X5392921D1*
X5396571Y5564158D1*
X5397779Y5565365D1*
X5398986Y5567780D1*
Y5571430D1*
X5397779Y5573873D1*
X5396571Y5575080D1*
X5392921Y5576287D1*
X5396571Y5577523D1*
X5397779Y5578730D1*
X5398986Y5581145D1*
Y5583587D1*
X5397779Y5586002D1*
X5396571Y5587237D1*
X5392921Y5588445D1*
X5381971D1*
Y5576287D2*
X5392921D1*
X5406829Y5583559D2*
X5409272Y5584795D1*
X5412922Y5588416D1*
Y5562923D1*
X5428065Y5588416D2*
X5424415Y5587209D1*
X5421972Y5583559D1*
X5420765Y5577495D1*
Y5573845D1*
X5421972Y5567780D1*
X5424415Y5564130D1*
X5428065Y5562923D1*
X5430480D1*
X5434130Y5564130D1*
X5436544Y5567780D1*
X5437780Y5573845D1*
Y5577495D1*
X5436544Y5583559D1*
X5434130Y5587209D1*
X5430480Y5588416D1*
X5428065D1*
X5436544Y5583559D2*
X5421972Y5567780D1*
X5445623Y5583559D2*
X5448065Y5584795D1*
X5451715Y5588416D1*
Y5562923D1*
X2595667Y5216220D2*
Y5190698D1*
X2606617D1*
X2610267Y5191933D1*
X2611474Y5193140D1*
X2612682Y5195555D1*
Y5199205D1*
X2611474Y5201648D1*
X2610267Y5202855D1*
X2606617Y5204062D1*
X2610267Y5205298D1*
X2611474Y5206505D1*
X2612682Y5208920D1*
Y5211362D1*
X2611474Y5213777D1*
X2610267Y5215012D1*
X2606617Y5216220D1*
X2595667D1*
Y5204062D2*
X2606617D1*
X2620525Y5211334D2*
X2622967Y5212570D1*
X2626617Y5216191D1*
Y5190698D1*
X2641761Y5216191D2*
X2638111Y5214984D1*
X2635668Y5211334D1*
X2634461Y5205270D1*
Y5201620D1*
X2635668Y5195555D1*
X2638111Y5191905D1*
X2641761Y5190698D1*
X2644175D1*
X2647825Y5191905D1*
X2650240Y5195555D1*
X2651475Y5201620D1*
Y5205270D1*
X2650240Y5211334D1*
X2647825Y5214984D1*
X2644175Y5216191D1*
X2641761D1*
X2650240Y5211334D2*
X2635668Y5195555D1*
X2660554Y5210127D2*
Y5211334D1*
X2661761Y5213777D1*
X2662968Y5214984D1*
X2665411Y5216191D1*
X2670268D1*
X2672683Y5214984D1*
X2673890Y5213777D1*
X2675126Y5211334D1*
Y5208920D1*
X2673890Y5206477D1*
X2671476Y5202855D1*
X2659318Y5190698D1*
X2676333D1*
X9683167Y5292220D2*
Y5266698D1*
X9694117D1*
X9697767Y5267933D1*
X9698974Y5269140D1*
X9700182Y5271555D1*
Y5275205D1*
X9698974Y5277648D1*
X9697767Y5278855D1*
X9694117Y5280062D1*
X9697767Y5281298D1*
X9698974Y5282505D1*
X9700182Y5284920D1*
Y5287362D1*
X9698974Y5289777D1*
X9697767Y5291012D1*
X9694117Y5292220D1*
X9683167D1*
Y5280062D2*
X9694117D1*
X9708025Y5287334D2*
X9710467Y5288570D1*
X9714117Y5292191D1*
Y5266698D1*
X9729261Y5292191D2*
X9725611Y5290984D1*
X9723168Y5287334D1*
X9721961Y5281270D1*
Y5277620D1*
X9723168Y5271555D1*
X9725611Y5267905D1*
X9729261Y5266698D1*
X9731675D1*
X9735325Y5267905D1*
X9737740Y5271555D1*
X9738975Y5277620D1*
Y5281270D1*
X9737740Y5287334D1*
X9735325Y5290984D1*
X9731675Y5292191D1*
X9729261D1*
X9737740Y5287334D2*
X9723168Y5271555D1*
X9749261Y5292191D2*
X9762598D1*
X9755326Y5282477D1*
X9758976D1*
X9761390Y5281270D1*
X9762598Y5280062D1*
X9763833Y5276412D1*
Y5273998D1*
X9762598Y5270348D1*
X9760183Y5267905D1*
X9756533Y5266698D1*
X9752883D1*
X9749261Y5267905D1*
X9748054Y5269140D1*
X9746818Y5271555D1*
X9680707Y3002970D2*
Y2977448D1*
X9691657D1*
X9695307Y2978683D1*
X9696514Y2979890D1*
X9697721Y2982305D1*
Y2985955D1*
X9696514Y2988398D1*
X9695307Y2989605D1*
X9691657Y2990812D1*
X9695307Y2992048D1*
X9696514Y2993255D1*
X9697721Y2995670D1*
Y2998112D1*
X9696514Y3000527D1*
X9695307Y3001762D1*
X9691657Y3002970D1*
X9680707D1*
Y2990812D2*
X9691657D1*
X9705564Y2998084D2*
X9708007Y2999320D1*
X9711657Y3002941D1*
Y2977448D1*
X9726800Y3002941D2*
X9723150Y3001734D1*
X9720708Y2998084D1*
X9719500Y2992020D1*
Y2988370D1*
X9720708Y2982305D1*
X9723150Y2978655D1*
X9726800Y2977448D1*
X9729215D1*
X9732865Y2978655D1*
X9735280Y2982305D1*
X9736515Y2988370D1*
Y2992020D1*
X9735280Y2998084D1*
X9732865Y3001734D1*
X9729215Y3002941D1*
X9726800D1*
X9735280Y2998084D2*
X9720708Y2982305D1*
X9756515Y2977448D2*
Y3002941D1*
X9744358Y2985955D1*
X9762580D1*
X1525667Y4225506D2*
Y4199984D1*
X1536617D1*
X1540267Y4201220D1*
X1541474Y4202427D1*
X1542682Y4204842D1*
Y4208492D1*
X1541474Y4210934D1*
X1540267Y4212142D1*
X1536617Y4213349D1*
X1540267Y4214584D1*
X1541474Y4215792D1*
X1542682Y4218206D1*
Y4220649D1*
X1541474Y4223064D1*
X1540267Y4224299D1*
X1536617Y4225506D1*
X1525667D1*
Y4213349D2*
X1536617D1*
X1550525Y4220621D2*
X1552967Y4221856D1*
X1556617Y4225478D1*
Y4199984D1*
X1571761Y4225478D2*
X1568111Y4224271D1*
X1565668Y4220621D1*
X1564461Y4214556D1*
Y4210906D1*
X1565668Y4204842D1*
X1568111Y4201192D1*
X1571761Y4199984D1*
X1574175D1*
X1577825Y4201192D1*
X1580240Y4204842D1*
X1581475Y4210906D1*
Y4214556D1*
X1580240Y4220621D1*
X1577825Y4224271D1*
X1574175Y4225478D1*
X1571761D1*
X1580240Y4220621D2*
X1565668Y4204842D1*
X1603890Y4225478D2*
X1591761D1*
X1590554Y4214556D1*
X1591761Y4215764D1*
X1595411Y4216999D1*
X1599033D1*
X1602683Y4215764D1*
X1605126Y4213349D1*
X1606333Y4209699D1*
Y4207284D1*
X1605126Y4203634D1*
X1602683Y4201192D1*
X1599033Y4199984D1*
X1595411D1*
X1591761Y4201192D1*
X1590554Y4202427D1*
X1589318Y4204842D1*
X3688641Y4120470D2*
Y4094948D1*
X3699591D1*
X3703241Y4096183D1*
X3704449Y4097390D1*
X3705656Y4099805D1*
Y4103455D1*
X3704449Y4105898D1*
X3703241Y4107105D1*
X3699591Y4108312D1*
X3703241Y4109548D1*
X3704449Y4110755D1*
X3705656Y4113170D1*
Y4115612D1*
X3704449Y4118027D1*
X3703241Y4119262D1*
X3699591Y4120470D1*
X3688641D1*
Y4108312D2*
X3699591D1*
X3713499Y4115584D2*
X3715942Y4116820D1*
X3719592Y4120441D1*
Y4094948D1*
X3734735Y4120441D2*
X3731085Y4119234D1*
X3728642Y4115584D1*
X3727435Y4109520D1*
Y4105870D1*
X3728642Y4099805D1*
X3731085Y4096155D1*
X3734735Y4094948D1*
X3737150D1*
X3740800Y4096155D1*
X3743214Y4099805D1*
X3744450Y4105870D1*
Y4109520D1*
X3743214Y4115584D1*
X3740800Y4119234D1*
X3737150Y4120441D1*
X3734735D1*
X3743214Y4115584D2*
X3728642Y4099805D1*
X3766865Y4116820D2*
X3765657Y4119234D1*
X3762007Y4120441D1*
X3759593D1*
X3755943Y4119234D1*
X3753500Y4115584D1*
X3752293Y4109520D1*
Y4103455D1*
X3753500Y4098598D1*
X3755943Y4096155D1*
X3759593Y4094948D1*
X3760800D1*
X3764422Y4096155D1*
X3766865Y4098598D1*
X3768072Y4102248D1*
Y4103455D1*
X3766865Y4107105D1*
X3764422Y4109520D1*
X3760800Y4110727D1*
X3759593D1*
X3755943Y4109520D1*
X3753500Y4107105D1*
X3752293Y4103455D1*
X8607810Y4102970D2*
Y4077448D1*
X8618760D1*
X8622410Y4078683D1*
X8623618Y4079890D1*
X8624825Y4082305D1*
Y4085955D1*
X8623618Y4088398D1*
X8622410Y4089605D1*
X8618760Y4090812D1*
X8622410Y4092048D1*
X8623618Y4093255D1*
X8624825Y4095670D1*
Y4098112D1*
X8623618Y4100527D1*
X8622410Y4101762D1*
X8618760Y4102970D1*
X8607810D1*
Y4090812D2*
X8618760D1*
X8632668Y4098084D2*
X8635111Y4099320D1*
X8638761Y4102941D1*
Y4077448D1*
X8653904Y4102941D2*
X8650254Y4101734D1*
X8647811Y4098084D1*
X8646604Y4092020D1*
Y4088370D1*
X8647811Y4082305D1*
X8650254Y4078655D1*
X8653904Y4077448D1*
X8656319D1*
X8659969Y4078655D1*
X8662383Y4082305D1*
X8663619Y4088370D1*
Y4092020D1*
X8662383Y4098084D1*
X8659969Y4101734D1*
X8656319Y4102941D1*
X8653904D1*
X8662383Y4098084D2*
X8647811Y4082305D1*
X8676319Y4077448D2*
X8688476Y4102941D1*
X8671462D1*
X10725681Y4180506D2*
Y4154984D1*
X10736631D1*
X10740281Y4156220D1*
X10741488Y4157427D1*
X10742696Y4159842D1*
Y4163492D1*
X10741488Y4165934D1*
X10740281Y4167142D1*
X10736631Y4168349D1*
X10740281Y4169584D1*
X10741488Y4170792D1*
X10742696Y4173206D1*
Y4175649D1*
X10741488Y4178064D1*
X10740281Y4179299D1*
X10736631Y4180506D1*
X10725681D1*
Y4168349D2*
X10736631D1*
X10750539Y4175621D2*
X10752982Y4176856D1*
X10756632Y4180478D1*
Y4154984D1*
X10771775Y4180478D2*
X10768125Y4179271D1*
X10765682Y4175621D1*
X10764475Y4169556D1*
Y4165906D1*
X10765682Y4159842D1*
X10768125Y4156192D1*
X10771775Y4154984D1*
X10774189D1*
X10777839Y4156192D1*
X10780254Y4159842D1*
X10781489Y4165906D1*
Y4169556D1*
X10780254Y4175621D1*
X10777839Y4179271D1*
X10774189Y4180478D1*
X10771775D1*
X10780254Y4175621D2*
X10765682Y4159842D1*
X10795397Y4180478D2*
X10791775Y4179271D1*
X10790540Y4176856D1*
Y4174414D1*
X10791775Y4171999D1*
X10794190Y4170764D1*
X10799047Y4169556D1*
X10802697Y4168349D1*
X10805112Y4165906D1*
X10806319Y4163492D1*
Y4159842D1*
X10805112Y4157427D1*
X10803904Y4156192D1*
X10800254Y4154984D1*
X10795397D1*
X10791775Y4156192D1*
X10790540Y4157427D1*
X10789332Y4159842D1*
Y4163492D1*
X10790540Y4165906D1*
X10792982Y4168349D1*
X10796604Y4169556D1*
X10801462Y4170764D1*
X10803904Y4171999D1*
X10805112Y4174414D1*
Y4176856D1*
X10803904Y4179271D1*
X10800254Y4180478D1*
X10795397D1*
X2605627Y3032970D2*
Y3007448D1*
X2616577D1*
X2620227Y3008683D1*
X2621435Y3009890D1*
X2622642Y3012305D1*
Y3015955D1*
X2621435Y3018398D1*
X2620227Y3019605D1*
X2616577Y3020812D1*
X2620227Y3022048D1*
X2621435Y3023255D1*
X2622642Y3025670D1*
Y3028112D1*
X2621435Y3030527D1*
X2620227Y3031762D1*
X2616577Y3032970D1*
X2605627D1*
Y3020812D2*
X2616577D1*
X2630485Y3028084D2*
X2632928Y3029320D1*
X2636578Y3032941D1*
Y3007448D1*
X2651721Y3032941D2*
X2648071Y3031734D1*
X2645628Y3028084D1*
X2644421Y3022020D1*
Y3018370D1*
X2645628Y3012305D1*
X2648071Y3008655D1*
X2651721Y3007448D1*
X2654136D1*
X2657786Y3008655D1*
X2660200Y3012305D1*
X2661436Y3018370D1*
Y3022020D1*
X2660200Y3028084D1*
X2657786Y3031734D1*
X2654136Y3032941D1*
X2651721D1*
X2660200Y3028084D2*
X2645628Y3012305D1*
X2685086Y3024462D2*
X2683851Y3020812D1*
X2681436Y3018370D1*
X2677786Y3017162D1*
X2676579D1*
X2672929Y3018370D1*
X2670514Y3020812D1*
X2669279Y3024462D1*
Y3025670D1*
X2670514Y3029320D1*
X2672929Y3031734D1*
X2676579Y3032941D1*
X2677786D1*
X2681436Y3031734D1*
X2683851Y3029320D1*
X2685086Y3024462D1*
Y3018370D1*
X2683851Y3012305D1*
X2681436Y3008655D1*
X2677786Y3007448D1*
X2675371D1*
X2671721Y3008655D1*
X2670514Y3011098D1*
X6526643Y6856905D2*
X6525436Y6859320D1*
X6522993Y6861762D1*
X6520578Y6862970D1*
X6515721D1*
X6513278Y6861762D1*
X6510864Y6859320D1*
X6509628Y6856905D1*
X6508421Y6853255D1*
Y6847162D1*
X6509628Y6843540D1*
X6510864Y6841098D1*
X6513278Y6838683D1*
X6515721Y6837448D1*
X6520578D1*
X6522993Y6838683D1*
X6525436Y6841098D1*
X6526643Y6843540D1*
X6534486Y6858084D2*
X6536929Y6859320D1*
X6540579Y6862941D1*
Y6837448D1*
X5886182Y6853955D2*
X5884975Y6856370D1*
X5882532Y6858812D1*
X5880117Y6860020D1*
X5875260D1*
X5872817Y6858812D1*
X5870403Y6856370D1*
X5869167Y6853955D1*
X5867960Y6850305D1*
Y6844212D1*
X5869167Y6840590D1*
X5870403Y6838148D1*
X5872817Y6835733D1*
X5875260Y6834498D1*
X5880117D1*
X5882532Y6835733D1*
X5884975Y6838148D1*
X5886182Y6840590D1*
X5895261Y6853927D2*
Y6855134D1*
X5896468Y6857577D1*
X5897675Y6858784D1*
X5900118Y6859991D1*
X5904975D1*
X5907390Y6858784D1*
X5908597Y6857577D1*
X5909833Y6855134D1*
Y6852720D1*
X5908597Y6850277D1*
X5906183Y6846655D1*
X5894025Y6834498D1*
X5911040D1*
X5759182Y6853955D2*
X5757975Y6856370D1*
X5755532Y6858812D1*
X5753117Y6860020D1*
X5748260D1*
X5745817Y6858812D1*
X5743403Y6856370D1*
X5742167Y6853955D1*
X5740960Y6850305D1*
Y6844212D1*
X5742167Y6840590D1*
X5743403Y6838148D1*
X5745817Y6835733D1*
X5748260Y6834498D1*
X5753117D1*
X5755532Y6835733D1*
X5757975Y6838148D1*
X5759182Y6840590D1*
X5769468Y6859991D2*
X5782804D1*
X5775533Y6850277D1*
X5779183D1*
X5781597Y6849070D1*
X5782804Y6847862D1*
X5784040Y6844212D1*
Y6841798D1*
X5782804Y6838148D1*
X5780390Y6835705D1*
X5776740Y6834498D1*
X5773090D1*
X5769468Y6835705D1*
X5768261Y6836940D1*
X5767025Y6839355D1*
X6560935Y5362182D2*
X6559728Y5364596D1*
X6557285Y5367039D1*
X6554870Y5368246D1*
X6550013D1*
X6547570Y5367039D1*
X6545156Y5364596D1*
X6543920Y5362182D1*
X6542713Y5358532D1*
Y5352439D1*
X6543920Y5348817D1*
X6545156Y5346374D1*
X6547570Y5343960D1*
X6550013Y5342724D1*
X6554870D1*
X6557285Y5343960D1*
X6559728Y5346374D1*
X6560935Y5348817D1*
X6580936Y5342724D2*
Y5368218D1*
X6568778Y5351232D1*
X6587000D1*
X6648182Y6857705D2*
X6646975Y6860120D1*
X6644532Y6862562D1*
X6642117Y6863770D1*
X6637260D1*
X6634817Y6862562D1*
X6632403Y6860120D1*
X6631167Y6857705D1*
X6629960Y6854055D1*
Y6847962D1*
X6631167Y6844340D1*
X6632403Y6841898D1*
X6634817Y6839483D1*
X6637260Y6838248D1*
X6642117D1*
X6644532Y6839483D1*
X6646975Y6841898D1*
X6648182Y6844340D1*
X6670597Y6863741D2*
X6658468D1*
X6657261Y6852820D1*
X6658468Y6854027D1*
X6662118Y6855262D1*
X6665740D1*
X6669390Y6854027D1*
X6671833Y6851612D1*
X6673040Y6847962D1*
Y6845548D1*
X6671833Y6841898D1*
X6669390Y6839455D1*
X6665740Y6838248D1*
X6662118D1*
X6658468Y6839455D1*
X6657261Y6840690D1*
X6656025Y6843105D1*
X6784023Y6392878D2*
X6782816Y6395293D1*
X6780373Y6397736D1*
X6777958Y6398943D1*
X6773101D1*
X6770658Y6397736D1*
X6768244Y6395293D1*
X6767008Y6392878D1*
X6765801Y6389228D1*
Y6383136D1*
X6767008Y6379514D1*
X6768244Y6377071D1*
X6770658Y6374656D1*
X6773101Y6373421D1*
X6777958D1*
X6780373Y6374656D1*
X6782816Y6377071D1*
X6784023Y6379514D1*
X6806438Y6395293D2*
X6805231Y6397707D1*
X6801581Y6398915D1*
X6799166D1*
X6795516Y6397707D1*
X6793074Y6394057D1*
X6791866Y6387993D1*
Y6381928D1*
X6793074Y6377071D1*
X6795516Y6374628D1*
X6799166Y6373421D1*
X6800374D1*
X6803995Y6374628D1*
X6806438Y6377071D1*
X6807645Y6380721D1*
Y6381928D1*
X6806438Y6385578D1*
X6803995Y6387993D1*
X6800374Y6389200D1*
X6799166D1*
X6795516Y6387993D1*
X6793074Y6385578D1*
X6791866Y6381928D1*
X5632182Y6281655D2*
X5630975Y6284070D1*
X5628532Y6286512D1*
X5626117Y6287720D1*
X5621260D1*
X5618817Y6286512D1*
X5616403Y6284070D1*
X5615167Y6281655D1*
X5613960Y6278005D1*
Y6271912D1*
X5615167Y6268290D1*
X5616403Y6265848D1*
X5618817Y6263433D1*
X5621260Y6262198D1*
X5626117D1*
X5628532Y6263433D1*
X5630975Y6265848D1*
X5632182Y6268290D1*
X5644883Y6262198D2*
X5657040Y6287691D1*
X5640025D1*
X5632196Y5964155D2*
X5630989Y5966570D1*
X5628546Y5969012D1*
X5626132Y5970220D1*
X5621274D1*
X5618832Y5969012D1*
X5616417Y5966570D1*
X5615182Y5964155D1*
X5613974Y5960505D1*
Y5954412D1*
X5615182Y5950790D1*
X5616417Y5948348D1*
X5618832Y5945933D1*
X5621274Y5944698D1*
X5626132D1*
X5628546Y5945933D1*
X5630989Y5948348D1*
X5632196Y5950790D1*
X5646104Y5970191D2*
X5642482Y5968984D1*
X5641247Y5966570D1*
Y5964127D1*
X5642482Y5961712D1*
X5644897Y5960477D1*
X5649754Y5959270D1*
X5653404Y5958062D1*
X5655818Y5955620D1*
X5657026Y5953205D1*
Y5949555D1*
X5655818Y5947140D1*
X5654611Y5945905D1*
X5650961Y5944698D1*
X5646104D1*
X5642482Y5945905D1*
X5641247Y5947140D1*
X5640039Y5949555D1*
Y5953205D1*
X5641247Y5955620D1*
X5643689Y5958062D1*
X5647311Y5959270D1*
X5652168Y5960477D1*
X5654611Y5961712D1*
X5655818Y5964127D1*
Y5966570D1*
X5654611Y5968984D1*
X5650961Y5970191D1*
X5646104D1*
X8543757Y7534651D2*
X8541343Y7533444D1*
X8538900Y7531001D1*
X8537693Y7528586D1*
Y7523729D1*
X8538900Y7521286D1*
X8541343Y7518872D1*
X8543757Y7517636D1*
X8547407Y7516429D1*
X8553500D1*
X8557122Y7517636D1*
X8559565Y7518872D1*
X8561979Y7521286D1*
X8563215Y7523729D1*
Y7528586D1*
X8561979Y7531001D1*
X8559565Y7533443D1*
X8557122Y7534651D1*
X8542578Y7542494D2*
X8541343Y7544937D1*
X8537721Y7548587D1*
X8563215D1*
X8542578Y7556430D2*
X8541343Y7558872D1*
X8537721Y7562522D1*
X8563215D1*
X7949871Y7197015D2*
X7948664Y7199430D1*
X7946221Y7201872D1*
X7943806Y7203080D1*
X7938949D1*
X7936506Y7201872D1*
X7934092Y7199430D1*
X7932856Y7197015D1*
X7931649Y7193365D1*
Y7187272D1*
X7932856Y7183650D1*
X7934092Y7181208D1*
X7936506Y7178793D1*
X7938949Y7177558D1*
X7943806D1*
X7946221Y7178793D1*
X7948664Y7181208D1*
X7949871Y7183650D1*
X7957714Y7198194D2*
X7960157Y7199430D1*
X7963807Y7203051D1*
Y7177558D1*
X7972885Y7196987D2*
Y7198194D1*
X7974092Y7200637D1*
X7975300Y7201844D1*
X7977742Y7203051D1*
X7982600D1*
X7985014Y7201844D1*
X7986222Y7200637D1*
X7987457Y7198194D1*
Y7195780D1*
X7986222Y7193337D1*
X7983807Y7189715D1*
X7971650Y7177558D1*
X7988664D1*
X7850317Y7956567D2*
X7847903Y7955359D1*
X7845460Y7952917D1*
X7844253Y7950502D1*
Y7945645D1*
X7845460Y7943202D1*
X7847903Y7940787D1*
X7850317Y7939552D1*
X7853967Y7938345D1*
X7860060D1*
X7863682Y7939552D1*
X7866125Y7940787D1*
X7868539Y7943202D1*
X7869775Y7945645D1*
Y7950502D1*
X7868539Y7952917D1*
X7866125Y7955359D1*
X7863682Y7956567D1*
X7849138Y7964410D2*
X7847903Y7966852D1*
X7844281Y7970502D1*
X7869775D1*
X7844281Y7980788D2*
Y7994125D1*
X7853996Y7986853D1*
Y7990503D1*
X7855203Y7992917D1*
X7856410Y7994125D1*
X7860060Y7995360D1*
X7862475D1*
X7866125Y7994125D1*
X7868567Y7991710D1*
X7869775Y7988060D1*
Y7984410D1*
X7868567Y7980788D1*
X7867332Y7979581D1*
X7864917Y7978345D1*
X7925747Y6978163D2*
Y6952641D1*
X7934254D1*
X7937904Y6953876D1*
X7940347Y6956291D1*
X7941554Y6958734D1*
X7942762Y6962356D1*
Y6968448D1*
X7941554Y6972098D1*
X7940347Y6974513D1*
X7937904Y6976956D1*
X7934254Y6978163D1*
X7925747D1*
X7951840Y6972070D2*
Y6973277D1*
X7953048Y6975720D1*
X7954255Y6976927D1*
X7956698Y6978135D1*
X7961555D1*
X7963970Y6976927D1*
X7965177Y6975720D1*
X7966412Y6973277D1*
Y6970863D1*
X7965177Y6968420D1*
X7962762Y6964798D1*
X7950605Y6952641D1*
X7967620D1*
X5625993Y9737813D2*
Y9718384D1*
X5624786Y9714734D1*
X5623550Y9713526D1*
X5621136Y9712291D1*
X5618693D1*
X5616278Y9713526D1*
X5615071Y9714734D1*
X5613836Y9718384D1*
Y9720798D1*
X5635072Y9731720D2*
Y9732927D1*
X5636279Y9735370D1*
X5637486Y9736577D1*
X5639929Y9737785D1*
X5644786D1*
X5647201Y9736577D1*
X5648408Y9735370D1*
X5649644Y9732927D1*
Y9730513D1*
X5648408Y9728070D1*
X5645994Y9724448D1*
X5633836Y9712291D1*
X5650851D1*
X8573950Y8447003D2*
Y8427574D1*
X8572742Y8423924D1*
X8571507Y8422716D1*
X8569092Y8421481D1*
X8566650D1*
X8564235Y8422716D1*
X8563028Y8423924D1*
X8561792Y8427574D1*
Y8429988D1*
X8584236Y8446975D2*
X8597572D1*
X8590300Y8437260D1*
X8593950D1*
X8596365Y8436053D1*
X8597572Y8434846D1*
X8598808Y8431196D1*
Y8428781D1*
X8597572Y8425131D1*
X8595158Y8422688D1*
X8591508Y8421481D1*
X8587858D1*
X8584236Y8422688D1*
X8583028Y8423924D1*
X8581793Y8426338D1*
X5949993Y9737813D2*
Y9718384D1*
X5948785Y9714734D1*
X5947550Y9713526D1*
X5945135Y9712291D1*
X5942693D1*
X5940278Y9713526D1*
X5939071Y9714734D1*
X5937835Y9718384D1*
Y9720798D1*
X5969993Y9712291D2*
Y9737785D1*
X5957836Y9720798D1*
X5976058D1*
X6128025Y6847062D2*
X6138947D1*
X6142597Y6848298D1*
X6143832Y6849505D1*
X6145039Y6851920D1*
Y6854362D1*
X6143832Y6856777D1*
X6142597Y6858012D1*
X6138947Y6859220D1*
X6128025D1*
Y6833698D1*
X6136532Y6847062D2*
X6145039Y6833698D1*
X6152883Y6854334D2*
X6155325Y6855570D1*
X6158975Y6859191D1*
Y6833698D1*
X6376564Y6850812D2*
X6387486D1*
X6391136Y6852048D1*
X6392371Y6853255D1*
X6393578Y6855670D1*
Y6858112D1*
X6392371Y6860527D1*
X6391136Y6861762D1*
X6387486Y6862970D1*
X6376564D1*
Y6837448D1*
X6385071Y6850812D2*
X6393578Y6837448D1*
X6415993Y6862941D2*
X6403864D1*
X6402657Y6852020D1*
X6403864Y6853227D1*
X6407514Y6854462D1*
X6411136D1*
X6414786Y6853227D1*
X6417229Y6850812D1*
X6418436Y6847162D1*
Y6844748D1*
X6417229Y6841098D1*
X6414786Y6838655D1*
X6411136Y6837448D1*
X6407514D1*
X6403864Y6838655D1*
X6402657Y6839890D1*
X6401422Y6842305D1*
X5615182Y6851612D2*
X5626103D1*
X5629753Y6852848D1*
X5630989Y6854055D1*
X5632196Y6856470D1*
Y6858912D1*
X5630989Y6861327D1*
X5629753Y6862562D1*
X5626103Y6863770D1*
X5615182D1*
Y6838248D1*
X5623689Y6851612D2*
X5632196Y6838248D1*
X5654611Y6860120D2*
X5653404Y6862534D1*
X5649754Y6863741D1*
X5647339D1*
X5643689Y6862534D1*
X5641247Y6858884D1*
X5640039Y6852820D1*
Y6846755D1*
X5641247Y6841898D1*
X5643689Y6839455D1*
X5647339Y6838248D1*
X5648547D1*
X5652168Y6839455D1*
X5654611Y6841898D1*
X5655818Y6845548D1*
Y6846755D1*
X5654611Y6850405D1*
X5652168Y6852820D1*
X5648547Y6854027D1*
X5647339D1*
X5643689Y6852820D1*
X5641247Y6850405D1*
X5640039Y6846755D1*
X6249564Y6847062D2*
X6260486D1*
X6264136Y6848298D1*
X6265371Y6849505D1*
X6266578Y6851920D1*
Y6854362D1*
X6265371Y6856777D1*
X6264136Y6858012D1*
X6260486Y6859220D1*
X6249564D1*
Y6833698D1*
X6258071Y6847062D2*
X6266578Y6833698D1*
X6279279D2*
X6291436Y6859191D1*
X6274422D1*
X8033820Y7942342D2*
Y7953264D1*
X8032585Y7956914D1*
X8031377Y7958149D1*
X8028963Y7959356D1*
X8026520D1*
X8024105Y7958149D1*
X8022870Y7956914D1*
X8021663Y7953264D1*
Y7942342D1*
X8047185D1*
X8033820Y7950849D2*
X8047185Y7959356D1*
X8026548Y7967199D2*
X8025313Y7969642D1*
X8021691Y7973292D1*
X8047185D1*
X8027756Y7982371D2*
X8026548D1*
X8024106Y7983578D1*
X8022898Y7984785D1*
X8021691Y7987228D1*
Y7992085D1*
X8022898Y7994500D1*
X8024106Y7995707D1*
X8026548Y7996942D1*
X8028963D1*
X8031405Y7995707D1*
X8035027Y7993292D1*
X8047185Y7981135D1*
Y7998150D1*
X4212135Y2066266D2*
X4223057D1*
X4226707Y2067501D1*
X4227942Y2068708D1*
X4229149Y2071123D1*
Y2073566D1*
X4227942Y2075980D1*
X4226707Y2077216D1*
X4223057Y2078423D1*
X4212135D1*
Y2052901D1*
X4220642Y2066266D2*
X4229149Y2052901D1*
X4236992Y2073537D2*
X4239435Y2074773D1*
X4243085Y2078395D1*
Y2052901D1*
X4258228Y2078395D2*
X4254578Y2077187D1*
X4252136Y2073537D1*
X4250928Y2067473D1*
Y2063823D1*
X4252136Y2057758D1*
X4254578Y2054108D1*
X4258228Y2052901D1*
X4260643D1*
X4264293Y2054108D1*
X4266707Y2057758D1*
X4267943Y2063823D1*
Y2067473D1*
X4266707Y2073537D1*
X4264293Y2077187D1*
X4260643Y2078395D1*
X4258228D1*
X4266707Y2073537D2*
X4252136Y2057758D1*
X4275786Y2073537D2*
X4278229Y2074773D1*
X4281879Y2078395D1*
Y2052901D1*
X7407373Y5713570D2*
Y5724491D1*
X7406138Y5728141D1*
X7404931Y5729377D1*
X7402516Y5730584D1*
X7400073D1*
X7397659Y5729377D1*
X7396423Y5728141D1*
X7395216Y5724491D1*
Y5713570D1*
X7420738D1*
X7407373Y5722077D2*
X7420738Y5730584D1*
X7400102Y5738427D2*
X7398866Y5740870D1*
X7395244Y5744520D1*
X7420738D1*
X7395244Y5759663D2*
X7396452Y5756013D1*
X7400102Y5753570D1*
X7406166Y5752363D1*
X7409816D1*
X7415881Y5753570D1*
X7419531Y5756013D1*
X7420738Y5759663D1*
Y5762077D1*
X7419531Y5765727D1*
X7415881Y5768142D1*
X7409816Y5769377D1*
X7406166D1*
X7400102Y5768142D1*
X7396452Y5765728D1*
X7395244Y5762078D1*
Y5759663D1*
X7400102Y5768142D2*
X7415881Y5753570D1*
X7401309Y5778456D2*
X7400102D1*
X7397659Y5779663D1*
X7396452Y5780871D1*
X7395244Y5783313D1*
Y5788171D1*
X7396452Y5790585D1*
X7397659Y5791793D1*
X7400102Y5793028D1*
X7402516D1*
X7404959Y5791793D1*
X7408581Y5789378D1*
X7420738Y5777221D1*
Y5794235D1*
X6493877Y4726556D2*
Y4737478D1*
X6492641Y4741128D1*
X6491434Y4742363D1*
X6489019Y4743571D1*
X6486577D1*
X6484162Y4742363D1*
X6482927Y4741128D1*
X6481719Y4737478D1*
Y4726556D1*
X6507241D1*
X6493877Y4735064D2*
X6507241Y4743571D1*
X6486605Y4751414D2*
X6485370Y4753857D1*
X6481748Y4757507D1*
X6507241Y4757506D1*
X6481748Y4772650D2*
X6482955Y4769000D1*
X6486605Y4766557D1*
X6492669Y4765350D1*
X6496319D1*
X6502384Y4766557D1*
X6506034Y4769000D1*
X6507241Y4772650D1*
Y4775064D1*
X6506034Y4778714D1*
X6502384Y4781129D1*
X6496319Y4782364D1*
X6492669D1*
X6486605Y4781129D1*
X6482955Y4778714D1*
X6481748Y4775064D1*
Y4772650D1*
X6486605Y4781129D2*
X6502384Y4766557D1*
X6481748Y4792650D2*
Y4805987D1*
X6491462Y4798715D1*
Y4802365D1*
X6492669Y4804779D1*
X6493877Y4805986D1*
X6497527Y4807222D1*
X6499941D1*
X6503591Y4805986D1*
X6506034Y4803572D1*
X6507241Y4799922D1*
Y4796272D1*
X6506034Y4792650D1*
X6504799Y4791443D1*
X6502384Y4790207D1*
X6929363Y4156821D2*
X6940285D1*
X6943935Y4158056D1*
X6945171Y4159263D1*
X6946378Y4161678D1*
Y4164121D1*
X6945171Y4166535D1*
X6943935Y4167771D1*
X6940285Y4168978D1*
X6929363D1*
Y4143456D1*
X6937871Y4156821D2*
X6946378Y4143456D1*
X6954221Y4164092D2*
X6956664Y4165328D1*
X6960314Y4168950D1*
Y4143456D1*
X6975457Y4168950D2*
X6971807Y4167742D1*
X6969364Y4164092D1*
X6968157Y4158028D1*
Y4154378D1*
X6969364Y4148313D1*
X6971807Y4144663D1*
X6975457Y4143456D1*
X6977872D1*
X6981522Y4144663D1*
X6983936Y4148313D1*
X6985172Y4154378D1*
Y4158028D1*
X6983936Y4164092D1*
X6981522Y4167742D1*
X6977872Y4168950D1*
X6975457D1*
X6983936Y4164092D2*
X6969364Y4148313D1*
X7005172Y4143456D2*
Y4168950D1*
X6993015Y4151963D1*
X7011237D1*
X5176917Y4377619D2*
X5187839D1*
X5191489Y4378854D1*
X5192724Y4380062D1*
X5193932Y4382476D1*
Y4384919D1*
X5192724Y4387334D1*
X5191489Y4388569D1*
X5187839Y4389776D1*
X5176917D1*
Y4364254D1*
X5185424Y4377619D2*
X5193932Y4364254D1*
X5201775Y4384891D2*
X5204217Y4386126D1*
X5207867Y4389748D1*
Y4364254D1*
X5223011Y4389748D2*
X5219361Y4388541D1*
X5216918Y4384891D1*
X5215711Y4378826D1*
Y4375176D1*
X5216918Y4369112D1*
X5219361Y4365462D1*
X5223011Y4364254D1*
X5225425D1*
X5229075Y4365462D1*
X5231490Y4369112D1*
X5232725Y4375176D1*
Y4378826D1*
X5231490Y4384891D1*
X5229075Y4388541D1*
X5225425Y4389748D1*
X5223011D1*
X5231490Y4384891D2*
X5216918Y4369112D1*
X5255140Y4389748D2*
X5243011D1*
X5241804Y4378826D1*
X5243011Y4380034D1*
X5246661Y4381269D1*
X5250283D1*
X5253933Y4380034D1*
X5256376Y4377619D1*
X5257583Y4373969D1*
Y4371554D1*
X5256376Y4367904D1*
X5253933Y4365462D1*
X5250283Y4364254D1*
X5246661D1*
X5243011Y4365462D1*
X5241804Y4366697D1*
X5240568Y4369112D1*
X6900585Y3169821D2*
X6911507D1*
X6915157Y3171056D1*
X6916392Y3172263D1*
X6917599Y3174678D1*
Y3177121D1*
X6916392Y3179535D1*
X6915157Y3180771D1*
X6911507Y3181978D1*
X6900585D1*
Y3156456D1*
X6909092Y3169821D2*
X6917599Y3156456D1*
X6925442Y3177092D2*
X6927885Y3178328D1*
X6931535Y3181950D1*
Y3156456D1*
X6946678Y3181950D2*
X6943028Y3180742D1*
X6940586Y3177092D1*
X6939378Y3171028D1*
Y3167378D1*
X6940586Y3161313D1*
X6943028Y3157663D1*
X6946678Y3156456D1*
X6949093D1*
X6952743Y3157663D1*
X6955158Y3161313D1*
X6956393Y3167378D1*
Y3171028D1*
X6955158Y3177092D1*
X6952743Y3180742D1*
X6949093Y3181950D1*
X6946678D1*
X6955158Y3177092D2*
X6940586Y3161313D1*
X6978808Y3178328D2*
X6977601Y3180742D1*
X6973951Y3181950D1*
X6971536D1*
X6967886Y3180742D1*
X6965443Y3177092D1*
X6964236Y3171028D1*
Y3164963D1*
X6965443Y3160106D1*
X6967886Y3157663D1*
X6971536Y3156456D1*
X6972743D1*
X6976365Y3157663D1*
X6978808Y3160106D1*
X6980015Y3163756D1*
Y3164963D1*
X6978808Y3168613D1*
X6976365Y3171028D1*
X6972743Y3172235D1*
X6971536D1*
X6967886Y3171028D1*
X6965443Y3168613D1*
X6964236Y3164963D1*
X7478967Y4474821D2*
X7489889D1*
X7493539Y4476056D1*
X7494774Y4477263D1*
X7495982Y4479678D1*
Y4482121D1*
X7494774Y4484535D1*
X7493539Y4485771D1*
X7489889Y4486978D1*
X7478967D1*
Y4461456D1*
X7487474Y4474821D2*
X7495982Y4461456D1*
X7503825Y4482092D2*
X7506267Y4483328D1*
X7509917Y4486950D1*
Y4461456D1*
X7525061Y4486950D2*
X7521411Y4485742D1*
X7518968Y4482092D1*
X7517761Y4476028D1*
Y4472378D1*
X7518968Y4466313D1*
X7521411Y4462663D1*
X7525061Y4461456D1*
X7527475D1*
X7531125Y4462663D1*
X7533540Y4466313D1*
X7534775Y4472378D1*
Y4476028D1*
X7533540Y4482092D1*
X7531125Y4485742D1*
X7527475Y4486950D1*
X7525061D1*
X7533540Y4482092D2*
X7518968Y4466313D1*
X7547476Y4461456D2*
X7559633Y4486950D1*
X7542618D1*
X7923774Y2384504D2*
X7934696D1*
X7938346Y2385739D1*
X7939582Y2386947D1*
X7940789Y2389361D1*
Y2391804D1*
X7939582Y2394219D1*
X7938346Y2395454D1*
X7934696Y2396661D1*
X7923774D1*
Y2371139D1*
X7932282Y2384504D2*
X7940789Y2371139D1*
X7948632Y2391776D2*
X7951075Y2393011D1*
X7954725Y2396633D1*
Y2371139D1*
X7969868Y2396633D2*
X7966218Y2395426D1*
X7963775Y2391776D1*
X7962568Y2385711D1*
Y2382061D1*
X7963775Y2375997D1*
X7966218Y2372347D1*
X7969868Y2371139D1*
X7972283D1*
X7975933Y2372347D1*
X7978347Y2375997D1*
X7979583Y2382061D1*
Y2385711D1*
X7978347Y2391776D1*
X7975933Y2395426D1*
X7972283Y2396633D1*
X7969868D1*
X7978347Y2391776D2*
X7963775Y2375997D1*
X7993490Y2396633D2*
X7989868Y2395426D1*
X7988633Y2393011D1*
Y2390569D1*
X7989868Y2388154D1*
X7992283Y2386919D1*
X7997140Y2385711D1*
X8000790Y2384504D1*
X8003205Y2382061D1*
X8004412Y2379647D1*
Y2375997D1*
X8003205Y2373582D1*
X8001998Y2372347D1*
X7998348Y2371139D1*
X7993490D1*
X7989868Y2372347D1*
X7988633Y2373582D1*
X7987426Y2375997D1*
Y2379647D1*
X7988633Y2382061D1*
X7991076Y2384504D1*
X7994698Y2385711D1*
X7999555Y2386919D1*
X8001998Y2388154D1*
X8003205Y2390569D1*
Y2393011D1*
X8001998Y2395426D1*
X7998348Y2396633D1*
X7993490D1*
X4364651Y5557517D2*
X4375573D1*
X4379223Y5558753D1*
X4380458Y5559960D1*
X4381665Y5562375D1*
Y5564817D1*
X4380458Y5567232D1*
X4379223Y5568467D1*
X4375573Y5569675D1*
X4364651D1*
Y5544153D1*
X4373158Y5557517D2*
X4381665Y5544153D1*
X4389508Y5564789D2*
X4391951Y5566025D1*
X4395601Y5569646D1*
Y5544153D1*
X4410744Y5569646D2*
X4407094Y5568439D1*
X4404652Y5564789D1*
X4403444Y5558725D1*
Y5555075D1*
X4404652Y5549010D1*
X4407094Y5545360D1*
X4410744Y5544153D1*
X4413159D1*
X4416809Y5545360D1*
X4419223Y5549010D1*
X4420459Y5555075D1*
Y5558725D1*
X4419223Y5564789D1*
X4416809Y5568439D1*
X4413159Y5569646D1*
X4410744D1*
X4419223Y5564789D2*
X4404652Y5549010D1*
X4444109Y5561167D2*
X4442874Y5557517D1*
X4440459Y5555075D1*
X4436809Y5553867D1*
X4435602D1*
X4431952Y5555075D1*
X4429537Y5557517D1*
X4428302Y5561167D1*
Y5562375D1*
X4429537Y5566025D1*
X4431952Y5568439D1*
X4435602Y5569646D1*
X4436809D1*
X4440459Y5568439D1*
X4442874Y5566025D1*
X4444109Y5561167D1*
Y5555075D1*
X4442874Y5549010D1*
X4440459Y5545360D1*
X4436809Y5544153D1*
X4434395D1*
X4430745Y5545360D1*
X4429537Y5547803D1*
X5984371Y6847926D2*
X5995293D1*
X5998943Y6849161D1*
X6000179Y6850368D1*
X6001386Y6852783D1*
Y6855226D1*
X6000179Y6857640D1*
X5998943Y6858876D1*
X5995293Y6860083D1*
X5984371D1*
Y6834561D1*
X5992879Y6847926D2*
X6001386Y6834561D1*
X6009229Y6855197D2*
X6011672Y6856433D1*
X6015322Y6860055D1*
Y6834561D1*
X6023165Y6855197D2*
X6025608Y6856433D1*
X6029258Y6860055D1*
Y6834561D1*
X6044401Y6860055D2*
X6040751Y6858847D1*
X6038308Y6855197D1*
X6037101Y6849133D1*
Y6845483D1*
X6038308Y6839418D1*
X6040751Y6835768D1*
X6044401Y6834561D1*
X6046815D1*
X6050465Y6835768D1*
X6052880Y6839418D1*
X6054115Y6845483D1*
Y6849133D1*
X6052880Y6855197D1*
X6050465Y6858847D1*
X6046815Y6860055D1*
X6044401D1*
X6052880Y6855197D2*
X6038308Y6839418D1*
X5331207Y5709975D2*
Y5720897D1*
X5329971Y5724547D1*
X5328764Y5725782D1*
X5326349Y5726989D1*
X5323907D1*
X5321492Y5725782D1*
X5320257Y5724547D1*
X5319049Y5720897D1*
Y5709975D1*
X5344571D1*
X5331207Y5718482D2*
X5344571Y5726989D1*
X5323935Y5734832D2*
X5322700Y5737275D1*
X5319078Y5740925D1*
X5344571D1*
X5323935Y5748768D2*
X5322700Y5751211D1*
X5319078Y5754861D1*
X5344571D1*
X5323935Y5762704D2*
X5322699Y5765147D1*
X5319078Y5768797D1*
X5344571D1*
X5753878Y4187119D2*
X5764800D1*
X5768450Y4188354D1*
X5769685Y4189562D1*
X5770893Y4191976D1*
Y4194419D1*
X5769685Y4196834D1*
X5768450Y4198069D1*
X5764800Y4199276D1*
X5753878D1*
Y4173754D1*
X5762385Y4187119D2*
X5770893Y4173754D1*
X5778736Y4194391D2*
X5781178Y4195626D1*
X5784828Y4199248D1*
Y4173754D1*
X5792672Y4194391D2*
X5795114Y4195626D1*
X5798764Y4199248D1*
Y4173754D1*
X5807843Y4193184D2*
Y4194391D1*
X5809050Y4196834D1*
X5810257Y4198041D1*
X5812700Y4199248D1*
X5817557D1*
X5819972Y4198041D1*
X5821179Y4196834D1*
X5822415Y4194391D1*
Y4191976D1*
X5821179Y4189534D1*
X5818765Y4185912D1*
X5806607Y4173754D1*
X5823622D1*
X8843428Y6569421D2*
X8854350D1*
X8858000Y6570656D1*
X8859235Y6571863D1*
X8860443Y6574278D1*
Y6576721D1*
X8859235Y6579135D1*
X8858000Y6580371D1*
X8854350Y6581578D1*
X8843428D1*
Y6556056D1*
X8851935Y6569421D2*
X8860443Y6556056D1*
X8868286Y6576692D2*
X8870728Y6577928D1*
X8874378Y6581550D1*
Y6556056D1*
X8882222Y6576692D2*
X8884664Y6577928D1*
X8888314Y6581550D1*
Y6556056D1*
X8898600Y6581550D2*
X8911937D1*
X8904665Y6571835D1*
X8908315D1*
X8910729Y6570628D1*
X8911937Y6569421D1*
X8913172Y6565771D1*
Y6563356D1*
X8911937Y6559706D1*
X8909522Y6557263D1*
X8905872Y6556056D1*
X8902222D1*
X8898600Y6557263D1*
X8897393Y6558499D1*
X8896157Y6560913D1*
X4948124Y3145799D2*
X4959046D1*
X4962696Y3147034D1*
X4963932Y3148242D1*
X4965139Y3150656D1*
Y3153099D1*
X4963932Y3155514D1*
X4962696Y3156749D1*
X4959046Y3157956D1*
X4948124D1*
Y3132434D1*
X4956632Y3145799D2*
X4965139Y3132434D1*
X4972982Y3153071D2*
X4975425Y3154306D1*
X4979075Y3157928D1*
Y3132434D1*
X4986918Y3153071D2*
X4989361Y3154306D1*
X4993011Y3157928D1*
Y3132434D1*
X5013011D2*
Y3157928D1*
X5000854Y3140942D1*
X5019076D1*
X6292928Y6463833D2*
Y6445611D1*
X6294135Y6441961D1*
X6296578Y6439546D1*
X6300228Y6438311D1*
X6302643D1*
X6306293Y6439546D1*
X6308735Y6441961D1*
X6309943Y6445611D1*
Y6463833D1*
X6317786Y6458947D2*
X6320229Y6460183D1*
X6323879Y6463805D1*
Y6438311D1*
X8267844Y7712423D2*
Y7694201D1*
X8269051Y7690551D1*
X8271494Y7688136D1*
X8275144Y7686901D1*
X8277558D1*
X8281208Y7688136D1*
X8283651Y7690551D1*
X8284858Y7694201D1*
Y7712423D1*
X8293937Y7706330D2*
Y7707537D1*
X8295144Y7709980D1*
X8296352Y7711187D1*
X8298794Y7712395D1*
X8303652D1*
X8306066Y7711187D1*
X8307273Y7709980D1*
X8308509Y7707537D1*
Y7705123D1*
X8307273Y7702680D1*
X8304859Y7699058D1*
X8292702Y7686901D1*
X8309716D1*
X3831781Y1593241D2*
Y1575019D1*
X3832989Y1571369D1*
X3835431Y1568955D1*
X3839081Y1567719D1*
X3841496D1*
X3845146Y1568955D1*
X3847589Y1571369D1*
X3848796Y1575019D1*
Y1593241D1*
X3856639Y1588356D2*
X3859082Y1589591D1*
X3862732Y1593213D1*
Y1567719D1*
X3877875Y1593213D2*
X3874225Y1592006D1*
X3871782Y1588356D1*
X3870575Y1582291D1*
Y1578641D1*
X3871782Y1572577D1*
X3874225Y1568927D1*
X3877875Y1567719D1*
X3880290D1*
X3883940Y1568927D1*
X3886354Y1572577D1*
X3887590Y1578641D1*
Y1582291D1*
X3886354Y1588356D1*
X3883940Y1592006D1*
X3880290Y1593213D1*
X3877875D1*
X3886354Y1588356D2*
X3871782Y1572577D1*
X3895433Y1588356D2*
X3897875Y1589591D1*
X3901525Y1593213D1*
Y1567719D1*
X7391216Y6053643D2*
X7409438D1*
X7413088Y6054850D1*
X7415503Y6057293D1*
X7416738Y6060943D1*
Y6063357D1*
X7415503Y6067007D1*
X7413088Y6069450D1*
X7409438Y6070657D1*
X7391216D1*
X7396102Y6078501D2*
X7394866Y6080943D1*
X7391244Y6084593D1*
X7416738D1*
X7391244Y6099736D2*
X7392452Y6096086D1*
X7396102Y6093644D1*
X7402166Y6092436D1*
X7405816D1*
X7411881Y6093643D1*
X7415531Y6096086D1*
X7416738Y6099736D1*
Y6102151D1*
X7415531Y6105801D1*
X7411881Y6108215D1*
X7405816Y6109451D1*
X7402166D1*
X7396102Y6108215D1*
X7392452Y6105801D1*
X7391244Y6102151D1*
Y6099736D1*
X7396102Y6108215D2*
X7411881Y6093643D1*
X7397309Y6118529D2*
X7396102D1*
X7393659Y6119737D1*
X7392452Y6120944D1*
X7391244Y6123387D1*
Y6128244D1*
X7392452Y6130659D1*
X7393659Y6131866D1*
X7396102Y6133101D1*
X7398516D1*
X7400959Y6131866D1*
X7404581Y6129451D1*
X7416738Y6117294D1*
Y6134309D1*
X6480303Y3783566D2*
X6498525D1*
X6502175Y3784774D1*
X6504589Y3787216D1*
X6505825Y3790866D1*
Y3793281D1*
X6504589Y3796931D1*
X6502175Y3799373D1*
X6498525Y3800581D1*
X6480303D1*
X6485188Y3808424D2*
X6483953Y3810867D1*
X6480331Y3814517D1*
X6505825Y3814516D1*
X6480331Y3829660D2*
X6481538Y3826010D1*
X6485188Y3823567D1*
X6491253Y3822360D1*
X6494903D1*
X6500967Y3823567D1*
X6504617Y3826010D1*
X6505825Y3829660D1*
Y3832074D1*
X6504617Y3835724D1*
X6500967Y3838139D1*
X6494903Y3839374D1*
X6491253D1*
X6485188Y3838139D1*
X6481538Y3835724D1*
X6480331Y3832074D1*
Y3829660D1*
X6485188Y3838139D2*
X6500967Y3823567D1*
X6480331Y3849660D2*
Y3862997D1*
X6490045Y3855725D1*
Y3859375D1*
X6491253Y3861789D1*
X6492460Y3862996D1*
X6496110Y3864232D1*
X6498525D1*
X6502175Y3862996D1*
X6504617Y3860582D1*
X6505825Y3856932D1*
Y3853282D1*
X6504617Y3849660D1*
X6503382Y3848453D1*
X6500967Y3847217D1*
X7376853Y4033525D2*
Y4015303D1*
X7378061Y4011653D1*
X7380503Y4009239D1*
X7384153Y4008003D1*
X7386568D1*
X7390218Y4009239D1*
X7392661Y4011653D1*
X7393868Y4015303D1*
Y4033525D1*
X7401711Y4028640D2*
X7404154Y4029875D1*
X7407804Y4033497D1*
Y4008003D1*
X7422947Y4033497D2*
X7419297Y4032290D1*
X7416854Y4028640D1*
X7415647Y4022575D1*
Y4018925D1*
X7416854Y4012861D1*
X7419297Y4009211D1*
X7422947Y4008003D1*
X7425362D1*
X7429012Y4009211D1*
X7431426Y4012861D1*
X7432662Y4018925D1*
Y4022575D1*
X7431426Y4028640D1*
X7429012Y4032290D1*
X7425362Y4033497D1*
X7422947D1*
X7431426Y4028640D2*
X7416854Y4012861D1*
X7452662Y4008003D2*
Y4033497D1*
X7440505Y4016511D1*
X7458727D1*
X4836754Y4090301D2*
Y4072079D1*
X4837961Y4068429D1*
X4840404Y4066015D1*
X4844054Y4064779D1*
X4846468D1*
X4850118Y4066015D1*
X4852561Y4068429D1*
X4853768Y4072079D1*
Y4090301D1*
X4861611Y4085416D2*
X4864054Y4086651D1*
X4867704Y4090273D1*
Y4064779D1*
X4882847Y4090273D2*
X4879197Y4089066D1*
X4876755Y4085416D1*
X4875547Y4079351D1*
Y4075701D1*
X4876755Y4069637D1*
X4879197Y4065987D1*
X4882847Y4064779D1*
X4885262D1*
X4888912Y4065987D1*
X4891327Y4069637D1*
X4892562Y4075701D1*
Y4079351D1*
X4891327Y4085416D1*
X4888912Y4089066D1*
X4885262Y4090273D1*
X4882847D1*
X4891327Y4085416D2*
X4876755Y4069637D1*
X4914977Y4090273D2*
X4902848D1*
X4901640Y4079351D1*
X4902848Y4080559D1*
X4906498Y4081794D1*
X4910120D1*
X4913770Y4080559D1*
X4916212Y4078144D1*
X4917420Y4074494D1*
Y4072079D1*
X4916212Y4068429D1*
X4913770Y4065987D1*
X4910120Y4064779D1*
X4906498D1*
X4902848Y4065987D1*
X4901640Y4067222D1*
X4900405Y4069637D1*
X7410231Y2947875D2*
Y2929653D1*
X7411439Y2926003D1*
X7413881Y2923589D1*
X7417531Y2922353D1*
X7419946D1*
X7423596Y2923589D1*
X7426039Y2926003D1*
X7427246Y2929653D1*
Y2947875D1*
X7435089Y2942990D2*
X7437532Y2944225D1*
X7441182Y2947847D1*
Y2922353D1*
X7456325Y2947847D2*
X7452675Y2946640D1*
X7450232Y2942990D1*
X7449025Y2936925D1*
Y2933275D1*
X7450232Y2927211D1*
X7452675Y2923561D1*
X7456325Y2922353D1*
X7458740D1*
X7462390Y2923561D1*
X7464804Y2927211D1*
X7466040Y2933275D1*
Y2936925D1*
X7464804Y2942990D1*
X7462390Y2946640D1*
X7458740Y2947847D1*
X7456325D1*
X7464804Y2942990D2*
X7450232Y2927211D1*
X7488455Y2944225D2*
X7487247Y2946640D1*
X7483597Y2947847D1*
X7481183D1*
X7477533Y2946640D1*
X7475090Y2942990D1*
X7473883Y2936925D1*
Y2930861D1*
X7475090Y2926003D1*
X7477533Y2923561D1*
X7481183Y2922353D1*
X7482390D1*
X7486012Y2923561D1*
X7488455Y2926003D1*
X7489662Y2929653D1*
Y2930861D1*
X7488455Y2934511D1*
X7486012Y2936925D1*
X7482390Y2938133D1*
X7481183D1*
X7477533Y2936925D1*
X7475090Y2934511D1*
X7473883Y2930861D1*
X7874530Y4313519D2*
Y4295297D1*
X7875738Y4291647D1*
X7878180Y4289232D1*
X7881830Y4287997D1*
X7884245D1*
X7887895Y4289232D1*
X7890338Y4291647D1*
X7891545Y4295297D1*
Y4313519D1*
X7899388Y4308633D2*
X7901831Y4309869D1*
X7905481Y4313491D1*
Y4287997D1*
X7920624Y4313491D2*
X7916974Y4312283D1*
X7914531Y4308633D1*
X7913324Y4302569D1*
Y4298919D1*
X7914531Y4292854D1*
X7916974Y4289204D1*
X7920624Y4287997D1*
X7923039D1*
X7926689Y4289204D1*
X7929103Y4292854D1*
X7930339Y4298919D1*
Y4302569D1*
X7929103Y4308633D1*
X7926689Y4312283D1*
X7923039Y4313491D1*
X7920624D1*
X7929103Y4308633D2*
X7914531Y4292854D1*
X7943039Y4287997D2*
X7955196Y4313491D1*
X7938182D1*
X8352201Y1995965D2*
Y1977743D1*
X8353408Y1974093D1*
X8355851Y1971678D1*
X8359501Y1970443D1*
X8361916D1*
X8365566Y1971678D1*
X8368008Y1974093D1*
X8369216Y1977743D1*
Y1995965D1*
X8377059Y1991079D2*
X8379502Y1992315D1*
X8383152Y1995936D1*
Y1970443D1*
X8398295Y1995936D2*
X8394645Y1994729D1*
X8392202Y1991079D1*
X8390995Y1985015D1*
Y1981365D1*
X8392202Y1975300D1*
X8394645Y1971650D1*
X8398295Y1970443D1*
X8400709D1*
X8404359Y1971650D1*
X8406774Y1975300D1*
X8408009Y1981365D1*
Y1985015D1*
X8406774Y1991079D1*
X8404359Y1994729D1*
X8400709Y1995936D1*
X8398295D1*
X8406774Y1991079D2*
X8392202Y1975300D1*
X8421917Y1995936D2*
X8418295Y1994729D1*
X8417060Y1992315D1*
Y1989872D1*
X8418295Y1987457D1*
X8420710Y1986222D1*
X8425567Y1985015D1*
X8429217Y1983807D1*
X8431632Y1981365D1*
X8432839Y1978950D1*
Y1975300D1*
X8431632Y1972885D1*
X8430424Y1971650D1*
X8426774Y1970443D1*
X8421917D1*
X8418295Y1971650D1*
X8417060Y1972885D1*
X8415852Y1975300D1*
Y1978950D1*
X8417060Y1981365D1*
X8419502Y1983807D1*
X8423124Y1985015D1*
X8427982Y1986222D1*
X8430424Y1987457D1*
X8431632Y1989872D1*
Y1992315D1*
X8430424Y1994729D1*
X8426774Y1995936D1*
X8421917D1*
X4150557Y6000602D2*
Y5982380D1*
X4151765Y5978730D1*
X4154207Y5976315D1*
X4157857Y5975080D1*
X4160272D1*
X4163922Y5976315D1*
X4166365Y5978730D1*
X4167572Y5982380D1*
Y6000602D1*
X4175415Y5995717D2*
X4177858Y5996952D1*
X4181508Y6000574D1*
Y5975080D1*
X4196651Y6000574D2*
X4193001Y5999367D1*
X4190558Y5995717D1*
X4189351Y5989652D1*
Y5986002D1*
X4190558Y5979937D1*
X4193001Y5976287D1*
X4196651Y5975080D1*
X4199066D1*
X4202716Y5976287D1*
X4205130Y5979937D1*
X4206366Y5986002D1*
Y5989652D1*
X4205130Y5995717D1*
X4202716Y5999367D1*
X4199066Y6000574D1*
X4196651D1*
X4205130Y5995717D2*
X4190558Y5979937D1*
X4230016Y5992095D2*
X4228781Y5988445D1*
X4226366Y5986002D1*
X4222716Y5984795D1*
X4221509D1*
X4217859Y5986002D1*
X4215444Y5988445D1*
X4214209Y5992095D1*
Y5993302D1*
X4215444Y5996952D1*
X4217859Y5999367D1*
X4221509Y6000574D1*
X4222716D1*
X4226366Y5999367D1*
X4228781Y5996952D1*
X4230016Y5992095D1*
Y5986002D1*
X4228781Y5979937D1*
X4226366Y5976287D1*
X4222716Y5975080D1*
X4220301D1*
X4216651Y5976287D1*
X4215444Y5978730D1*
X7312001Y7760470D2*
Y7742248D1*
X7313209Y7738598D1*
X7315651Y7736183D1*
X7319301Y7734948D1*
X7321716D1*
X7325366Y7736183D1*
X7327809Y7738598D1*
X7329016Y7742248D1*
Y7760470D1*
X7336859Y7755584D2*
X7339302Y7756820D1*
X7342952Y7760441D1*
Y7734948D1*
X7350795Y7755584D2*
X7353238Y7756820D1*
X7356888Y7760441D1*
Y7734948D1*
X7372031Y7760441D2*
X7368381Y7759234D1*
X7365938Y7755584D1*
X7364731Y7749520D1*
Y7745870D1*
X7365938Y7739805D1*
X7368381Y7736155D1*
X7372031Y7734948D1*
X7374445D1*
X7378095Y7736155D1*
X7380510Y7739805D1*
X7381745Y7745870D1*
Y7749520D1*
X7380510Y7755584D1*
X7378095Y7759234D1*
X7374445Y7760441D1*
X7372031D1*
X7380510Y7755584D2*
X7365938Y7739805D1*
X5315049Y6112848D2*
X5333271D1*
X5336921Y6114055D1*
X5339336Y6116498D1*
X5340571Y6120148D1*
Y6122563D1*
X5339336Y6126213D1*
X5336921Y6128655D1*
X5333271Y6129863D1*
X5315049D1*
X5319935Y6137706D2*
X5318700Y6140148D1*
X5315078Y6143798D1*
X5340571D1*
X5319935Y6151642D2*
X5318700Y6154084D1*
X5315078Y6157734D1*
X5340571D1*
X5319935Y6165577D2*
X5318699Y6168020D1*
X5315078Y6171670D1*
X5340571D1*
X5374395Y3886671D2*
Y3868449D1*
X5375602Y3864799D1*
X5378045Y3862385D1*
X5381695Y3861149D1*
X5384109D1*
X5387759Y3862385D1*
X5390202Y3864799D1*
X5391409Y3868449D1*
Y3886671D1*
X5399252Y3881786D2*
X5401695Y3883021D1*
X5405345Y3886643D1*
Y3861149D1*
X5413188Y3881786D2*
X5415631Y3883021D1*
X5419281Y3886643D1*
Y3861149D1*
X5428359Y3880579D2*
Y3881786D1*
X5429567Y3884229D1*
X5430774Y3885436D1*
X5433217Y3886643D1*
X5438074D1*
X5440489Y3885436D1*
X5441696Y3884229D1*
X5442931Y3881786D1*
Y3879371D1*
X5441696Y3876929D1*
X5439281Y3873307D1*
X5427124Y3861149D1*
X5444139D1*
X9277841Y6762602D2*
Y6744380D1*
X9279049Y6740730D1*
X9281491Y6738315D1*
X9285141Y6737080D1*
X9287556D1*
X9291206Y6738315D1*
X9293649Y6740730D1*
X9294856Y6744380D1*
Y6762602D1*
X9302699Y6757717D2*
X9305142Y6758952D1*
X9308792Y6762574D1*
Y6737080D1*
X9316635Y6757717D2*
X9319078Y6758952D1*
X9322728Y6762574D1*
Y6737080D1*
X9333013Y6762574D2*
X9346350D1*
X9339078Y6752859D1*
X9342728D1*
X9345143Y6751652D1*
X9346350Y6750445D1*
X9347585Y6746795D1*
Y6744380D1*
X9346350Y6740730D1*
X9343935Y6738287D1*
X9340285Y6737080D1*
X9336635D1*
X9333013Y6738287D1*
X9331806Y6739523D1*
X9330571Y6741937D1*
X4649731Y2749515D2*
Y2731293D1*
X4650938Y2727643D1*
X4653381Y2725228D1*
X4657031Y2723993D1*
X4659446D1*
X4663096Y2725228D1*
X4665538Y2727643D1*
X4666746Y2731293D1*
Y2749515D1*
X4674589Y2744629D2*
X4677031Y2745865D1*
X4680681Y2749486D1*
Y2723993D1*
X4688525Y2744629D2*
X4690967Y2745865D1*
X4694617Y2749486D1*
Y2723993D1*
X4714618D2*
Y2749486D1*
X4702460Y2732500D1*
X4720682D1*
M02*
