%TF.GenerationSoftware,Novarm,DipTrace,3.0.0.2*%
%TF.CreationDate,2017-12-11T17:20:40+01:00*%
%FSLAX35Y35*%
%MOMM*%
%TF.FileFunction,Legend,Top*%
%TF.Part,Single*%
%ADD10C,0.25*%
%ADD37O,0.401X0.399*%
%ADD40O,0.39103X0.39118*%
%ADD77C,0.03922*%
G75*
G01*
%LPD*%
X7791683Y6850966D2*
D10*
Y6930966D1*
X6008303Y6226636D2*
X6608503D1*
Y5626636D1*
X6008303D1*
Y6226636D1*
G36*
D2*
Y6146636D1*
X6088403Y6226636D1*
X6008303D1*
G37*
D37*
X5888353Y6271686D3*
D40*
X8462618Y7361865D3*
X8325292Y7375231D2*
D10*
Y7675226D1*
X8245306Y7375231D2*
Y7675226D1*
X8325292D2*
X8245306D1*
X8325292Y7375231D2*
X8245306D1*
X4973725Y9120486D2*
D77*
Y9094964D1*
X4984675D1*
X4988325Y9096200D1*
X4989532Y9097407D1*
X4990739Y9099822D1*
Y9103472D1*
X4989532Y9105914D1*
X4988325Y9107122D1*
X4984675Y9108329D1*
X4988325Y9109564D1*
X4989532Y9110772D1*
X4990739Y9113186D1*
Y9115629D1*
X4989532Y9118044D1*
X4988325Y9119279D1*
X4984675Y9120486D1*
X4973725D1*
Y9108329D2*
X4984675D1*
X4998583Y9115601D2*
X5001025Y9116836D1*
X5004675Y9120458D1*
Y9094964D1*
X5381971Y5588445D2*
Y5562923D1*
X5392921D1*
X5396571Y5564158D1*
X5397779Y5565365D1*
X5398986Y5567780D1*
Y5571430D1*
X5397779Y5573873D1*
X5396571Y5575080D1*
X5392921Y5576287D1*
X5396571Y5577523D1*
X5397779Y5578730D1*
X5398986Y5581145D1*
Y5583587D1*
X5397779Y5586002D1*
X5396571Y5587237D1*
X5392921Y5588445D1*
X5381971D1*
Y5576287D2*
X5392921D1*
X5406829Y5583559D2*
X5409272Y5584795D1*
X5412922Y5588416D1*
Y5562923D1*
X5428065Y5588416D2*
X5424415Y5587209D1*
X5421972Y5583559D1*
X5420765Y5577495D1*
Y5573845D1*
X5421972Y5567780D1*
X5424415Y5564130D1*
X5428065Y5562923D1*
X5430480D1*
X5434130Y5564130D1*
X5436544Y5567780D1*
X5437780Y5573845D1*
Y5577495D1*
X5436544Y5583559D1*
X5434130Y5587209D1*
X5430480Y5588416D1*
X5428065D1*
X5436544Y5583559D2*
X5421972Y5567780D1*
X5445623Y5583559D2*
X5448065Y5584795D1*
X5451715Y5588416D1*
Y5562923D1*
X2595667Y5216220D2*
Y5190698D1*
X2606617D1*
X2610267Y5191933D1*
X2611474Y5193140D1*
X2612682Y5195555D1*
Y5199205D1*
X2611474Y5201648D1*
X2610267Y5202855D1*
X2606617Y5204062D1*
X2610267Y5205298D1*
X2611474Y5206505D1*
X2612682Y5208920D1*
Y5211362D1*
X2611474Y5213777D1*
X2610267Y5215012D1*
X2606617Y5216220D1*
X2595667D1*
Y5204062D2*
X2606617D1*
X2620525Y5211334D2*
X2622967Y5212570D1*
X2626617Y5216191D1*
Y5190698D1*
X2641761Y5216191D2*
X2638111Y5214984D1*
X2635668Y5211334D1*
X2634461Y5205270D1*
Y5201620D1*
X2635668Y5195555D1*
X2638111Y5191905D1*
X2641761Y5190698D1*
X2644175D1*
X2647825Y5191905D1*
X2650240Y5195555D1*
X2651475Y5201620D1*
Y5205270D1*
X2650240Y5211334D1*
X2647825Y5214984D1*
X2644175Y5216191D1*
X2641761D1*
X2650240Y5211334D2*
X2635668Y5195555D1*
X2660554Y5210127D2*
Y5211334D1*
X2661761Y5213777D1*
X2662968Y5214984D1*
X2665411Y5216191D1*
X2670268D1*
X2672683Y5214984D1*
X2673890Y5213777D1*
X2675126Y5211334D1*
Y5208920D1*
X2673890Y5206477D1*
X2671476Y5202855D1*
X2659318Y5190698D1*
X2676333D1*
X9683167Y5292220D2*
Y5266698D1*
X9694117D1*
X9697767Y5267933D1*
X9698974Y5269140D1*
X9700182Y5271555D1*
Y5275205D1*
X9698974Y5277648D1*
X9697767Y5278855D1*
X9694117Y5280062D1*
X9697767Y5281298D1*
X9698974Y5282505D1*
X9700182Y5284920D1*
Y5287362D1*
X9698974Y5289777D1*
X9697767Y5291012D1*
X9694117Y5292220D1*
X9683167D1*
Y5280062D2*
X9694117D1*
X9708025Y5287334D2*
X9710467Y5288570D1*
X9714117Y5292191D1*
Y5266698D1*
X9729261Y5292191D2*
X9725611Y5290984D1*
X9723168Y5287334D1*
X9721961Y5281270D1*
Y5277620D1*
X9723168Y5271555D1*
X9725611Y5267905D1*
X9729261Y5266698D1*
X9731675D1*
X9735325Y5267905D1*
X9737740Y5271555D1*
X9738975Y5277620D1*
Y5281270D1*
X9737740Y5287334D1*
X9735325Y5290984D1*
X9731675Y5292191D1*
X9729261D1*
X9737740Y5287334D2*
X9723168Y5271555D1*
X9749261Y5292191D2*
X9762598D1*
X9755326Y5282477D1*
X9758976D1*
X9761390Y5281270D1*
X9762598Y5280062D1*
X9763833Y5276412D1*
Y5273998D1*
X9762598Y5270348D1*
X9760183Y5267905D1*
X9756533Y5266698D1*
X9752883D1*
X9749261Y5267905D1*
X9748054Y5269140D1*
X9746818Y5271555D1*
X9680707Y3002970D2*
Y2977448D1*
X9691657D1*
X9695307Y2978683D1*
X9696514Y2979890D1*
X9697721Y2982305D1*
Y2985955D1*
X9696514Y2988398D1*
X9695307Y2989605D1*
X9691657Y2990812D1*
X9695307Y2992048D1*
X9696514Y2993255D1*
X9697721Y2995670D1*
Y2998112D1*
X9696514Y3000527D1*
X9695307Y3001762D1*
X9691657Y3002970D1*
X9680707D1*
Y2990812D2*
X9691657D1*
X9705564Y2998084D2*
X9708007Y2999320D1*
X9711657Y3002941D1*
Y2977448D1*
X9726800Y3002941D2*
X9723150Y3001734D1*
X9720708Y2998084D1*
X9719500Y2992020D1*
Y2988370D1*
X9720708Y2982305D1*
X9723150Y2978655D1*
X9726800Y2977448D1*
X9729215D1*
X9732865Y2978655D1*
X9735280Y2982305D1*
X9736515Y2988370D1*
Y2992020D1*
X9735280Y2998084D1*
X9732865Y3001734D1*
X9729215Y3002941D1*
X9726800D1*
X9735280Y2998084D2*
X9720708Y2982305D1*
X9756515Y2977448D2*
Y3002941D1*
X9744358Y2985955D1*
X9762580D1*
X1525667Y4225506D2*
Y4199984D1*
X1536617D1*
X1540267Y4201220D1*
X1541474Y4202427D1*
X1542682Y4204842D1*
Y4208492D1*
X1541474Y4210934D1*
X1540267Y4212142D1*
X1536617Y4213349D1*
X1540267Y4214584D1*
X1541474Y4215792D1*
X1542682Y4218206D1*
Y4220649D1*
X1541474Y4223064D1*
X1540267Y4224299D1*
X1536617Y4225506D1*
X1525667D1*
Y4213349D2*
X1536617D1*
X1550525Y4220621D2*
X1552967Y4221856D1*
X1556617Y4225478D1*
Y4199984D1*
X1571761Y4225478D2*
X1568111Y4224271D1*
X1565668Y4220621D1*
X1564461Y4214556D1*
Y4210906D1*
X1565668Y4204842D1*
X1568111Y4201192D1*
X1571761Y4199984D1*
X1574175D1*
X1577825Y4201192D1*
X1580240Y4204842D1*
X1581475Y4210906D1*
Y4214556D1*
X1580240Y4220621D1*
X1577825Y4224271D1*
X1574175Y4225478D1*
X1571761D1*
X1580240Y4220621D2*
X1565668Y4204842D1*
X1603890Y4225478D2*
X1591761D1*
X1590554Y4214556D1*
X1591761Y4215764D1*
X1595411Y4216999D1*
X1599033D1*
X1602683Y4215764D1*
X1605126Y4213349D1*
X1606333Y4209699D1*
Y4207284D1*
X1605126Y4203634D1*
X1602683Y4201192D1*
X1599033Y4199984D1*
X1595411D1*
X1591761Y4201192D1*
X1590554Y4202427D1*
X1589318Y4204842D1*
X3688641Y4120470D2*
Y4094948D1*
X3699591D1*
X3703241Y4096183D1*
X3704449Y4097390D1*
X3705656Y4099805D1*
Y4103455D1*
X3704449Y4105898D1*
X3703241Y4107105D1*
X3699591Y4108312D1*
X3703241Y4109548D1*
X3704449Y4110755D1*
X3705656Y4113170D1*
Y4115612D1*
X3704449Y4118027D1*
X3703241Y4119262D1*
X3699591Y4120470D1*
X3688641D1*
Y4108312D2*
X3699591D1*
X3713499Y4115584D2*
X3715942Y4116820D1*
X3719592Y4120441D1*
Y4094948D1*
X3734735Y4120441D2*
X3731085Y4119234D1*
X3728642Y4115584D1*
X3727435Y4109520D1*
Y4105870D1*
X3728642Y4099805D1*
X3731085Y4096155D1*
X3734735Y4094948D1*
X3737150D1*
X3740800Y4096155D1*
X3743214Y4099805D1*
X3744450Y4105870D1*
Y4109520D1*
X3743214Y4115584D1*
X3740800Y4119234D1*
X3737150Y4120441D1*
X3734735D1*
X3743214Y4115584D2*
X3728642Y4099805D1*
X3766865Y4116820D2*
X3765657Y4119234D1*
X3762007Y4120441D1*
X3759593D1*
X3755943Y4119234D1*
X3753500Y4115584D1*
X3752293Y4109520D1*
Y4103455D1*
X3753500Y4098598D1*
X3755943Y4096155D1*
X3759593Y4094948D1*
X3760800D1*
X3764422Y4096155D1*
X3766865Y4098598D1*
X3768072Y4102248D1*
Y4103455D1*
X3766865Y4107105D1*
X3764422Y4109520D1*
X3760800Y4110727D1*
X3759593D1*
X3755943Y4109520D1*
X3753500Y4107105D1*
X3752293Y4103455D1*
X8607810Y4102970D2*
Y4077448D1*
X8618760D1*
X8622410Y4078683D1*
X8623618Y4079890D1*
X8624825Y4082305D1*
Y4085955D1*
X8623618Y4088398D1*
X8622410Y4089605D1*
X8618760Y4090812D1*
X8622410Y4092048D1*
X8623618Y4093255D1*
X8624825Y4095670D1*
Y4098112D1*
X8623618Y4100527D1*
X8622410Y4101762D1*
X8618760Y4102970D1*
X8607810D1*
Y4090812D2*
X8618760D1*
X8632668Y4098084D2*
X8635111Y4099320D1*
X8638761Y4102941D1*
Y4077448D1*
X8653904Y4102941D2*
X8650254Y4101734D1*
X8647811Y4098084D1*
X8646604Y4092020D1*
Y4088370D1*
X8647811Y4082305D1*
X8650254Y4078655D1*
X8653904Y4077448D1*
X8656319D1*
X8659969Y4078655D1*
X8662383Y4082305D1*
X8663619Y4088370D1*
Y4092020D1*
X8662383Y4098084D1*
X8659969Y4101734D1*
X8656319Y4102941D1*
X8653904D1*
X8662383Y4098084D2*
X8647811Y4082305D1*
X8676319Y4077448D2*
X8688476Y4102941D1*
X8671462D1*
X10725681Y4180506D2*
Y4154984D1*
X10736631D1*
X10740281Y4156220D1*
X10741488Y4157427D1*
X10742696Y4159842D1*
Y4163492D1*
X10741488Y4165934D1*
X10740281Y4167142D1*
X10736631Y4168349D1*
X10740281Y4169584D1*
X10741488Y4170792D1*
X10742696Y4173206D1*
Y4175649D1*
X10741488Y4178064D1*
X10740281Y4179299D1*
X10736631Y4180506D1*
X10725681D1*
Y4168349D2*
X10736631D1*
X10750539Y4175621D2*
X10752982Y4176856D1*
X10756632Y4180478D1*
Y4154984D1*
X10771775Y4180478D2*
X10768125Y4179271D1*
X10765682Y4175621D1*
X10764475Y4169556D1*
Y4165906D1*
X10765682Y4159842D1*
X10768125Y4156192D1*
X10771775Y4154984D1*
X10774189D1*
X10777839Y4156192D1*
X10780254Y4159842D1*
X10781489Y4165906D1*
Y4169556D1*
X10780254Y4175621D1*
X10777839Y4179271D1*
X10774189Y4180478D1*
X10771775D1*
X10780254Y4175621D2*
X10765682Y4159842D1*
X10795397Y4180478D2*
X10791775Y4179271D1*
X10790540Y4176856D1*
Y4174414D1*
X10791775Y4171999D1*
X10794190Y4170764D1*
X10799047Y4169556D1*
X10802697Y4168349D1*
X10805112Y4165906D1*
X10806319Y4163492D1*
Y4159842D1*
X10805112Y4157427D1*
X10803904Y4156192D1*
X10800254Y4154984D1*
X10795397D1*
X10791775Y4156192D1*
X10790540Y4157427D1*
X10789332Y4159842D1*
Y4163492D1*
X10790540Y4165906D1*
X10792982Y4168349D1*
X10796604Y4169556D1*
X10801462Y4170764D1*
X10803904Y4171999D1*
X10805112Y4174414D1*
Y4176856D1*
X10803904Y4179271D1*
X10800254Y4180478D1*
X10795397D1*
X2605627Y3032970D2*
Y3007448D1*
X2616577D1*
X2620227Y3008683D1*
X2621435Y3009890D1*
X2622642Y3012305D1*
Y3015955D1*
X2621435Y3018398D1*
X2620227Y3019605D1*
X2616577Y3020812D1*
X2620227Y3022048D1*
X2621435Y3023255D1*
X2622642Y3025670D1*
Y3028112D1*
X2621435Y3030527D1*
X2620227Y3031762D1*
X2616577Y3032970D1*
X2605627D1*
Y3020812D2*
X2616577D1*
X2630485Y3028084D2*
X2632928Y3029320D1*
X2636578Y3032941D1*
Y3007448D1*
X2651721Y3032941D2*
X2648071Y3031734D1*
X2645628Y3028084D1*
X2644421Y3022020D1*
Y3018370D1*
X2645628Y3012305D1*
X2648071Y3008655D1*
X2651721Y3007448D1*
X2654136D1*
X2657786Y3008655D1*
X2660200Y3012305D1*
X2661436Y3018370D1*
Y3022020D1*
X2660200Y3028084D1*
X2657786Y3031734D1*
X2654136Y3032941D1*
X2651721D1*
X2660200Y3028084D2*
X2645628Y3012305D1*
X2685086Y3024462D2*
X2683851Y3020812D1*
X2681436Y3018370D1*
X2677786Y3017162D1*
X2676579D1*
X2672929Y3018370D1*
X2670514Y3020812D1*
X2669279Y3024462D1*
Y3025670D1*
X2670514Y3029320D1*
X2672929Y3031734D1*
X2676579Y3032941D1*
X2677786D1*
X2681436Y3031734D1*
X2683851Y3029320D1*
X2685086Y3024462D1*
Y3018370D1*
X2683851Y3012305D1*
X2681436Y3008655D1*
X2677786Y3007448D1*
X2675371D1*
X2671721Y3008655D1*
X2670514Y3011098D1*
X6526643Y6856905D2*
X6525436Y6859320D1*
X6522993Y6861762D1*
X6520578Y6862970D1*
X6515721D1*
X6513278Y6861762D1*
X6510864Y6859320D1*
X6509628Y6856905D1*
X6508421Y6853255D1*
Y6847162D1*
X6509628Y6843540D1*
X6510864Y6841098D1*
X6513278Y6838683D1*
X6515721Y6837448D1*
X6520578D1*
X6522993Y6838683D1*
X6525436Y6841098D1*
X6526643Y6843540D1*
X6534486Y6858084D2*
X6536929Y6859320D1*
X6540579Y6862941D1*
Y6837448D1*
X5886182Y6853955D2*
X5884975Y6856370D1*
X5882532Y6858812D1*
X5880117Y6860020D1*
X5875260D1*
X5872817Y6858812D1*
X5870403Y6856370D1*
X5869167Y6853955D1*
X5867960Y6850305D1*
Y6844212D1*
X5869167Y6840590D1*
X5870403Y6838148D1*
X5872817Y6835733D1*
X5875260Y6834498D1*
X5880117D1*
X5882532Y6835733D1*
X5884975Y6838148D1*
X5886182Y6840590D1*
X5895261Y6853927D2*
Y6855134D1*
X5896468Y6857577D1*
X5897675Y6858784D1*
X5900118Y6859991D1*
X5904975D1*
X5907390Y6858784D1*
X5908597Y6857577D1*
X5909833Y6855134D1*
Y6852720D1*
X5908597Y6850277D1*
X5906183Y6846655D1*
X5894025Y6834498D1*
X5911040D1*
X5759182Y6853955D2*
X5757975Y6856370D1*
X5755532Y6858812D1*
X5753117Y6860020D1*
X5748260D1*
X5745817Y6858812D1*
X5743403Y6856370D1*
X5742167Y6853955D1*
X5740960Y6850305D1*
Y6844212D1*
X5742167Y6840590D1*
X5743403Y6838148D1*
X5745817Y6835733D1*
X5748260Y6834498D1*
X5753117D1*
X5755532Y6835733D1*
X5757975Y6838148D1*
X5759182Y6840590D1*
X5769468Y6859991D2*
X5782804D1*
X5775533Y6850277D1*
X5779183D1*
X5781597Y6849070D1*
X5782804Y6847862D1*
X5784040Y6844212D1*
Y6841798D1*
X5782804Y6838148D1*
X5780390Y6835705D1*
X5776740Y6834498D1*
X5773090D1*
X5769468Y6835705D1*
X5768261Y6836940D1*
X5767025Y6839355D1*
X6560935Y5362182D2*
X6559728Y5364596D1*
X6557285Y5367039D1*
X6554870Y5368246D1*
X6550013D1*
X6547570Y5367039D1*
X6545156Y5364596D1*
X6543920Y5362182D1*
X6542713Y5358532D1*
Y5352439D1*
X6543920Y5348817D1*
X6545156Y5346374D1*
X6547570Y5343960D1*
X6550013Y5342724D1*
X6554870D1*
X6557285Y5343960D1*
X6559728Y5346374D1*
X6560935Y5348817D1*
X6580936Y5342724D2*
Y5368218D1*
X6568778Y5351232D1*
X6587000D1*
X6648182Y6857705D2*
X6646975Y6860120D1*
X6644532Y6862562D1*
X6642117Y6863770D1*
X6637260D1*
X6634817Y6862562D1*
X6632403Y6860120D1*
X6631167Y6857705D1*
X6629960Y6854055D1*
Y6847962D1*
X6631167Y6844340D1*
X6632403Y6841898D1*
X6634817Y6839483D1*
X6637260Y6838248D1*
X6642117D1*
X6644532Y6839483D1*
X6646975Y6841898D1*
X6648182Y6844340D1*
X6670597Y6863741D2*
X6658468D1*
X6657261Y6852820D1*
X6658468Y6854027D1*
X6662118Y6855262D1*
X6665740D1*
X6669390Y6854027D1*
X6671833Y6851612D1*
X6673040Y6847962D1*
Y6845548D1*
X6671833Y6841898D1*
X6669390Y6839455D1*
X6665740Y6838248D1*
X6662118D1*
X6658468Y6839455D1*
X6657261Y6840690D1*
X6656025Y6843105D1*
X6784023Y6392878D2*
X6782816Y6395293D1*
X6780373Y6397736D1*
X6777958Y6398943D1*
X6773101D1*
X6770658Y6397736D1*
X6768244Y6395293D1*
X6767008Y6392878D1*
X6765801Y6389228D1*
Y6383136D1*
X6767008Y6379514D1*
X6768244Y6377071D1*
X6770658Y6374656D1*
X6773101Y6373421D1*
X6777958D1*
X6780373Y6374656D1*
X6782816Y6377071D1*
X6784023Y6379514D1*
X6806438Y6395293D2*
X6805231Y6397707D1*
X6801581Y6398915D1*
X6799166D1*
X6795516Y6397707D1*
X6793074Y6394057D1*
X6791866Y6387993D1*
Y6381928D1*
X6793074Y6377071D1*
X6795516Y6374628D1*
X6799166Y6373421D1*
X6800374D1*
X6803995Y6374628D1*
X6806438Y6377071D1*
X6807645Y6380721D1*
Y6381928D1*
X6806438Y6385578D1*
X6803995Y6387993D1*
X6800374Y6389200D1*
X6799166D1*
X6795516Y6387993D1*
X6793074Y6385578D1*
X6791866Y6381928D1*
X5632182Y6281655D2*
X5630975Y6284070D1*
X5628532Y6286512D1*
X5626117Y6287720D1*
X5621260D1*
X5618817Y6286512D1*
X5616403Y6284070D1*
X5615167Y6281655D1*
X5613960Y6278005D1*
Y6271912D1*
X5615167Y6268290D1*
X5616403Y6265848D1*
X5618817Y6263433D1*
X5621260Y6262198D1*
X5626117D1*
X5628532Y6263433D1*
X5630975Y6265848D1*
X5632182Y6268290D1*
X5644883Y6262198D2*
X5657040Y6287691D1*
X5640025D1*
X5632196Y5964155D2*
X5630989Y5966570D1*
X5628546Y5969012D1*
X5626132Y5970220D1*
X5621274D1*
X5618832Y5969012D1*
X5616417Y5966570D1*
X5615182Y5964155D1*
X5613974Y5960505D1*
Y5954412D1*
X5615182Y5950790D1*
X5616417Y5948348D1*
X5618832Y5945933D1*
X5621274Y5944698D1*
X5626132D1*
X5628546Y5945933D1*
X5630989Y5948348D1*
X5632196Y5950790D1*
X5646104Y5970191D2*
X5642482Y5968984D1*
X5641247Y5966570D1*
Y5964127D1*
X5642482Y5961712D1*
X5644897Y5960477D1*
X5649754Y5959270D1*
X5653404Y5958062D1*
X5655818Y5955620D1*
X5657026Y5953205D1*
Y5949555D1*
X5655818Y5947140D1*
X5654611Y5945905D1*
X5650961Y5944698D1*
X5646104D1*
X5642482Y5945905D1*
X5641247Y5947140D1*
X5640039Y5949555D1*
Y5953205D1*
X5641247Y5955620D1*
X5643689Y5958062D1*
X5647311Y5959270D1*
X5652168Y5960477D1*
X5654611Y5961712D1*
X5655818Y5964127D1*
Y5966570D1*
X5654611Y5968984D1*
X5650961Y5970191D1*
X5646104D1*
X8543757Y7534651D2*
X8541343Y7533444D1*
X8538900Y7531001D1*
X8537693Y7528586D1*
Y7523729D1*
X8538900Y7521286D1*
X8541343Y7518872D1*
X8543757Y7517636D1*
X8547407Y7516429D1*
X8553500D1*
X8557122Y7517636D1*
X8559565Y7518872D1*
X8561979Y7521286D1*
X8563215Y7523729D1*
Y7528586D1*
X8561979Y7531001D1*
X8559565Y7533443D1*
X8557122Y7534651D1*
X8542578Y7542494D2*
X8541343Y7544937D1*
X8537721Y7548587D1*
X8563215D1*
X8542578Y7556430D2*
X8541343Y7558872D1*
X8537721Y7562522D1*
X8563215D1*
X7949871Y7197015D2*
X7948664Y7199430D1*
X7946221Y7201872D1*
X7943806Y7203080D1*
X7938949D1*
X7936506Y7201872D1*
X7934092Y7199430D1*
X7932856Y7197015D1*
X7931649Y7193365D1*
Y7187272D1*
X7932856Y7183650D1*
X7934092Y7181208D1*
X7936506Y7178793D1*
X7938949Y7177558D1*
X7943806D1*
X7946221Y7178793D1*
X7948664Y7181208D1*
X7949871Y7183650D1*
X7957714Y7198194D2*
X7960157Y7199430D1*
X7963807Y7203051D1*
Y7177558D1*
X7972885Y7196987D2*
Y7198194D1*
X7974092Y7200637D1*
X7975300Y7201844D1*
X7977742Y7203051D1*
X7982600D1*
X7985014Y7201844D1*
X7986222Y7200637D1*
X7987457Y7198194D1*
Y7195780D1*
X7986222Y7193337D1*
X7983807Y7189715D1*
X7971650Y7177558D1*
X7988664D1*
X7850317Y7956567D2*
X7847903Y7955359D1*
X7845460Y7952917D1*
X7844253Y7950502D1*
Y7945645D1*
X7845460Y7943202D1*
X7847903Y7940787D1*
X7850317Y7939552D1*
X7853967Y7938345D1*
X7860060D1*
X7863682Y7939552D1*
X7866125Y7940787D1*
X7868539Y7943202D1*
X7869775Y7945645D1*
Y7950502D1*
X7868539Y7952917D1*
X7866125Y7955359D1*
X7863682Y7956567D1*
X7849138Y7964410D2*
X7847903Y7966852D1*
X7844281Y7970502D1*
X7869775D1*
X7844281Y7980788D2*
Y7994125D1*
X7853996Y7986853D1*
Y7990503D1*
X7855203Y7992917D1*
X7856410Y7994125D1*
X7860060Y7995360D1*
X7862475D1*
X7866125Y7994125D1*
X7868567Y7991710D1*
X7869775Y7988060D1*
Y7984410D1*
X7868567Y7980788D1*
X7867332Y7979581D1*
X7864917Y7978345D1*
X7925747Y6978163D2*
Y6952641D1*
X7934254D1*
X7937904Y6953876D1*
X7940347Y6956291D1*
X7941554Y6958734D1*
X7942762Y6962356D1*
Y6968448D1*
X7941554Y6972098D1*
X7940347Y6974513D1*
X7937904Y6976956D1*
X7934254Y6978163D1*
X7925747D1*
X7951840Y6972070D2*
Y6973277D1*
X7953048Y6975720D1*
X7954255Y6976927D1*
X7956698Y6978135D1*
X7961555D1*
X7963970Y6976927D1*
X7965177Y6975720D1*
X7966412Y6973277D1*
Y6970863D1*
X7965177Y6968420D1*
X7962762Y6964798D1*
X7950605Y6952641D1*
X7967620D1*
X5625993Y9737813D2*
Y9718384D1*
X5624786Y9714734D1*
X5623550Y9713526D1*
X5621136Y9712291D1*
X5618693D1*
X5616278Y9713526D1*
X5615071Y9714734D1*
X5613836Y9718384D1*
Y9720798D1*
X5635072Y9731720D2*
Y9732927D1*
X5636279Y9735370D1*
X5637486Y9736577D1*
X5639929Y9737785D1*
X5644786D1*
X5647201Y9736577D1*
X5648408Y9735370D1*
X5649644Y9732927D1*
Y9730513D1*
X5648408Y9728070D1*
X5645994Y9724448D1*
X5633836Y9712291D1*
X5650851D1*
X8573950Y8447003D2*
Y8427574D1*
X8572742Y8423924D1*
X8571507Y8422716D1*
X8569092Y8421481D1*
X8566650D1*
X8564235Y8422716D1*
X8563028Y8423924D1*
X8561792Y8427574D1*
Y8429988D1*
X8584236Y8446975D2*
X8597572D1*
X8590300Y8437260D1*
X8593950D1*
X8596365Y8436053D1*
X8597572Y8434846D1*
X8598808Y8431196D1*
Y8428781D1*
X8597572Y8425131D1*
X8595158Y8422688D1*
X8591508Y8421481D1*
X8587858D1*
X8584236Y8422688D1*
X8583028Y8423924D1*
X8581793Y8426338D1*
X5949993Y9737813D2*
Y9718384D1*
X5948785Y9714734D1*
X5947550Y9713526D1*
X5945135Y9712291D1*
X5942693D1*
X5940278Y9713526D1*
X5939071Y9714734D1*
X5937835Y9718384D1*
Y9720798D1*
X5969993Y9712291D2*
Y9737785D1*
X5957836Y9720798D1*
X5976058D1*
X6128025Y6847062D2*
X6138947D1*
X6142597Y6848298D1*
X6143832Y6849505D1*
X6145039Y6851920D1*
Y6854362D1*
X6143832Y6856777D1*
X6142597Y6858012D1*
X6138947Y6859220D1*
X6128025D1*
Y6833698D1*
X6136532Y6847062D2*
X6145039Y6833698D1*
X6152883Y6854334D2*
X6155325Y6855570D1*
X6158975Y6859191D1*
Y6833698D1*
X6376564Y6850812D2*
X6387486D1*
X6391136Y6852048D1*
X6392371Y6853255D1*
X6393578Y6855670D1*
Y6858112D1*
X6392371Y6860527D1*
X6391136Y6861762D1*
X6387486Y6862970D1*
X6376564D1*
Y6837448D1*
X6385071Y6850812D2*
X6393578Y6837448D1*
X6415993Y6862941D2*
X6403864D1*
X6402657Y6852020D1*
X6403864Y6853227D1*
X6407514Y6854462D1*
X6411136D1*
X6414786Y6853227D1*
X6417229Y6850812D1*
X6418436Y6847162D1*
Y6844748D1*
X6417229Y6841098D1*
X6414786Y6838655D1*
X6411136Y6837448D1*
X6407514D1*
X6403864Y6838655D1*
X6402657Y6839890D1*
X6401422Y6842305D1*
X5615182Y6851612D2*
X5626103D1*
X5629753Y6852848D1*
X5630989Y6854055D1*
X5632196Y6856470D1*
Y6858912D1*
X5630989Y6861327D1*
X5629753Y6862562D1*
X5626103Y6863770D1*
X5615182D1*
Y6838248D1*
X5623689Y6851612D2*
X5632196Y6838248D1*
X5654611Y6860120D2*
X5653404Y6862534D1*
X5649754Y6863741D1*
X5647339D1*
X5643689Y6862534D1*
X5641247Y6858884D1*
X5640039Y6852820D1*
Y6846755D1*
X5641247Y6841898D1*
X5643689Y6839455D1*
X5647339Y6838248D1*
X5648547D1*
X5652168Y6839455D1*
X5654611Y6841898D1*
X5655818Y6845548D1*
Y6846755D1*
X5654611Y6850405D1*
X5652168Y6852820D1*
X5648547Y6854027D1*
X5647339D1*
X5643689Y6852820D1*
X5641247Y6850405D1*
X5640039Y6846755D1*
X6249564Y6847062D2*
X6260486D1*
X6264136Y6848298D1*
X6265371Y6849505D1*
X6266578Y6851920D1*
Y6854362D1*
X6265371Y6856777D1*
X6264136Y6858012D1*
X6260486Y6859220D1*
X6249564D1*
Y6833698D1*
X6258071Y6847062D2*
X6266578Y6833698D1*
X6279279D2*
X6291436Y6859191D1*
X6274422D1*
X8033820Y7942342D2*
Y7953264D1*
X8032585Y7956914D1*
X8031377Y7958149D1*
X8028963Y7959356D1*
X8026520D1*
X8024105Y7958149D1*
X8022870Y7956914D1*
X8021663Y7953264D1*
Y7942342D1*
X8047185D1*
X8033820Y7950849D2*
X8047185Y7959356D1*
X8026548Y7967199D2*
X8025313Y7969642D1*
X8021691Y7973292D1*
X8047185D1*
X8027756Y7982371D2*
X8026548D1*
X8024106Y7983578D1*
X8022898Y7984785D1*
X8021691Y7987228D1*
Y7992085D1*
X8022898Y7994500D1*
X8024106Y7995707D1*
X8026548Y7996942D1*
X8028963D1*
X8031405Y7995707D1*
X8035027Y7993292D1*
X8047185Y7981135D1*
Y7998150D1*
X4212135Y2066266D2*
X4223057D1*
X4226707Y2067501D1*
X4227942Y2068708D1*
X4229149Y2071123D1*
Y2073566D1*
X4227942Y2075980D1*
X4226707Y2077216D1*
X4223057Y2078423D1*
X4212135D1*
Y2052901D1*
X4220642Y2066266D2*
X4229149Y2052901D1*
X4236992Y2073537D2*
X4239435Y2074773D1*
X4243085Y2078395D1*
Y2052901D1*
X4258228Y2078395D2*
X4254578Y2077187D1*
X4252136Y2073537D1*
X4250928Y2067473D1*
Y2063823D1*
X4252136Y2057758D1*
X4254578Y2054108D1*
X4258228Y2052901D1*
X4260643D1*
X4264293Y2054108D1*
X4266707Y2057758D1*
X4267943Y2063823D1*
Y2067473D1*
X4266707Y2073537D1*
X4264293Y2077187D1*
X4260643Y2078395D1*
X4258228D1*
X4266707Y2073537D2*
X4252136Y2057758D1*
X4275786Y2073537D2*
X4278229Y2074773D1*
X4281879Y2078395D1*
Y2052901D1*
X7407373Y5713570D2*
Y5724491D1*
X7406138Y5728141D1*
X7404931Y5729377D1*
X7402516Y5730584D1*
X7400073D1*
X7397659Y5729377D1*
X7396423Y5728141D1*
X7395216Y5724491D1*
Y5713570D1*
X7420738D1*
X7407373Y5722077D2*
X7420738Y5730584D1*
X7400102Y5738427D2*
X7398866Y5740870D1*
X7395244Y5744520D1*
X7420738D1*
X7395244Y5759663D2*
X7396452Y5756013D1*
X7400102Y5753570D1*
X7406166Y5752363D1*
X7409816D1*
X7415881Y5753570D1*
X7419531Y5756013D1*
X7420738Y5759663D1*
Y5762077D1*
X7419531Y5765727D1*
X7415881Y5768142D1*
X7409816Y5769377D1*
X7406166D1*
X7400102Y5768142D1*
X7396452Y5765728D1*
X7395244Y5762078D1*
Y5759663D1*
X7400102Y5768142D2*
X7415881Y5753570D1*
X7401309Y5778456D2*
X7400102D1*
X7397659Y5779663D1*
X7396452Y5780871D1*
X7395244Y5783313D1*
Y5788171D1*
X7396452Y5790585D1*
X7397659Y5791793D1*
X7400102Y5793028D1*
X7402516D1*
X7404959Y5791793D1*
X7408581Y5789378D1*
X7420738Y5777221D1*
Y5794235D1*
X6493877Y4726556D2*
Y4737478D1*
X6492641Y4741128D1*
X6491434Y4742363D1*
X6489019Y4743571D1*
X6486577D1*
X6484162Y4742363D1*
X6482927Y4741128D1*
X6481719Y4737478D1*
Y4726556D1*
X6507241D1*
X6493877Y4735064D2*
X6507241Y4743571D1*
X6486605Y4751414D2*
X6485370Y4753857D1*
X6481748Y4757507D1*
X6507241Y4757506D1*
X6481748Y4772650D2*
X6482955Y4769000D1*
X6486605Y4766557D1*
X6492669Y4765350D1*
X6496319D1*
X6502384Y4766557D1*
X6506034Y4769000D1*
X6507241Y4772650D1*
Y4775064D1*
X6506034Y4778714D1*
X6502384Y4781129D1*
X6496319Y4782364D1*
X6492669D1*
X6486605Y4781129D1*
X6482955Y4778714D1*
X6481748Y4775064D1*
Y4772650D1*
X6486605Y4781129D2*
X6502384Y4766557D1*
X6481748Y4792650D2*
Y4805987D1*
X6491462Y4798715D1*
Y4802365D1*
X6492669Y4804779D1*
X6493877Y4805986D1*
X6497527Y4807222D1*
X6499941D1*
X6503591Y4805986D1*
X6506034Y4803572D1*
X6507241Y4799922D1*
Y4796272D1*
X6506034Y4792650D1*
X6504799Y4791443D1*
X6502384Y4790207D1*
X6929363Y4156821D2*
X6940285D1*
X6943935Y4158056D1*
X6945171Y4159263D1*
X6946378Y4161678D1*
Y4164121D1*
X6945171Y4166535D1*
X6943935Y4167771D1*
X6940285Y4168978D1*
X6929363D1*
Y4143456D1*
X6937871Y4156821D2*
X6946378Y4143456D1*
X6954221Y4164092D2*
X6956664Y4165328D1*
X6960314Y4168950D1*
Y4143456D1*
X6975457Y4168950D2*
X6971807Y4167742D1*
X6969364Y4164092D1*
X6968157Y4158028D1*
Y4154378D1*
X6969364Y4148313D1*
X6971807Y4144663D1*
X6975457Y4143456D1*
X6977872D1*
X6981522Y4144663D1*
X6983936Y4148313D1*
X6985172Y4154378D1*
Y4158028D1*
X6983936Y4164092D1*
X6981522Y4167742D1*
X6977872Y4168950D1*
X6975457D1*
X6983936Y4164092D2*
X6969364Y4148313D1*
X7005172Y4143456D2*
Y4168950D1*
X6993015Y4151963D1*
X7011237D1*
X5176917Y4377619D2*
X5187839D1*
X5191489Y4378854D1*
X5192724Y4380062D1*
X5193932Y4382476D1*
Y4384919D1*
X5192724Y4387334D1*
X5191489Y4388569D1*
X5187839Y4389776D1*
X5176917D1*
Y4364254D1*
X5185424Y4377619D2*
X5193932Y4364254D1*
X5201775Y4384891D2*
X5204217Y4386126D1*
X5207867Y4389748D1*
Y4364254D1*
X5223011Y4389748D2*
X5219361Y4388541D1*
X5216918Y4384891D1*
X5215711Y4378826D1*
Y4375176D1*
X5216918Y4369112D1*
X5219361Y4365462D1*
X5223011Y4364254D1*
X5225425D1*
X5229075Y4365462D1*
X5231490Y4369112D1*
X5232725Y4375176D1*
Y4378826D1*
X5231490Y4384891D1*
X5229075Y4388541D1*
X5225425Y4389748D1*
X5223011D1*
X5231490Y4384891D2*
X5216918Y4369112D1*
X5255140Y4389748D2*
X5243011D1*
X5241804Y4378826D1*
X5243011Y4380034D1*
X5246661Y4381269D1*
X5250283D1*
X5253933Y4380034D1*
X5256376Y4377619D1*
X5257583Y4373969D1*
Y4371554D1*
X5256376Y4367904D1*
X5253933Y4365462D1*
X5250283Y4364254D1*
X5246661D1*
X5243011Y4365462D1*
X5241804Y4366697D1*
X5240568Y4369112D1*
X6900585Y3169821D2*
X6911507D1*
X6915157Y3171056D1*
X6916392Y3172263D1*
X6917599Y3174678D1*
Y3177121D1*
X6916392Y3179535D1*
X6915157Y3180771D1*
X6911507Y3181978D1*
X6900585D1*
Y3156456D1*
X6909092Y3169821D2*
X6917599Y3156456D1*
X6925442Y3177092D2*
X6927885Y3178328D1*
X6931535Y3181950D1*
Y3156456D1*
X6946678Y3181950D2*
X6943028Y3180742D1*
X6940586Y3177092D1*
X6939378Y3171028D1*
Y3167378D1*
X6940586Y3161313D1*
X6943028Y3157663D1*
X6946678Y3156456D1*
X6949093D1*
X6952743Y3157663D1*
X6955158Y3161313D1*
X6956393Y3167378D1*
Y3171028D1*
X6955158Y3177092D1*
X6952743Y3180742D1*
X6949093Y3181950D1*
X6946678D1*
X6955158Y3177092D2*
X6940586Y3161313D1*
X6978808Y3178328D2*
X6977601Y3180742D1*
X6973951Y3181950D1*
X6971536D1*
X6967886Y3180742D1*
X6965443Y3177092D1*
X6964236Y3171028D1*
Y3164963D1*
X6965443Y3160106D1*
X6967886Y3157663D1*
X6971536Y3156456D1*
X6972743D1*
X6976365Y3157663D1*
X6978808Y3160106D1*
X6980015Y3163756D1*
Y3164963D1*
X6978808Y3168613D1*
X6976365Y3171028D1*
X6972743Y3172235D1*
X6971536D1*
X6967886Y3171028D1*
X6965443Y3168613D1*
X6964236Y3164963D1*
X7478967Y4474821D2*
X7489889D1*
X7493539Y4476056D1*
X7494774Y4477263D1*
X7495982Y4479678D1*
Y4482121D1*
X7494774Y4484535D1*
X7493539Y4485771D1*
X7489889Y4486978D1*
X7478967D1*
Y4461456D1*
X7487474Y4474821D2*
X7495982Y4461456D1*
X7503825Y4482092D2*
X7506267Y4483328D1*
X7509917Y4486950D1*
Y4461456D1*
X7525061Y4486950D2*
X7521411Y4485742D1*
X7518968Y4482092D1*
X7517761Y4476028D1*
Y4472378D1*
X7518968Y4466313D1*
X7521411Y4462663D1*
X7525061Y4461456D1*
X7527475D1*
X7531125Y4462663D1*
X7533540Y4466313D1*
X7534775Y4472378D1*
Y4476028D1*
X7533540Y4482092D1*
X7531125Y4485742D1*
X7527475Y4486950D1*
X7525061D1*
X7533540Y4482092D2*
X7518968Y4466313D1*
X7547476Y4461456D2*
X7559633Y4486950D1*
X7542618D1*
X7923774Y2384504D2*
X7934696D1*
X7938346Y2385739D1*
X7939582Y2386947D1*
X7940789Y2389361D1*
Y2391804D1*
X7939582Y2394219D1*
X7938346Y2395454D1*
X7934696Y2396661D1*
X7923774D1*
Y2371139D1*
X7932282Y2384504D2*
X7940789Y2371139D1*
X7948632Y2391776D2*
X7951075Y2393011D1*
X7954725Y2396633D1*
Y2371139D1*
X7969868Y2396633D2*
X7966218Y2395426D1*
X7963775Y2391776D1*
X7962568Y2385711D1*
Y2382061D1*
X7963775Y2375997D1*
X7966218Y2372347D1*
X7969868Y2371139D1*
X7972283D1*
X7975933Y2372347D1*
X7978347Y2375997D1*
X7979583Y2382061D1*
Y2385711D1*
X7978347Y2391776D1*
X7975933Y2395426D1*
X7972283Y2396633D1*
X7969868D1*
X7978347Y2391776D2*
X7963775Y2375997D1*
X7993490Y2396633D2*
X7989868Y2395426D1*
X7988633Y2393011D1*
Y2390569D1*
X7989868Y2388154D1*
X7992283Y2386919D1*
X7997140Y2385711D1*
X8000790Y2384504D1*
X8003205Y2382061D1*
X8004412Y2379647D1*
Y2375997D1*
X8003205Y2373582D1*
X8001998Y2372347D1*
X7998348Y2371139D1*
X7993490D1*
X7989868Y2372347D1*
X7988633Y2373582D1*
X7987426Y2375997D1*
Y2379647D1*
X7988633Y2382061D1*
X7991076Y2384504D1*
X7994698Y2385711D1*
X7999555Y2386919D1*
X8001998Y2388154D1*
X8003205Y2390569D1*
Y2393011D1*
X8001998Y2395426D1*
X7998348Y2396633D1*
X7993490D1*
X4364651Y5557517D2*
X4375573D1*
X4379223Y5558753D1*
X4380458Y5559960D1*
X4381665Y5562375D1*
Y5564817D1*
X4380458Y5567232D1*
X4379223Y5568467D1*
X4375573Y5569675D1*
X4364651D1*
Y5544153D1*
X4373158Y5557517D2*
X4381665Y5544153D1*
X4389508Y5564789D2*
X4391951Y5566025D1*
X4395601Y5569646D1*
Y5544153D1*
X4410744Y5569646D2*
X4407094Y5568439D1*
X4404652Y5564789D1*
X4403444Y5558725D1*
Y5555075D1*
X4404652Y5549010D1*
X4407094Y5545360D1*
X4410744Y5544153D1*
X4413159D1*
X4416809Y5545360D1*
X4419223Y5549010D1*
X4420459Y5555075D1*
Y5558725D1*
X4419223Y5564789D1*
X4416809Y5568439D1*
X4413159Y5569646D1*
X4410744D1*
X4419223Y5564789D2*
X4404652Y5549010D1*
X4444109Y5561167D2*
X4442874Y5557517D1*
X4440459Y5555075D1*
X4436809Y5553867D1*
X4435602D1*
X4431952Y5555075D1*
X4429537Y5557517D1*
X4428302Y5561167D1*
Y5562375D1*
X4429537Y5566025D1*
X4431952Y5568439D1*
X4435602Y5569646D1*
X4436809D1*
X4440459Y5568439D1*
X4442874Y5566025D1*
X4444109Y5561167D1*
Y5555075D1*
X4442874Y5549010D1*
X4440459Y5545360D1*
X4436809Y5544153D1*
X4434395D1*
X4430745Y5545360D1*
X4429537Y5547803D1*
X5984371Y6847926D2*
X5995293D1*
X5998943Y6849161D1*
X6000179Y6850368D1*
X6001386Y6852783D1*
Y6855226D1*
X6000179Y6857640D1*
X5998943Y6858876D1*
X5995293Y6860083D1*
X5984371D1*
Y6834561D1*
X5992879Y6847926D2*
X6001386Y6834561D1*
X6009229Y6855197D2*
X6011672Y6856433D1*
X6015322Y6860055D1*
Y6834561D1*
X6023165Y6855197D2*
X6025608Y6856433D1*
X6029258Y6860055D1*
Y6834561D1*
X6044401Y6860055D2*
X6040751Y6858847D1*
X6038308Y6855197D1*
X6037101Y6849133D1*
Y6845483D1*
X6038308Y6839418D1*
X6040751Y6835768D1*
X6044401Y6834561D1*
X6046815D1*
X6050465Y6835768D1*
X6052880Y6839418D1*
X6054115Y6845483D1*
Y6849133D1*
X6052880Y6855197D1*
X6050465Y6858847D1*
X6046815Y6860055D1*
X6044401D1*
X6052880Y6855197D2*
X6038308Y6839418D1*
X5331207Y5709975D2*
Y5720897D1*
X5329971Y5724547D1*
X5328764Y5725782D1*
X5326349Y5726989D1*
X5323907D1*
X5321492Y5725782D1*
X5320257Y5724547D1*
X5319049Y5720897D1*
Y5709975D1*
X5344571D1*
X5331207Y5718482D2*
X5344571Y5726989D1*
X5323935Y5734832D2*
X5322700Y5737275D1*
X5319078Y5740925D1*
X5344571D1*
X5323935Y5748768D2*
X5322700Y5751211D1*
X5319078Y5754861D1*
X5344571D1*
X5323935Y5762704D2*
X5322699Y5765147D1*
X5319078Y5768797D1*
X5344571D1*
X5753878Y4187119D2*
X5764800D1*
X5768450Y4188354D1*
X5769685Y4189562D1*
X5770893Y4191976D1*
Y4194419D1*
X5769685Y4196834D1*
X5768450Y4198069D1*
X5764800Y4199276D1*
X5753878D1*
Y4173754D1*
X5762385Y4187119D2*
X5770893Y4173754D1*
X5778736Y4194391D2*
X5781178Y4195626D1*
X5784828Y4199248D1*
Y4173754D1*
X5792672Y4194391D2*
X5795114Y4195626D1*
X5798764Y4199248D1*
Y4173754D1*
X5807843Y4193184D2*
Y4194391D1*
X5809050Y4196834D1*
X5810257Y4198041D1*
X5812700Y4199248D1*
X5817557D1*
X5819972Y4198041D1*
X5821179Y4196834D1*
X5822415Y4194391D1*
Y4191976D1*
X5821179Y4189534D1*
X5818765Y4185912D1*
X5806607Y4173754D1*
X5823622D1*
X8843428Y6569421D2*
X8854350D1*
X8858000Y6570656D1*
X8859235Y6571863D1*
X8860443Y6574278D1*
Y6576721D1*
X8859235Y6579135D1*
X8858000Y6580371D1*
X8854350Y6581578D1*
X8843428D1*
Y6556056D1*
X8851935Y6569421D2*
X8860443Y6556056D1*
X8868286Y6576692D2*
X8870728Y6577928D1*
X8874378Y6581550D1*
Y6556056D1*
X8882222Y6576692D2*
X8884664Y6577928D1*
X8888314Y6581550D1*
Y6556056D1*
X8898600Y6581550D2*
X8911937D1*
X8904665Y6571835D1*
X8908315D1*
X8910729Y6570628D1*
X8911937Y6569421D1*
X8913172Y6565771D1*
Y6563356D1*
X8911937Y6559706D1*
X8909522Y6557263D1*
X8905872Y6556056D1*
X8902222D1*
X8898600Y6557263D1*
X8897393Y6558499D1*
X8896157Y6560913D1*
X4948124Y3145799D2*
X4959046D1*
X4962696Y3147034D1*
X4963932Y3148242D1*
X4965139Y3150656D1*
Y3153099D1*
X4963932Y3155514D1*
X4962696Y3156749D1*
X4959046Y3157956D1*
X4948124D1*
Y3132434D1*
X4956632Y3145799D2*
X4965139Y3132434D1*
X4972982Y3153071D2*
X4975425Y3154306D1*
X4979075Y3157928D1*
Y3132434D1*
X4986918Y3153071D2*
X4989361Y3154306D1*
X4993011Y3157928D1*
Y3132434D1*
X5013011D2*
Y3157928D1*
X5000854Y3140942D1*
X5019076D1*
X6292928Y6463833D2*
Y6445611D1*
X6294135Y6441961D1*
X6296578Y6439546D1*
X6300228Y6438311D1*
X6302643D1*
X6306293Y6439546D1*
X6308735Y6441961D1*
X6309943Y6445611D1*
Y6463833D1*
X6317786Y6458947D2*
X6320229Y6460183D1*
X6323879Y6463805D1*
Y6438311D1*
X8267844Y7712423D2*
Y7694201D1*
X8269051Y7690551D1*
X8271494Y7688136D1*
X8275144Y7686901D1*
X8277558D1*
X8281208Y7688136D1*
X8283651Y7690551D1*
X8284858Y7694201D1*
Y7712423D1*
X8293937Y7706330D2*
Y7707537D1*
X8295144Y7709980D1*
X8296352Y7711187D1*
X8298794Y7712395D1*
X8303652D1*
X8306066Y7711187D1*
X8307273Y7709980D1*
X8308509Y7707537D1*
Y7705123D1*
X8307273Y7702680D1*
X8304859Y7699058D1*
X8292702Y7686901D1*
X8309716D1*
X3831781Y1593241D2*
Y1575019D1*
X3832989Y1571369D1*
X3835431Y1568955D1*
X3839081Y1567719D1*
X3841496D1*
X3845146Y1568955D1*
X3847589Y1571369D1*
X3848796Y1575019D1*
Y1593241D1*
X3856639Y1588356D2*
X3859082Y1589591D1*
X3862732Y1593213D1*
Y1567719D1*
X3877875Y1593213D2*
X3874225Y1592006D1*
X3871782Y1588356D1*
X3870575Y1582291D1*
Y1578641D1*
X3871782Y1572577D1*
X3874225Y1568927D1*
X3877875Y1567719D1*
X3880290D1*
X3883940Y1568927D1*
X3886354Y1572577D1*
X3887590Y1578641D1*
Y1582291D1*
X3886354Y1588356D1*
X3883940Y1592006D1*
X3880290Y1593213D1*
X3877875D1*
X3886354Y1588356D2*
X3871782Y1572577D1*
X3895433Y1588356D2*
X3897875Y1589591D1*
X3901525Y1593213D1*
Y1567719D1*
X7391216Y6053643D2*
X7409438D1*
X7413088Y6054850D1*
X7415503Y6057293D1*
X7416738Y6060943D1*
Y6063357D1*
X7415503Y6067007D1*
X7413088Y6069450D1*
X7409438Y6070657D1*
X7391216D1*
X7396102Y6078501D2*
X7394866Y6080943D1*
X7391244Y6084593D1*
X7416738D1*
X7391244Y6099736D2*
X7392452Y6096086D1*
X7396102Y6093644D1*
X7402166Y6092436D1*
X7405816D1*
X7411881Y6093643D1*
X7415531Y6096086D1*
X7416738Y6099736D1*
Y6102151D1*
X7415531Y6105801D1*
X7411881Y6108215D1*
X7405816Y6109451D1*
X7402166D1*
X7396102Y6108215D1*
X7392452Y6105801D1*
X7391244Y6102151D1*
Y6099736D1*
X7396102Y6108215D2*
X7411881Y6093643D1*
X7397309Y6118529D2*
X7396102D1*
X7393659Y6119737D1*
X7392452Y6120944D1*
X7391244Y6123387D1*
Y6128244D1*
X7392452Y6130659D1*
X7393659Y6131866D1*
X7396102Y6133101D1*
X7398516D1*
X7400959Y6131866D1*
X7404581Y6129451D1*
X7416738Y6117294D1*
Y6134309D1*
X6480303Y3783566D2*
X6498525D1*
X6502175Y3784774D1*
X6504589Y3787216D1*
X6505825Y3790866D1*
Y3793281D1*
X6504589Y3796931D1*
X6502175Y3799373D1*
X6498525Y3800581D1*
X6480303D1*
X6485188Y3808424D2*
X6483953Y3810867D1*
X6480331Y3814517D1*
X6505825Y3814516D1*
X6480331Y3829660D2*
X6481538Y3826010D1*
X6485188Y3823567D1*
X6491253Y3822360D1*
X6494903D1*
X6500967Y3823567D1*
X6504617Y3826010D1*
X6505825Y3829660D1*
Y3832074D1*
X6504617Y3835724D1*
X6500967Y3838139D1*
X6494903Y3839374D1*
X6491253D1*
X6485188Y3838139D1*
X6481538Y3835724D1*
X6480331Y3832074D1*
Y3829660D1*
X6485188Y3838139D2*
X6500967Y3823567D1*
X6480331Y3849660D2*
Y3862997D1*
X6490045Y3855725D1*
Y3859375D1*
X6491253Y3861789D1*
X6492460Y3862996D1*
X6496110Y3864232D1*
X6498525D1*
X6502175Y3862996D1*
X6504617Y3860582D1*
X6505825Y3856932D1*
Y3853282D1*
X6504617Y3849660D1*
X6503382Y3848453D1*
X6500967Y3847217D1*
X7376853Y4033525D2*
Y4015303D1*
X7378061Y4011653D1*
X7380503Y4009239D1*
X7384153Y4008003D1*
X7386568D1*
X7390218Y4009239D1*
X7392661Y4011653D1*
X7393868Y4015303D1*
Y4033525D1*
X7401711Y4028640D2*
X7404154Y4029875D1*
X7407804Y4033497D1*
Y4008003D1*
X7422947Y4033497D2*
X7419297Y4032290D1*
X7416854Y4028640D1*
X7415647Y4022575D1*
Y4018925D1*
X7416854Y4012861D1*
X7419297Y4009211D1*
X7422947Y4008003D1*
X7425362D1*
X7429012Y4009211D1*
X7431426Y4012861D1*
X7432662Y4018925D1*
Y4022575D1*
X7431426Y4028640D1*
X7429012Y4032290D1*
X7425362Y4033497D1*
X7422947D1*
X7431426Y4028640D2*
X7416854Y4012861D1*
X7452662Y4008003D2*
Y4033497D1*
X7440505Y4016511D1*
X7458727D1*
X4836754Y4090301D2*
Y4072079D1*
X4837961Y4068429D1*
X4840404Y4066015D1*
X4844054Y4064779D1*
X4846468D1*
X4850118Y4066015D1*
X4852561Y4068429D1*
X4853768Y4072079D1*
Y4090301D1*
X4861611Y4085416D2*
X4864054Y4086651D1*
X4867704Y4090273D1*
Y4064779D1*
X4882847Y4090273D2*
X4879197Y4089066D1*
X4876755Y4085416D1*
X4875547Y4079351D1*
Y4075701D1*
X4876755Y4069637D1*
X4879197Y4065987D1*
X4882847Y4064779D1*
X4885262D1*
X4888912Y4065987D1*
X4891327Y4069637D1*
X4892562Y4075701D1*
Y4079351D1*
X4891327Y4085416D1*
X4888912Y4089066D1*
X4885262Y4090273D1*
X4882847D1*
X4891327Y4085416D2*
X4876755Y4069637D1*
X4914977Y4090273D2*
X4902848D1*
X4901640Y4079351D1*
X4902848Y4080559D1*
X4906498Y4081794D1*
X4910120D1*
X4913770Y4080559D1*
X4916212Y4078144D1*
X4917420Y4074494D1*
Y4072079D1*
X4916212Y4068429D1*
X4913770Y4065987D1*
X4910120Y4064779D1*
X4906498D1*
X4902848Y4065987D1*
X4901640Y4067222D1*
X4900405Y4069637D1*
X7410231Y2947875D2*
Y2929653D1*
X7411439Y2926003D1*
X7413881Y2923589D1*
X7417531Y2922353D1*
X7419946D1*
X7423596Y2923589D1*
X7426039Y2926003D1*
X7427246Y2929653D1*
Y2947875D1*
X7435089Y2942990D2*
X7437532Y2944225D1*
X7441182Y2947847D1*
Y2922353D1*
X7456325Y2947847D2*
X7452675Y2946640D1*
X7450232Y2942990D1*
X7449025Y2936925D1*
Y2933275D1*
X7450232Y2927211D1*
X7452675Y2923561D1*
X7456325Y2922353D1*
X7458740D1*
X7462390Y2923561D1*
X7464804Y2927211D1*
X7466040Y2933275D1*
Y2936925D1*
X7464804Y2942990D1*
X7462390Y2946640D1*
X7458740Y2947847D1*
X7456325D1*
X7464804Y2942990D2*
X7450232Y2927211D1*
X7488455Y2944225D2*
X7487247Y2946640D1*
X7483597Y2947847D1*
X7481183D1*
X7477533Y2946640D1*
X7475090Y2942990D1*
X7473883Y2936925D1*
Y2930861D1*
X7475090Y2926003D1*
X7477533Y2923561D1*
X7481183Y2922353D1*
X7482390D1*
X7486012Y2923561D1*
X7488455Y2926003D1*
X7489662Y2929653D1*
Y2930861D1*
X7488455Y2934511D1*
X7486012Y2936925D1*
X7482390Y2938133D1*
X7481183D1*
X7477533Y2936925D1*
X7475090Y2934511D1*
X7473883Y2930861D1*
X7874530Y4313519D2*
Y4295297D1*
X7875738Y4291647D1*
X7878180Y4289232D1*
X7881830Y4287997D1*
X7884245D1*
X7887895Y4289232D1*
X7890338Y4291647D1*
X7891545Y4295297D1*
Y4313519D1*
X7899388Y4308633D2*
X7901831Y4309869D1*
X7905481Y4313491D1*
Y4287997D1*
X7920624Y4313491D2*
X7916974Y4312283D1*
X7914531Y4308633D1*
X7913324Y4302569D1*
Y4298919D1*
X7914531Y4292854D1*
X7916974Y4289204D1*
X7920624Y4287997D1*
X7923039D1*
X7926689Y4289204D1*
X7929103Y4292854D1*
X7930339Y4298919D1*
Y4302569D1*
X7929103Y4308633D1*
X7926689Y4312283D1*
X7923039Y4313491D1*
X7920624D1*
X7929103Y4308633D2*
X7914531Y4292854D1*
X7943039Y4287997D2*
X7955196Y4313491D1*
X7938182D1*
X8352201Y1995965D2*
Y1977743D1*
X8353408Y1974093D1*
X8355851Y1971678D1*
X8359501Y1970443D1*
X8361916D1*
X8365566Y1971678D1*
X8368008Y1974093D1*
X8369216Y1977743D1*
Y1995965D1*
X8377059Y1991079D2*
X8379502Y1992315D1*
X8383152Y1995936D1*
Y1970443D1*
X8398295Y1995936D2*
X8394645Y1994729D1*
X8392202Y1991079D1*
X8390995Y1985015D1*
Y1981365D1*
X8392202Y1975300D1*
X8394645Y1971650D1*
X8398295Y1970443D1*
X8400709D1*
X8404359Y1971650D1*
X8406774Y1975300D1*
X8408009Y1981365D1*
Y1985015D1*
X8406774Y1991079D1*
X8404359Y1994729D1*
X8400709Y1995936D1*
X8398295D1*
X8406774Y1991079D2*
X8392202Y1975300D1*
X8421917Y1995936D2*
X8418295Y1994729D1*
X8417060Y1992315D1*
Y1989872D1*
X8418295Y1987457D1*
X8420710Y1986222D1*
X8425567Y1985015D1*
X8429217Y1983807D1*
X8431632Y1981365D1*
X8432839Y1978950D1*
Y1975300D1*
X8431632Y1972885D1*
X8430424Y1971650D1*
X8426774Y1970443D1*
X8421917D1*
X8418295Y1971650D1*
X8417060Y1972885D1*
X8415852Y1975300D1*
Y1978950D1*
X8417060Y1981365D1*
X8419502Y1983807D1*
X8423124Y1985015D1*
X8427982Y1986222D1*
X8430424Y1987457D1*
X8431632Y1989872D1*
Y1992315D1*
X8430424Y1994729D1*
X8426774Y1995936D1*
X8421917D1*
X4150557Y6000602D2*
Y5982380D1*
X4151765Y5978730D1*
X4154207Y5976315D1*
X4157857Y5975080D1*
X4160272D1*
X4163922Y5976315D1*
X4166365Y5978730D1*
X4167572Y5982380D1*
Y6000602D1*
X4175415Y5995717D2*
X4177858Y5996952D1*
X4181508Y6000574D1*
Y5975080D1*
X4196651Y6000574D2*
X4193001Y5999367D1*
X4190558Y5995717D1*
X4189351Y5989652D1*
Y5986002D1*
X4190558Y5979937D1*
X4193001Y5976287D1*
X4196651Y5975080D1*
X4199066D1*
X4202716Y5976287D1*
X4205130Y5979937D1*
X4206366Y5986002D1*
Y5989652D1*
X4205130Y5995717D1*
X4202716Y5999367D1*
X4199066Y6000574D1*
X4196651D1*
X4205130Y5995717D2*
X4190558Y5979937D1*
X4230016Y5992095D2*
X4228781Y5988445D1*
X4226366Y5986002D1*
X4222716Y5984795D1*
X4221509D1*
X4217859Y5986002D1*
X4215444Y5988445D1*
X4214209Y5992095D1*
Y5993302D1*
X4215444Y5996952D1*
X4217859Y5999367D1*
X4221509Y6000574D1*
X4222716D1*
X4226366Y5999367D1*
X4228781Y5996952D1*
X4230016Y5992095D1*
Y5986002D1*
X4228781Y5979937D1*
X4226366Y5976287D1*
X4222716Y5975080D1*
X4220301D1*
X4216651Y5976287D1*
X4215444Y5978730D1*
X7312001Y7760470D2*
Y7742248D1*
X7313209Y7738598D1*
X7315651Y7736183D1*
X7319301Y7734948D1*
X7321716D1*
X7325366Y7736183D1*
X7327809Y7738598D1*
X7329016Y7742248D1*
Y7760470D1*
X7336859Y7755584D2*
X7339302Y7756820D1*
X7342952Y7760441D1*
Y7734948D1*
X7350795Y7755584D2*
X7353238Y7756820D1*
X7356888Y7760441D1*
Y7734948D1*
X7372031Y7760441D2*
X7368381Y7759234D1*
X7365938Y7755584D1*
X7364731Y7749520D1*
Y7745870D1*
X7365938Y7739805D1*
X7368381Y7736155D1*
X7372031Y7734948D1*
X7374445D1*
X7378095Y7736155D1*
X7380510Y7739805D1*
X7381745Y7745870D1*
Y7749520D1*
X7380510Y7755584D1*
X7378095Y7759234D1*
X7374445Y7760441D1*
X7372031D1*
X7380510Y7755584D2*
X7365938Y7739805D1*
X5315049Y6112848D2*
X5333271D1*
X5336921Y6114055D1*
X5339336Y6116498D1*
X5340571Y6120148D1*
Y6122563D1*
X5339336Y6126213D1*
X5336921Y6128655D1*
X5333271Y6129863D1*
X5315049D1*
X5319935Y6137706D2*
X5318700Y6140148D1*
X5315078Y6143798D1*
X5340571D1*
X5319935Y6151642D2*
X5318700Y6154084D1*
X5315078Y6157734D1*
X5340571D1*
X5319935Y6165577D2*
X5318699Y6168020D1*
X5315078Y6171670D1*
X5340571D1*
X5374395Y3886671D2*
Y3868449D1*
X5375602Y3864799D1*
X5378045Y3862385D1*
X5381695Y3861149D1*
X5384109D1*
X5387759Y3862385D1*
X5390202Y3864799D1*
X5391409Y3868449D1*
Y3886671D1*
X5399252Y3881786D2*
X5401695Y3883021D1*
X5405345Y3886643D1*
Y3861149D1*
X5413188Y3881786D2*
X5415631Y3883021D1*
X5419281Y3886643D1*
Y3861149D1*
X5428359Y3880579D2*
Y3881786D1*
X5429567Y3884229D1*
X5430774Y3885436D1*
X5433217Y3886643D1*
X5438074D1*
X5440489Y3885436D1*
X5441696Y3884229D1*
X5442931Y3881786D1*
Y3879371D1*
X5441696Y3876929D1*
X5439281Y3873307D1*
X5427124Y3861149D1*
X5444139D1*
X9277841Y6762602D2*
Y6744380D1*
X9279049Y6740730D1*
X9281491Y6738315D1*
X9285141Y6737080D1*
X9287556D1*
X9291206Y6738315D1*
X9293649Y6740730D1*
X9294856Y6744380D1*
Y6762602D1*
X9302699Y6757717D2*
X9305142Y6758952D1*
X9308792Y6762574D1*
Y6737080D1*
X9316635Y6757717D2*
X9319078Y6758952D1*
X9322728Y6762574D1*
Y6737080D1*
X9333013Y6762574D2*
X9346350D1*
X9339078Y6752859D1*
X9342728D1*
X9345143Y6751652D1*
X9346350Y6750445D1*
X9347585Y6746795D1*
Y6744380D1*
X9346350Y6740730D1*
X9343935Y6738287D1*
X9340285Y6737080D1*
X9336635D1*
X9333013Y6738287D1*
X9331806Y6739523D1*
X9330571Y6741937D1*
X4649731Y2749515D2*
Y2731293D1*
X4650938Y2727643D1*
X4653381Y2725228D1*
X4657031Y2723993D1*
X4659446D1*
X4663096Y2725228D1*
X4665538Y2727643D1*
X4666746Y2731293D1*
Y2749515D1*
X4674589Y2744629D2*
X4677031Y2745865D1*
X4680681Y2749486D1*
Y2723993D1*
X4688525Y2744629D2*
X4690967Y2745865D1*
X4694617Y2749486D1*
Y2723993D1*
X4714618D2*
Y2749486D1*
X4702460Y2732500D1*
X4720682D1*
M02*
