%TF.GenerationSoftware,Novarm,DipTrace,3.0.0.2*%
%TF.CreationDate,2017-10-23T18:09:10+01:00*%
%FSLAX35Y35*%
%MOMM*%
%TF.FileFunction,Copper,L2,Bot*%
%TF.Part,Single*%
%AMOUTLINE6*
4,1,4,
-0.445,0.775,
1.2,0.775,
1.2,-0.775,
-0.445,-0.775,
-0.445,0.775,
0*%
%AMOUTLINE9*
4,1,4,
-1.2,-0.775,
-1.2,0.775,
0.445,0.775,
0.445,-0.775,
-1.2,-0.775,
0*%
%TA.AperFunction,Conductor*%
%ADD10C,0.25*%
%ADD14C,0.2*%
%ADD15C,0.5*%
%TA.AperFunction,CopperBalancing*%
%ADD18C,0.15*%
%ADD19C,0.33*%
%ADD32R,1.27X3.0*%
%TA.AperFunction,ComponentPad*%
%ADD35O,1.25X0.95*%
%TA.AperFunction,ViaPad*%
%ADD43C,0.6*%
%TA.AperFunction,ComponentPad*%
%ADD86OUTLINE6*%
%ADD89OUTLINE9*%
%TA.AperFunction,CopperBalancing*%
%ADD128C,0.25*%
G75*
G01*
%LPD*%
X5732313Y6033366D2*
D14*
X5766477Y5999202D1*
X6073727D1*
X6114650Y5958279D1*
Y5868976D1*
X6050857Y5805182D1*
X6048087D1*
X5891097Y7375012D2*
D15*
Y9117739D1*
X5784187Y9224649D1*
X5684667D1*
X5630580Y9278736D1*
Y9498296D1*
X8990373Y2823679D2*
D14*
X8988873Y2822179D1*
X8396380D1*
X6778500Y4440059D1*
Y5045386D1*
X6241403Y5046472D2*
Y5076502D1*
X6215623Y5102282D1*
Y5700552D1*
X6328763Y5813692D1*
Y5899086D1*
X10652000Y3236429D2*
X9500070D1*
X9019153Y2755512D1*
X8370667D1*
X6873750Y4252429D1*
X6516090D2*
Y4273789D1*
X6532190D1*
Y5519582D1*
X6627373Y5614766D1*
Y5668352D1*
X6510750Y5784976D1*
X6499193D1*
X6455067Y5829102D1*
Y5882652D1*
X6420217Y5917502D1*
X3127250Y2410772D2*
Y2950679D1*
X3557957Y3381386D1*
X4261367D1*
X4283023Y3403042D1*
X5357613D1*
X6491090Y4536519D1*
Y5566119D1*
X6564480Y5639509D1*
X1326000Y3268179D2*
X2076530D1*
Y3162269D1*
X3275340D1*
X3534907Y3421836D1*
X4241720D1*
X4263873Y3443989D1*
X5335060D1*
X6449337Y4558266D1*
Y5606016D1*
X6492750Y5649429D1*
Y5667582D1*
X6485490Y5674842D1*
X4212240Y3484939D2*
X5312510D1*
X6406280Y4578709D1*
Y5626459D1*
X6421443Y5641622D1*
Y5805396D1*
X6389573Y5837266D1*
X8175500Y3998429D2*
X8167960Y3990889D1*
X7132050Y5026799D1*
X7053403Y6231776D2*
X6608903D1*
X6564237Y6276442D1*
X6516513D1*
X6484110Y6244039D1*
Y6113909D1*
X6481807Y6111606D1*
X9890000Y5300179D2*
X9667750Y5522429D1*
X7794500D1*
X7419787Y5147716D1*
X7004500D1*
X5486387Y5141429D2*
Y5216162D1*
X5417460Y5285089D1*
Y5875909D1*
X5698980Y6157429D1*
X5766697D1*
Y6151836D1*
X2873250Y5204929D2*
Y4279566D1*
X3196557D1*
Y3553929D1*
X4238500D1*
X4266760Y3525669D1*
X5289740D1*
X6365750Y4601679D1*
Y5663789D1*
X6358130Y5671409D1*
X8450300Y7744929D2*
D15*
X8398787D1*
X8366000D1*
X8334250Y7776679D1*
X8398787Y7744929D2*
Y7667919D1*
X8524697Y7542009D1*
X5626223Y6314946D2*
X5774213D1*
X5811310Y6352042D1*
X5905960D1*
X6005323Y6252679D1*
X6057343D1*
X6085713Y6224309D1*
X7469247Y6248382D2*
D14*
X7331347Y6110482D1*
X7196040D1*
X6583773Y6629072D2*
D15*
X6634060D1*
X6666333Y6661346D1*
X6704090D1*
X6719473Y6676729D1*
X7557817D1*
X7583687Y6650859D1*
Y6456309D1*
X7554597Y6427219D1*
X7196040D1*
X5889500Y6889182D2*
X6143930D1*
X7364330Y8521236D2*
Y8339686D1*
X5484417Y6053022D2*
X5515803D1*
X5696417Y6233636D1*
X5816260D1*
X5858600Y6275976D1*
X6651500Y6874996D2*
X6875830D1*
Y6530806D2*
Y6447852D1*
X6532547D1*
X6461780Y6377086D1*
X6088980D1*
X5934283Y6531782D1*
X5762500D1*
X6871443Y5293549D2*
X7424147D1*
X7740943Y6891979D2*
Y6874996D1*
X6875830D1*
X6047047Y7614949D2*
D10*
X6931180D1*
X7004133Y7687902D1*
X7132913D1*
X5895123Y5015132D2*
D14*
Y5935212D1*
X6048947D1*
X5895123Y5015132D2*
X5377350D1*
X5317390Y5075092D1*
Y5104242D1*
X5320543Y5107396D1*
X5797517Y7245602D2*
X6309060D1*
X6417353Y7353896D1*
X6500267D1*
X6791263Y8199479D2*
X6856330D1*
Y8521236D1*
X7616487Y8328389D2*
Y8519392D1*
X7618330Y8521236D1*
X7005540Y6158819D2*
X7078417D1*
X7162927Y6243329D1*
X7247713D1*
X7681057Y8205512D2*
X7624143D1*
X7550103Y8279552D1*
X7164000D1*
X7109067Y8334486D1*
Y8519972D1*
X7110330Y8521236D1*
X5314540Y4394246D2*
X5419647D1*
X6087267Y5061866D1*
Y5708832D1*
X6072470Y5723629D1*
X5479387Y5661886D2*
X5720830D1*
X5748297Y5634419D1*
X6593820Y4934066D2*
X6572233D1*
Y5488182D1*
X6668350Y5584299D1*
Y5725372D1*
X6589257Y5804466D1*
X6101467Y6138729D2*
Y6148216D1*
X6128513Y6175262D1*
X6184867D1*
X6327183Y6317579D1*
X6883073D1*
X6894760Y6305892D1*
X6977267D1*
X6980063Y6308689D1*
X8074637D1*
X6818170Y3162636D2*
Y3980129D1*
X6655350Y4142949D1*
Y4964832D1*
X6617653Y5002529D1*
Y5473196D1*
X6710377Y5565919D1*
Y5781052D1*
X6625560Y5865869D1*
X6530137D1*
X6518113Y5853846D1*
X7403140Y4455632D2*
X6840867Y5017906D1*
Y5074699D1*
X6746750Y5168816D1*
Y5426022D1*
X6838557Y5517829D1*
Y5843372D1*
X6600417Y6081512D1*
Y6152192D1*
X6544300Y6208309D1*
X5879587Y4202976D2*
X6323650Y4647039D1*
Y5617602D1*
X6296983Y5644269D1*
Y5706529D1*
X6341990Y5751536D1*
X6366380D1*
X6360643Y5757272D1*
X6358890D1*
X4536790Y5292386D2*
X4973497Y4855679D1*
X5823297D1*
X6022793Y5055176D1*
Y5654142D1*
X6747593Y6594846D2*
X7467957D1*
X4356347Y2079742D2*
Y3132026D1*
X4556000Y3331679D1*
X4905250Y3585679D2*
Y3822062D1*
X6132923Y5049736D1*
Y5769699D1*
X6139003Y5775779D1*
Y5786456D1*
X5222750Y3585679D2*
Y4078622D1*
X6174877Y5030749D1*
Y5726442D1*
X6202517Y5754082D1*
Y5849999D1*
X6237397Y5884879D1*
X6254917Y6527059D2*
Y6929102D1*
X6257787Y8105682D2*
X6259480Y8107376D1*
X6521753D1*
X6599667Y8185289D1*
Y8518572D1*
X6602330Y8521236D1*
X6842000Y4149772D2*
Y4157179D1*
X6737860Y4261319D1*
Y4999792D1*
X6704097Y5033556D1*
Y5441782D1*
X6794430Y5532116D1*
Y5823999D1*
X6618023Y6000406D1*
X6535783D1*
X6494707Y5959329D1*
X6342687Y6528189D2*
Y7001892D1*
Y8171676D2*
Y8521236D1*
X6348330D1*
X7840517Y2371846D2*
Y3035726D1*
X6697303Y4178939D1*
Y4981612D1*
X6660680Y5018236D1*
Y5456779D1*
X6751353Y5547452D1*
Y5803576D1*
X6625197Y5929732D1*
X6577077D1*
X6574687Y5927342D1*
X7028897Y6075576D2*
X7057133Y6047339D1*
X7970160D1*
X8578657Y6655836D1*
Y7242182D1*
X8771643Y7435169D1*
Y7576276D1*
X8664123Y7683796D1*
X8623243D1*
X8561087Y7745952D1*
X8664240Y7745956D2*
X8811740Y7598456D1*
Y7416989D1*
X8620000Y7225249D1*
Y6637446D1*
X7985763Y6003209D1*
X7054680D1*
X7032283Y5980812D1*
X4814887Y6609186D2*
D15*
X6053640D1*
X6213147Y6449679D1*
X6393133D1*
X6462163Y6518709D1*
Y6707496D1*
X6505540Y6750872D1*
X8062500D1*
X8145497Y6833869D1*
Y6884632D1*
X4212443Y7251539D2*
X5764520Y8803616D1*
X8710300Y7461976D2*
X8487960D1*
X8455467Y7429482D1*
X6774443D1*
X6478943Y7133982D1*
Y7044009D1*
D43*
X5732313Y6033366D3*
X6048087Y5805182D3*
X5891097Y7375012D3*
X5784187Y9224649D3*
X8990373Y2823679D3*
X6778500Y5045386D3*
X6241403Y5046472D3*
X10652000Y3236429D3*
X6873750Y4252429D3*
X6516090D3*
X3127250Y2410772D3*
X1326000Y3268179D3*
X4212240Y3484939D3*
X8175500Y3998429D3*
X7132050Y5026799D3*
X7053403Y6231776D3*
X9890000Y5300179D3*
X7004500Y5147716D3*
X5486387Y5141429D3*
X2873250Y5204929D3*
X8450300Y7744929D3*
X8334250Y7776679D3*
X8524697Y7542009D3*
X5626223Y6314946D3*
X7469247Y6248382D3*
X7196040Y6110482D3*
X6583773Y6629072D3*
X7196040Y6427219D3*
X5889500Y6889182D3*
X6143930D3*
X7364330Y8339686D3*
X5484417Y6053022D3*
X5858600Y6275976D3*
X6651500Y6874996D3*
X6875830D3*
Y6530806D3*
X5762500Y6531782D3*
X6871443Y5293549D3*
X7424147D3*
X7740943Y6891979D3*
X6047047Y7614949D3*
X7132913Y7687902D3*
X5895123Y5015132D3*
X5320543Y5107396D3*
X5797517Y7245602D3*
X6500267Y7353896D3*
X6791263Y8199479D3*
X5895123Y5015132D3*
X7616487Y8328389D3*
X7005540Y6158819D3*
X7247713Y6243329D3*
X7681057Y8205512D3*
X5314540Y4394246D3*
X5479387Y5661886D3*
X6593820Y4934066D3*
X6101467Y6138729D3*
X8074637Y6308689D3*
X6818170Y3162636D3*
X7403140Y4455632D3*
X5879587Y4202976D3*
X4536790Y5292386D3*
X6747593Y6594846D3*
X7467957D3*
X4356347Y2079742D3*
X4556000Y3331679D3*
X4905250Y3585679D3*
X5222750D3*
X6254917Y6527059D3*
Y6929102D3*
X6257787Y8105682D3*
X6842000Y4149772D3*
X6342687Y6528189D3*
Y7001892D3*
Y8171676D3*
X7840517Y2371846D3*
X8561087Y7745952D3*
X8664240Y7745956D3*
X4814887Y6609186D3*
X8145497Y6884632D3*
X4212443Y7251539D3*
X5764520Y8803616D3*
X6478943Y7044009D3*
X8710300Y7461976D3*
X5766697Y6151836D3*
X6048947Y5935212D3*
X5748297Y5634419D3*
X6022793Y5654142D3*
X6072470Y5723629D3*
X6139003Y5786456D3*
X6237397Y5884879D3*
X6328763Y5899086D3*
X6358130Y5671409D3*
X6358890Y5757272D3*
X6485490Y5674842D3*
X6564480Y5639509D3*
X6389573Y5837266D3*
X6420217Y5917502D3*
X6589257Y5804466D3*
X6518113Y5853846D3*
X6574687Y5927342D3*
X6494707Y5959329D3*
X7032283Y5980812D3*
X7028897Y6075576D3*
X6544300Y6208309D3*
X6481807Y6111606D3*
X6258340Y6104606D3*
X6173000Y6088609D3*
X6085713Y6224309D3*
X5558073Y9682106D2*
D18*
X5706757D1*
X5558073Y9667439D2*
X5706757D1*
X5558073Y9652772D2*
X5706757D1*
X5558073Y9638106D2*
X5706757D1*
X5558073Y9623439D2*
X5706757D1*
X5558073Y9608772D2*
X5706757D1*
X5558073Y9594106D2*
X5706757D1*
X5558073Y9579439D2*
X5706757D1*
X5558073Y9564772D2*
X5706757D1*
X5558073Y9550106D2*
X5706757D1*
X5558073Y9535439D2*
X5706757D1*
X5558073Y9520772D2*
X5706757D1*
X5558073Y9506106D2*
X5706757D1*
X5558073Y9491439D2*
X5706757D1*
X5558073Y9476772D2*
X5706757D1*
X5558073Y9462106D2*
X5706757D1*
X5558073Y9447439D2*
X5706757D1*
X5558073Y9432772D2*
X5706757D1*
X5558073Y9418106D2*
X5706757D1*
X5558073Y9403439D2*
X5706757D1*
X5558073Y9388772D2*
X5706757D1*
X5558073Y9374106D2*
X5706757D1*
X5558073Y9359439D2*
X5706757D1*
X5558073Y9344772D2*
X5706757D1*
X5708250Y9338272D2*
Y9696779D1*
X5556573Y9696772D1*
Y9330772D1*
X5708250D1*
Y9338272D1*
X5887457Y9668012D2*
D128*
X6024983D1*
X5887457Y9643346D2*
X6024983D1*
X5887457Y9618679D2*
X6024983D1*
X5887457Y9594012D2*
X6024983D1*
X5887457Y9569346D2*
X6024983D1*
X5887457Y9544679D2*
X6024983D1*
X5887457Y9520012D2*
X6024983D1*
X5887457Y9495346D2*
X6024983D1*
X5887457Y9470679D2*
X6024983D1*
X5887457Y9446012D2*
X6024983D1*
X5887457Y9421346D2*
X6024983D1*
X5887457Y9396679D2*
X6024983D1*
X5887457Y9372012D2*
X6024983D1*
X5887457Y9347346D2*
X6024983D1*
X5887457Y9322679D2*
X6024983D1*
X5887457Y9298012D2*
X6024983D1*
X5834867Y9273346D2*
X6024983D1*
X5563480Y9248679D2*
X5572150D1*
X5852397D2*
X6024983D1*
X5563480Y9224012D2*
X5593050D1*
X5877053D2*
X6024983D1*
X5563480Y9199346D2*
X5617710D1*
X5901763D2*
X6041097D1*
X5554497Y9174679D2*
X5643050D1*
X5926420D2*
X6065757D1*
X5529837Y9150012D2*
X5766587D1*
X5948247D2*
X7854477D1*
X5505180Y9125346D2*
X5791243D1*
X5956597D2*
X7894517D1*
X5480523Y9100679D2*
X5815903D1*
X5957083D2*
X7913950D1*
X5455813Y9076012D2*
X5825130D1*
X5957083D2*
X7924690D1*
X5431157Y9051346D2*
X5825130D1*
X5957083D2*
X6138313D1*
X7808940D2*
X7929037D1*
X5406497Y9026679D2*
X5825130D1*
X5957083D2*
X6107063D1*
X7840190D2*
X7930013D1*
X4837747Y9002012D2*
X5825130D1*
X5957083D2*
X6082407D1*
X7864847D2*
X7930013D1*
X4747467Y8977346D2*
X5825130D1*
X5957083D2*
X6061217D1*
X7886040D2*
X7930013D1*
X4676763Y8952679D2*
X5825130D1*
X5957083D2*
X6054330D1*
X7892923D2*
X7930013D1*
X4617827Y8928012D2*
X5825130D1*
X5957083D2*
X6047740D1*
X7899517D2*
X7930013D1*
X4568313Y8903346D2*
X5825130D1*
X5957083D2*
X6041097D1*
X7906157D2*
X7930013D1*
X4521000Y8878679D2*
X5825130D1*
X5957083D2*
X6040513D1*
X7906743D2*
X7930013D1*
X4481987Y8854012D2*
X5715610D1*
X5813433D2*
X5825130D1*
X5957083D2*
X6047153D1*
X7900103D2*
X7930013D1*
X4442923Y8829346D2*
X5697983D1*
X5957083D2*
X6053743D1*
X7893510D2*
X7930013D1*
X4409820Y8804679D2*
X5673323D1*
X5957083D2*
X6060433D1*
X7886870D2*
X7930013D1*
X4377153Y8780012D2*
X5648667D1*
X5957083D2*
X6080210D1*
X7867047D2*
X7930013D1*
X4347467Y8755346D2*
X5624007D1*
X5815630D2*
X5825130D1*
X5957083D2*
X6104867D1*
X7842387D2*
X7930013D1*
X4319877Y8730679D2*
X5599350D1*
X5783843D2*
X5825130D1*
X5957083D2*
X6132210D1*
X7815043D2*
X7930013D1*
X4292337Y8706012D2*
X5574643D1*
X5759183D2*
X5825130D1*
X5957083D2*
X6243833D1*
X6452837D2*
X6497837D1*
X6706840D2*
X6751840D1*
X6960843D2*
X7005843D1*
X7214847D2*
X7259847D1*
X7468853D2*
X7513853D1*
X7722807D2*
X7930013D1*
X4268950Y8681346D2*
X5549983D1*
X5734527D2*
X5825130D1*
X5957083D2*
X6243833D1*
X6452837D2*
X6497837D1*
X6706840D2*
X6751840D1*
X6960843D2*
X7005843D1*
X7214847D2*
X7259847D1*
X7468853D2*
X7513853D1*
X7722807D2*
X7930013D1*
X4245660Y8656679D2*
X5525327D1*
X5709820D2*
X5825130D1*
X5957083D2*
X6243833D1*
X6452837D2*
X6497837D1*
X6706840D2*
X6751840D1*
X6960843D2*
X7005843D1*
X7214847D2*
X7259847D1*
X7468853D2*
X7513853D1*
X7722807D2*
X7930013D1*
X4222857Y8632012D2*
X5500667D1*
X5685160D2*
X5825130D1*
X5957083D2*
X6243833D1*
X6452837D2*
X6497837D1*
X6706840D2*
X6751840D1*
X6960843D2*
X7005843D1*
X7214847D2*
X7259847D1*
X7468853D2*
X7513853D1*
X7722807D2*
X7930013D1*
X4203177Y8607346D2*
X5476010D1*
X5660503D2*
X5825130D1*
X5957083D2*
X6243833D1*
X6452837D2*
X6497837D1*
X6706840D2*
X6751840D1*
X6960843D2*
X7005843D1*
X7214847D2*
X7259847D1*
X7468853D2*
X7513853D1*
X7722807D2*
X7930013D1*
X4183500Y8582679D2*
X5451353D1*
X5635843D2*
X5825130D1*
X5957083D2*
X6243833D1*
X6452837D2*
X6497837D1*
X6706840D2*
X6751840D1*
X6960843D2*
X7005843D1*
X7214847D2*
X7259847D1*
X7468853D2*
X7513853D1*
X7722807D2*
X7930013D1*
X4164067Y8558012D2*
X5426643D1*
X5611187D2*
X5825130D1*
X5957083D2*
X6243833D1*
X6452837D2*
X6497837D1*
X6706840D2*
X6751840D1*
X6960843D2*
X7005843D1*
X7214847D2*
X7259847D1*
X7468853D2*
X7513853D1*
X7722807D2*
X7930013D1*
X4147563Y8533346D2*
X5401987D1*
X5586527D2*
X5825130D1*
X5957083D2*
X6243833D1*
X6452837D2*
X6497837D1*
X6706840D2*
X6751840D1*
X6960843D2*
X7005843D1*
X7214847D2*
X7259847D1*
X7468853D2*
X7513853D1*
X7722807D2*
X7930013D1*
X4131060Y8508679D2*
X5377330D1*
X5561820D2*
X5825130D1*
X5957083D2*
X6243833D1*
X6452837D2*
X6497837D1*
X6706840D2*
X6751840D1*
X6960843D2*
X7005843D1*
X7214847D2*
X7259847D1*
X7468853D2*
X7513853D1*
X7722807D2*
X7930013D1*
X4114553Y8484012D2*
X5352670D1*
X5537163D2*
X5825130D1*
X5957083D2*
X6243833D1*
X6452837D2*
X6497837D1*
X6706840D2*
X6751840D1*
X6960843D2*
X7005843D1*
X7214847D2*
X7259847D1*
X7468853D2*
X7513853D1*
X7722807D2*
X7934410D1*
X4100393Y8459346D2*
X5328013D1*
X5512503D2*
X5825130D1*
X5957083D2*
X6243833D1*
X6452837D2*
X6497837D1*
X6706840D2*
X6751840D1*
X6960843D2*
X7005843D1*
X7214847D2*
X7259847D1*
X7468853D2*
X7513853D1*
X7722807D2*
X7951790D1*
X4086723Y8434679D2*
X5303303D1*
X5487847D2*
X5825130D1*
X5957083D2*
X6243833D1*
X6452837D2*
X6497837D1*
X6706840D2*
X6751840D1*
X6960843D2*
X7005843D1*
X7214847D2*
X7259847D1*
X7468853D2*
X7513853D1*
X7722807D2*
X7967610D1*
X9395853D2*
X9532847D1*
X4073050Y8410012D2*
X5278647D1*
X5463187D2*
X5825130D1*
X5957083D2*
X6243833D1*
X6452837D2*
X6497837D1*
X6706840D2*
X6751840D1*
X6960843D2*
X7005843D1*
X7214847D2*
X7259847D1*
X7468853D2*
X7513853D1*
X7722807D2*
X7980990D1*
X9322367D2*
X9556870D1*
X4060453Y8385346D2*
X5253990D1*
X5438530D2*
X5825130D1*
X5957083D2*
X6243833D1*
X6452837D2*
X6497837D1*
X6706840D2*
X6751840D1*
X6960843D2*
X7005843D1*
X7214847D2*
X7259847D1*
X7468853D2*
X7513853D1*
X7722807D2*
X7991977D1*
X9312407D2*
X9580893D1*
X4049370Y8360679D2*
X5229330D1*
X5413823D2*
X5825130D1*
X5957083D2*
X6243833D1*
X6452837D2*
X6497837D1*
X6706840D2*
X6751840D1*
X6960843D2*
X7005843D1*
X7214847D2*
X7259847D1*
X7468853D2*
X7513853D1*
X7722807D2*
X8000473D1*
X9302447D2*
X9604917D1*
X4038287Y8336012D2*
X5204673D1*
X5389163D2*
X5825130D1*
X5957083D2*
X6243833D1*
X6452837D2*
X6497837D1*
X6706840D2*
X6751840D1*
X6960843D2*
X7005843D1*
X7214847D2*
X7259847D1*
X7468853D2*
X7513853D1*
X7722807D2*
X8007210D1*
X9292533D2*
X9628890D1*
X4027200Y8311346D2*
X5180013D1*
X5364507D2*
X5825130D1*
X5957083D2*
X6291733D1*
X6393657D2*
X6548717D1*
X6650640D2*
X6805357D1*
X6907280D2*
X7063997D1*
X7685357D2*
X8012437D1*
X9282573D2*
X9652913D1*
X4018120Y8286679D2*
X5155307D1*
X5339847D2*
X5825130D1*
X5957083D2*
X6291733D1*
X6393657D2*
X6548717D1*
X6650640D2*
X6805357D1*
X6907280D2*
X7085823D1*
X7673343D2*
X8015660D1*
X9272610D2*
X9676937D1*
X4009427Y8262012D2*
X5130650D1*
X5315190D2*
X5825130D1*
X5957083D2*
X6291733D1*
X6393657D2*
X6548717D1*
X6650640D2*
X6760823D1*
X6907280D2*
X7110483D1*
X7722270D2*
X8018833D1*
X9262650D2*
X9700960D1*
X4000737Y8237346D2*
X5105990D1*
X5290483D2*
X5825130D1*
X5957083D2*
X6291733D1*
X6393657D2*
X6548717D1*
X6650640D2*
X6731673D1*
X6907280D2*
X7137680D1*
X7744193D2*
X8022007D1*
X9252690D2*
X9724983D1*
X3992437Y8212679D2*
X5081333D1*
X5265823D2*
X5825130D1*
X5957083D2*
X6285337D1*
X6400053D2*
X6548717D1*
X6650640D2*
X6721567D1*
X6907280D2*
X7545933D1*
X7751663D2*
X8144810D1*
X8391263D2*
X8769320D1*
X9015777D2*
X9749007D1*
X3985990Y8188012D2*
X5056673D1*
X5241167D2*
X5825130D1*
X5957083D2*
X6273667D1*
X6411723D2*
X6531333D1*
X6650640D2*
X6721223D1*
X6905913D2*
X7570590D1*
X7749760D2*
X8144810D1*
X8391263D2*
X8769320D1*
X9015777D2*
X9751547D1*
X3979547Y8163346D2*
X5032017D1*
X5216507D2*
X5825130D1*
X5957083D2*
X6218297D1*
X6413187D2*
X6506673D1*
X6645367D2*
X6730550D1*
X6891117D2*
X7597740D1*
X7737553D2*
X8144810D1*
X8391263D2*
X8769320D1*
X9015777D2*
X9751400D1*
X3973100Y8138679D2*
X5007310D1*
X5191850D2*
X5825130D1*
X5957083D2*
X6195247D1*
X6624077D2*
X6757210D1*
X6825297D2*
X7663560D1*
X7698587D2*
X8144810D1*
X8391263D2*
X8769320D1*
X9015777D2*
X9751253D1*
X3967533Y8114012D2*
X4982650D1*
X5167190D2*
X5825130D1*
X5957083D2*
X6187290D1*
X6599417D2*
X8144810D1*
X8391263D2*
X8769320D1*
X9015777D2*
X9751157D1*
X3963237Y8089346D2*
X4957993D1*
X5142483D2*
X5825130D1*
X5957083D2*
X6188753D1*
X6574760D2*
X8144810D1*
X8391263D2*
X8769320D1*
X9015777D2*
X9751010D1*
X3958940Y8064679D2*
X4933333D1*
X5117827D2*
X5825130D1*
X5957083D2*
X6200423D1*
X6547173D2*
X8144810D1*
X8391263D2*
X8769320D1*
X9015777D2*
X9750863D1*
X3954690Y8040012D2*
X4908677D1*
X5093167D2*
X5825130D1*
X5957083D2*
X6235823D1*
X6279790D2*
X8151937D1*
X8384133D2*
X8776450D1*
X9008647D2*
X9750717D1*
X3951517Y8015346D2*
X4884017D1*
X5068510D2*
X5825130D1*
X5957083D2*
X9750620D1*
X3949370Y7990679D2*
X4859310D1*
X5043853D2*
X5825130D1*
X5957083D2*
X9750473D1*
X3947173Y7966012D2*
X4834653D1*
X5019193D2*
X5825130D1*
X5957083D2*
X9750327D1*
X3944973Y7941346D2*
X4809993D1*
X4994487D2*
X5825130D1*
X5957083D2*
X8265073D1*
X8395513D2*
X8765073D1*
X8895513D2*
X9750180D1*
X3944243Y7916679D2*
X4785337D1*
X4969830D2*
X5825130D1*
X5957083D2*
X8240707D1*
X8419927D2*
X8740707D1*
X8919927D2*
X9750083D1*
X3944243Y7892012D2*
X4760677D1*
X4945170D2*
X5825130D1*
X5957083D2*
X8229720D1*
X8430863D2*
X8729720D1*
X8930863D2*
X9749937D1*
X3944243Y7867346D2*
X4735970D1*
X4920513D2*
X5825130D1*
X5957083D2*
X8226840D1*
X8433743D2*
X8726840D1*
X8933743D2*
X9749790D1*
X3944243Y7842679D2*
X4711313D1*
X4895853D2*
X5825130D1*
X5957083D2*
X8231187D1*
X8429400D2*
X8731187D1*
X8929400D2*
X9749643D1*
X3944243Y7818012D2*
X4686653D1*
X4871197D2*
X5825130D1*
X5957083D2*
X8244127D1*
X8416460D2*
X8744127D1*
X8916460D2*
X9749497D1*
X3944243Y7793346D2*
X4661997D1*
X4846490D2*
X5825130D1*
X5957083D2*
X8273423D1*
X8387163D2*
X8509117D1*
X8716217D2*
X8773423D1*
X8887163D2*
X9749400D1*
X3944243Y7768679D2*
X4637337D1*
X4821830D2*
X5825130D1*
X5957083D2*
X8493980D1*
X8731353D2*
X9749253D1*
X3944243Y7744012D2*
X4612680D1*
X4797173D2*
X5825130D1*
X5957083D2*
X7091097D1*
X7174710D2*
X8490120D1*
X8737210D2*
X9749107D1*
X3944243Y7719346D2*
X4587973D1*
X4772513D2*
X5825130D1*
X5957083D2*
X6961020D1*
X7196293D2*
X8495443D1*
X8761870D2*
X9748960D1*
X3944243Y7694679D2*
X4563313D1*
X4747857D2*
X5825130D1*
X5957083D2*
X6936313D1*
X7203570D2*
X8513167D1*
X8786577D2*
X9748860D1*
X3944243Y7670012D2*
X4538657D1*
X4723150D2*
X5825130D1*
X5957083D2*
X6003793D1*
X6090287D2*
X6911653D1*
X7201517D2*
X8566000D1*
X8811233D2*
X9748717D1*
X3944243Y7645346D2*
X4513997D1*
X4698490D2*
X5825130D1*
X5957083D2*
X5983140D1*
X7189067D2*
X8591243D1*
X8835893D2*
X9748570D1*
X3944243Y7620679D2*
X4489340D1*
X4673833D2*
X5825130D1*
X5957083D2*
X5976303D1*
X7011480D2*
X7117270D1*
X7148587D2*
X8656187D1*
X8857330D2*
X9748423D1*
X3944243Y7596012D2*
X4464683D1*
X4649173D2*
X5825130D1*
X5957083D2*
X5978697D1*
X6986820D2*
X8680843D1*
X8862700D2*
X9748323D1*
X3944243Y7571346D2*
X4439973D1*
X4624517D2*
X5825130D1*
X5957083D2*
X5991733D1*
X6960063D2*
X8705550D1*
X8862700D2*
X9748177D1*
X3944243Y7546679D2*
X4415317D1*
X4599857D2*
X5825130D1*
X5957083D2*
X6038950D1*
X6055177D2*
X8720687D1*
X8862700D2*
X9748030D1*
X3944243Y7522012D2*
X4390660D1*
X4575150D2*
X5825130D1*
X5957083D2*
X8464877D1*
X8862700D2*
X9747883D1*
X3944243Y7497346D2*
X4366000D1*
X4550493D2*
X5825130D1*
X5957083D2*
X8431087D1*
X8862700D2*
X9747740D1*
X3944243Y7472679D2*
X4341343D1*
X4525833D2*
X5825130D1*
X5957083D2*
X6725377D1*
X8862700D2*
X9747640D1*
X3944243Y7448012D2*
X4316683D1*
X4501177D2*
X5825130D1*
X5957083D2*
X6700717D1*
X8862700D2*
X9747493D1*
X3944243Y7423346D2*
X4291977D1*
X4476517D2*
X5825130D1*
X5957083D2*
X6676060D1*
X8862700D2*
X9747347D1*
X3944243Y7398679D2*
X4267320D1*
X4451860D2*
X5824300D1*
X5957867D2*
X6396323D1*
X6554593D2*
X6651400D1*
X8859133D2*
X9747200D1*
X3944243Y7374012D2*
X4242660D1*
X4427153D2*
X5820103D1*
X5962063D2*
X6366440D1*
X6568267D2*
X6626693D1*
X8488823D2*
X8639437D1*
X8839800D2*
X9747103D1*
X3944243Y7349346D2*
X4218003D1*
X4402493D2*
X5825083D1*
X5957083D2*
X6341780D1*
X6571097D2*
X6602037D1*
X6786577D2*
X8614780D1*
X8815140D2*
X9746957D1*
X3944243Y7324679D2*
X4193343D1*
X4377837D2*
X5842123D1*
X5940043D2*
X6317073D1*
X6564700D2*
X6577377D1*
X6761917D2*
X8590120D1*
X8790483D2*
X9746810D1*
X3944243Y7300012D2*
X4161557D1*
X4353177D2*
X5753403D1*
X5841653D2*
X6292417D1*
X6434527D2*
X6455453D1*
X6545073D2*
X6552703D1*
X6737210D2*
X8565463D1*
X8765823D2*
X9746663D1*
X3944243Y7275346D2*
X4145737D1*
X4328520D2*
X5733333D1*
X6409867D2*
X6528060D1*
X6712553D2*
X8540803D1*
X8741117D2*
X9746567D1*
X3944243Y7250679D2*
X4141440D1*
X4303860D2*
X5726693D1*
X6385160D2*
X6503403D1*
X6687893D2*
X8528450D1*
X8716460D2*
X9746420D1*
X3944243Y7226012D2*
X4146370D1*
X4279153D2*
X5729380D1*
X6360503D2*
X6478697D1*
X6663237D2*
X8527670D1*
X8691800D2*
X9746273D1*
X3944243Y7201346D2*
X4163313D1*
X4261577D2*
X5742710D1*
X6331303D2*
X6454037D1*
X6638580D2*
X8527670D1*
X8670950D2*
X9746127D1*
X3944243Y7176679D2*
X6429477D1*
X6613870D2*
X8527670D1*
X8670950D2*
X9745980D1*
X3944243Y7152012D2*
X6415610D1*
X6589213D2*
X8527670D1*
X8670950D2*
X9745883D1*
X3944243Y7127346D2*
X6412973D1*
X6564553D2*
X8527670D1*
X8670950D2*
X9745737D1*
X3944243Y7102679D2*
X6412973D1*
X6544927D2*
X8527670D1*
X8670950D2*
X9745590D1*
X3944243Y7078012D2*
X6412973D1*
X6544927D2*
X8527670D1*
X8670950D2*
X9745443D1*
X3944243Y7053346D2*
X6294957D1*
X6390383D2*
X6408580D1*
X6549320D2*
X8527670D1*
X8670950D2*
X9745347D1*
X3944243Y7028679D2*
X6277133D1*
X6548197D2*
X8527670D1*
X8670950D2*
X9745200D1*
X3944243Y7004012D2*
X6271713D1*
X6537063D2*
X8527670D1*
X8670950D2*
X9745053D1*
X3944243Y6979346D2*
X6205843D1*
X6409867D2*
X6453843D1*
X6504057D2*
X8527670D1*
X8670950D2*
X9744907D1*
X3944243Y6954679D2*
X6188853D1*
X6394830D2*
X7710873D1*
X7771050D2*
X8527670D1*
X8670950D2*
X9744810D1*
X3944243Y6930012D2*
X6183920D1*
X6393657D2*
X6608187D1*
X7800393D2*
X8091683D1*
X8199320D2*
X8527670D1*
X8670950D2*
X9744663D1*
X3944243Y6905346D2*
X6188167D1*
X6393657D2*
X6587583D1*
X7810650D2*
X8077720D1*
X8213287D2*
X8527670D1*
X8670950D2*
X9744517D1*
X3944243Y6880679D2*
X6203940D1*
X6393657D2*
X6580747D1*
X7810990D2*
X8074593D1*
X8216360D2*
X8527670D1*
X8670950D2*
X9744370D1*
X3944243Y6856012D2*
X6203940D1*
X6393657D2*
X6583187D1*
X7804007D2*
X8075377D1*
X8211480D2*
X8527670D1*
X8670950D2*
X9728060D1*
X3944243Y6831346D2*
X6203940D1*
X6393657D2*
X6596223D1*
X7789507D2*
X8050717D1*
X8211430D2*
X8527670D1*
X8670950D2*
X9703060D1*
X3944243Y6806679D2*
X6203940D1*
X6393657D2*
X6472837D1*
X8205327D2*
X8527670D1*
X8670950D2*
X9678060D1*
X3944243Y6782012D2*
X6203940D1*
X6393657D2*
X6444417D1*
X8185893D2*
X8527670D1*
X8670950D2*
X9653013D1*
X3944243Y6757346D2*
X6203940D1*
X6393657D2*
X6419760D1*
X8161233D2*
X8527670D1*
X8670950D2*
X9628013D1*
X3944243Y6732679D2*
X6203940D1*
X6393657D2*
X6401427D1*
X8136577D2*
X8527670D1*
X8670950D2*
X9603013D1*
X3944243Y6708012D2*
X6203940D1*
X8111917D2*
X8527670D1*
X8670950D2*
X9577963D1*
X3944243Y6683346D2*
X6203940D1*
X6530277D2*
X8527670D1*
X8670950D2*
X9552963D1*
X3944243Y6658679D2*
X4765023D1*
X6095853D2*
X6203940D1*
X6528130D2*
X6720247D1*
X6774957D2*
X7440610D1*
X7495317D2*
X8510433D1*
X8670950D2*
X9527963D1*
X3944243Y6634012D2*
X4748570D1*
X6121050D2*
X6203940D1*
X6528130D2*
X6688900D1*
X7526663D2*
X8485777D1*
X8670853D2*
X9502963D1*
X3944243Y6609346D2*
X4743880D1*
X6145757D2*
X6203940D1*
X6528130D2*
X6678160D1*
X7537407D2*
X8461117D1*
X8661967D2*
X9477913D1*
X3944243Y6584679D2*
X4748423D1*
X6170413D2*
X6203940D1*
X6528130D2*
X6677330D1*
X7538187D2*
X8436460D1*
X8638287D2*
X9452913D1*
X3944243Y6560012D2*
X4764683D1*
X6528130D2*
X6686117D1*
X7529447D2*
X8411800D1*
X8613627D2*
X9427913D1*
X3944243Y6535346D2*
X5691587D1*
X6528130D2*
X6711167D1*
X6784037D2*
X6804967D1*
X6946683D2*
X7431527D1*
X7504400D2*
X8387143D1*
X8588920D2*
X9402913D1*
X3944243Y6510679D2*
X5694810D1*
X6943803D2*
X8362437D1*
X8564263D2*
X9377867D1*
X3944243Y6486012D2*
X5709017D1*
X6941800D2*
X8337777D1*
X8539603D2*
X9352867D1*
X3944243Y6461346D2*
X5912483D1*
X6941800D2*
X8313120D1*
X8514947D2*
X9327867D1*
X3930913Y6436679D2*
X5937143D1*
X6940823D2*
X8288460D1*
X8490287D2*
X9302817D1*
X3886820Y6412012D2*
X5961800D1*
X6930717D2*
X8263803D1*
X8465630D2*
X9277817D1*
X3842730Y6387346D2*
X5986460D1*
X6897467D2*
X8239143D1*
X8440923D2*
X9252817D1*
X3798637Y6362679D2*
X6011117D1*
X6903323D2*
X8029967D1*
X8119290D2*
X8214437D1*
X8416263D2*
X9227817D1*
X3754547Y6338012D2*
X5827037D1*
X5890140D2*
X6035777D1*
X8139067D2*
X8189780D1*
X8391607D2*
X9202767D1*
X3710893Y6313346D2*
X5798717D1*
X5918510D2*
X6251890D1*
X8145463D2*
X8165120D1*
X8366947D2*
X9177767D1*
X3675103Y6288679D2*
X5662337D1*
X5928423D2*
X6227230D1*
X8342290D2*
X9152767D1*
X3639360Y6264012D2*
X5634553D1*
X5928570D2*
X6202573D1*
X6344683D2*
X6437437D1*
X8317630D2*
X9127767D1*
X3603617Y6239346D2*
X5609847D1*
X5918997D2*
X6177913D1*
X6319973D2*
X6433140D1*
X7318607D2*
X8091147D1*
X8292923D2*
X9102720D1*
X3567827Y6214679D2*
X5585190D1*
X5891653D2*
X6097787D1*
X6295317D2*
X6433140D1*
X7312457D2*
X8066440D1*
X8268267D2*
X9077720D1*
X3532083Y6190012D2*
X5560530D1*
X5864897D2*
X6053550D1*
X6270660D2*
X6433140D1*
X7180667D2*
X7202230D1*
X7293217D2*
X8041780D1*
X8243607D2*
X9052720D1*
X3496343Y6165346D2*
X5535873D1*
X5836333D2*
X6035873D1*
X6292483D2*
X6433140D1*
X6649563D2*
X6934847D1*
X7156010D2*
X8017123D1*
X8218950D2*
X9027670D1*
X3460550Y6140679D2*
X5511217D1*
X5836773D2*
X6030503D1*
X6319097D2*
X6417270D1*
X6651370D2*
X6936997D1*
X7131303D2*
X7992467D1*
X8194290D2*
X9002670D1*
X3424810Y6116012D2*
X5455013D1*
X5827593D2*
X6034360D1*
X6328373D2*
X6410970D1*
X6651370D2*
X6949547D1*
X7103667D2*
X7967807D1*
X8169633D2*
X8977670D1*
X3389017Y6091346D2*
X5425130D1*
X5801323D2*
X6049497D1*
X6328030D2*
X6413853D1*
X6661627D2*
X6959750D1*
X8144927D2*
X8952670D1*
X3353277Y6066679D2*
X5414780D1*
X5794683D2*
X6105600D1*
X6317877D2*
X6427620D1*
X6536040D2*
X6551790D1*
X6686283D2*
X6958480D1*
X8120267D2*
X8927620D1*
X3317533Y6042012D2*
X5414290D1*
X6098930D2*
X6120297D1*
X6288677D2*
X6508433D1*
X6710940D2*
X6966683D1*
X8095610D2*
X8902620D1*
X3281743Y6017346D2*
X5423423D1*
X5629937D2*
X5663217D1*
X6126617D2*
X6455797D1*
X6735650D2*
X6971860D1*
X8070950D2*
X8877620D1*
X3246000Y5992679D2*
X5449497D1*
X5605277D2*
X5674690D1*
X6151273D2*
X6432357D1*
X6760307D2*
X6962337D1*
X8046293D2*
X8852620D1*
X3210257Y5968012D2*
X5438510D1*
X5580620D2*
X5709310D1*
X6164653D2*
X6371470D1*
X6784967D2*
X6962483D1*
X8021587D2*
X8836753D1*
X3174467Y5943346D2*
X5413853D1*
X5555960D2*
X5844857D1*
X6165630D2*
X6199203D1*
X6809623D2*
X6972447D1*
X7092143D2*
X8821223D1*
X3138723Y5918679D2*
X5389193D1*
X5531253D2*
X5844173D1*
X6165630D2*
X6175327D1*
X6834280D2*
X7000960D1*
X7063627D2*
X8811753D1*
X3102983Y5894012D2*
X5370003D1*
X5506597D2*
X5844173D1*
X6858940D2*
X8807210D1*
X3067190Y5869346D2*
X5366490D1*
X5481937D2*
X5844173D1*
X5946097D2*
X6021617D1*
X6881987D2*
X8802720D1*
X3031450Y5844679D2*
X5366490D1*
X5468413D2*
X5844173D1*
X5946097D2*
X5989633D1*
X6889507D2*
X8803647D1*
X2995660Y5820012D2*
X5366490D1*
X5468413D2*
X5844173D1*
X5946097D2*
X5978697D1*
X6889507D2*
X8808627D1*
X2959917Y5795346D2*
X5366490D1*
X5468413D2*
X5844173D1*
X5946097D2*
X5977817D1*
X6889507D2*
X8813607D1*
X2924173Y5770679D2*
X5366490D1*
X5468413D2*
X5844173D1*
X5946097D2*
X5986410D1*
X6889507D2*
X8825423D1*
X2888383Y5746012D2*
X5366490D1*
X5468413D2*
X5844173D1*
X5946097D2*
X6005210D1*
X6889507D2*
X8841587D1*
X2852640Y5721346D2*
X5366490D1*
X5515873D2*
X5844173D1*
X5946097D2*
X6001497D1*
X6889507D2*
X8859310D1*
X2816900Y5696679D2*
X5366490D1*
X5779350D2*
X5844173D1*
X5946097D2*
X5966587D1*
X6889507D2*
X8894613D1*
X2781107Y5672012D2*
X5366490D1*
X5808060D2*
X5844173D1*
X5946097D2*
X5954163D1*
X6889507D2*
X8954477D1*
X2745367Y5647346D2*
X5366490D1*
X5818070D2*
X5844173D1*
X6889507D2*
X9145737D1*
X2709623Y5622679D2*
X5366490D1*
X5818267D2*
X5844173D1*
X5946097D2*
X5959457D1*
X6889507D2*
X9369127D1*
X2673833Y5598012D2*
X5366490D1*
X5506643D2*
X5687777D1*
X5808843D2*
X5844173D1*
X5946097D2*
X5971810D1*
X6889507D2*
X9592563D1*
X2638090Y5573346D2*
X5366490D1*
X5468413D2*
X5714780D1*
X5781840D2*
X5844173D1*
X5946097D2*
X5971810D1*
X6889507D2*
X9672690D1*
X2602300Y5548679D2*
X5366490D1*
X5468413D2*
X5844173D1*
X5946097D2*
X5971810D1*
X6889507D2*
X7749690D1*
X2566557Y5524012D2*
X5366490D1*
X5468413D2*
X5844173D1*
X5946097D2*
X5971810D1*
X6889507D2*
X7725033D1*
X9737210D2*
X9749443D1*
X2530813Y5499346D2*
X5366490D1*
X5468413D2*
X5844173D1*
X5946097D2*
X5971810D1*
X6885843D2*
X7700377D1*
X9761870D2*
X9787777D1*
X2495023Y5474679D2*
X5366490D1*
X5468413D2*
X5844173D1*
X5946097D2*
X5971810D1*
X6866460D2*
X7675717D1*
X9786527D2*
X9826157D1*
X2459280Y5450012D2*
X5366490D1*
X5468413D2*
X5844173D1*
X5946097D2*
X5971810D1*
X6841800D2*
X7651060D1*
X7793120D2*
X9669127D1*
X9811187D2*
X9864537D1*
X2423540Y5425346D2*
X5366490D1*
X5468413D2*
X5844173D1*
X5946097D2*
X5971810D1*
X6817093D2*
X7626353D1*
X7768460D2*
X9693783D1*
X9835893D2*
X9902913D1*
X2387747Y5400679D2*
X5366490D1*
X5468413D2*
X5844173D1*
X5946097D2*
X5971810D1*
X6797710D2*
X7601693D1*
X7743803D2*
X9718440D1*
X9860550D2*
X9962777D1*
X2352007Y5376012D2*
X5366490D1*
X5468413D2*
X5844173D1*
X5946097D2*
X5971810D1*
X6797710D2*
X7577037D1*
X7719143D2*
X9743100D1*
X9885210D2*
X10030110D1*
X2316217Y5351346D2*
X4499400D1*
X4574173D2*
X5366490D1*
X5468413D2*
X5844173D1*
X5946097D2*
X5971810D1*
X6797710D2*
X6832163D1*
X7463433D2*
X7552377D1*
X7694437D2*
X9767807D1*
X9938040D2*
X10084360D1*
X2280473Y5326679D2*
X4474983D1*
X4598587D2*
X5366490D1*
X5468413D2*
X5844173D1*
X5946097D2*
X5971810D1*
X6797710D2*
X6808993D1*
X7486627D2*
X7527720D1*
X7669780D2*
X9792467D1*
X9955667D2*
X10131233D1*
X2244730Y5302012D2*
X4466490D1*
X4607133D2*
X5366490D1*
X5471587D2*
X5844173D1*
X5946097D2*
X5971810D1*
X7494633D2*
X7503050D1*
X7645120D2*
X9817123D1*
X9960990D2*
X10168247D1*
X2208940Y5277346D2*
X4467467D1*
X4622857D2*
X5367123D1*
X5496243D2*
X5844173D1*
X5946097D2*
X5971810D1*
X7620463D2*
X9822933D1*
X9957083D2*
X10201400D1*
X2173197Y5252679D2*
X2821617D1*
X2924857D2*
X4478450D1*
X4647563D2*
X5378940D1*
X5520903D2*
X5844173D1*
X5946097D2*
X5971810D1*
X6797710D2*
X6813950D1*
X7595803D2*
X9838167D1*
X9941850D2*
X10234310D1*
X2137457Y5228012D2*
X2806233D1*
X2940240D2*
X4510873D1*
X4672220D2*
X5403500D1*
X5535893D2*
X5844173D1*
X5946097D2*
X5971810D1*
X6797710D2*
X6849007D1*
X6893853D2*
X7401743D1*
X7571147D2*
X10257797D1*
X2102787Y5203346D2*
X2802280D1*
X2944243D2*
X4554770D1*
X4696880D2*
X5428160D1*
X5537357D2*
X5844173D1*
X5946097D2*
X5971810D1*
X6797710D2*
X6962047D1*
X7046977D2*
X7404380D1*
X7546440D2*
X10277377D1*
X2080277Y5178679D2*
X2807457D1*
X2939017D2*
X4579477D1*
X4721537D2*
X5426400D1*
X5546390D2*
X5844173D1*
X5946097D2*
X5971810D1*
X6807913D2*
X6940903D1*
X7521780D2*
X10296910D1*
X2057720Y5154012D2*
X2822300D1*
X2924223D2*
X4604133D1*
X4746197D2*
X5267857D1*
X5373247D2*
X5416537D1*
X5556207D2*
X5844173D1*
X5946097D2*
X5971810D1*
X6832573D2*
X6933773D1*
X7497123D2*
X10316440D1*
X2035160Y5129346D2*
X2822300D1*
X2924223D2*
X4628793D1*
X4770853D2*
X5253160D1*
X5387943D2*
X5416440D1*
X5556303D2*
X5844173D1*
X5946097D2*
X5971810D1*
X6857280D2*
X6936020D1*
X7472467D2*
X10335970D1*
X2012650Y5104679D2*
X2822300D1*
X2924223D2*
X4653450D1*
X4795560D2*
X5249593D1*
X5391507D2*
X5426060D1*
X5546683D2*
X5844173D1*
X5946097D2*
X5971810D1*
X6881450D2*
X6948717D1*
X7444583D2*
X10355550D1*
X1990093Y5080012D2*
X2822300D1*
X2924223D2*
X4678110D1*
X4820220D2*
X5255257D1*
X5385843D2*
X5453550D1*
X5519243D2*
X5844173D1*
X5946097D2*
X5971810D1*
X6891557D2*
X6991587D1*
X7017400D2*
X7086410D1*
X7177690D2*
X10375083D1*
X1967533Y5055346D2*
X2822300D1*
X2924223D2*
X4702767D1*
X4844877D2*
X5270640D1*
X6891850D2*
X7067270D1*
X7196830D2*
X10394613D1*
X1945023Y5030679D2*
X2822300D1*
X2924223D2*
X4727473D1*
X4869537D2*
X5290757D1*
X6899127D2*
X7061167D1*
X7202933D2*
X10414193D1*
X1922467Y5006012D2*
X2822300D1*
X2924223D2*
X4752133D1*
X4894193D2*
X5315413D1*
X6923783D2*
X7064290D1*
X7223880D2*
X10433723D1*
X1899907Y4981346D2*
X2822300D1*
X2924223D2*
X4776790D1*
X4918853D2*
X5340073D1*
X6196537D2*
X6217660D1*
X6265140D2*
X6272680D1*
X6948490D2*
X7078303D1*
X7248540D2*
X10453257D1*
X1877397Y4956679D2*
X2822300D1*
X2924223D2*
X4801450D1*
X4943560D2*
X5853257D1*
X6171830D2*
X6272690D1*
X6973150D2*
X7131137D1*
X7273197D2*
X10472837D1*
X1854837Y4932012D2*
X2822300D1*
X2924223D2*
X4826107D1*
X4968217D2*
X5828597D1*
X6147173D2*
X6272690D1*
X6829447D2*
X6855697D1*
X6997807D2*
X7155797D1*
X7297857D2*
X10492367D1*
X1832280Y4907346D2*
X2822300D1*
X2924223D2*
X4850767D1*
X4992877D2*
X5803940D1*
X6122513D2*
X6272690D1*
X6829447D2*
X6880403D1*
X7022467D2*
X7180453D1*
X7322563D2*
X10511900D1*
X1809770Y4882679D2*
X2822300D1*
X2924223D2*
X4875473D1*
X6097857D2*
X6272690D1*
X6829447D2*
X6905063D1*
X7047123D2*
X7205110D1*
X7347220D2*
X10531480D1*
X1787210Y4858012D2*
X2822300D1*
X2924223D2*
X4900130D1*
X6073197D2*
X6272690D1*
X6583160D2*
X6604380D1*
X6829447D2*
X6929720D1*
X7071780D2*
X7229820D1*
X7371880D2*
X10551010D1*
X1764653Y4833346D2*
X2822300D1*
X2924223D2*
X4924790D1*
X6048540D2*
X6272690D1*
X6583160D2*
X6604380D1*
X6829447D2*
X6954380D1*
X7096490D2*
X7254477D1*
X7396537D2*
X10570540D1*
X1742143Y4808679D2*
X2822300D1*
X2924223D2*
X4959163D1*
X6023833D2*
X6272690D1*
X6583160D2*
X6604380D1*
X6829447D2*
X6979037D1*
X7121147D2*
X7279133D1*
X7421197D2*
X10590120D1*
X1719583Y4784012D2*
X2822300D1*
X2924223D2*
X5738363D1*
X5999173D2*
X6272690D1*
X6583160D2*
X6604380D1*
X6829447D2*
X7003697D1*
X7145803D2*
X7303793D1*
X7445903D2*
X10609653D1*
X1697027Y4759346D2*
X2822300D1*
X2924223D2*
X5713707D1*
X5974517D2*
X6272690D1*
X6583160D2*
X6604380D1*
X6829447D2*
X7028403D1*
X7170463D2*
X7328450D1*
X7470560D2*
X10629183D1*
X1674517Y4734679D2*
X2822300D1*
X2924223D2*
X5689047D1*
X5949857D2*
X6272690D1*
X6583160D2*
X6604380D1*
X6829447D2*
X7053060D1*
X7195120D2*
X7353110D1*
X7495220D2*
X10648763D1*
X1651957Y4710012D2*
X2822300D1*
X2924223D2*
X5664390D1*
X5925200D2*
X6272690D1*
X6583160D2*
X6604380D1*
X6829447D2*
X7077720D1*
X7219780D2*
X7377817D1*
X7519877D2*
X10668297D1*
X1629400Y4685346D2*
X2822300D1*
X2924223D2*
X5639683D1*
X5900493D2*
X6272690D1*
X6583160D2*
X6604380D1*
X6829447D2*
X7102377D1*
X7244487D2*
X7402473D1*
X7544537D2*
X10687827D1*
X1606890Y4660679D2*
X2822300D1*
X2924223D2*
X5615023D1*
X5875833D2*
X6266243D1*
X6583160D2*
X6604380D1*
X6829447D2*
X7127037D1*
X7269143D2*
X7427133D1*
X7569193D2*
X10707407D1*
X1584330Y4636012D2*
X2822300D1*
X2924223D2*
X5590367D1*
X5851177D2*
X6241587D1*
X6583160D2*
X6604380D1*
X6829447D2*
X7151693D1*
X7293803D2*
X7451790D1*
X7593900D2*
X10726937D1*
X1561773Y4611346D2*
X2822300D1*
X2924223D2*
X5565707D1*
X5826517D2*
X6216927D1*
X6583160D2*
X6604380D1*
X6829447D2*
X7176400D1*
X7318460D2*
X7476450D1*
X7618560D2*
X10746470D1*
X1539213Y4586679D2*
X2822300D1*
X2924223D2*
X5541050D1*
X5801860D2*
X6192270D1*
X6583160D2*
X6604380D1*
X6829447D2*
X7201060D1*
X7343120D2*
X7501107D1*
X7643217D2*
X10766050D1*
X1516703Y4562012D2*
X2822300D1*
X2924223D2*
X5516390D1*
X5777200D2*
X6167563D1*
X6583160D2*
X6604380D1*
X6829447D2*
X7225717D1*
X7367827D2*
X7525813D1*
X7667877D2*
X10785580D1*
X1494143Y4537346D2*
X2822300D1*
X2924223D2*
X5491683D1*
X5752493D2*
X6142903D1*
X6583160D2*
X6604380D1*
X6829447D2*
X7250377D1*
X7392483D2*
X7550473D1*
X7692533D2*
X10805110D1*
X1471587Y4512679D2*
X2822300D1*
X2924223D2*
X5467027D1*
X5727837D2*
X6118247D1*
X6583160D2*
X6604380D1*
X6829447D2*
X7275033D1*
X7443560D2*
X7575130D1*
X7717190D2*
X10824690D1*
X1449077Y4488012D2*
X2822300D1*
X2924223D2*
X5442367D1*
X5703177D2*
X6093587D1*
X6583160D2*
X6604380D1*
X6829447D2*
X7299740D1*
X7466020D2*
X7599790D1*
X7741900D2*
X10844223D1*
X1426517Y4463346D2*
X2822300D1*
X2924223D2*
X5417710D1*
X5678520D2*
X6068930D1*
X6583160D2*
X6604380D1*
X6829447D2*
X7324400D1*
X7473687D2*
X7624447D1*
X7766557D2*
X10863753D1*
X1403960Y4438679D2*
X2822300D1*
X2924223D2*
X5259897D1*
X5653860D2*
X6044273D1*
X6464310D2*
X6481233D1*
X6583160D2*
X6604380D1*
X6850933D2*
X7334263D1*
X7472027D2*
X7649107D1*
X7791217D2*
X10883333D1*
X1381450Y4414012D2*
X2822300D1*
X2924223D2*
X5246470D1*
X5629203D2*
X6019563D1*
X6439603D2*
X6481233D1*
X6583160D2*
X6604380D1*
X6875590D2*
X7346223D1*
X7460063D2*
X7673813D1*
X7815873D2*
X10902867D1*
X1358890Y4389346D2*
X2822300D1*
X2924223D2*
X5243733D1*
X5604497D2*
X5994907D1*
X6414947D2*
X6481233D1*
X6583160D2*
X6604380D1*
X6900247D2*
X7383383D1*
X7422903D2*
X7698470D1*
X7840530D2*
X10922397D1*
X1336333Y4364679D2*
X2822300D1*
X2924223D2*
X5250230D1*
X5579837D2*
X5970247D1*
X6390287D2*
X6481233D1*
X6583160D2*
X6604380D1*
X6924907D2*
X7723130D1*
X7865190D2*
X10941977D1*
X1313823Y4340012D2*
X2822300D1*
X2924223D2*
X5270200D1*
X5555180D2*
X5945590D1*
X6365630D2*
X6481233D1*
X6583160D2*
X6604380D1*
X6949613D2*
X7747787D1*
X7889897D2*
X10961507D1*
X1291263Y4315346D2*
X2822300D1*
X3231743D2*
X5327473D1*
X5530523D2*
X5920933D1*
X6340970D2*
X6481233D1*
X6583160D2*
X6604380D1*
X6974273D2*
X7772447D1*
X7914553D2*
X10981040D1*
X1268707Y4290679D2*
X2822300D1*
X3246243D2*
X5302817D1*
X5505863D2*
X5896223D1*
X6316313D2*
X6456773D1*
X6583160D2*
X6604380D1*
X6998930D2*
X7797103D1*
X7939213D2*
X11000620D1*
X1246197Y4266012D2*
X2824203D1*
X3247513D2*
X5278160D1*
X5481207D2*
X5850277D1*
X6291607D2*
X6446470D1*
X6585747D2*
X6604380D1*
X7023587D2*
X7821810D1*
X7963870D2*
X11020150D1*
X1223637Y4241346D2*
X2840950D1*
X3247513D2*
X5253500D1*
X5456497D2*
X5820347D1*
X6266947D2*
X6445980D1*
X6586187D2*
X6604380D1*
X7048247D2*
X7846470D1*
X7988530D2*
X11039683D1*
X1201080Y4216679D2*
X3145590D1*
X3247513D2*
X5228843D1*
X5431840D2*
X5809993D1*
X6242290D2*
X6455160D1*
X6577007D2*
X6604380D1*
X7072903D2*
X7871127D1*
X8013237D2*
X11059263D1*
X1184280Y4192012D2*
X3145590D1*
X3247513D2*
X5204133D1*
X5407183D2*
X5809457D1*
X6217630D2*
X6481333D1*
X6550883D2*
X6604380D1*
X7097610D2*
X7895787D1*
X8037893D2*
X11073080D1*
X1180423Y4167346D2*
X3145590D1*
X3247513D2*
X5179477D1*
X5382523D2*
X5818587D1*
X6192973D2*
X6604380D1*
X7122270D2*
X7920443D1*
X8062553D2*
X11077280D1*
X1176617Y4142679D2*
X3145590D1*
X3247513D2*
X5154820D1*
X5357867D2*
X5835727D1*
X6168313D2*
X6604380D1*
X7146927D2*
X7945150D1*
X8087210D2*
X11081480D1*
X1172807Y4118012D2*
X3145590D1*
X3247513D2*
X5130160D1*
X5333160D2*
X5811020D1*
X6143607D2*
X6611313D1*
X6905180D2*
X6937143D1*
X7171587D2*
X7969810D1*
X8111870D2*
X11085677D1*
X1168950Y4093346D2*
X3145590D1*
X3247513D2*
X5105503D1*
X5308500D2*
X5786360D1*
X6118950D2*
X6633920D1*
X6883353D2*
X6961800D1*
X7196243D2*
X7994467D1*
X8136527D2*
X11089877D1*
X1165140Y4068679D2*
X3145590D1*
X3247513D2*
X5080843D1*
X5283843D2*
X5761703D1*
X6094290D2*
X6658580D1*
X6878617D2*
X6986460D1*
X7220903D2*
X8019127D1*
X8161233D2*
X11094077D1*
X1161283Y4044012D2*
X3145590D1*
X3247513D2*
X5056137D1*
X5273733D2*
X5737047D1*
X6069633D2*
X6683237D1*
X6903277D2*
X7011117D1*
X7245610D2*
X8043783D1*
X8229153D2*
X11098277D1*
X1157473Y4019346D2*
X3145590D1*
X3247513D2*
X5031480D1*
X5273733D2*
X5712387D1*
X6044973D2*
X6707893D1*
X6927933D2*
X7035777D1*
X7270267D2*
X8068440D1*
X8243217D2*
X11102523D1*
X1153617Y3994679D2*
X3145590D1*
X3247513D2*
X5006820D1*
X5148930D2*
X5171763D1*
X5273733D2*
X5687730D1*
X6020317D2*
X6732603D1*
X6952593D2*
X7060433D1*
X7294927D2*
X8093150D1*
X8246390D2*
X11106723D1*
X1149810Y3970012D2*
X3145590D1*
X3247513D2*
X4982163D1*
X5124223D2*
X5171763D1*
X5273733D2*
X5663023D1*
X5995610D2*
X6757260D1*
X6977250D2*
X7085140D1*
X7319583D2*
X8110677D1*
X8240337D2*
X11110923D1*
X1146000Y3945346D2*
X3145590D1*
X3247513D2*
X4957503D1*
X5099563D2*
X5171763D1*
X5273733D2*
X5638363D1*
X5970950D2*
X6767220D1*
X7001957D2*
X7109800D1*
X7344243D2*
X8129720D1*
X8221293D2*
X11115120D1*
X1142143Y3920679D2*
X3145590D1*
X3247513D2*
X4932847D1*
X5074907D2*
X5171763D1*
X5273733D2*
X5613707D1*
X5946293D2*
X6767220D1*
X6869143D2*
X6884537D1*
X7026617D2*
X7134457D1*
X7368900D2*
X11119320D1*
X1138333Y3896012D2*
X3145590D1*
X3247513D2*
X4908140D1*
X5050247D2*
X5171763D1*
X5273733D2*
X5589047D1*
X5921633D2*
X6767220D1*
X6869143D2*
X6909163D1*
X7051273D2*
X7159117D1*
X7393607D2*
X11123520D1*
X1134477Y3871346D2*
X3145590D1*
X3247513D2*
X4883480D1*
X5025590D2*
X5171763D1*
X5273733D2*
X5564390D1*
X5896977D2*
X6767220D1*
X6869143D2*
X6933870D1*
X7075933D2*
X7183773D1*
X7418267D2*
X11127720D1*
X1130667Y3846679D2*
X3145590D1*
X3247513D2*
X4861020D1*
X5000933D2*
X5171763D1*
X5273733D2*
X5539730D1*
X5872270D2*
X6767220D1*
X6869143D2*
X6958530D1*
X7100590D2*
X7208480D1*
X7442923D2*
X11131917D1*
X1126810Y3822012D2*
X3145590D1*
X3247513D2*
X4854280D1*
X4976223D2*
X5171763D1*
X5273733D2*
X5515023D1*
X5847610D2*
X6767220D1*
X6869143D2*
X6983187D1*
X7125247D2*
X7233140D1*
X7467583D2*
X11136117D1*
X1123003Y3797346D2*
X3145590D1*
X3247513D2*
X4854280D1*
X4956207D2*
X5171763D1*
X5273733D2*
X5490367D1*
X5822953D2*
X6767220D1*
X6869143D2*
X7007847D1*
X7149957D2*
X7257797D1*
X7492240D2*
X11140367D1*
X1119143Y3772679D2*
X3145590D1*
X3247513D2*
X4854280D1*
X4956207D2*
X5171763D1*
X5273733D2*
X5465707D1*
X5798297D2*
X6767220D1*
X6869143D2*
X7032503D1*
X7174613D2*
X7282457D1*
X7516900D2*
X11144563D1*
X1115337Y3748012D2*
X3145590D1*
X3247513D2*
X4854280D1*
X4956207D2*
X5171763D1*
X5273733D2*
X5441050D1*
X5773637D2*
X6767220D1*
X6869143D2*
X7057210D1*
X7199273D2*
X7307113D1*
X7541607D2*
X11148763D1*
X1111527Y3723346D2*
X3145590D1*
X3247513D2*
X4854280D1*
X4956207D2*
X5171763D1*
X5273733D2*
X5416390D1*
X5748980D2*
X6767220D1*
X6869143D2*
X7081870D1*
X7223930D2*
X7331773D1*
X7566263D2*
X11152963D1*
X1107670Y3698679D2*
X3145590D1*
X3247513D2*
X4854280D1*
X4956207D2*
X5171763D1*
X5273733D2*
X5391683D1*
X5724273D2*
X6767220D1*
X6869143D2*
X7106527D1*
X7248587D2*
X7356480D1*
X7590923D2*
X11157163D1*
X1103860Y3674012D2*
X3145590D1*
X3247513D2*
X4854280D1*
X4956207D2*
X5171763D1*
X5273733D2*
X5367027D1*
X5699613D2*
X6767220D1*
X6869143D2*
X7131187D1*
X7273297D2*
X7381137D1*
X7615580D2*
X11161360D1*
X1100003Y3649346D2*
X3145590D1*
X3247513D2*
X4854280D1*
X4956207D2*
X5171763D1*
X5273733D2*
X5342367D1*
X5674957D2*
X6767220D1*
X6869143D2*
X7155843D1*
X7297953D2*
X7405797D1*
X7640240D2*
X11165560D1*
X1096197Y3624679D2*
X3145590D1*
X3247513D2*
X4846420D1*
X4964067D2*
X5163950D1*
X5281547D2*
X5317710D1*
X5650297D2*
X6767220D1*
X6869143D2*
X7180503D1*
X7322610D2*
X7430453D1*
X7664947D2*
X11169760D1*
X1092337Y3600012D2*
X3145590D1*
X4256010D2*
X4835777D1*
X4974710D2*
X5153257D1*
X5625640D2*
X6767220D1*
X6869143D2*
X7205210D1*
X7347270D2*
X7455110D1*
X7689603D2*
X11173960D1*
X1088530Y3575346D2*
X3145590D1*
X4288140D2*
X4835043D1*
X4975443D2*
X5152523D1*
X5600980D2*
X6767220D1*
X6869143D2*
X7229867D1*
X7371927D2*
X7479770D1*
X7714263D2*
X11178207D1*
X1084720Y3550679D2*
X3145687D1*
X5576273D2*
X6767220D1*
X6869143D2*
X7254527D1*
X7396587D2*
X7504477D1*
X7738920D2*
X11182407D1*
X1080863Y3526012D2*
X3154427D1*
X5551617D2*
X6767220D1*
X6869143D2*
X7279183D1*
X7421293D2*
X7529133D1*
X7763580D2*
X11186607D1*
X1077053Y3501346D2*
X4143247D1*
X5526957D2*
X6767220D1*
X6869143D2*
X7303843D1*
X7445950D2*
X7553793D1*
X7788237D2*
X11190803D1*
X1073197Y3476679D2*
X4141733D1*
X5502300D2*
X6767220D1*
X6869143D2*
X7328500D1*
X7470610D2*
X7578450D1*
X7812943D2*
X11195003D1*
X1069390Y3452012D2*
X3494027D1*
X5477640D2*
X6767220D1*
X6869143D2*
X7353207D1*
X7495267D2*
X7603110D1*
X7837603D2*
X11199203D1*
X1065530Y3427346D2*
X3469370D1*
X5452983D2*
X6767220D1*
X6869143D2*
X7377867D1*
X7519927D2*
X7627767D1*
X7862260D2*
X11203403D1*
X1061723Y3402679D2*
X3444710D1*
X5428277D2*
X6767220D1*
X6869143D2*
X7402523D1*
X7544583D2*
X7652473D1*
X7886917D2*
X11207603D1*
X1057913Y3378012D2*
X3420053D1*
X5403617D2*
X6767220D1*
X6869143D2*
X7427183D1*
X7569290D2*
X7677133D1*
X7911577D2*
X11211800D1*
X1055377Y3353346D2*
X3395393D1*
X4304350D2*
X4488510D1*
X4623490D2*
X6767220D1*
X6869143D2*
X7451840D1*
X7593950D2*
X7701790D1*
X7936233D2*
X11213853D1*
X1056253Y3328679D2*
X1291390D1*
X1360600D2*
X3370687D1*
X3576273D2*
X4481967D1*
X4626957D2*
X6767220D1*
X6869143D2*
X7476497D1*
X7618607D2*
X7726450D1*
X7960940D2*
X11196420D1*
X1057083Y3304012D2*
X1265120D1*
X2111673D2*
X3346030D1*
X3551617D2*
X4457310D1*
X4621147D2*
X6767220D1*
X6869143D2*
X7501207D1*
X7643267D2*
X7751107D1*
X7985600D2*
X10638313D1*
X10665660D2*
X11179037D1*
X1070513Y3279346D2*
X1255893D1*
X2126177D2*
X3321370D1*
X3526957D2*
X4432603D1*
X4602690D2*
X6767220D1*
X6869143D2*
X7525863D1*
X7667923D2*
X7775813D1*
X8010257D2*
X9475033D1*
X10707867D2*
X11161607D1*
X1101860Y3254679D2*
X1256333D1*
X2127493D2*
X3296713D1*
X3502300D2*
X4407943D1*
X4550053D2*
X6767220D1*
X6869143D2*
X7550523D1*
X7692583D2*
X7800473D1*
X8034917D2*
X9447300D1*
X10720513D2*
X11144223D1*
X1133207Y3230012D2*
X1266633D1*
X2127493D2*
X3272053D1*
X3477640D2*
X4383287D1*
X4525393D2*
X6767220D1*
X6869143D2*
X7575180D1*
X7717290D2*
X7825130D1*
X8059573D2*
X9422593D1*
X10722710D2*
X11126790D1*
X1164603Y3205346D2*
X1296223D1*
X1355767D2*
X2025570D1*
X3452983D2*
X4358627D1*
X4500687D2*
X6762093D1*
X6874223D2*
X7599837D1*
X7741947D2*
X7849790D1*
X8084233D2*
X9397933D1*
X10715530D2*
X11083287D1*
X1356743Y3180679D2*
X2025570D1*
X3428277D2*
X4333970D1*
X4476030D2*
X6749593D1*
X6886773D2*
X7624547D1*
X7766607D2*
X7874447D1*
X8108940D2*
X9373277D1*
X9515383D2*
X10609700D1*
X10694290D2*
X11012190D1*
X1373197Y3156012D2*
X2025960D1*
X3403617D2*
X4311753D1*
X4451370D2*
X6747493D1*
X6888870D2*
X7649203D1*
X7791263D2*
X7899107D1*
X8133597D2*
X9348617D1*
X9490677D2*
X10941097D1*
X1389653Y3131346D2*
X2036703D1*
X3378960D2*
X4305357D1*
X4426713D2*
X6754720D1*
X6881597D2*
X7673860D1*
X7815923D2*
X7923813D1*
X8158257D2*
X9323960D1*
X9466020D2*
X10918833D1*
X1406107Y3106679D2*
X3212190D1*
X3354300D2*
X4305357D1*
X4407330D2*
X6776157D1*
X6860160D2*
X7698520D1*
X7840630D2*
X7948470D1*
X8182913D2*
X9299300D1*
X9441360D2*
X10911217D1*
X1422563Y3082012D2*
X3187533D1*
X3329643D2*
X4305357D1*
X4407330D2*
X7723177D1*
X7865287D2*
X7973130D1*
X8207573D2*
X9274593D1*
X9416703D2*
X10902963D1*
X1434967Y3057346D2*
X3162877D1*
X3304937D2*
X4305357D1*
X4407330D2*
X7747837D1*
X7886380D2*
X7997787D1*
X8232280D2*
X9249937D1*
X9392047D2*
X10892563D1*
X1442680Y3032679D2*
X3138217D1*
X3280277D2*
X4305357D1*
X4407330D2*
X7772543D1*
X7891460D2*
X8022447D1*
X8256937D2*
X9225277D1*
X9367337D2*
X10879380D1*
X1450443Y3008012D2*
X3113560D1*
X3255620D2*
X4305357D1*
X4407330D2*
X7789537D1*
X7891460D2*
X8047103D1*
X8281597D2*
X9200620D1*
X9342680D2*
X10863753D1*
X1458207Y2983346D2*
X3088950D1*
X3230960D2*
X4305357D1*
X4407330D2*
X7789537D1*
X7891460D2*
X8071810D1*
X8306253D2*
X9175960D1*
X9318023D2*
X10845103D1*
X1465970Y2958679D2*
X3076937D1*
X3206303D2*
X4305357D1*
X4407330D2*
X7789537D1*
X7891460D2*
X8096470D1*
X8330913D2*
X9151253D1*
X9293363D2*
X10822690D1*
X1473687Y2934012D2*
X3076303D1*
X3181643D2*
X4305357D1*
X4407330D2*
X7789537D1*
X7891460D2*
X8121127D1*
X8355570D2*
X9126597D1*
X9268707D2*
X10797300D1*
X1481450Y2909346D2*
X3076303D1*
X3178227D2*
X4305357D1*
X4407330D2*
X7789537D1*
X7891460D2*
X8145787D1*
X8380277D2*
X9101937D1*
X9244047D2*
X10787533D1*
X1489213Y2884679D2*
X3076303D1*
X3178227D2*
X4305357D1*
X4407330D2*
X7789537D1*
X7891460D2*
X8170443D1*
X8404937D2*
X8956723D1*
X9024027D2*
X9077280D1*
X9219340D2*
X10778940D1*
X1496977Y2860012D2*
X3076303D1*
X3178227D2*
X4305357D1*
X4407330D2*
X7789537D1*
X7891460D2*
X8195103D1*
X9194683D2*
X10770393D1*
X1504690Y2835346D2*
X3076303D1*
X3178227D2*
X4305357D1*
X4407330D2*
X7789537D1*
X7891460D2*
X8219810D1*
X9170023D2*
X10761800D1*
X1512457Y2810679D2*
X3076303D1*
X3178227D2*
X4305357D1*
X4407330D2*
X7789537D1*
X7891460D2*
X8244467D1*
X9145367D2*
X10753207D1*
X1520220Y2786012D2*
X3076303D1*
X3178227D2*
X4305357D1*
X4407330D2*
X7789537D1*
X7891460D2*
X8269127D1*
X9120707D2*
X10744613D1*
X1527983Y2761346D2*
X3076303D1*
X3178227D2*
X4305357D1*
X4407330D2*
X7789537D1*
X7891460D2*
X8293783D1*
X9096050D2*
X10736070D1*
X1535747Y2736679D2*
X3076303D1*
X3178227D2*
X4305357D1*
X4407330D2*
X7789537D1*
X7891460D2*
X8318440D1*
X9071343D2*
X10727473D1*
X1543460Y2712012D2*
X3076303D1*
X3178227D2*
X4305357D1*
X4407330D2*
X7789537D1*
X7891460D2*
X8346810D1*
X9043023D2*
X10718880D1*
X1551223Y2687346D2*
X3076303D1*
X3178227D2*
X4305357D1*
X4407330D2*
X7789537D1*
X7891460D2*
X10710337D1*
X1558990Y2662679D2*
X3076303D1*
X3178227D2*
X4305357D1*
X4407330D2*
X7789537D1*
X7891460D2*
X10701743D1*
X1566753Y2638012D2*
X3076303D1*
X3178227D2*
X4305357D1*
X4407330D2*
X7789537D1*
X7891460D2*
X10693150D1*
X1574467Y2613346D2*
X3076303D1*
X3178227D2*
X4305357D1*
X4407330D2*
X7789537D1*
X7891460D2*
X10684553D1*
X1582230Y2588679D2*
X3076303D1*
X3178227D2*
X4305357D1*
X4407330D2*
X7789537D1*
X7891460D2*
X10676010D1*
X1589993Y2564012D2*
X3076303D1*
X3178227D2*
X4305357D1*
X4407330D2*
X7789537D1*
X7891460D2*
X10667417D1*
X1597757Y2539346D2*
X3076303D1*
X3178227D2*
X4305357D1*
X4407330D2*
X7789537D1*
X7891460D2*
X10658823D1*
X1605473Y2514679D2*
X3076303D1*
X3178227D2*
X4305357D1*
X4407330D2*
X7789537D1*
X7891460D2*
X10650277D1*
X1613237Y2490012D2*
X3076303D1*
X3178227D2*
X4305357D1*
X4407330D2*
X4749057D1*
X7128373D2*
X7789537D1*
X7891460D2*
X10641683D1*
X1621000Y2465346D2*
X3076303D1*
X3178227D2*
X4305357D1*
X4407330D2*
X4731577D1*
X7145073D2*
X7789537D1*
X7891460D2*
X10633090D1*
X1628763Y2440679D2*
X3063120D1*
X3191360D2*
X4305357D1*
X4407330D2*
X4714097D1*
X7161820D2*
X7789537D1*
X7891460D2*
X10624497D1*
X1636527Y2416012D2*
X3056430D1*
X3198050D2*
X4305357D1*
X4407330D2*
X4696617D1*
X7178520D2*
X7785677D1*
X7895367D2*
X10615950D1*
X1644243Y2391346D2*
X3059067D1*
X3195413D2*
X4305357D1*
X4407330D2*
X4679133D1*
X7195220D2*
X7772347D1*
X7908697D2*
X10607357D1*
X1652007Y2366679D2*
X3072347D1*
X3182183D2*
X4305357D1*
X4407330D2*
X4661653D1*
X7211917D2*
X7769710D1*
X7911333D2*
X10598763D1*
X1659770Y2342012D2*
X4305357D1*
X4407330D2*
X4644173D1*
X7228617D2*
X7776353D1*
X7904690D2*
X10590220D1*
X1667533Y2317346D2*
X4305357D1*
X4407330D2*
X4626693D1*
X7245367D2*
X7796517D1*
X7884527D2*
X10581627D1*
X1675247Y2292679D2*
X4305357D1*
X4407330D2*
X4609213D1*
X7262063D2*
X10573030D1*
X1683013Y2268012D2*
X4305357D1*
X4407330D2*
X4591733D1*
X7294047D2*
X10564437D1*
X1690777Y2243346D2*
X4305357D1*
X4407330D2*
X4574253D1*
X7343363D2*
X10554233D1*
X1698540Y2218679D2*
X4305357D1*
X4407330D2*
X4556773D1*
X7392680D2*
X10522690D1*
X1706253Y2194012D2*
X4305357D1*
X4407330D2*
X4539290D1*
X7441997D2*
X10491097D1*
X1714017Y2169346D2*
X4305357D1*
X4407330D2*
X4521810D1*
X7491313D2*
X10459553D1*
X1721780Y2144679D2*
X4305357D1*
X4407330D2*
X4504330D1*
X7540630D2*
X10428013D1*
X1729547Y2120012D2*
X4298423D1*
X4414263D2*
X4486850D1*
X7589947D2*
X10396420D1*
X1737310Y2095346D2*
X4287143D1*
X4425540D2*
X4469370D1*
X7638627D2*
X10364877D1*
X1745023Y2070679D2*
X4285970D1*
X4426763D2*
X4451693D1*
X7686917D2*
X10333333D1*
X1752787Y2046012D2*
X4294223D1*
X4418460D2*
X4433977D1*
X7735210D2*
X10301743D1*
X1760550Y2021346D2*
X4318050D1*
X4394633D2*
X4416293D1*
X7783450D2*
X10270200D1*
X1768313Y1996679D2*
X4398617D1*
X7831743D2*
X10238657D1*
X1776030Y1972012D2*
X4380940D1*
X7880033D2*
X10207063D1*
X1785697Y1947346D2*
X4363217D1*
X7928323D2*
X10175523D1*
X1799273Y1922679D2*
X4345540D1*
X7976617D2*
X10143980D1*
X1816703Y1898012D2*
X4327817D1*
X8024907D2*
X10112387D1*
X1837210Y1873346D2*
X4310140D1*
X8073150D2*
X10080843D1*
X1861870Y1848679D2*
X4292467D1*
X8121440D2*
X10049300D1*
X1892387Y1824012D2*
X4274740D1*
X8169730D2*
X10017710D1*
X1931890Y1799346D2*
X4257063D1*
X8218023D2*
X9986167D1*
X1980377Y1774679D2*
X4239340D1*
X8266313D2*
X9954623D1*
X2030767Y1750012D2*
X4221663D1*
X8314603D2*
X9923030D1*
X2081157Y1725346D2*
X4203940D1*
X8362893D2*
X9891490D1*
X2131597Y1700679D2*
X4186263D1*
X8411137D2*
X9859947D1*
X2181987Y1676012D2*
X4168587D1*
X8459427D2*
X9828353D1*
X2232377Y1651346D2*
X4150863D1*
X8507720D2*
X9796810D1*
X2282817Y1626679D2*
X4133187D1*
X8666703D2*
X9765267D1*
X2333207Y1602012D2*
X4115463D1*
X8870170D2*
X9733677D1*
X2383597Y1577346D2*
X4097787D1*
X9073687D2*
X9702133D1*
X2434037Y1552679D2*
X4080110D1*
X9277153D2*
X9653353D1*
X2484427Y1528012D2*
X4062387D1*
X9480667D2*
X9562533D1*
X2534820Y1503346D2*
X4044710D1*
X2585210Y1478679D2*
X4026987D1*
X2635650Y1454012D2*
X4009310D1*
X2686040Y1429346D2*
X3991633D1*
X2736430Y1404679D2*
X3973910D1*
X2786870Y1380012D2*
X3956233D1*
X2837260Y1355346D2*
X3938510D1*
X2887650Y1330679D2*
X3920833D1*
X2938090Y1306012D2*
X3903160D1*
X2988480Y1281346D2*
X3885433D1*
X3038870Y1256679D2*
X3867757D1*
X3089310Y1232012D2*
X3850033D1*
X3139700Y1207346D2*
X3832357D1*
X3190093Y1182679D2*
X3814683D1*
X3240483Y1158012D2*
X3788803D1*
X3290923Y1133346D2*
X3761360D1*
X3341313Y1108679D2*
X3722103D1*
X3391703Y1084012D2*
X3672250D1*
X3463530Y1059346D2*
X3586070D1*
X7720330Y8707442D2*
Y8332736D1*
X7684833D1*
X7684777Y8323016D1*
X7683093Y8312399D1*
X7679773Y8302176D1*
X7674893Y8292599D1*
X7668573Y8283902D1*
X7660973Y8276302D1*
X7652277Y8269982D1*
X7642700Y8265102D1*
X7635530Y8262642D1*
X7638777Y8259469D1*
X7645267Y8263919D1*
X7654843Y8268799D1*
X7665067Y8272119D1*
X7675683Y8273802D1*
X7686430D1*
X7697047Y8272119D1*
X7707270Y8268799D1*
X7716847Y8263919D1*
X7725543Y8257599D1*
X7733143Y8249999D1*
X7739463Y8241302D1*
X7744343Y8231726D1*
X7747663Y8221502D1*
X7749347Y8210886D1*
Y8200139D1*
X7747663Y8189522D1*
X7744343Y8179299D1*
X7739463Y8169722D1*
X7733143Y8161026D1*
X7725543Y8153426D1*
X7716847Y8147106D1*
X7707270Y8142226D1*
X7697047Y8138906D1*
X7686430Y8137222D1*
X7675683D1*
X7665067Y8138906D1*
X7654843Y8142226D1*
X7645267Y8147106D1*
X7636570Y8153426D1*
X7632667Y8157032D1*
X7620337Y8157162D1*
X7612820Y8158352D1*
X7605583Y8160702D1*
X7598803Y8164159D1*
X7592643Y8168632D1*
X7572170Y8188896D1*
X7530013Y8231052D1*
X7160193Y8231202D1*
X7152677Y8232392D1*
X7145440Y8234746D1*
X7138660Y8238199D1*
X7132503Y8242672D1*
X7112027Y8262936D1*
X7072187Y8302989D1*
X7067713Y8309146D1*
X7064260Y8315926D1*
X7061907Y8323162D1*
X7060667Y8331942D1*
X7060717Y8330679D1*
X7060667Y8331942D1*
X7049830Y8332736D1*
X7008330D1*
Y8707492D1*
X6958350Y8707419D1*
X6958330Y8332736D1*
X6904767D1*
X6904680Y8195672D1*
X6903490Y8188156D1*
X6901140Y8180919D1*
X6897683Y8174139D1*
X6893210Y8167979D1*
X6887830Y8162599D1*
X6881670Y8158126D1*
X6874890Y8154669D1*
X6867653Y8152319D1*
X6860137Y8151129D1*
X6839680Y8150979D1*
X6831527Y8144062D1*
X6822363Y8138446D1*
X6812430Y8134332D1*
X6801980Y8131822D1*
X6791263Y8130979D1*
X6780547Y8131822D1*
X6770097Y8134332D1*
X6760163Y8138446D1*
X6751000Y8144062D1*
X6742827Y8151042D1*
X6735847Y8159216D1*
X6730230Y8168379D1*
X6726117Y8178312D1*
X6723607Y8188762D1*
X6722763Y8199479D1*
X6723607Y8210196D1*
X6726117Y8220646D1*
X6730230Y8230579D1*
X6735847Y8239742D1*
X6742827Y8247916D1*
X6751000Y8254896D1*
X6760163Y8260512D1*
X6770097Y8264626D1*
X6780547Y8267136D1*
X6791263Y8267979D1*
X6801980Y8267136D1*
X6807880Y8265909D1*
X6807830Y8332732D1*
X6754330Y8332736D1*
Y8707492D1*
X6704347Y8707419D1*
X6704330Y8332736D1*
X6648130D1*
X6648017Y8181482D1*
X6646827Y8173966D1*
X6644477Y8166729D1*
X6641020Y8159949D1*
X6636547Y8153789D1*
X6616283Y8133316D1*
X6553253Y8070496D1*
X6547093Y8066022D1*
X6540313Y8062569D1*
X6533077Y8060216D1*
X6525560Y8059026D1*
X6496753Y8058876D1*
X6307837D1*
X6302273Y8053596D1*
X6293577Y8047276D1*
X6284000Y8042396D1*
X6273777Y8039076D1*
X6263160Y8037392D1*
X6252413D1*
X6241797Y8039076D1*
X6231573Y8042396D1*
X6221997Y8047276D1*
X6213300Y8053596D1*
X6205700Y8061196D1*
X6199380Y8069892D1*
X6194500Y8079469D1*
X6191180Y8089692D1*
X6189497Y8100309D1*
Y8111056D1*
X6191180Y8121672D1*
X6194500Y8131896D1*
X6199380Y8141472D1*
X6205700Y8150169D1*
X6213300Y8157769D1*
X6221997Y8164089D1*
X6231573Y8168969D1*
X6241797Y8172289D1*
X6252413Y8173972D1*
X6263160D1*
X6274203Y8172169D1*
X6275030Y8182392D1*
X6277540Y8192842D1*
X6281653Y8202776D1*
X6287270Y8211939D1*
X6294207Y8220066D1*
X6294187Y8332759D1*
X6246330Y8332736D1*
Y8707492D1*
X6221087Y8707519D1*
X6214410Y8708779D1*
X6137787Y8729379D1*
X6130937Y8732759D1*
X6125060Y8737646D1*
X6069017Y8793812D1*
X6064773Y8800162D1*
X6062127Y8807332D1*
X6041677Y8883996D1*
X6041177Y8891619D1*
X6042470Y8899149D1*
X6063093Y8975769D1*
X6066473Y8982619D1*
X6071360Y8988496D1*
X6127527Y9044539D1*
X6133877Y9048782D1*
X6141047Y9051429D1*
X6217710Y9071879D1*
X6224487Y9072389D1*
X7726183Y9072322D1*
X7733033Y9071012D1*
X7809487Y9050459D1*
X7816337Y9047079D1*
X7822210Y9042192D1*
X7878250Y8986026D1*
X7882493Y8979672D1*
X7885140Y8972506D1*
X7905590Y8895842D1*
X7906090Y8888219D1*
X7904797Y8880689D1*
X7884173Y8804069D1*
X7880793Y8797219D1*
X7875907Y8791346D1*
X7819740Y8735306D1*
X7813387Y8731059D1*
X7806220Y8728416D1*
X7729557Y8707966D1*
X7722780Y8707456D1*
X7720363Y8707422D1*
X7548113Y8332736D2*
X7516330D1*
Y8707492D1*
X7466330Y8707236D1*
Y8332736D1*
X7262330D1*
Y8707452D1*
X7212353Y8707422D1*
X7212330Y8332736D1*
X7179370D1*
X7189000Y8328052D1*
X7547977D1*
X7548157Y8332736D1*
X6551157D2*
X6500330D1*
Y8707492D1*
X6450343Y8707419D1*
X6450330Y8332736D1*
X6391200D1*
X6391187Y8220016D1*
X6398103Y8211939D1*
X6403720Y8202776D1*
X6407833Y8192842D1*
X6410343Y8182392D1*
X6411187Y8171676D1*
X6410343Y8160959D1*
X6409480Y8155876D1*
X6501717D1*
X6551230Y8205442D1*
X6551167Y8332702D1*
X8815397Y7783806D2*
X8805410Y7784376D1*
X8795567Y7786099D1*
X8785987Y7788956D1*
X8776807Y7792902D1*
X8768143Y7797886D1*
X8760117Y7803842D1*
X8752837Y7810692D1*
X8746400Y7818336D1*
X8740897Y7826679D1*
X8736393Y7835602D1*
X8732960Y7844986D1*
X8730637Y7854709D1*
X8729457Y7864632D1*
X8729437Y7874626D1*
X8730573Y7884556D1*
X8732857Y7894286D1*
X8736253Y7903686D1*
X8740720Y7912626D1*
X8746190Y7920989D1*
X8752597Y7928662D1*
X8759847Y7935539D1*
X8767847Y7941529D1*
X8776490Y7946549D1*
X8785657Y7950536D1*
X8795220Y7953429D1*
X8805060Y7955192D1*
X8815300Y7955806D1*
X8852527Y7955502D1*
X8862420Y7954086D1*
X8872080Y7951529D1*
X8881383Y7947869D1*
X8890197Y7943156D1*
X8898403Y7937452D1*
X8905893Y7930836D1*
X8912563Y7923392D1*
X8918327Y7915229D1*
X8923103Y7906449D1*
X8926830Y7897176D1*
X8929453Y7887532D1*
X8930940Y7877649D1*
X8931263Y7867306D1*
X8930393Y7857349D1*
X8928373Y7847562D1*
X8925233Y7838072D1*
X8921010Y7829016D1*
X8915767Y7820506D1*
X8909570Y7812662D1*
X8902507Y7805592D1*
X8894673Y7799389D1*
X8886170Y7794136D1*
X8877113Y7789906D1*
X8867630Y7786756D1*
X8857843Y7784726D1*
X8847887Y7783846D1*
X8815300Y7783816D1*
X8315300Y7783806D2*
X8305410Y7784376D1*
X8295567Y7786099D1*
X8285987Y7788956D1*
X8276807Y7792902D1*
X8268143Y7797886D1*
X8260117Y7803842D1*
X8252837Y7810692D1*
X8246400Y7818336D1*
X8240897Y7826679D1*
X8236393Y7835602D1*
X8232960Y7844986D1*
X8230637Y7854709D1*
X8229457Y7864632D1*
X8229437Y7874626D1*
X8230573Y7884556D1*
X8232857Y7894286D1*
X8236253Y7903686D1*
X8240720Y7912626D1*
X8246190Y7920989D1*
X8252597Y7928662D1*
X8259847Y7935539D1*
X8267847Y7941529D1*
X8276490Y7946549D1*
X8285657Y7950536D1*
X8295220Y7953429D1*
X8305060Y7955192D1*
X8315300Y7955806D1*
X8352527Y7955502D1*
X8362420Y7954086D1*
X8372080Y7951529D1*
X8381383Y7947869D1*
X8390197Y7943156D1*
X8398403Y7937452D1*
X8405893Y7930836D1*
X8412563Y7923392D1*
X8418327Y7915229D1*
X8423103Y7906449D1*
X8426830Y7897176D1*
X8429453Y7887532D1*
X8430940Y7877649D1*
X8431263Y7867306D1*
X8430393Y7857349D1*
X8428373Y7847562D1*
X8425233Y7838072D1*
X8421010Y7829016D1*
X8415767Y7820506D1*
X8409570Y7812662D1*
X8402507Y7805592D1*
X8394673Y7799389D1*
X8386170Y7794136D1*
X8377113Y7789906D1*
X8367630Y7786756D1*
X8357843Y7784726D1*
X8347887Y7783846D1*
X8315300Y7783816D1*
X8147333Y8216156D2*
X8147567Y8221819D1*
X8149163Y8229136D1*
X8150527Y8232686D1*
X8034143Y8232866D1*
X8030427Y8234079D1*
X8027263Y8236379D1*
X8024967Y8239542D1*
X8023760Y8243262D1*
X8014330Y8316109D1*
X8006430Y8350399D1*
X7995263Y8383686D1*
X7980930Y8415739D1*
X7963560Y8446249D1*
X7933780Y8488756D1*
X7932627Y8492492D1*
X7932500Y8506762D1*
X7932503Y9043712D1*
X7929107Y9070689D1*
X7920703Y9094039D1*
X7907407Y9114972D1*
X7889860Y9132492D1*
X7868903Y9145752D1*
X7848783Y9152952D1*
X6093223Y9153082D1*
X6089503Y9154292D1*
X6086340Y9156589D1*
X6085767Y9157212D1*
X6029887Y9213262D1*
X6028110Y9216746D1*
X6027500Y9220609D1*
X6027533Y9221456D1*
X6027500Y9692679D1*
X5884970D1*
X5884940Y9285772D1*
X5815287Y9285682D1*
X5824450Y9280066D1*
X5832623Y9273086D1*
X5839603Y9264912D1*
X5845220Y9255749D1*
X5847253Y9251339D1*
X5939383Y9158979D1*
X5945240Y9150919D1*
X5949763Y9142039D1*
X5952843Y9132562D1*
X5954400Y9122722D1*
X5954597Y9105239D1*
Y7400699D1*
X5957703Y7391002D1*
X5959387Y7380386D1*
Y7369639D1*
X5957703Y7359022D1*
X5954383Y7348799D1*
X5949503Y7339222D1*
X5943183Y7330526D1*
X5935583Y7322926D1*
X5926887Y7316606D1*
X5917310Y7311726D1*
X5907087Y7308406D1*
X5896470Y7306722D1*
X5885723D1*
X5875107Y7308406D1*
X5864883Y7311726D1*
X5855307Y7316606D1*
X5846610Y7322926D1*
X5839010Y7330526D1*
X5832690Y7339222D1*
X5827810Y7348799D1*
X5824490Y7359022D1*
X5822807Y7369639D1*
Y7380386D1*
X5824490Y7391002D1*
X5827630Y7400732D1*
X5827597Y8776916D1*
X5822927Y8767826D1*
X5816607Y8759129D1*
X5809007Y8751529D1*
X5800310Y8745209D1*
X5791210Y8740549D1*
X4275503Y7224796D1*
X4270850Y7215749D1*
X4264530Y7207052D1*
X4256930Y7199452D1*
X4248233Y7193132D1*
X4238657Y7188252D1*
X4228433Y7184932D1*
X4217817Y7183249D1*
X4207070D1*
X4196453Y7184932D1*
X4186230Y7188252D1*
X4176653Y7193132D1*
X4167957Y7199452D1*
X4160357Y7207052D1*
X4154037Y7215749D1*
X4149157Y7225326D1*
X4145837Y7235549D1*
X4144153Y7246166D1*
Y7256912D1*
X4145837Y7267529D1*
X4149157Y7277752D1*
X4154037Y7287329D1*
X4160357Y7296026D1*
X4167957Y7303626D1*
X4176653Y7309946D1*
X4185753Y7314606D1*
X5701460Y8830359D1*
X5706113Y8839406D1*
X5712433Y8848102D1*
X5720033Y8855702D1*
X5728730Y8862022D1*
X5738307Y8866902D1*
X5748530Y8870222D1*
X5759147Y8871906D1*
X5769893D1*
X5780510Y8870222D1*
X5790733Y8866902D1*
X5800310Y8862022D1*
X5809007Y8855702D1*
X5816607Y8848102D1*
X5822927Y8839406D1*
X5827620Y8830229D1*
X5827597Y9091469D1*
X5757840Y9161192D1*
X5679683Y9161346D1*
X5669843Y9162902D1*
X5660367Y9165982D1*
X5651487Y9170506D1*
X5643427Y9176362D1*
X5630927Y9188586D1*
X5582293Y9237496D1*
X5576437Y9245556D1*
X5571913Y9254436D1*
X5568833Y9263912D1*
X5567277Y9273752D1*
X5567080Y9284839D1*
X5561010Y9284772D1*
X5560847Y9186902D1*
X5559637Y9183186D1*
X5557340Y9180019D1*
X5556717Y9179446D1*
X5405417Y9028316D1*
X5401933Y9026539D1*
X5398070Y9025929D1*
X4972353Y9025926D1*
X4878477Y9012132D1*
X4784693Y8990226D1*
X4693050Y8960566D1*
X4604203Y8923366D1*
X4518773Y8878876D1*
X4437353Y8827412D1*
X4360510Y8769332D1*
X4288780Y8705046D1*
X4222667Y8634992D1*
X4162630Y8559672D1*
X4109093Y8479599D1*
X4062423Y8395339D1*
X4022943Y8307479D1*
X3990937Y8216629D1*
X3966623Y8123429D1*
X3950177Y8028522D1*
X3941717Y7932746D1*
Y6759832D1*
X3941597Y6449516D1*
X3940387Y6445799D1*
X3938090Y6442632D1*
X3934643Y6440206D1*
X3709973Y6314482D1*
X2102100Y5205362D1*
X1182907Y4199512D1*
X1052617Y3360129D1*
X1055120Y3289399D1*
X1176943Y3193662D1*
X1340863Y3193526D1*
X1344580Y3192316D1*
X1347747Y3190019D1*
X1349307Y3188112D1*
X1428803Y3068589D1*
X1436867Y3043266D1*
X1778823Y1955229D1*
X1797007Y1922226D1*
X1820023Y1889752D1*
X1846560Y1860082D1*
X1876273Y1833592D1*
X1908790Y1810626D1*
X1944680Y1790916D1*
X3429197Y1064452D1*
X3496093Y1053679D1*
X3566860Y1054996D1*
X3636293Y1068849D1*
X3702167Y1094792D1*
X3762397Y1132012D1*
X3814313Y1178642D1*
X4477957Y2103919D1*
X4753070Y2491912D1*
X4756207Y2494249D1*
X4759910Y2495502D1*
X4762013Y2495679D1*
X7117367Y2495526D1*
X7121083Y2494316D1*
X7124250Y2492019D1*
X7125760Y2490189D1*
X7268483Y2279506D1*
X7618367Y2104416D1*
X8519190Y1644209D1*
X9497370Y1525682D1*
X9533743Y1525182D1*
X9569987Y1528456D1*
X9605733Y1535476D1*
X9640560Y1546162D1*
X9674093Y1560402D1*
X9704653Y1577316D1*
X10559080Y2245186D1*
X10797387Y2930369D1*
X10799497Y2933662D1*
X10834553Y2967792D1*
X10857417Y2995039D1*
X10877450Y3024456D1*
X10894443Y3055736D1*
X10908210Y3088562D1*
X10925983Y3146056D1*
X10928230Y3149259D1*
X10931357Y3151609D1*
X10933117Y3152376D1*
X11120357Y3217342D1*
X11218130Y3355866D1*
X11073993Y4201279D1*
X10246473Y5245466D1*
X10173453Y5300206D1*
X10117737Y5337349D1*
X10013997Y5384469D1*
X9920330Y5415819D1*
X9703737Y5554992D1*
X9890113Y5368656D1*
X9900717Y5367836D1*
X9911167Y5365326D1*
X9921100Y5361212D1*
X9930263Y5355596D1*
X9938437Y5348616D1*
X9945417Y5340442D1*
X9951033Y5331279D1*
X9955147Y5321346D1*
X9957657Y5310896D1*
X9958500Y5300179D1*
X9957657Y5289462D1*
X9955147Y5279012D1*
X9951033Y5269079D1*
X9945417Y5259916D1*
X9938437Y5251742D1*
X9930263Y5244762D1*
X9921100Y5239146D1*
X9911167Y5235032D1*
X9900717Y5232522D1*
X9890000Y5231679D1*
X9879283Y5232522D1*
X9868833Y5235032D1*
X9858900Y5239146D1*
X9849737Y5244762D1*
X9841563Y5251742D1*
X9834583Y5259916D1*
X9828967Y5269079D1*
X9824853Y5279012D1*
X9822343Y5289462D1*
X9821503Y5300116D1*
X9647613Y5473976D1*
X7814577Y5473929D1*
X7451287Y5110836D1*
X7445127Y5106362D1*
X7438347Y5102906D1*
X7431110Y5100556D1*
X7423593Y5099366D1*
X7394787Y5099216D1*
X7052843D1*
X7044763Y5092299D1*
X7035600Y5086682D1*
X7025667Y5082569D1*
X7015217Y5080059D1*
X7004500Y5079216D1*
X6993783Y5080059D1*
X6983333Y5082569D1*
X6973400Y5086682D1*
X6964237Y5092299D1*
X6956063Y5099279D1*
X6949083Y5107452D1*
X6943467Y5116616D1*
X6939353Y5126549D1*
X6936843Y5136999D1*
X6936000Y5147716D1*
X6936843Y5158432D1*
X6939353Y5168882D1*
X6943467Y5178816D1*
X6949083Y5187979D1*
X6956063Y5196152D1*
X6964237Y5203132D1*
X6973400Y5208749D1*
X6983333Y5212862D1*
X6993783Y5215372D1*
X7004500Y5216216D1*
X7015217Y5215372D1*
X7025667Y5212862D1*
X7035600Y5208749D1*
X7044763Y5203132D1*
X7052890Y5196196D1*
X7399763Y5196216D1*
X7428683Y5225202D1*
X7418773Y5225259D1*
X7408157Y5226942D1*
X7398427Y5230082D1*
X6897143Y5230049D1*
X6887433Y5226942D1*
X6876817Y5225259D1*
X6866070D1*
X6855453Y5226942D1*
X6845230Y5230262D1*
X6835653Y5235142D1*
X6826957Y5241462D1*
X6819357Y5249062D1*
X6813037Y5257759D1*
X6808157Y5267336D1*
X6804837Y5277559D1*
X6803153Y5288176D1*
Y5298922D1*
X6804837Y5309539D1*
X6808157Y5319762D1*
X6813037Y5329339D1*
X6819357Y5338036D1*
X6826957Y5345636D1*
X6835653Y5351956D1*
X6845230Y5356836D1*
X6855453Y5360156D1*
X6866070Y5361839D1*
X6876817D1*
X6887433Y5360156D1*
X6897163Y5357016D1*
X7398447Y5357049D1*
X7408157Y5360156D1*
X7418773Y5361839D1*
X7429520D1*
X7440137Y5360156D1*
X7450360Y5356836D1*
X7459937Y5351956D1*
X7468633Y5345636D1*
X7476233Y5338036D1*
X7482553Y5329339D1*
X7487433Y5319762D1*
X7490753Y5309539D1*
X7492437Y5298922D1*
X7492467Y5288952D1*
X7763000Y5559309D1*
X7769160Y5563782D1*
X7775940Y5567239D1*
X7783177Y5569589D1*
X7790693Y5570779D1*
X7819500Y5570929D1*
X9671557Y5570779D1*
X9680290Y5569246D1*
X9679073Y5569589D1*
X9680290Y5569246D1*
X9677493Y5571866D1*
X9645410Y5592492D1*
X8984750Y5665549D1*
X8920580Y5680656D1*
X8917513Y5682459D1*
X8859420Y5723189D1*
X8857240Y5726006D1*
X8818440Y5785399D1*
X8817463Y5788826D1*
X8803510Y5858379D1*
X8803877Y5861926D1*
X8816767Y5931686D1*
X8818427Y5934842D1*
X8854680Y5992216D1*
X9746857Y6872082D1*
X9754167Y8209992D1*
X9514230Y8456376D1*
X9324833Y8422396D1*
X9250303Y8238056D1*
X9247790Y8235059D1*
X9244473Y8232986D1*
X9240680Y8232036D1*
X9063613Y8232212D1*
X9010310Y8232206D1*
X9012377Y8225689D1*
X9013290Y8218259D1*
X9013220Y8059809D1*
X9012010Y8052419D1*
X9009390Y8045402D1*
X9005463Y8039026D1*
X9000380Y8033529D1*
X8994323Y8029122D1*
X8987533Y8025972D1*
X8980257Y8024196D1*
X8974800Y8023806D1*
X8807803Y8023886D1*
X8800413Y8025096D1*
X8793397Y8027716D1*
X8787020Y8031642D1*
X8781523Y8036729D1*
X8777117Y8042782D1*
X8773967Y8049576D1*
X8772190Y8056849D1*
X8771800Y8062306D1*
X8771880Y8219802D1*
X8773090Y8227192D1*
X8774883Y8232356D1*
X8385730Y8232369D1*
X8387977Y8225226D1*
X8388797Y8217782D1*
X8388720Y8059809D1*
X8387510Y8052419D1*
X8384890Y8045402D1*
X8380963Y8039026D1*
X8375877Y8033529D1*
X8369823Y8029122D1*
X8363033Y8025972D1*
X8355757Y8024196D1*
X8350300Y8023806D1*
X8183303Y8023886D1*
X8175913Y8025096D1*
X8168897Y8027716D1*
X8162520Y8031642D1*
X8157023Y8036729D1*
X8152617Y8042782D1*
X8149467Y8049572D1*
X8147690Y8056849D1*
X8147300Y8062306D1*
X8147380Y8219802D1*
X8148590Y8227192D1*
X8150187Y8231929D1*
X5834987Y6146462D2*
X5833303Y6135846D1*
X5829983Y6125622D1*
X5825103Y6116046D1*
X5818783Y6107349D1*
X5811183Y6099749D1*
X5802487Y6093429D1*
X5792910Y6088549D1*
X5782687Y6085229D1*
X5778093Y6084316D1*
X5784400Y6077852D1*
X5790720Y6069156D1*
X5795600Y6059579D1*
X5798920Y6049356D1*
X5799253Y6047689D1*
X6077533Y6047552D1*
X6085050Y6046362D1*
X6092287Y6044009D1*
X6099067Y6040556D1*
X6105223Y6036082D1*
X6125700Y6015819D1*
X6151530Y5989776D1*
X6156003Y5983619D1*
X6159457Y5976839D1*
X6161810Y5969602D1*
X6163000Y5962086D1*
X6163150Y5933279D1*
X6163280Y5878506D1*
X6168843Y5884869D1*
X6168223Y5884292D1*
X6168877Y5884949D1*
X6169740Y5895596D1*
X6172250Y5906046D1*
X6176363Y5915979D1*
X6181980Y5925142D1*
X6188960Y5933316D1*
X6197133Y5940296D1*
X6206297Y5945912D1*
X6216230Y5950026D1*
X6226680Y5952536D1*
X6237397Y5953379D1*
X6248113Y5952536D1*
X6258563Y5950026D1*
X6268497Y5945912D1*
X6275267Y5941896D1*
X6280327Y5947522D1*
X6288500Y5954502D1*
X6297663Y5960119D1*
X6307597Y5964232D1*
X6318047Y5966742D1*
X6328763Y5967586D1*
X6339480Y5966742D1*
X6349930Y5964232D1*
X6359863Y5960119D1*
X6364573Y5957479D1*
X6371780Y5965939D1*
X6379953Y5972919D1*
X6389117Y5978536D1*
X6399050Y5982649D1*
X6409500Y5985159D1*
X6420217Y5986002D1*
X6431240Y5985099D1*
X6436300Y5995119D1*
X6442620Y6003816D1*
X6450220Y6011416D1*
X6458917Y6017736D1*
X6468493Y6022616D1*
X6478717Y6025936D1*
X6489333Y6027619D1*
X6494643Y6027826D1*
X6504287Y6037286D1*
X6510443Y6041759D1*
X6517223Y6045212D1*
X6524460Y6047566D1*
X6531977Y6048756D1*
X6560783Y6048906D1*
X6564543D1*
X6559063Y6056172D1*
X6555607Y6062952D1*
X6553257Y6070189D1*
X6552067Y6077706D1*
X6551917Y6106512D1*
Y6132146D1*
X6544267Y6139752D1*
X6546953Y6132772D1*
X6549463Y6122322D1*
X6550307Y6111606D1*
X6549463Y6100889D1*
X6546953Y6090439D1*
X6542840Y6080506D1*
X6537223Y6071342D1*
X6530243Y6063169D1*
X6522070Y6056189D1*
X6512907Y6050572D1*
X6502973Y6046459D1*
X6492523Y6043949D1*
X6481807Y6043106D1*
X6471090Y6043949D1*
X6460640Y6046459D1*
X6450707Y6050572D1*
X6441543Y6056189D1*
X6433370Y6063169D1*
X6426390Y6071342D1*
X6420773Y6080506D1*
X6416660Y6090439D1*
X6414150Y6100889D1*
X6413307Y6111606D1*
X6414150Y6122322D1*
X6416660Y6132772D1*
X6420773Y6142706D1*
X6426390Y6151869D1*
X6433370Y6160042D1*
X6435637Y6162139D1*
X6435760Y6247846D1*
X6436950Y6255362D1*
X6439303Y6262599D1*
X6441513Y6267162D1*
X6433073Y6269079D1*
X6347183D1*
X6250890Y6172696D1*
X6258340Y6173106D1*
X6269057Y6172262D1*
X6279507Y6169752D1*
X6289440Y6165639D1*
X6298603Y6160022D1*
X6306777Y6153042D1*
X6313757Y6144869D1*
X6319373Y6135706D1*
X6323487Y6125772D1*
X6325997Y6115322D1*
X6326840Y6104606D1*
X6325997Y6093889D1*
X6323487Y6083439D1*
X6319373Y6073506D1*
X6313757Y6064342D1*
X6306777Y6056169D1*
X6298603Y6049189D1*
X6289440Y6043572D1*
X6279507Y6039459D1*
X6269057Y6036949D1*
X6258340Y6036106D1*
X6247623Y6036949D1*
X6237173Y6039459D1*
X6227240Y6043572D1*
X6225463Y6044569D1*
X6217487Y6036522D1*
X6208790Y6030202D1*
X6199213Y6025322D1*
X6188990Y6022002D1*
X6178373Y6020319D1*
X6167627D1*
X6157010Y6022002D1*
X6146787Y6025322D1*
X6137210Y6030202D1*
X6128513Y6036522D1*
X6120913Y6044122D1*
X6114593Y6052819D1*
X6109713Y6062396D1*
X6106840Y6070439D1*
X6096093D1*
X6085477Y6072122D1*
X6075253Y6075442D1*
X6065677Y6080322D1*
X6056980Y6086642D1*
X6049380Y6094242D1*
X6043060Y6102939D1*
X6038180Y6112516D1*
X6034860Y6122739D1*
X6033177Y6133356D1*
Y6144102D1*
X6034860Y6154719D1*
X6038180Y6164942D1*
X6043060Y6174519D1*
X6049380Y6183216D1*
X6056980Y6190816D1*
X6065677Y6197136D1*
X6075253Y6202016D1*
X6085477Y6205336D1*
X6091147Y6206432D1*
X6097013Y6212142D1*
X6103173Y6216616D1*
X6109953Y6220072D1*
X6117190Y6222422D1*
X6124707Y6223612D1*
X6153513Y6223762D1*
X6164793D1*
X6254600Y6313586D1*
X6083997Y6313782D1*
X6074157Y6315339D1*
X6064680Y6318419D1*
X6055800Y6322942D1*
X6047740Y6328799D1*
X6035240Y6341022D1*
X5907940Y6468322D1*
X5788140Y6468282D1*
X5778490Y6465176D1*
X5767873Y6463492D1*
X5757127D1*
X5746510Y6465176D1*
X5736287Y6468496D1*
X5726710Y6473376D1*
X5718013Y6479696D1*
X5710413Y6487296D1*
X5704093Y6495992D1*
X5699213Y6505569D1*
X5695893Y6515792D1*
X5694210Y6526409D1*
Y6537156D1*
X5695487Y6545732D1*
X4840603Y6545686D1*
X4830877Y6542579D1*
X4820260Y6540896D1*
X4809513D1*
X4798897Y6542579D1*
X4788673Y6545899D1*
X4779097Y6550779D1*
X4770400Y6557099D1*
X4762800Y6564699D1*
X4756480Y6573396D1*
X4751600Y6582972D1*
X4748280Y6593196D1*
X4746597Y6603812D1*
Y6614559D1*
X4748280Y6625176D1*
X4751600Y6635399D1*
X4756480Y6644976D1*
X4762800Y6653672D1*
X4770400Y6661272D1*
X4779097Y6667592D1*
X4788673Y6672472D1*
X4798897Y6675792D1*
X4809513Y6677476D1*
X4820260D1*
X4830877Y6675792D1*
X4840607Y6672652D1*
X6053640Y6672686D1*
X6063573Y6671906D1*
X6073263Y6669579D1*
X6082470Y6665766D1*
X6090963Y6660559D1*
X6099110Y6653472D1*
X6194077Y6558552D1*
X6199500Y6567322D1*
X6206437Y6575449D1*
X6206417Y6880722D1*
X6199500Y6888839D1*
X6193883Y6898002D1*
X6189770Y6907936D1*
X6187260Y6918386D1*
X6186417Y6929102D1*
X6187260Y6939819D1*
X6189770Y6950269D1*
X6193883Y6960202D1*
X6199500Y6969366D1*
X6206480Y6977539D1*
X6214653Y6984519D1*
X6223817Y6990136D1*
X6233750Y6994249D1*
X6244200Y6996759D1*
X6254917Y6997602D1*
X6265633Y6996759D1*
X6274567Y6994679D1*
X6274187Y7001892D1*
X6275030Y7012609D1*
X6277540Y7023059D1*
X6281653Y7032992D1*
X6287270Y7042156D1*
X6294250Y7050329D1*
X6302423Y7057309D1*
X6311587Y7062926D1*
X6321520Y7067039D1*
X6331970Y7069549D1*
X6342687Y7070392D1*
X6353403Y7069549D1*
X6363853Y7067039D1*
X6373787Y7062926D1*
X6382950Y7057309D1*
X6391123Y7050329D1*
X6398103Y7042156D1*
X6403720Y7032992D1*
X6407833Y7023059D1*
X6410343Y7012609D1*
X6411187Y7001892D1*
X6410343Y6991176D1*
X6407833Y6980726D1*
X6403720Y6970792D1*
X6398103Y6961629D1*
X6391167Y6953502D1*
X6391187Y6576549D1*
X6398103Y6568452D1*
X6398700Y6567562D1*
X6398860Y6712479D1*
X6400417Y6722319D1*
X6403497Y6731796D1*
X6408020Y6740676D1*
X6413877Y6748736D1*
X6426100Y6761236D1*
X6464300Y6799159D1*
X6472360Y6805016D1*
X6481240Y6809539D1*
X6490717Y6812619D1*
X6500557Y6814176D1*
X6518040Y6814372D1*
X6619650D1*
X6611237Y6819579D1*
X6603063Y6826559D1*
X6596083Y6834732D1*
X6590467Y6843896D1*
X6586353Y6853829D1*
X6583843Y6864279D1*
X6583000Y6874996D1*
X6583843Y6885712D1*
X6586353Y6896162D1*
X6590467Y6906096D1*
X6596083Y6915259D1*
X6603063Y6923432D1*
X6611237Y6930412D1*
X6620400Y6936029D1*
X6630333Y6940142D1*
X6640783Y6942652D1*
X6651500Y6943496D1*
X6662217Y6942652D1*
X6672667Y6940142D1*
X6677220Y6938462D1*
X6850180Y6938496D1*
X6859840Y6941602D1*
X6870457Y6943286D1*
X6881203D1*
X6891820Y6941602D1*
X6901550Y6938462D1*
X7690623Y6938496D1*
X7696457Y6944066D1*
X7705153Y6950386D1*
X7714730Y6955266D1*
X7724953Y6958586D1*
X7735570Y6960269D1*
X7746317D1*
X7756933Y6958586D1*
X7767157Y6955266D1*
X7776733Y6950386D1*
X7785430Y6944066D1*
X7793030Y6936466D1*
X7799350Y6927769D1*
X7804230Y6918192D1*
X7807550Y6907969D1*
X7809233Y6897352D1*
Y6886606D1*
X7807550Y6875989D1*
X7804230Y6865766D1*
X7802690Y6860172D1*
X7799610Y6850696D1*
X7795087Y6841816D1*
X7789230Y6833756D1*
X7782183Y6826709D1*
X7774123Y6820852D1*
X7765243Y6816329D1*
X7759647Y6814346D1*
X8036253Y6814372D1*
X8081647Y6859822D1*
X8078890Y6868642D1*
X8077207Y6879259D1*
Y6890006D1*
X8078890Y6900622D1*
X8082210Y6910846D1*
X8087090Y6920422D1*
X8093410Y6929119D1*
X8101010Y6936719D1*
X8109707Y6943039D1*
X8119283Y6947919D1*
X8129507Y6951239D1*
X8140123Y6952922D1*
X8150870D1*
X8161487Y6951239D1*
X8171710Y6947919D1*
X8181287Y6943039D1*
X8189983Y6936719D1*
X8197583Y6929119D1*
X8203903Y6920422D1*
X8208783Y6910846D1*
X8212103Y6900622D1*
X8213787Y6890006D1*
Y6879259D1*
X8212103Y6868642D1*
X8208963Y6858912D1*
X8208800Y6828886D1*
X8207243Y6819046D1*
X8204163Y6809569D1*
X8199640Y6800689D1*
X8193783Y6792629D1*
X8181560Y6780129D1*
X8103740Y6702586D1*
X8095680Y6696729D1*
X8086800Y6692206D1*
X8077323Y6689126D1*
X8067483Y6687569D1*
X8050000Y6687372D1*
X6531787D1*
X6525663Y6669996D1*
X6525467Y6513726D1*
X6525343Y6512662D1*
X6525467Y6513726D1*
X6525343Y6512662D1*
X6527563Y6511156D1*
X6545047Y6511352D1*
X6810133D1*
X6808173Y6520089D1*
X6807330Y6530806D1*
X6808173Y6541522D1*
X6809137Y6546362D1*
X6795937Y6546346D1*
X6787857Y6539429D1*
X6778693Y6533812D1*
X6768760Y6529699D1*
X6758310Y6527189D1*
X6747593Y6526346D1*
X6736877Y6527189D1*
X6726427Y6529699D1*
X6716493Y6533812D1*
X6707330Y6539429D1*
X6699157Y6546409D1*
X6692177Y6554582D1*
X6686560Y6563746D1*
X6682447Y6573679D1*
X6679937Y6584129D1*
X6679093Y6594846D1*
X6679937Y6605562D1*
X6682447Y6616012D1*
X6686560Y6625946D1*
X6692177Y6635109D1*
X6699157Y6643282D1*
X6707330Y6650262D1*
X6716493Y6655879D1*
X6726427Y6659992D1*
X6736877Y6662502D1*
X6747593Y6663346D1*
X6758310Y6662502D1*
X6768760Y6659992D1*
X6778693Y6655879D1*
X6787857Y6650262D1*
X6795983Y6643326D1*
X7419613Y6643346D1*
X7427693Y6650262D1*
X7436857Y6655879D1*
X7446790Y6659992D1*
X7457240Y6662502D1*
X7467957Y6663346D1*
X7478673Y6662502D1*
X7489123Y6659992D1*
X7499057Y6655879D1*
X7508220Y6650262D1*
X7516393Y6643282D1*
X7523373Y6635109D1*
X7528990Y6625946D1*
X7533103Y6616012D1*
X7535613Y6605562D1*
X7536457Y6594846D1*
X7535613Y6584129D1*
X7533103Y6573679D1*
X7528990Y6563746D1*
X7523373Y6554582D1*
X7516393Y6546409D1*
X7508220Y6539429D1*
X7499057Y6533812D1*
X7489123Y6529699D1*
X7478673Y6527189D1*
X7467957Y6526346D1*
X7457240Y6527189D1*
X7446790Y6529699D1*
X7436857Y6533812D1*
X7427693Y6539429D1*
X7419567Y6546366D1*
X6942517Y6546346D1*
X6944120Y6536179D1*
Y6525432D1*
X6942437Y6514816D1*
X6939297Y6505086D1*
X6939133Y6442869D1*
X6937577Y6433029D1*
X6934497Y6423552D1*
X6929973Y6414672D1*
X6924117Y6406612D1*
X6917070Y6399566D1*
X6909010Y6393709D1*
X6900130Y6389186D1*
X6890653Y6386106D1*
X6880813Y6384549D1*
X6863330Y6384352D1*
X6558790D1*
X6540540Y6366042D1*
X6886880Y6365929D1*
X6894397Y6364739D1*
X6901633Y6362389D1*
X6908413Y6358932D1*
X6914670Y6354369D1*
X6963950Y6354392D1*
X6972477Y6356592D1*
X6980063Y6357189D1*
X8026303D1*
X8034373Y6364106D1*
X8043537Y6369722D1*
X8053470Y6373836D1*
X8063920Y6376346D1*
X8074637Y6377189D1*
X8085353Y6376346D1*
X8095803Y6373836D1*
X8105737Y6369722D1*
X8114900Y6364106D1*
X8123073Y6357126D1*
X8130053Y6348952D1*
X8135670Y6339789D1*
X8139783Y6329856D1*
X8142293Y6319406D1*
X8143137Y6308689D1*
X8142293Y6297972D1*
X8139783Y6287522D1*
X8138600Y6284309D1*
X8530173Y6675942D1*
X8530307Y7245989D1*
X8531497Y7253506D1*
X8533847Y7260742D1*
X8537303Y7267522D1*
X8541777Y7273682D1*
X8562040Y7294156D1*
X8666413Y7398529D1*
X8514257Y7398476D1*
X8496707Y7381196D1*
X8488647Y7375339D1*
X8479767Y7370816D1*
X8470290Y7367736D1*
X8460450Y7366179D1*
X8442967Y7365982D1*
X6800730D1*
X6542407Y7107642D1*
X6542443Y7069676D1*
X6545550Y7059999D1*
X6547233Y7049382D1*
Y7038636D1*
X6545550Y7028019D1*
X6542230Y7017796D1*
X6537350Y7008219D1*
X6531030Y6999522D1*
X6523430Y6991922D1*
X6514733Y6985602D1*
X6505157Y6980722D1*
X6494933Y6977402D1*
X6484317Y6975719D1*
X6473570D1*
X6462953Y6977402D1*
X6452730Y6980722D1*
X6443153Y6985602D1*
X6434457Y6991922D1*
X6426857Y6999522D1*
X6420537Y7008219D1*
X6415657Y7017796D1*
X6412337Y7028019D1*
X6410653Y7038636D1*
Y7049382D1*
X6412337Y7059999D1*
X6415477Y7069729D1*
X6415640Y7138966D1*
X6417197Y7148806D1*
X6420277Y7158282D1*
X6424800Y7167162D1*
X6430657Y7175222D1*
X6442880Y7187722D1*
X6733203Y7477769D1*
X6741263Y7483626D1*
X6750143Y7488149D1*
X6759620Y7491229D1*
X6769460Y7492786D1*
X6786943Y7492982D1*
X8429180D1*
X8446720Y7510262D1*
X8454780Y7516119D1*
X8463660Y7520642D1*
X8473137Y7523722D1*
X8482977Y7525279D1*
X8500460Y7525476D1*
X8684590D1*
X8694310Y7528582D1*
X8704927Y7530266D1*
X8715673D1*
X8723180Y7529202D1*
X8723143Y7556212D1*
X8644023Y7635306D1*
X8619437Y7635446D1*
X8611920Y7636636D1*
X8604683Y7638989D1*
X8597903Y7642442D1*
X8591747Y7646916D1*
X8571270Y7667179D1*
X8561017Y7677432D1*
X8550370Y7678296D1*
X8539920Y7680806D1*
X8529987Y7684919D1*
X8520823Y7690536D1*
X8512650Y7697516D1*
X8505670Y7705689D1*
X8500053Y7714852D1*
X8495940Y7724786D1*
X8493430Y7735236D1*
X8492587Y7745952D1*
X8493430Y7756669D1*
X8495940Y7767119D1*
X8500053Y7777052D1*
X8505670Y7786216D1*
X8512650Y7794389D1*
X8520823Y7801369D1*
X8529987Y7806986D1*
X8539920Y7811099D1*
X8550370Y7813609D1*
X8561087Y7814452D1*
X8571803Y7813609D1*
X8582253Y7811099D1*
X8592187Y7806986D1*
X8601350Y7801369D1*
X8609523Y7794389D1*
X8612647Y7791009D1*
X8619753Y7798042D1*
X8628450Y7804362D1*
X8638027Y7809242D1*
X8648250Y7812562D1*
X8658867Y7814246D1*
X8669613D1*
X8680230Y7812562D1*
X8690453Y7809242D1*
X8700030Y7804362D1*
X8708727Y7798042D1*
X8716327Y7790442D1*
X8722647Y7781746D1*
X8727527Y7772169D1*
X8730847Y7761946D1*
X8732530Y7751329D1*
X8732737Y7746019D1*
X8848620Y7629952D1*
X8853093Y7623796D1*
X8856547Y7617016D1*
X8858900Y7609779D1*
X8860090Y7602262D1*
X8860240Y7573456D1*
X8860090Y7413182D1*
X8858900Y7405666D1*
X8856547Y7398429D1*
X8853093Y7391649D1*
X8848620Y7385492D1*
X8828357Y7365016D1*
X8668463Y7205122D1*
X8668350Y6633639D1*
X8667160Y6626122D1*
X8664807Y6618886D1*
X8661353Y6612106D1*
X8656880Y6605949D1*
X8636617Y6585472D1*
X8017260Y5966329D1*
X8011103Y5961856D1*
X8004323Y5958402D1*
X7997087Y5956049D1*
X7989570Y5954859D1*
X7960763Y5954709D1*
X7095570Y5954599D1*
X7090690Y5945022D1*
X7084370Y5936326D1*
X7076770Y5928726D1*
X7068073Y5922406D1*
X7058497Y5917526D1*
X7048273Y5914206D1*
X7037657Y5912522D1*
X7026910D1*
X7016293Y5914206D1*
X7006070Y5917526D1*
X6996493Y5922406D1*
X6987797Y5928726D1*
X6980197Y5936326D1*
X6973877Y5945022D1*
X6968997Y5954599D1*
X6965677Y5964822D1*
X6963993Y5975439D1*
Y5986186D1*
X6965677Y5996802D1*
X6968997Y6007026D1*
X6973877Y6016602D1*
X6980197Y6025299D1*
X6981207Y6026396D1*
X6973480Y6035312D1*
X6967863Y6044476D1*
X6963750Y6054409D1*
X6961240Y6064859D1*
X6960397Y6075576D1*
X6961240Y6086292D1*
X6963750Y6096742D1*
X6966093Y6102839D1*
X6961053Y6106732D1*
X6953453Y6114332D1*
X6947133Y6123029D1*
X6942253Y6132606D1*
X6938933Y6142829D1*
X6937250Y6153446D1*
Y6164192D1*
X6938933Y6174809D1*
X6941620Y6183319D1*
X6637633Y6183276D1*
X6641770Y6177532D1*
X6645223Y6170752D1*
X6647577Y6163516D1*
X6648767Y6155999D1*
X6648917Y6127192D1*
Y6101559D1*
X6875437Y5874872D1*
X6879910Y5868712D1*
X6883367Y5861932D1*
X6885717Y5854696D1*
X6886907Y5847179D1*
X6887057Y5818372D1*
X6886907Y5514022D1*
X6885717Y5506506D1*
X6883367Y5499269D1*
X6879910Y5492489D1*
X6875437Y5486329D1*
X6855173Y5465856D1*
X6795200Y5405882D1*
X6795250Y5188866D1*
X6877747Y5106199D1*
X6882220Y5100039D1*
X6885677Y5093259D1*
X6888027Y5086022D1*
X6889217Y5078506D1*
X6889367Y5049699D1*
Y5037932D1*
X7403247Y4524116D1*
X7413857Y4523289D1*
X7424307Y4520779D1*
X7434240Y4516666D1*
X7443403Y4511049D1*
X7451577Y4504069D1*
X7458557Y4495896D1*
X7464173Y4486732D1*
X7468287Y4476799D1*
X7470797Y4466349D1*
X7471640Y4455632D1*
X7470797Y4444916D1*
X7468287Y4434466D1*
X7464173Y4424532D1*
X7458557Y4415369D1*
X7451577Y4407196D1*
X7443403Y4400216D1*
X7434240Y4394599D1*
X7424307Y4390486D1*
X7413857Y4387976D1*
X7403140Y4387132D1*
X7392423Y4387976D1*
X7381973Y4390486D1*
X7372040Y4394599D1*
X7362877Y4400216D1*
X7354703Y4407196D1*
X7347723Y4415369D1*
X7342107Y4424532D1*
X7337993Y4434466D1*
X7335483Y4444916D1*
X7334643Y4455569D1*
X6826950Y4963236D1*
X6827000Y4460082D1*
X8416527Y2870622D1*
X8940570Y2870679D1*
X8945887Y2875766D1*
X8954583Y2882086D1*
X8964160Y2886966D1*
X8974383Y2890286D1*
X8985000Y2891969D1*
X8995747D1*
X9006363Y2890286D1*
X9016587Y2886966D1*
X9026163Y2882086D1*
X9034860Y2875766D1*
X9042460Y2868166D1*
X9048780Y2859469D1*
X9050863Y2855749D1*
X9465777Y3270722D1*
X9471563Y3275666D1*
X9478050Y3279642D1*
X9485083Y3282556D1*
X9492483Y3284332D1*
X9500917Y3284896D1*
X10603633Y3284929D1*
X10611737Y3291846D1*
X10620900Y3297462D1*
X10630833Y3301576D1*
X10641283Y3304086D1*
X10652000Y3304929D1*
X10662717Y3304086D1*
X10673167Y3301576D1*
X10683100Y3297462D1*
X10692263Y3291846D1*
X10700437Y3284866D1*
X10707417Y3276692D1*
X10713033Y3267529D1*
X10717147Y3257596D1*
X10719657Y3247146D1*
X10720500Y3236429D1*
X10719657Y3225712D1*
X10717147Y3215262D1*
X10713033Y3205329D1*
X10707417Y3196166D1*
X10700437Y3187992D1*
X10692263Y3181012D1*
X10683100Y3175396D1*
X10673167Y3171282D1*
X10662717Y3168772D1*
X10652000Y3167929D1*
X10641283Y3168772D1*
X10630833Y3171282D1*
X10620900Y3175396D1*
X10611737Y3181012D1*
X10603610Y3187949D1*
X9520117Y3187929D1*
X9050650Y2718632D1*
X9044493Y2714159D1*
X9037713Y2710706D1*
X9030477Y2708352D1*
X9022960Y2707162D1*
X8994153Y2707012D1*
X8366860Y2707162D1*
X8359343Y2708352D1*
X8352107Y2710706D1*
X8345327Y2714159D1*
X8339170Y2718632D1*
X8318693Y2738896D1*
X6910453Y4147136D1*
X6909657Y4139056D1*
X6907147Y4128606D1*
X6903033Y4118672D1*
X6897417Y4109509D1*
X6890437Y4101336D1*
X6882263Y4094356D1*
X6873100Y4088739D1*
X6863167Y4084626D1*
X6860803Y4083959D1*
X7874810Y3070019D1*
X7879753Y3064232D1*
X7883730Y3057746D1*
X7886643Y3050712D1*
X7888420Y3043312D1*
X7888983Y3034879D1*
X7889017Y2420246D1*
X7895933Y2412109D1*
X7901550Y2402946D1*
X7905663Y2393012D1*
X7908173Y2382562D1*
X7909017Y2371846D1*
X7908173Y2361129D1*
X7905663Y2350679D1*
X7901550Y2340746D1*
X7895933Y2331582D1*
X7888953Y2323409D1*
X7880780Y2316429D1*
X7871617Y2310812D1*
X7861683Y2306699D1*
X7851233Y2304189D1*
X7840517Y2303346D1*
X7829800Y2304189D1*
X7819350Y2306699D1*
X7809417Y2310812D1*
X7800253Y2316429D1*
X7792080Y2323409D1*
X7785100Y2331582D1*
X7779483Y2340746D1*
X7775370Y2350679D1*
X7772860Y2361129D1*
X7772017Y2371846D1*
X7772860Y2382562D1*
X7775370Y2393012D1*
X7779483Y2402946D1*
X7785100Y2412109D1*
X7792037Y2420236D1*
X7792017Y3015646D1*
X6866647Y3941006D1*
X6866670Y3211036D1*
X6873587Y3202899D1*
X6879203Y3193736D1*
X6883317Y3183802D1*
X6885827Y3173352D1*
X6886670Y3162636D1*
X6885827Y3151919D1*
X6883317Y3141469D1*
X6879203Y3131536D1*
X6873587Y3122372D1*
X6866607Y3114199D1*
X6858433Y3107219D1*
X6849270Y3101602D1*
X6839337Y3097489D1*
X6828887Y3094979D1*
X6818170Y3094136D1*
X6807453Y3094979D1*
X6797003Y3097489D1*
X6787070Y3101602D1*
X6777907Y3107219D1*
X6769733Y3114199D1*
X6762753Y3122372D1*
X6757137Y3131536D1*
X6753023Y3141469D1*
X6750513Y3151919D1*
X6749670Y3162636D1*
X6750513Y3173352D1*
X6753023Y3183802D1*
X6757137Y3193736D1*
X6762753Y3202899D1*
X6769690Y3211026D1*
X6769670Y3960049D1*
X6618470Y4111452D1*
X6613997Y4117609D1*
X6610543Y4124389D1*
X6608190Y4131626D1*
X6607000Y4139142D1*
X6606850Y4167949D1*
Y4866826D1*
X6599193Y4865776D1*
X6588447D1*
X6580653Y4866896D1*
X6580690Y4275182D1*
X6582697Y4268419D1*
X6584380Y4257802D1*
Y4247056D1*
X6582697Y4236439D1*
X6579377Y4226216D1*
X6574497Y4216639D1*
X6568177Y4207942D1*
X6560577Y4200342D1*
X6551880Y4194022D1*
X6542303Y4189142D1*
X6532080Y4185822D1*
X6521463Y4184139D1*
X6510717D1*
X6500100Y4185822D1*
X6489877Y4189142D1*
X6480300Y4194022D1*
X6471603Y4200342D1*
X6464003Y4207942D1*
X6457683Y4216639D1*
X6452803Y4226216D1*
X6449483Y4236439D1*
X6447800Y4247056D1*
Y4257802D1*
X6449483Y4268419D1*
X6452803Y4278642D1*
X6457683Y4288219D1*
X6464003Y4296916D1*
X6471603Y4304516D1*
X6480300Y4310836D1*
X6483727Y4312756D1*
X6483690Y4460556D1*
X5389110Y3366162D1*
X5382953Y3361689D1*
X5376173Y3358236D1*
X5368937Y3355882D1*
X5361420Y3354692D1*
X5332613Y3354542D1*
X4620553D1*
X4622607Y3347669D1*
X4624290Y3337052D1*
Y3326306D1*
X4622607Y3315689D1*
X4619287Y3305466D1*
X4614407Y3295889D1*
X4608087Y3287192D1*
X4600487Y3279592D1*
X4591790Y3273272D1*
X4582213Y3268392D1*
X4571990Y3265072D1*
X4561373Y3263389D1*
X4556063Y3263182D1*
X4404783Y3111872D1*
X4404847Y2128069D1*
X4411763Y2120006D1*
X4417380Y2110842D1*
X4421493Y2100909D1*
X4424003Y2090459D1*
X4424847Y2079742D1*
X4424003Y2069026D1*
X4421493Y2058576D1*
X4417380Y2048642D1*
X4411763Y2039479D1*
X4404783Y2031306D1*
X4396610Y2024326D1*
X4387447Y2018709D1*
X4377513Y2014596D1*
X4367063Y2012086D1*
X4356347Y2011242D1*
X4345630Y2012086D1*
X4335180Y2014596D1*
X4325247Y2018709D1*
X4316083Y2024326D1*
X4307910Y2031306D1*
X4300930Y2039479D1*
X4295313Y2048642D1*
X4291200Y2058576D1*
X4288690Y2069026D1*
X4287847Y2079742D1*
X4288690Y2090459D1*
X4291200Y2100909D1*
X4295313Y2110842D1*
X4300930Y2120006D1*
X4307867Y2128132D1*
X4307997Y3135832D1*
X4309187Y3143349D1*
X4311537Y3150586D1*
X4314993Y3157366D1*
X4319467Y3163526D1*
X4339730Y3183999D1*
X4487470Y3331739D1*
X4488343Y3342396D1*
X4490853Y3352846D1*
X4491487Y3354562D1*
X4303073Y3354542D1*
X4292867Y3344506D1*
X4286707Y3340032D1*
X4279927Y3336576D1*
X4272690Y3334226D1*
X4265173Y3333036D1*
X4236367Y3332886D1*
X3578017D1*
X3175687Y2930526D1*
X3175750Y2459126D1*
X3182667Y2451036D1*
X3188283Y2441872D1*
X3192397Y2431939D1*
X3194907Y2421489D1*
X3195750Y2410772D1*
X3194907Y2400056D1*
X3192397Y2389606D1*
X3188283Y2379672D1*
X3182667Y2370509D1*
X3175687Y2362336D1*
X3167513Y2355356D1*
X3158350Y2349739D1*
X3148417Y2345626D1*
X3137967Y2343116D1*
X3127250Y2342272D1*
X3116533Y2343116D1*
X3106083Y2345626D1*
X3096150Y2349739D1*
X3086987Y2355356D1*
X3078813Y2362336D1*
X3071833Y2370509D1*
X3066217Y2379672D1*
X3062103Y2389606D1*
X3059593Y2400056D1*
X3058750Y2410772D1*
X3059593Y2421489D1*
X3062103Y2431939D1*
X3066217Y2441872D1*
X3071833Y2451036D1*
X3078770Y2459162D1*
X3078900Y2954486D1*
X3080090Y2962002D1*
X3082440Y2969239D1*
X3085897Y2976019D1*
X3090370Y2982179D1*
X3110633Y3002652D1*
X3221773Y3113792D1*
X2072723Y3113919D1*
X2065207Y3115109D1*
X2057970Y3117462D1*
X2051190Y3120916D1*
X2045033Y3125389D1*
X2039650Y3130772D1*
X2035177Y3136929D1*
X2031723Y3143709D1*
X2029370Y3150946D1*
X2028180Y3158462D1*
X2028030Y3187269D1*
Y3219739D1*
X1374333Y3219679D1*
X1366263Y3212762D1*
X1357100Y3207146D1*
X1347167Y3203032D1*
X1336717Y3200522D1*
X1326000Y3199679D1*
X1315283Y3200522D1*
X1304833Y3203032D1*
X1294900Y3207146D1*
X1285737Y3212762D1*
X1277563Y3219742D1*
X1270583Y3227916D1*
X1264967Y3237079D1*
X1260853Y3247012D1*
X1258343Y3257462D1*
X1257500Y3268179D1*
X1258343Y3278896D1*
X1260853Y3289346D1*
X1264967Y3299279D1*
X1270583Y3308442D1*
X1277563Y3316616D1*
X1285737Y3323596D1*
X1294900Y3329212D1*
X1304833Y3333326D1*
X1315283Y3335836D1*
X1326000Y3336679D1*
X1336717Y3335836D1*
X1347167Y3333326D1*
X1357100Y3329212D1*
X1366263Y3323596D1*
X1374390Y3316659D1*
X2080337Y3316529D1*
X2087853Y3315339D1*
X2095090Y3312986D1*
X2101870Y3309532D1*
X2108027Y3305059D1*
X2113410Y3299676D1*
X2117883Y3293519D1*
X2121337Y3286739D1*
X2123690Y3279502D1*
X2124880Y3271986D1*
X2125030Y3243179D1*
Y3210709D1*
X3255290Y3210769D1*
X3503410Y3458716D1*
X3509567Y3463189D1*
X3516347Y3466642D1*
X3523583Y3468996D1*
X3531100Y3470186D1*
X3559907Y3470336D1*
X4145307D1*
X4143950Y3479566D1*
Y3490312D1*
X4145633Y3500929D1*
X4146917Y3505479D1*
X3196557Y3505429D1*
X3188970Y3506026D1*
X3181570Y3507802D1*
X3174537Y3510716D1*
X3168050Y3514692D1*
X3162263Y3519636D1*
X3157320Y3525422D1*
X3153343Y3531909D1*
X3150430Y3538942D1*
X3148653Y3546342D1*
X3148090Y3554776D1*
X3148057Y4231126D1*
X2873250Y4231066D1*
X2865663Y4231662D1*
X2858263Y4233439D1*
X2851230Y4236352D1*
X2844743Y4240329D1*
X2838957Y4245272D1*
X2834013Y4251059D1*
X2830037Y4257546D1*
X2827123Y4264579D1*
X2825347Y4271979D1*
X2824783Y4280412D1*
X2824750Y5156569D1*
X2817833Y5164666D1*
X2812217Y5173829D1*
X2808103Y5183762D1*
X2805593Y5194212D1*
X2804750Y5204929D1*
X2805593Y5215646D1*
X2808103Y5226096D1*
X2812217Y5236029D1*
X2817833Y5245192D1*
X2824813Y5253366D1*
X2832987Y5260346D1*
X2842150Y5265962D1*
X2852083Y5270076D1*
X2862533Y5272586D1*
X2873250Y5273429D1*
X2883967Y5272586D1*
X2894417Y5270076D1*
X2904350Y5265962D1*
X2913513Y5260346D1*
X2921687Y5253366D1*
X2928667Y5245192D1*
X2934283Y5236029D1*
X2938397Y5226096D1*
X2940907Y5215646D1*
X2941750Y5204929D1*
X2940907Y5194212D1*
X2938397Y5183762D1*
X2934283Y5173829D1*
X2928667Y5164666D1*
X2921730Y5156539D1*
X2921750Y4328026D1*
X3200363Y4327916D1*
X3207880Y4326726D1*
X3215117Y4324376D1*
X3221897Y4320919D1*
X3228057Y4316446D1*
X3233437Y4311066D1*
X3237910Y4304906D1*
X3241367Y4298126D1*
X3243717Y4290889D1*
X3244907Y4283372D1*
X3245057Y4254566D1*
Y3602369D1*
X4238500Y3602429D1*
X4246087Y3601832D1*
X4253487Y3600056D1*
X4260520Y3597142D1*
X4267007Y3593166D1*
X4273370Y3587602D1*
X4286917Y3574102D1*
X4837707Y3574169D1*
X4836750Y3585679D1*
X4837593Y3596396D1*
X4840103Y3606846D1*
X4844217Y3616779D1*
X4849833Y3625942D1*
X4856770Y3634069D1*
X4856900Y3825869D1*
X4858090Y3833386D1*
X4860440Y3840622D1*
X4863897Y3847402D1*
X4868370Y3853562D1*
X4888633Y3874036D1*
X5350330Y4335839D1*
X5340753Y4330959D1*
X5330530Y4327639D1*
X5319913Y4325956D1*
X5309167D1*
X5298550Y4327639D1*
X5288327Y4330959D1*
X5278750Y4335839D1*
X5270053Y4342159D1*
X5262453Y4349759D1*
X5256133Y4358456D1*
X5251253Y4368032D1*
X5247933Y4378256D1*
X5246250Y4388872D1*
Y4399619D1*
X5247933Y4410236D1*
X5251253Y4420459D1*
X5256133Y4430036D1*
X5262453Y4438732D1*
X5270053Y4446332D1*
X5278750Y4452652D1*
X5288327Y4457532D1*
X5298550Y4460852D1*
X5309167Y4462536D1*
X5319913D1*
X5330530Y4460852D1*
X5340753Y4457532D1*
X5350330Y4452652D1*
X5359027Y4446332D1*
X5362930Y4442726D1*
X5399647Y4442746D1*
X5764007Y4807196D1*
X4969690Y4807329D1*
X4962173Y4808519D1*
X4954937Y4810869D1*
X4948157Y4814326D1*
X4941997Y4818799D1*
X4921523Y4839062D1*
X4536723Y5223862D1*
X4526073Y5224729D1*
X4515623Y5227239D1*
X4505690Y5231352D1*
X4496527Y5236969D1*
X4488353Y5243949D1*
X4481373Y5252122D1*
X4475757Y5261286D1*
X4471643Y5271219D1*
X4469133Y5281669D1*
X4468290Y5292386D1*
X4469133Y5303102D1*
X4471643Y5313552D1*
X4475757Y5323486D1*
X4481373Y5332649D1*
X4488353Y5340822D1*
X4496527Y5347802D1*
X4505690Y5353419D1*
X4515623Y5357532D1*
X4526073Y5360042D1*
X4536790Y5360886D1*
X4547507Y5360042D1*
X4557957Y5357532D1*
X4567890Y5353419D1*
X4577053Y5347802D1*
X4585227Y5340822D1*
X4592207Y5332649D1*
X4597823Y5323486D1*
X4601937Y5313552D1*
X4604447Y5303102D1*
X4605287Y5292449D1*
X4993587Y4904176D1*
X5803233Y4904179D1*
X5857123Y4958096D1*
X5850637Y4963046D1*
X5846733Y4966652D1*
X5373543Y4966782D1*
X5366027Y4967972D1*
X5358790Y4970326D1*
X5352010Y4973779D1*
X5345853Y4978252D1*
X5325377Y4998516D1*
X5280510Y5043596D1*
X5276037Y5049752D1*
X5272143Y5057719D1*
X5272583Y5056532D1*
X5268457Y5062909D1*
X5262137Y5071606D1*
X5257257Y5081182D1*
X5253937Y5091406D1*
X5252253Y5102022D1*
Y5112769D1*
X5253937Y5123386D1*
X5257257Y5133609D1*
X5262137Y5143186D1*
X5268457Y5151882D1*
X5276057Y5159482D1*
X5284753Y5165802D1*
X5294330Y5170682D1*
X5304553Y5174002D1*
X5315170Y5175686D1*
X5325917D1*
X5336533Y5174002D1*
X5346757Y5170682D1*
X5356333Y5165802D1*
X5365030Y5159482D1*
X5372630Y5151882D1*
X5378950Y5143186D1*
X5383830Y5133609D1*
X5387150Y5123386D1*
X5388833Y5112769D1*
Y5102022D1*
X5387150Y5091406D1*
X5383830Y5081182D1*
X5382570Y5078452D1*
X5397503Y5063569D1*
X5846637Y5063632D1*
X5846773Y5939019D1*
X5847963Y5946536D1*
X5849197Y5950742D1*
X5762670Y5950852D1*
X5755153Y5952042D1*
X5747917Y5954396D1*
X5741137Y5957849D1*
X5734050Y5963182D1*
X5734980Y5962322D1*
X5734050Y5963182D1*
X5726940Y5965076D1*
X5716323Y5966759D1*
X5706100Y5970079D1*
X5696523Y5974959D1*
X5687827Y5981279D1*
X5680227Y5988879D1*
X5673907Y5997576D1*
X5669027Y6007152D1*
X5665707Y6017376D1*
X5664023Y6027992D1*
Y6038739D1*
X5665707Y6049356D1*
X5668657Y6058576D1*
X5465933Y5855792D1*
X5465960Y5729082D1*
X5474013Y5730176D1*
X5484760D1*
X5495377Y5728492D1*
X5505600Y5725172D1*
X5515177Y5720292D1*
X5523873Y5713972D1*
X5527777Y5710366D1*
X5724637Y5710236D1*
X5732153Y5709046D1*
X5739390Y5706692D1*
X5746170Y5703239D1*
X5748297Y5702919D1*
X5759013Y5702076D1*
X5769463Y5699566D1*
X5779397Y5695452D1*
X5788560Y5689836D1*
X5796733Y5682856D1*
X5803713Y5674682D1*
X5809330Y5665519D1*
X5813443Y5655586D1*
X5815953Y5645136D1*
X5816797Y5634419D1*
X5815953Y5623702D1*
X5813443Y5613252D1*
X5809330Y5603319D1*
X5803713Y5594156D1*
X5796733Y5585982D1*
X5788560Y5579002D1*
X5779397Y5573386D1*
X5769463Y5569272D1*
X5759013Y5566762D1*
X5748297Y5565919D1*
X5737580Y5566762D1*
X5727130Y5569272D1*
X5717197Y5573386D1*
X5708033Y5579002D1*
X5699860Y5585982D1*
X5692880Y5594156D1*
X5687263Y5603319D1*
X5683097Y5613432D1*
X5527713Y5613386D1*
X5519650Y5606469D1*
X5510487Y5600852D1*
X5500553Y5596739D1*
X5490103Y5594229D1*
X5479387Y5593386D1*
X5468670Y5594229D1*
X5465930Y5594776D1*
X5465960Y5305156D1*
X5523267Y5247662D1*
X5527740Y5241502D1*
X5531197Y5234722D1*
X5533547Y5227486D1*
X5534737Y5219969D1*
X5534887Y5189842D1*
X5541803Y5181692D1*
X5547420Y5172529D1*
X5551533Y5162596D1*
X5554043Y5152146D1*
X5554887Y5141429D1*
X5554043Y5130712D1*
X5551533Y5120262D1*
X5547420Y5110329D1*
X5541803Y5101166D1*
X5534823Y5092992D1*
X5526650Y5086012D1*
X5517487Y5080396D1*
X5507553Y5076282D1*
X5497103Y5073772D1*
X5486387Y5072929D1*
X5475670Y5073772D1*
X5465220Y5076282D1*
X5455287Y5080396D1*
X5446123Y5086012D1*
X5437950Y5092992D1*
X5430970Y5101166D1*
X5425353Y5110329D1*
X5421240Y5120262D1*
X5418730Y5130712D1*
X5417887Y5141429D1*
X5418730Y5152146D1*
X5421240Y5162596D1*
X5425353Y5172529D1*
X5430970Y5181692D1*
X5437907Y5189819D1*
X5437887Y5196166D1*
X5380580Y5253589D1*
X5376107Y5259749D1*
X5372650Y5266529D1*
X5370300Y5273766D1*
X5369110Y5281282D1*
X5368960Y5310089D1*
X5369110Y5879716D1*
X5370300Y5887232D1*
X5372650Y5894469D1*
X5376107Y5901249D1*
X5380580Y5907409D1*
X5400843Y5927882D1*
X5461437Y5988476D1*
X5453317Y5991989D1*
X5444153Y5997606D1*
X5435980Y6004586D1*
X5429000Y6012759D1*
X5423383Y6021922D1*
X5419270Y6031856D1*
X5416760Y6042306D1*
X5415917Y6053022D1*
X5416760Y6063739D1*
X5419270Y6074189D1*
X5423383Y6084122D1*
X5429000Y6093286D1*
X5435980Y6101459D1*
X5444153Y6108439D1*
X5453317Y6114056D1*
X5463250Y6118169D1*
X5473700Y6120679D1*
X5484417Y6121522D1*
X5493860Y6120829D1*
X5655177Y6281922D1*
X5663237Y6287779D1*
X5672117Y6292302D1*
X5681593Y6295382D1*
X5691433Y6296939D1*
X5708917Y6297136D1*
X5790020D1*
X5797567Y6307076D1*
X5803183Y6316239D1*
X5810163Y6324412D1*
X5818337Y6331392D1*
X5827500Y6337009D1*
X5837433Y6341122D1*
X5847883Y6343632D1*
X5858600Y6344476D1*
X5869317Y6343632D1*
X5879767Y6341122D1*
X5889700Y6337009D1*
X5898863Y6331392D1*
X5907037Y6324412D1*
X5914017Y6316239D1*
X5919633Y6307076D1*
X5923747Y6297142D1*
X5926257Y6286692D1*
X5927100Y6275976D1*
X5926257Y6265259D1*
X5923747Y6254809D1*
X5919633Y6244876D1*
X5914017Y6235712D1*
X5907037Y6227539D1*
X5898863Y6220559D1*
X5889700Y6214942D1*
X5885290Y6212909D1*
X5857500Y6185349D1*
X5849440Y6179492D1*
X5840560Y6174969D1*
X5834850Y6172952D1*
X5833303Y6167826D1*
X5834987Y6157209D1*
Y6146462D1*
X6027010Y5870349D2*
X6017847Y5874179D1*
X6008683Y5879796D1*
X6000557Y5886732D1*
X5943623Y5886712D1*
Y5063482D1*
X5950540Y5055396D1*
X5952117Y5053036D1*
X5974307Y5075279D1*
X5974293Y5605809D1*
X5967377Y5613879D1*
X5961760Y5623042D1*
X5957647Y5632976D1*
X5955137Y5643426D1*
X5954293Y5654142D1*
X5955137Y5664859D1*
X5957647Y5675309D1*
X5961760Y5685242D1*
X5967377Y5694406D1*
X5974357Y5702579D1*
X5982530Y5709559D1*
X5991693Y5715176D1*
X6001627Y5719289D1*
X6004073Y5719979D1*
X6004180Y5729002D1*
X6005863Y5739619D1*
X6008870Y5748996D1*
X5999650Y5756746D1*
X5992670Y5764919D1*
X5987053Y5774082D1*
X5982940Y5784016D1*
X5980430Y5794466D1*
X5979587Y5805182D1*
X5980430Y5815899D1*
X5982940Y5826349D1*
X5987053Y5836282D1*
X5992670Y5845446D1*
X5999650Y5853619D1*
X6007823Y5860599D1*
X6016987Y5866216D1*
X6026940Y5870336D1*
X7087393Y6111202D2*
X7092183Y6101789D1*
X7094313Y6095792D1*
X7950150Y6095839D1*
X8098867Y6244636D1*
X8090627Y6242082D1*
X8080010Y6240399D1*
X8069263D1*
X8058647Y6242082D1*
X8048423Y6245402D1*
X8038847Y6250282D1*
X8030150Y6256602D1*
X8026247Y6260209D1*
X7314140Y6260189D1*
X7316003Y6248702D1*
Y6237956D1*
X7314320Y6227339D1*
X7311000Y6217116D1*
X7306120Y6207539D1*
X7299800Y6198842D1*
X7292200Y6191242D1*
X7283503Y6184922D1*
X7273927Y6180042D1*
X7263703Y6176722D1*
X7253087Y6175039D1*
X7242340D1*
X7231723Y6176722D1*
X7221500Y6180042D1*
X7211923Y6184922D1*
X7203227Y6191242D1*
X7199323Y6194849D1*
X7183017Y6194829D1*
X7109917Y6121939D1*
X7103757Y6117466D1*
X7096977Y6114009D1*
X7088500Y6111412D1*
X7089740Y6111659D1*
X7088500Y6111412D1*
X6264110Y5122386D2*
X6275160Y5111336D1*
X6275150Y5597576D1*
X6264117Y5608546D1*
X6264123Y5122282D1*
X6275197Y4986949D2*
X6267617Y4983186D1*
X6257393Y4979866D1*
X6246777Y4978182D1*
X6236030D1*
X6225413Y4979866D1*
X6215190Y4983186D1*
X6205613Y4988066D1*
X6202693Y4990016D1*
X5271183Y4058469D1*
X5271250Y3634042D1*
X5278167Y3625942D1*
X5283783Y3616779D1*
X5287897Y3606846D1*
X5290407Y3596396D1*
X5290567Y3595039D1*
X5841537Y4146056D1*
X5835100Y4150889D1*
X5827500Y4158489D1*
X5821180Y4167186D1*
X5816300Y4176762D1*
X5812980Y4186986D1*
X5811297Y4197602D1*
Y4208349D1*
X5812980Y4218966D1*
X5816300Y4229189D1*
X5821180Y4238766D1*
X5827500Y4247462D1*
X5835100Y4255062D1*
X5843797Y4261382D1*
X5853373Y4266262D1*
X5863597Y4269582D1*
X5874213Y4271266D1*
X5879523Y4271472D1*
X6275183Y4667162D1*
X6275150Y4986832D1*
X8109253Y3981006D2*
X7131943Y4958319D1*
X7121333Y4959142D1*
X7110883Y4961652D1*
X7100950Y4965766D1*
X7091787Y4971382D1*
X7083613Y4978362D1*
X7076633Y4986536D1*
X7071017Y4995699D1*
X7066903Y5005632D1*
X7064393Y5016082D1*
X7063550Y5026799D1*
X7064393Y5037516D1*
X7066903Y5047966D1*
X7071017Y5057899D1*
X7076633Y5067062D1*
X7083613Y5075236D1*
X7091787Y5082216D1*
X7100950Y5087832D1*
X7110883Y5091946D1*
X7121333Y5094456D1*
X7132050Y5095299D1*
X7142767Y5094456D1*
X7153217Y5091946D1*
X7163150Y5087832D1*
X7172313Y5082216D1*
X7180487Y5075236D1*
X7187467Y5067062D1*
X7193083Y5057899D1*
X7197197Y5047966D1*
X7199707Y5037516D1*
X7200547Y5026862D1*
X8161853Y4065586D1*
X8170127Y4066719D1*
X8180873D1*
X8191490Y4065036D1*
X8201713Y4061716D1*
X8211290Y4056836D1*
X8219987Y4050516D1*
X8227587Y4042916D1*
X8233907Y4034219D1*
X8238787Y4024642D1*
X8242107Y4014419D1*
X8243790Y4003802D1*
Y3993056D1*
X8242107Y3982439D1*
X8238787Y3972216D1*
X8233907Y3962639D1*
X8227587Y3953942D1*
X8219987Y3946342D1*
X8211290Y3940022D1*
X8201713Y3935142D1*
X8191490Y3931822D1*
X8180873Y3930139D1*
X8170127D1*
X8159510Y3931822D1*
X8149287Y3935142D1*
X8139710Y3940022D1*
X8131013Y3946342D1*
X8123413Y3953942D1*
X8117093Y3962639D1*
X8112213Y3972216D1*
X8109297Y3981002D1*
X3195710Y4328032D2*
X3204143Y4327469D1*
X3211543Y4325692D1*
X3218577Y4322779D1*
X3225063Y4318802D1*
X3230850Y4313859D1*
X3235793Y4308072D1*
X3239770Y4301586D1*
X3242683Y4294552D1*
X3244460Y4287152D1*
X3245057Y4279566D1*
X4972767Y3574169D2*
X5155187D1*
X5154250Y3585679D1*
X5155093Y3596396D1*
X5157603Y3606846D1*
X5161717Y3616779D1*
X5167333Y3625942D1*
X5174270Y3634069D1*
X5174250Y4022546D1*
X4953710Y3801932D1*
X4953750Y3634026D1*
X4960667Y3625942D1*
X4966283Y3616779D1*
X4970397Y3606846D1*
X4972907Y3596396D1*
X4973750Y3585679D1*
X4972740Y3574119D1*
X6092800Y7665949D2*
X6910083D1*
X6971010Y7726682D1*
X6977487Y7731386D1*
X6984617Y7735019D1*
X6992227Y7737492D1*
X7000133Y7738746D1*
X7029133Y7738902D1*
X7087190D1*
X7092650Y7743319D1*
X7101813Y7748936D1*
X7111747Y7753049D1*
X7122197Y7755559D1*
X7132913Y7756402D1*
X7143630Y7755559D1*
X7154080Y7753049D1*
X7164013Y7748936D1*
X7173177Y7743319D1*
X7181350Y7736339D1*
X7188330Y7728166D1*
X7193947Y7719002D1*
X7198060Y7709069D1*
X7200570Y7698619D1*
X7201413Y7687902D1*
X7200570Y7677186D1*
X7198060Y7666736D1*
X7193947Y7656802D1*
X7188330Y7647639D1*
X7181350Y7639466D1*
X7173177Y7632486D1*
X7164013Y7626869D1*
X7154080Y7622756D1*
X7143630Y7620246D1*
X7132913Y7619402D1*
X7122197Y7620246D1*
X7111747Y7622756D1*
X7101813Y7626869D1*
X7092650Y7632486D1*
X7087207Y7636942D1*
X7025247Y7636902D1*
X6964303Y7576169D1*
X6957827Y7571466D1*
X6950697Y7567832D1*
X6943087Y7565359D1*
X6935180Y7564106D1*
X6906180Y7563949D1*
X6092753D1*
X6087310Y7559532D1*
X6078147Y7553916D1*
X6068213Y7549802D1*
X6057763Y7547292D1*
X6047047Y7546449D1*
X6036330Y7547292D1*
X6025880Y7549802D1*
X6015947Y7553916D1*
X6006783Y7559532D1*
X5998610Y7566512D1*
X5991630Y7574686D1*
X5986013Y7583849D1*
X5981900Y7593782D1*
X5979390Y7604232D1*
X5978547Y7614949D1*
X5979390Y7625666D1*
X5981900Y7636116D1*
X5986013Y7646049D1*
X5991630Y7655212D1*
X5998610Y7663386D1*
X6006783Y7670366D1*
X6015947Y7675982D1*
X6025880Y7680096D1*
X6036330Y7682606D1*
X6047047Y7683449D1*
X6057763Y7682606D1*
X6068213Y7680096D1*
X6078147Y7675982D1*
X6087310Y7670366D1*
X6092753Y7665909D1*
X5845907Y7294102D2*
X6288973D1*
X6385853Y7390776D1*
X6392013Y7395249D1*
X6398793Y7398706D1*
X6406030Y7401056D1*
X6413547Y7402246D1*
X6442353Y7402396D1*
X6451873D1*
X6460003Y7409312D1*
X6469167Y7414929D1*
X6479100Y7419042D1*
X6489550Y7421552D1*
X6500267Y7422396D1*
X6510983Y7421552D1*
X6521433Y7419042D1*
X6531367Y7414929D1*
X6540530Y7409312D1*
X6548703Y7402332D1*
X6555683Y7394159D1*
X6561300Y7384996D1*
X6565413Y7375062D1*
X6567923Y7364612D1*
X6568767Y7353896D1*
X6567923Y7343179D1*
X6565413Y7332729D1*
X6561300Y7322796D1*
X6555683Y7313632D1*
X6548703Y7305459D1*
X6540530Y7298479D1*
X6531367Y7292862D1*
X6521433Y7288749D1*
X6510983Y7286239D1*
X6500267Y7285396D1*
X6489550Y7286239D1*
X6479100Y7288749D1*
X6469167Y7292862D1*
X6460003Y7298479D1*
X6451877Y7305416D1*
X6437423Y7305396D1*
X6340560Y7208722D1*
X6334400Y7204249D1*
X6327620Y7200792D1*
X6320383Y7198442D1*
X6312867Y7197252D1*
X6284060Y7197102D1*
X5845927D1*
X5837780Y7190186D1*
X5828617Y7184569D1*
X5818683Y7180456D1*
X5808233Y7177946D1*
X5797517Y7177102D1*
X5786800Y7177946D1*
X5776350Y7180456D1*
X5766417Y7184569D1*
X5757253Y7190186D1*
X5749080Y7197166D1*
X5742100Y7205339D1*
X5736483Y7214502D1*
X5732370Y7224436D1*
X5729860Y7234886D1*
X5729017Y7245602D1*
X5729860Y7256319D1*
X5732370Y7266769D1*
X5736483Y7276702D1*
X5742100Y7285866D1*
X5749080Y7294039D1*
X5757253Y7301019D1*
X5766417Y7306636D1*
X5776350Y7310749D1*
X5786800Y7313259D1*
X5797517Y7314102D1*
X5808233Y7313259D1*
X5818683Y7310749D1*
X5828617Y7306636D1*
X5837780Y7301019D1*
X5845907Y7294082D1*
X7364330Y8521236D2*
D19*
Y8332786D1*
X7262380Y8521236D2*
X7466280D1*
X8830300Y7955756D2*
Y7783856D1*
X8729350Y7869806D2*
X8931250D1*
X8330300Y7955756D2*
Y7783856D1*
X8229350Y7869806D2*
X8431250D1*
X8230300Y8139806D2*
Y8023829D1*
X8147323Y8139806D2*
X8388777D1*
X8930300D2*
Y8023829D1*
X8771823Y8139806D2*
X9013277D1*
D32*
X7618330Y8521236D3*
X7364330D3*
X7110330D3*
X6856330D3*
X6602330D3*
X6348330D3*
D35*
X8830300Y7869806D3*
X8330300D3*
D86*
X8230300Y8139806D3*
D89*
X8930300D3*
M02*
