%TF.GenerationSoftware,Novarm,DipTrace,3.0.0.2*%
%TF.CreationDate,2017-10-23T18:10:33+01:00*%
%FSLAX35Y35*%
%MOMM*%
%TF.FileFunction,Drawing,Board polygon*%
%TF.Part,Single*%
G75*
G01*
%LPD*%
G36*
X7583500Y2063272D2*
X7232687Y2238739D1*
X7094193Y2443179D1*
X4782693D1*
X4513500Y2063272D1*
X3853500Y1143272D1*
G02X3413000Y1013929I-329375J306971D01*
G01*
X1920750Y1744179D1*
G02X1730250Y1934679I174625J365125D01*
G01*
X1381000Y3045929D1*
X1317500Y3141179D1*
X1158750D1*
X1003500Y3263272D1*
X1000000Y3363429D1*
X1133500Y4223272D1*
X2067500Y5245272D1*
X3682500Y6359272D1*
X3889250Y6474929D1*
Y6760679D1*
Y6982929D1*
Y7205179D1*
Y7935429D1*
G02X4968750Y9078429I1204402J-56227D01*
G01*
X5381500D1*
X5508500Y9205429D1*
Y9745179D1*
X6080000D1*
Y9237179D1*
X6111750Y9205429D1*
X7858000D1*
G02X7985000Y9046679I-38554J-161018D01*
G01*
Y8824429D1*
Y8506929D1*
G02X8071263Y8285199I-327187J-254936D01*
G01*
X9064500Y8284679D1*
X9212610Y8284519D1*
X9287060Y8468959D1*
X9532417Y8512952D1*
X9806783Y8231149D1*
X9799213Y6849976D1*
X8895470Y5958756D1*
G03X8994807Y5717106I104888J-98125D01*
G01*
X9663500Y5643272D1*
X9943500Y5463272D1*
X10033500Y5433272D1*
X10143500Y5383272D1*
X10203500Y5343272D1*
X10283500Y5283272D1*
X11123500Y4223272D1*
X11273500Y3343272D1*
X11153500Y3173272D1*
X10969500Y3109429D1*
G02X10843500Y2903272I-394970J99817D01*
G01*
X10603500Y2213272D1*
X9733500Y1533272D1*
G02X9493500Y1473272I-213125J342500D01*
G01*
X8503500Y1593272D1*
X7583500Y2063272D1*
G37*
%LPC*%
G36*
X7723633Y9039922D2*
X6223633D1*
X6148633Y9019826D1*
X6093730Y8964919D1*
X6073633Y8889919D1*
X6093730Y8814919D1*
X6148637Y8760016D1*
X6223637Y8739919D1*
X7723633Y8739922D1*
X7798633Y8760019D1*
X7853537Y8814919D1*
X7873633Y8889919D1*
X7853537Y8964919D1*
X7798637Y9019822D1*
X7723637Y9039919D1*
G37*
M02*
