%TF.GenerationSoftware,Novarm,DipTrace,3.0.0.2*%
%TF.CreationDate,2017-10-23T18:10:30+01:00*%
%FSLAX35Y35*%
%MOMM*%
%TF.FileFunction,Paste,Top*%
%TF.Part,Single*%
%AMOUTLINE2*
4,1,4,
-2.76832,0.80963,
-0.80963,2.76832,
2.76832,-0.80963,
0.80963,-2.76832,
-2.76832,0.80963,
0*%
%AMOUTLINE5*
4,1,4,
-1.3825,0.69,
1.3825,0.69,
1.3825,-0.69,
-1.3825,-0.69,
-1.3825,0.69,
0*%
%AMOUTLINE14*
4,1,4,
0.52474,0.13921,
0.04868,-0.54071,
-0.52474,-0.13921,
-0.04868,0.54071,
0.52474,0.13921,
0*%
%AMOUTLINE17*
4,1,4,
0.04597,-0.54092,
-0.54092,0.04597,
-0.04597,0.54092,
0.54092,-0.04597,
0.04597,-0.54092,
0*%
%AMOUTLINE20*
4,1,4,
-0.51061,-0.18441,
-0.09561,0.53441,
0.51061,0.18441,
0.09561,-0.53441,
-0.51061,-0.18441,
0*%
%AMOUTLINE23*
4,1,4,
0.07419,-0.53778,
-0.54261,0.01757,
-0.07419,0.53778,
0.54261,-0.01757,
0.07419,-0.53778,
0*%
%AMOUTLINE26*
4,1,4,
0.51061,0.18441,
0.09561,-0.53441,
-0.51061,-0.18441,
-0.09561,0.53441,
0.51061,0.18441,
0*%
%AMOUTLINE29*
4,1,4,
-0.54092,-0.04597,
0.04597,0.54092,
0.54092,0.04597,
-0.04597,-0.54092,
-0.54092,-0.04597,
0*%
%AMOUTLINE32*5,1,4,0,0,1.1031,-169.99984*%
%AMOUTLINE35*5,1,4,0,0,1.10312,-90.0*%
%AMOUTLINE38*5,1,4,0,0,1.10306,-165.00073*%
%AMOUTLINE41*5,1,4,0,0,1.10307,-87.00052*%
%AMOUTLINE44*5,1,4,0,0,1.10306,14.99927*%
%AMOUTLINE47*5,1,4,0,0,1.10312,-180.0*%
%ADD48R,0.78X0.78*%
%ADD50R,1.08X0.58*%
%ADD52R,0.28X1.58*%
%ADD54R,1.58X0.28*%
%ADD56R,1.48X1.53*%
%ADD60R,0.38X1.33*%
%ADD66R,1.08X0.98*%
%ADD68R,0.83X0.7*%
%ADD70R,0.7X0.83*%
%ADD72R,2.765X1.38*%
%ADD74R,1.38X2.765*%
%ADD82OUTLINE2*%
%ADD85OUTLINE5*%
%ADD94OUTLINE14*%
%ADD97OUTLINE17*%
%ADD100OUTLINE20*%
%ADD103OUTLINE23*%
%ADD106OUTLINE26*%
%ADD109OUTLINE29*%
%ADD112OUTLINE32*%
%ADD115OUTLINE35*%
%ADD118OUTLINE38*%
%ADD121OUTLINE41*%
%ADD124OUTLINE44*%
%ADD127OUTLINE47*%
G75*
G01*
%LPD*%
D82*
X4212443Y7251529D3*
X5765957Y8805042D3*
D85*
X5149499Y5416272D3*
X5706499D3*
X5149499Y4966272D3*
X5706499D3*
D74*
X2426000Y4482772D3*
Y5039772D3*
X2876000Y4482772D3*
Y5039772D3*
X9513500Y4558772D3*
Y5115772D3*
X9963500Y4558772D3*
Y5115772D3*
D72*
X9989000Y2410772D3*
X9432000D3*
X9989000Y2860772D3*
X9432000D3*
D74*
X1776000Y4026772D3*
Y3469772D3*
X1326000Y4026772D3*
Y3469772D3*
D72*
X3461000Y3948272D3*
X4018000D3*
X3461000Y3498272D3*
X4018000D3*
X8915500Y3510772D3*
X8358500D3*
X8915500Y3960772D3*
X8358500D3*
D74*
X10976000Y3981772D3*
Y3424772D3*
X10526000Y3981772D3*
Y3424772D3*
D72*
X2378000Y2860772D3*
X2935000D3*
X2378000Y2410772D3*
X2935000D3*
D70*
X6524500Y6783272D3*
Y6628272D3*
X5889500Y6625322D3*
Y6780322D3*
X5762500Y6625322D3*
Y6780322D3*
D68*
X6642357Y5295049D3*
X6487357D3*
D70*
X6651500Y6784072D3*
Y6629072D3*
D68*
X6709223Y6325746D3*
X6864223D3*
D70*
X5635500Y6053022D3*
Y6208022D3*
Y5735522D3*
Y5890522D3*
X8610890Y7461976D3*
Y7616976D3*
D68*
X7882657Y7129882D3*
X8037657D3*
D70*
X7917450Y7889352D3*
Y8044352D3*
D66*
X7876683Y6890966D3*
X8046683D3*
G36*
X5549343Y9500616D2*
X5609336D1*
Y9550616D1*
X5549343D1*
Y9500616D1*
G37*
G36*
X5715343D2*
X5655351D1*
Y9550616D1*
X5715343D1*
Y9500616D1*
G37*
G36*
Y9580616D2*
X5654338D1*
Y9700616D1*
X5715343D1*
Y9580616D1*
G37*
G36*
X5610348D2*
X5549343D1*
Y9700616D1*
X5610348D1*
Y9580616D1*
G37*
D60*
X8710300Y7869806D3*
X8645300D3*
X8580300D3*
X8515300D3*
X8450300D3*
D56*
X8480300Y8139806D3*
X8680300D3*
G36*
X5873947Y9500616D2*
X5933939D1*
Y9550616D1*
X5873947D1*
Y9500616D1*
G37*
G36*
X6039947D2*
X5979954D1*
Y9550616D1*
X6039947D1*
Y9500616D1*
G37*
G36*
Y9580616D2*
X5978942D1*
Y9700616D1*
X6039947D1*
Y9580616D1*
G37*
G36*
X5934952D2*
X5873947D1*
Y9700616D1*
X5934952D1*
Y9580616D1*
G37*
D70*
X6143500Y6624522D3*
Y6779522D3*
X6397500Y6783272D3*
Y6628272D3*
X5635500Y6784072D3*
Y6629072D3*
X6270500Y6624522D3*
Y6779522D3*
X8094860Y8047746D3*
Y7892746D3*
D94*
X4291460Y1985762D3*
X4202553Y1858796D3*
D70*
X7468413Y5676402D3*
Y5831402D3*
X6554917Y4844389D3*
Y4689389D3*
D97*
X6915500Y4076272D3*
X7025100Y3966672D3*
D100*
X5256000Y4297772D3*
X5178500Y4163539D3*
D97*
X6885500Y3089272D3*
X6995100Y2979672D3*
X7464500Y4394272D3*
X7574100Y4284672D3*
D103*
X7906500Y2304272D3*
X8021687Y2200559D3*
D97*
X4459180Y5367369D3*
X4349580Y5476969D3*
D70*
X6016500Y6625322D3*
Y6780322D3*
X5392247Y5661886D3*
Y5816886D3*
D106*
X5827500Y4107272D3*
X5750000Y3973039D3*
D109*
X8823500Y6379272D3*
X8933100Y6488872D3*
D94*
X5028053Y3065296D3*
X4939147Y2938329D3*
D54*
X5888403Y6201636D3*
Y6151636D3*
Y6101636D3*
Y6051636D3*
Y6001636D3*
Y5951636D3*
Y5901636D3*
Y5851636D3*
Y5801636D3*
Y5751636D3*
Y5701636D3*
Y5651636D3*
D52*
X6033403Y5506636D3*
X6083403D3*
X6133403D3*
X6183403D3*
X6233403D3*
X6283403D3*
X6333403D3*
X6383403D3*
X6433403D3*
X6483403D3*
X6533403D3*
X6583403D3*
D54*
X6728403Y5651636D3*
Y5701636D3*
Y5751636D3*
Y5801636D3*
Y5851636D3*
Y5901636D3*
Y5951636D3*
Y6001636D3*
Y6051636D3*
Y6101636D3*
Y6151636D3*
Y6201636D3*
D52*
X6583403Y6346636D3*
X6533403D3*
X6483403D3*
X6433403D3*
X6383403D3*
X6333403D3*
X6283403D3*
X6233403D3*
X6183403D3*
X6133403D3*
X6083403D3*
X6033403D3*
D50*
X8420390Y7430226D3*
Y7525226D3*
Y7620226D3*
X8150390D3*
Y7430226D3*
D112*
X3828500Y1369272D3*
X3920273Y1500336D3*
D48*
X7468413Y6154602D3*
Y5994602D3*
X6557500Y3763272D3*
Y3923272D3*
D115*
X7463576Y3826623D3*
X7350439Y3939760D3*
D118*
X4843203Y3859899D3*
X4923203Y3998462D3*
D115*
X7495733Y2740973D3*
X7382596Y2854110D3*
X7960649Y4106616D3*
X7847513Y4219753D3*
D121*
X8440333Y1795212D3*
X8321430Y1902276D3*
D115*
X4144501Y5885271D3*
X4257637Y5772135D3*
D48*
X7407500Y7683272D3*
X7247500D3*
X5392247Y6202886D3*
Y6042886D3*
D124*
X5375383Y3656269D3*
X5455383Y3794832D3*
D127*
X9358499Y6647271D3*
X9245362Y6534135D3*
D112*
X4647053Y2525546D3*
X4738827Y2656609D3*
G36*
X8272583Y8207716D2*
X8338277D1*
Y8071002D1*
X8272583D1*
Y8207716D1*
G37*
G36*
X8822530Y8206402D2*
X8888223D1*
Y8069689D1*
X8822530D1*
Y8206402D1*
G37*
M02*
